<svg width="702" height="1010" viewBox="0 0 702 1010" fill="none" xmlns="http://www.w3.org/2000/svg">
<g id="blog-graphic">
<path id="Subtract" fill-rule="evenodd" clip-rule="evenodd" d="M234.863 493.041L233.664 498L232.071 505.414L230.627 512.859L229.319 520.219L228.135 527.396L227.059 534.317L226.075 540.925L225.169 547.179L224.324 553.053L223.528 558.531L222.767 563.606L222.028 568.276L221.299 572.547L220.571 576.425L219.833 579.92L219.076 583.043L218.29 585.805L217.467 588.217L216.6 590.289L215.678 592.031L214.696 593.453L213.643 594.56L212.512 595.36L211.294 595.856L209.98 596.054L208.561 595.954L207.025 595.557L205.363 594.863L203.563 593.869L201.614 592.575L199.503 590.975L197.217 589.066L194.742 586.843L192.065 584.304L189.172 581.445L186.049 578.264L182.684 574.762L179.065 570.944L175.184 566.82L171.034 562.405L166.616 557.723L161.934 552.808L157.001 547.705L151.841 542.475L146.489 537.192L140.992 531.949L135.413 526.853L129.829 522.029L124.334 517.612L119.031 513.743L114.033 510.567L109.455 508.216L105.408 506.806L101.992 506.424L99.2855 507.12L97.3438 508.905L96.1911 511.744L95.8207 515.566L96.1962 520.262L97.2557 525.698L98.9178 531.726L101.088 538.192L103.666 544.946L106.552 551.85L109.65 558.781L112.873 565.634L116.145 572.324L119.399 578.785L122.581 584.967L125.647 590.836L128.562 596.372L131.3 601.562L133.842 606.403L136.172 610.898L138.282 615.055L140.164 618.883L141.816 622.397L143.234 625.609L144.417 628.533L145.365 631.184L146.078 633.576L146.554 635.722L146.793 637.635L146.793 639.326L146.551 640.806L146.065 642.084L145.329 643.17L144.339 644.072L143.087 644.796L141.565 645.349L139.765 645.737L137.676 645.964L135.287 646.037L132.585 645.958L129.558 645.733L126.192 645.367L122.473 644.863L118.389 644.229L113.929 643.47L109.083 642.597L103.846 641.619L98.2155 640.549L92.1993 639.405L85.8117 638.207L79.079 636.98L72.0415 635.753L64.7558 634.564L57.2975 633.452L49.7632 632.466L42.2708 631.657L34.9592 631.078L27.9853 630.786L21.519 630.835L15.7353 631.271L10.8046 632.134L6.88074 633.449L4.08973 635.225L2.51905 637.454L2.21017 640.108L3.155 643.143L5.29703 646.503L8.53677 650.119L12.7409 653.92L17.753 657.834L23.4053 661.793L29.5291 665.735L35.9635 669.61L42.5616 673.375L49.195 676.999L55.7546 680.46L62.1518 683.743L68.3167 686.844L74.1961 689.759L79.7517 692.494L84.9573 695.054L89.7965 697.45L94.2607 699.692L98.3473 701.792L102.058 703.762L105.397 705.615L108.371 707.363L110.988 709.019L113.255 710.593L115.18 712.099L116.771 713.546L118.034 714.946L118.974 716.308L119.595 717.643L119.9 718.961L119.89 720.272L119.566 721.584L118.925 722.909L117.966 724.255L116.683 725.633L115.071 727.053L113.123 728.525L110.833 730.061L108.192 731.672L105.192 733.369L101.826 735.165L98.0863 737.072L93.9684 739.101L89.4706 741.267L84.5952 743.58L79.3507 746.051L73.753 748.691L67.8283 751.506L61.6147 754.5L55.1651 757.675L48.5494 761.023L41.8565 764.534L35.1953 768.187L28.6948 771.953L22.5023 775.791L16.7795 779.655L11.696 783.485L7.42082 787.216L4.11169 790.779L1.90333 794.105L0.896729 797.127L1.14975 799.789L2.67167 802.047L5.42193 803.874L9.31358 805.258L14.2208 806.208L19.9894 806.745L26.4486 806.904L33.4226 806.732L40.7406 806.279L48.2446 805.597L55.7945 804.738L63.2714 803.753L70.5779 802.687L77.6375 801.579L84.3927 800.464L90.8028 799.373L96.8408 798.329L102.491 797.354L107.748 796.463L112.612 795.67L117.087 794.985L121.184 794.419L124.914 793.976L128.289 793.665L131.323 793.49L134.028 793.455L136.419 793.566L138.506 793.827L140.302 794.244L141.817 794.821L143.059 795.565L144.036 796.481L144.756 797.578L145.223 798.862L145.441 800.344L145.415 802.033L145.147 803.939L144.637 806.075L143.886 808.452L142.896 811.085L141.666 813.987L140.196 817.172L138.488 820.654L136.544 824.448L134.367 828.566L131.963 833.019L129.343 837.813L126.52 842.954L123.514 848.436L120.351 854.251L117.067 860.376L113.705 866.779L110.322 873.411L106.984 880.208L103.768 887.085L100.765 893.941L98.0706 900.653L95.7881 907.085L94.0202 913.089L92.8638 918.512L92.4031 923.208L92.7025 927.043L93.8002 929.911L95.7045 931.738L98.3919 932.489L101.808 932.173L105.873 930.84L110.485 928.574L115.533 925.488L120.897 921.715L126.465 917.394L132.128 912.667L137.792 907.668L143.377 902.519L148.819 897.326L154.068 892.183L159.087 887.162L163.853 882.324L168.352 877.715L172.578 873.367L176.53 869.306L180.215 865.547L183.64 862.099L186.818 858.968L189.761 856.155L192.482 853.658L194.995 851.475L197.315 849.602L199.454 848.035L201.426 846.77L203.244 845.805L204.918 845.136L206.461 844.762L207.884 844.683L209.195 844.9L210.405 845.414L211.523 846.23L212.558 847.352L213.517 848.787L214.41 850.542L215.243 852.625L216.025 855.047L216.765 857.819L217.47 860.951L218.15 864.454L218.813 868.341L219.47 872.62L220.13 877.298L220.806 882.381L221.51 887.868L222.255 893.752L223.056 900.017L223.928 906.638L224.888 913.573L225.95 920.768L227.133 928.147L228.451 935.615L229.918 943.055L231.545 950.328L233.339 957.276L235.301 963.725L237.427 969.494L239.703 974.405L242.111 978.292L244.623 981.015L247.206 982.471L249.823 982.605L252.435 981.412L255.003 978.939L257.492 975.28L259.872 970.57L262.118 964.969L264.214 958.656L266.152 951.811L267.927 944.61L269.545 937.214L271.012 929.766L272.341 922.385L273.544 915.173L274.636 908.207L275.633 901.546L276.551 895.234L277.404 889.298L278.207 883.756L278.973 878.617L279.715 873.882L280.444 869.548L281.172 865.608L281.908 862.053L282.662 858.871L283.442 856.053L284.258 853.586L285.118 851.46L286.031 849.666L287.003 848.194L288.044 847.038L289.162 846.189L290.365 845.644L290.768 845.534L292.098 845.384L293.536 845.531L295.09 845.976L296.774 846.717L298.596 847.758L300.57 849.101L302.708 850.75L305.024 852.709L307.53 854.982L310.24 857.572L313.169 860.482L316.33 863.715L319.735 867.267L323.395 871.134L327.319 875.306L331.511 879.765L335.972 884.487L340.695 889.436L345.666 894.563L350.859 899.807L356.238 905.09L361.753 910.317L367.338 915.378L372.914 920.147L378.386 924.487L383.648 928.254L388.587 931.308L393.087 933.516L397.04 934.767L400.348 934.98L402.936 934.11L404.752 932.154L405.779 929.152L406.028 925.183L405.539 920.36L404.377 914.82L402.628 908.712L400.386 902.19L397.752 895.402L394.826 888.486L391.702 881.562L388.467 874.73L385.194 868.072L381.948 861.653L378.782 855.519L375.738 849.701L372.849 844.22L370.141 839.086L367.632 834.3L365.337 829.86L363.263 825.756L361.417 821.978L359.802 818.514L358.422 815.348L357.276 812.469L356.365 809.859L355.69 807.508L355.252 805.399L355.051 803.523L355.089 801.866L355.369 800.419L355.895 799.172L356.671 798.116L357.702 797.243L358.997 796.547L360.562 796.02L362.407 795.658L364.543 795.456L366.982 795.408L369.734 795.51L372.815 795.758L376.236 796.146L380.012 796.671L384.155 797.326L388.676 798.103L393.584 798.994L398.884 799.988L404.577 801.07L410.653 802.224L417.098 803.429L423.882 804.659L430.964 805.882L438.282 807.061L445.76 808.156L453.296 809.118L460.769 809.894L468.038 810.431L474.943 810.672L481.312 810.565L485.919 810.156L485.582 807.79L484.655 794.761L484.435 783.891L483.245 782.979L477.506 779.019L471.323 775.084L464.853 771.224L458.241 767.48L451.612 763.88L445.073 760.447L438.709 757.192L432.586 754.122L426.756 751.235L421.255 748.529L416.107 745.995L411.327 743.625L406.923 741.406L402.896 739.328L399.245 737.377L395.965 735.542L393.048 733.809L390.487 732.167L388.275 730.604L386.404 729.109L384.865 727.67L383.654 726.277L382.766 724.919L382.195 723.588L381.94 722.272L382 720.962L382.374 719.648L383.065 718.321L384.076 716.97L385.411 715.586L387.076 714.158L389.078 712.677L391.423 711.13L394.121 709.506L397.179 707.794L400.604 705.981L404.404 704.056L408.582 702.005L413.14 699.817L418.075 697.479L423.377 694.982L429.029 692.315L435.003 689.471L441.258 686.448L447.739 683.245L454.374 679.87L461.069 676.335L467.714 672.662L474.176 668.882L480.305 665.035L485.937 661.173L490.903 657.355L495.034 653.645L496.744 651.725L498.811 639.063L495.891 637.318L491.829 636.003L486.773 635.122L480.883 634.648L474.33 634.544L467.29 634.764L459.932 635.258L452.412 635.971L444.867 636.853L437.411 637.854L430.139 638.93L423.125 640.041L416.422 641.154L410.07 642.239L404.093 643.273L398.505 644.236L393.311 645.112L388.509 645.889L385.813 646.295L384.925 647.043L371.952 657.604L358.696 667.989L345.358 677.97L332.173 687.297L319.407 695.71L307.345 702.949L296.283 708.766L286.509 712.94L278.289 715.294L271.853 715.703L267.376 714.107L264.97 710.517L264.676 705.01L266.459 697.732L270.217 688.88L275.783 678.697L282.943 667.452L291.445 655.426L301.019 642.896L311.387 630.126L322.282 617.352L333.454 604.782L344.677 592.585L355.758 580.896L366.534 569.815L376.876 559.411L386.683 549.724L395.883 540.772L404.426 532.555L407.433 529.685L408.067 527.446L409.118 522.129L409.461 517.562L409.036 513.875L407.81 511.169L405.778 509.512L402.971 508.933L399.445 509.415L395.286 510.903L390.597 513.308L385.491 516.512L380.086 520.382L374.497 524.777L368.828 529.556L363.171 534.587L357.605 539.75L352.191 544.94L346.976 550.069L341.996 555.064L337.271 559.868L332.816 564.438L328.634 568.741L324.725 572.755L321.082 576.465L317.697 579.862L314.557 582.943L311.651 585.705L308.964 588.152L306.482 590.286L304.192 592.11L302.08 593.629L300.134 594.845L298.34 595.764L296.687 596.385L295.164 596.712L293.76 596.744L292.465 596.48L291.27 595.918L290.166 595.053L289.144 593.882L288.196 592.397L287.313 590.591L286.489 588.454L285.714 585.977L284.98 583.149L284.28 579.958L283.603 576.394L282.942 572.446L282.285 568.104L281.623 563.361L280.943 558.214L280.234 552.663L279.481 546.717L278.669 540.393L277.785 533.719L276.81 526.738L275.729 519.509L274.526 512.109L273.185 504.636L271.693 497.213L270.548 492.205L268.25 492.325L251.428 492.876L234.863 493.041Z" fill="#F4A24C" fill-opacity="0.5"/>
<path id="Vector" fill-rule="evenodd" clip-rule="evenodd" d="M652.622 927.889L651.654 928.418L650.801 929.355L650.05 930.7L649.386 932.444L648.791 934.576L648.249 937.076L647.742 939.915L647.249 943.053L646.75 946.438L646.223 950.001L645.645 953.658L644.996 957.311L644.255 960.844L643.406 964.134L642.435 967.052L641.336 969.469L640.107 971.273L638.757 972.37L637.298 972.696L635.752 972.227L634.144 970.977L632.501 969L630.852 966.386L629.224 963.255L627.639 959.743L626.115 955.995L624.665 952.159L623.294 948.375L622.001 944.772L620.783 941.466L619.63 938.562L618.527 936.155L617.459 934.331L616.403 933.181L615.335 932.797L614.23 933.238L613.066 934.425L611.829 936.264L610.505 938.666L609.087 941.54L607.569 944.79L605.952 948.31L604.242 951.98L602.451 955.669L600.6 959.237L598.713 962.539L596.822 965.43L594.962 967.781L593.169 969.48L591.481 970.445L589.927 970.631L588.534 970.035L587.317 968.69L586.284 966.667L585.43 964.063L584.746 960.996L584.21 957.591L583.799 953.977L583.484 950.275L583.235 946.592L583.022 943.025L582.816 939.651L582.591 936.534L582.321 933.722L581.983 931.25L581.557 929.145L581.025 927.422L580.368 926.092L579.573 925.158L578.625 924.621L577.512 924.477L576.223 924.719L574.748 925.335L573.081 926.309L571.219 927.622L569.161 929.244L566.912 931.141L564.485 933.267L561.899 935.567L559.184 937.971L556.377 940.399L553.528 942.76L550.698 944.951L547.954 946.865L545.371 948.396L543.024 949.445L540.987 949.925L539.321 949.776L538.075 948.964L537.277 947.488L536.933 945.383L537.024 942.713L537.511 939.571L538.334 936.067L539.421 932.322L540.69 928.459L542.056 924.597L543.434 920.845L544.741 917.3L545.899 914.045L546.835 911.151L547.478 908.682L547.758 906.692L547.602 905.235L546.928 904.37L545.696 904.103L543.949 904.355L541.735 905.045L539.103 906.096L536.105 907.434L532.801 908.981L529.262 910.655L525.571 912.367L521.826 914.025L518.132 915.533L514.604 916.796L511.358 917.728L508.503 918.252L506.136 918.31L504.332 917.869L503.138 916.919L502.57 915.478L502.614 913.585L503.225 911.304L504.331 908.708L505.848 905.881L507.677 902.908L509.716 899.869L511.869 896.836L514.042 893.872L516.155 891.029L518.137 888.344L519.929 885.849L521.482 883.56L522.757 881.492L523.725 879.647L524.361 878.027L524.647 876.626L524.569 875.439L524.117 874.456L523.286 873.665L522.071 873.054L520.475 872.607L518.502 872.309L516.165 872.139L513.483 872.078L510.484 872.099L507.211 872.176L503.715 872.277L500.067 872.369L496.35 872.413L492.665 872.371L489.124 872.204L485.851 871.873L482.971 871.347L480.604 870.599L478.857 869.612L477.814 868.382L477.525 866.916L478.005 865.234L479.23 863.369L481.137 861.359L483.63 859.249L486.591 857.088L489.882 854.92L493.361 852.786L496.889 850.721L500.33 848.752L503.562 846.899L506.474 845.174L508.965 843.585L510.943 842.132L512.317 840.812L512.996 839.619L512.881 838.543L511.966 837.562L510.34 836.641L508.091 835.75L505.305 834.862L502.072 833.954L498.489 833.007L494.666 832.003L490.727 830.928L486.806 829.776L483.049 828.541L479.604 827.227L476.614 825.841L474.208 824.398L472.493 822.916L471.54 821.417L471.386 819.925L472.024 818.463L473.409 817.053L475.46 815.711L478.072 814.45L481.123 813.276L484.483 812.19L488.023 811.188L491.624 810.262L495.178 809.399L498.592 808.588L501.79 807.811L504.711 807.053L507.308 806.297L509.546 805.529L511.4 804.731L512.852 803.889L513.894 802.988L514.519 802.014L514.728 800.953L514.522 799.793L513.909 798.523L512.9 797.131L511.511 795.61L509.765 793.952L507.692 792.154L505.331 790.218L502.734 788.148L499.965 785.958L497.1 783.665L494.231 781.299L491.462 778.894L488.906 776.495L486.682 774.153L484.906 771.924L483.685 769.865L483.107 768.033L483.233 766.474L484.091 765.225L485.673 764.309L487.932 763.729L490.789 763.474L494.138 763.513L497.853 763.803L501.801 764.29L505.846 764.913L509.861 765.606L513.727 766.306L517.339 766.949L520.608 767.473L523.453 767.819L525.804 767.928L527.596 767.74L528.76 767.189L529.233 766.208L529.046 764.789L528.294 762.965L527.06 760.77L525.429 758.239L523.483 755.414L521.313 752.343L519.013 749.087L516.69 745.717L514.452 742.315L512.413 738.972L510.685 735.788L509.369 732.86L508.553 730.279L508.301 728.126L508.648 726.46L509.601 725.318L511.135 724.707L513.195 724.61L515.707 724.984L518.578 725.768L521.711 726.886L525.006 728.254L528.368 729.787L531.713 731.401L534.967 733.02L538.073 734.576L540.983 736.01L543.662 737.271L546.088 738.319L548.246 739.121L550.127 739.648L551.729 739.88L553.055 739.8L554.11 739.394L554.903 738.652L555.445 737.567L555.749 736.135L555.83 734.356L555.708 732.234L555.404 729.781L554.944 727.014L554.36 723.963L553.687 720.666L552.968 717.176L552.251 713.561L551.589 709.903L551.04 706.299L550.66 702.857L550.509 699.695L550.637 696.928L551.087 694.669L551.89 693.012L553.057 692.029L554.582 691.759L556.443 692.206L558.597 693.338L560.99 695.088L563.557 697.36L566.232 700.036L568.945 702.988L571.635 706.082L574.246 709.186L576.731 712.177L579.052 714.941L581.181 717.374L583.097 719.381L584.785 720.873L586.233 721.761L587.431 721.95L588.379 721.354L589.112 720.014L589.68 718.016L590.127 715.44L590.491 712.366L590.811 708.882L591.124 705.084L591.463 701.082L591.864 697.002L592.355 692.979L592.966 689.157L593.716 685.683L594.62 682.694L595.683 680.315L596.902 678.641L598.265 677.735L599.751 677.62L601.334 678.279L602.985 679.658L604.673 681.669L606.368 684.205L608.044 687.14L609.68 690.347L611.258 693.7L612.77 697.084L614.209 700.396L615.574 703.548L616.868 706.469L618.099 709.1L619.274 711.397L620.404 713.327L621.5 714.865L622.575 715.996L623.642 716.708L624.713 716.996L625.802 716.858L626.921 716.296L628.084 715.317L629.301 713.931L630.584 712.156L631.943 710.015L633.385 707.541L634.915 704.778L636.536 701.781L638.245 698.621L640.033 695.384L641.889 692.169L643.791 689.088L645.714 686.266L647.626 683.827L649.491 681.894L651.269 680.575L652.923 679.958L654.417 680.099L655.722 681.017L656.82 682.694L657.702 685.071L658.371 688.054L658.842 691.526L659.141 695.351L659.299 699.385L659.355 703.486L659.352 707.519L659.333 711.364L659.343 714.91L659.428 718.062L659.631 720.736L659.999 722.854L660.582 724.341L661.434 725.116L662.602 725.129L664.082 724.453L665.855 723.184L667.902 721.41L670.203 719.218L672.727 716.701L675.44 713.958L678.294 711.098L681.235 708.239L684.197 705.507L687.105 703.029L689.883 700.929L692.451 699.32L694.737 698.296L696.679 697.923L698.229 698.233L699.362 699.226L700.073 700.865L700.378 703.085L700.312 705.795L699.925 708.89L699.279 712.258L698.44 715.788L697.476 719.375L696.452 722.925L695.43 726.36L694.463 729.615L693.601 732.638L692.882 735.391L692.341 737.85L692.007 739.995L691.902 741.817L692.047 743.313L692.457 744.484L693.145 745.334L694.123 745.87L695.397 746.103L696.974 746.047L698.853 745.719L701.033 745.139L703.503 744.332L706.247 743.33L709.24 742.171L712.444 740.9L715.81 739.571L719.274 738.247L722.76 736.996L726.177 735.892L729.425 735.014L732.398 734.437L734.99 734.228L737.103 734.443L738.657 735.122L739.592 736.28L739.88 737.909L739.525 739.978L738.564 742.432L737.064 745.201L735.118 748.2L732.834 751.341L730.33 754.536L727.728 757.703L725.145 760.766L722.692 763.664L720.471 766.343L718.577 768.76L717.098 770.881L716.119 772.678L715.726 774.124L716.015 775.193L717.035 775.888L718.722 776.267L721.001 776.391L723.802 776.315L727.051 776.091L730.664 775.772L734.548 775.41L738.594 775.06L742.683 774.777L746.68 774.614L750.448 774.621L753.846 774.84L756.745 775.307L759.033 776.043L760.625 777.057L761.472 778.341L761.562 779.874L760.92 781.624L759.607 783.55L757.714 785.603L755.349 787.737L752.632 789.905L749.687 792.065L746.631 794.183L743.571 796.23L740.604 798.186L737.81 800.038L735.255 801.778L732.992 803.404L731.063 804.919L729.497 806.328L728.32 807.64L727.545 808.863L727.185 810.01L727.245 811.092L727.728 812.122L728.633 813.114L729.953 814.081L731.679 815.037L733.792 815.995L736.269 816.968L739.073 817.971L742.159 819.016L745.467 820.112L748.92 821.27L752.428 822.495L755.884 823.79L759.169 825.154L762.156 826.58L764.715 828.057L766.723 829.568L768.074 831.092L768.685 832.607L768.508 834.087L767.533 835.507L765.792 836.847L763.355 838.091L760.326 839.227L756.83 840.253L753.012 841.171L749.019 841.992L744.995 842.731L741.076 843.408L737.386 844.045L734.034 844.67L731.118 845.309L728.726 845.994L726.94 846.758L725.845 847.638L725.531 848.676L726.007 849.899L727.178 851.308L728.95 852.903L731.233 854.678L733.937 856.626L736.962 858.732L740.201 860.975L743.534 863.326L746.831 865.747L749.955 868.192L752.768 870.61L755.138 872.942L756.945 875.132L758.096 877.126L758.527 878.878L758.211 880.352L757.159 881.527L755.418 882.399L753.069 882.977L750.212 883.285L746.965 883.359L743.45 883.241L739.786 882.98L736.084 882.623L732.443 882.219L728.945 881.813L725.658 881.446L722.635 881.153L719.915 880.966L717.527 880.913L715.489 881.018L713.812 881.3L712.5 881.777L711.556 882.464L710.973 883.375L710.747 884.519L710.866 885.906L711.317 887.542L712.082 889.431L713.137 891.57L714.455 893.952L715.997 896.565L717.72 899.385L719.567 902.381L721.474 905.508L723.364 908.71L725.154 911.919L726.751 915.056L728.062 918.031L728.996 920.753L729.472 923.13L729.425 925.081L728.811 926.538L727.616 927.454L725.852 927.811L723.564 927.618L720.819 926.912L717.706 925.757L714.328 924.235L710.791 922.441L707.202 920.48L703.661 918.455L700.256 916.47L697.065 914.618L694.152 912.99L691.573 911.669L689.374 910.734L687.597 910.264L686.283 910.344L685.47 911.061L685.131 912.419L685.191 914.354L685.58 916.806L686.232 919.714L687.083 923.012L688.067 926.622L689.112 930.457L690.146 934.415L691.094 938.381L691.879 942.231L692.432 945.835L692.688 949.066L692.597 951.805L692.124 953.957L691.254 955.448L689.992 956.243L688.365 956.338L686.415 955.766L684.199 954.592L681.779 952.903L679.224 950.804L676.599 948.408L673.962 945.826L671.367 943.167L668.856 940.527L666.461 937.993L664.207 935.637L662.11 933.518L660.178 931.683L658.413 930.17L656.816 929.007L655.379 928.216L654.096 927.812L652.956 927.806L652.622 927.889Z" fill="#C1DBD0" fill-opacity="0.5"/>
<path id="Subtract_2" fill-rule="evenodd" clip-rule="evenodd" d="M592.384 554.021L593.682 553.516L594.113 553.493L595.53 553.853L597.06 554.871L598.726 556.553L600.549 558.913L602.556 561.965L604.772 565.733L607.226 570.24L609.946 575.513L612.966 581.581L616.317 588.471L620.033 596.209L624.148 604.814L628.696 614.299L633.705 624.663L639.202 635.889L645.207 647.938L651.728 660.747L658.762 674.22L666.292 688.224L674.278 702.59L678.87 710.539L681.235 708.239L684.197 705.507L687.105 703.029L689.883 700.929L692.451 699.32L694.737 698.296L696.678 697.923L698.229 698.233L699.362 699.226L700.073 700.865L700.378 703.085L700.312 705.795L699.925 708.89L699.279 712.258L698.44 715.788L697.476 719.375L696.452 722.925L695.43 726.36L694.463 729.615L693.6 732.638L693.155 734.342L700.159 745.371L701.033 745.139L703.503 744.332L706.247 743.33L709.24 742.171L712.444 740.9L715.81 739.571L719.274 738.247L722.76 736.996L726.177 735.893L729.425 735.014L732.397 734.437L734.99 734.228L737.103 734.443L738.657 735.122L739.592 736.28L739.88 737.909L739.525 739.978L738.564 742.432L737.064 745.201L735.118 748.2L732.834 751.341L730.33 754.536L727.728 757.703L725.145 760.766L722.692 763.664L720.471 766.343L718.577 768.76L717.524 770.27L718.112 771.081L722.303 776.356L723.802 776.315L727.05 776.091L730.664 775.772L734.548 775.41L738.594 775.06L742.683 774.777L746.68 774.614L750.448 774.621L753.846 774.84L756.745 775.307L759.033 776.043L760.625 777.057L761.472 778.341L761.562 779.874L760.919 781.624L759.607 783.55L757.714 785.604L755.349 787.737L752.632 789.905L749.687 792.065L746.631 794.183L743.571 796.23L741.715 797.454L742.416 798.113L749.112 802.896L754.816 805.202L759.39 804.924L762.732 802.045L764.783 796.637L765.53 788.86L765.004 778.946L763.28 767.188L760.468 753.92L756.704 739.495L752.145 724.269L746.954 708.584L741.297 692.752L735.332 677.049L729.207 661.709L723.051 646.92L716.978 632.827L711.081 619.535L705.436 607.112L700.103 595.597L695.126 585.003L690.537 575.325L686.356 566.541L682.597 558.62L679.266 551.525L676.365 545.212L673.894 539.641L671.852 534.767L670.235 530.551L669.042 526.954L668.273 523.942L667.93 521.484L668.017 519.554L668.542 518.13L669.516 517.193L670.953 516.731L672.872 516.732L675.295 517.191L678.248 518.104L681.763 519.47L685.873 521.292L690.616 523.574L696.032 526.319L702.165 529.533L709.057 533.216L716.749 537.371L725.28 541.992L734.682 547.068L744.978 552.579L756.175 558.495L768.263 564.771L781.208 571.346L794.946 578.141L809.377 585.058L824.364 591.977L839.727 598.757L855.242 605.242L870.643 611.259L885.625 616.626L899.859 621.161L912.997 624.69L924.692 627.058L934.616 628.135L942.48 627.833L948.051 626.105L951.168 622.955L951.751 618.437L949.812 612.652L945.447 605.744L938.832 597.885L930.208 589.274L919.867 580.115L908.132 570.614L895.34 560.964L881.821 551.342L867.89 541.898L853.832 532.759L839.896 524.022L826.292 515.759L813.19 508.018L800.72 500.823L788.979 494.184L778.034 488.094L767.922 482.537L758.665 477.489L750.263 472.918L742.707 468.792L735.979 465.076L730.056 461.735L724.911 458.734L720.519 456.041L716.853 453.625L713.89 451.455L711.611 449.506L710.001 447.75L709.047 446.164L708.744 444.727L709.09 443.417L710.092 442.215L711.757 441.102L714.102 440.06L717.148 439.07L720.918 438.114L725.444 437.174L730.757 436.229L736.894 435.261L743.891 434.247L751.785 433.163L760.609 431.985L770.389 430.687L781.144 429.24L792.877 427.615L805.573 425.782L819.192 423.712L833.667 421.376L848.892 418.748L864.723 415.808L880.969 412.54L897.396 408.94L913.72 405.013L929.62 400.778L944.739 396.271L958.698 391.54L971.116 386.652L981.623 381.687L989.887 376.734L995.631 371.892L998.654 367.262L998.844 362.94L996.185 359.014L990.761 355.557L982.75 352.625L972.408 350.252L960.056 348.45L946.056 347.212L930.792 346.51L914.65 346.302L897.995 346.533L881.167 347.14L864.461 348.057L848.13 349.216L832.377 350.553L817.359 352.007L803.191 353.523L789.95 355.052L777.681 356.551L766.401 357.986L756.109 359.325L746.786 360.544L738.404 361.622L730.926 362.542L724.313 363.291L718.523 363.856L713.515 364.226L709.251 364.391L705.696 364.34L702.819 364.063L700.591 363.548L698.992 362.783L698.003 361.753L697.614 360.441L697.817 358.828L698.609 356.892L699.994 354.61L701.977 351.955L704.569 348.895L707.783 345.399L711.635 341.43L716.142 336.951L721.321 331.922L727.186 326.303L733.75 320.055L741.018 313.142L748.985 305.53L757.635 297.197L766.936 288.128L776.833 278.325L787.252 267.81L798.086 256.627L809.201 244.849L820.43 232.583L831.573 219.968L842.402 207.18L852.662 194.431L862.084 181.963L870.39 170.043L877.312 158.948L882.603 148.96L886.056 140.344L887.514 133.335L886.884 128.126L884.143 124.85L879.345 123.575L872.612 124.299L864.128 126.952L854.13 131.401L842.888 137.46L830.695 144.903L817.844 153.48L804.618 162.928L791.278 172.989L778.054 183.417L765.142 193.987L752.7 204.503L740.847 214.796L729.67 224.732L719.225 234.201L709.54 243.124L700.625 251.445L692.469 259.126L685.052 266.147L678.343 272.5L672.305 278.188L666.9 283.219L662.087 287.604L657.824 291.36L654.074 294.5L650.799 297.039L647.965 298.989L645.541 300.36L643.498 301.157L641.813 301.381L640.463 301.032L639.429 300.1L638.694 298.575L638.245 296.44L638.069 293.672L638.156 290.245L638.496 286.128L639.082 281.285L639.905 275.679L640.956 269.268L642.225 262.01L643.702 253.865L645.372 244.794L647.216 234.766L649.211 223.76L651.329 211.768L653.534 198.803L655.784 184.901L658.026 170.13L660.203 154.595L662.245 138.442L664.079 121.861L665.625 105.093L666.801 88.4203L667.527 72.171L667.728 56.7045L667.337 42.4005L666.305 29.6425L664.601 18.7975L662.216 10.1952L659.167 4.10726L655.494 0.728937L651.263 0.165649L646.559 2.42547L641.481 7.41884L636.141 14.9653L630.65 24.8063L625.117 36.6233L619.644 50.0576L614.319 64.7319L609.214 80.2694L604.385 96.3109L599.871 112.528L595.696 128.631L591.87 144.377L588.388 159.566L585.241 174.045L582.407 187.7L579.864 200.457L577.584 212.267L575.538 223.112L573.697 232.99L572.031 241.915L570.513 249.911L569.116 257.009L567.813 263.244L566.583 268.651L565.401 273.265L564.247 277.118L563.101 280.241L561.942 282.658L560.751 284.388L559.51 285.449L558.199 285.849L556.799 285.594L555.288 284.681L553.645 283.105L551.848 280.855L549.872 277.914L547.691 274.262L545.278 269.874L542.602 264.725L539.632 258.786L536.336 252.028L532.681 244.427L528.631 235.96L524.154 226.616L519.22 216.391L513.802 205.301L507.88 193.379L501.441 180.686L494.488 167.311L487.035 153.381L479.118 139.06L470.792 124.553L462.138 110.107L453.26 96.0069L444.292 82.5687L435.385 70.1305L426.714 59.0383L418.464 49.6289L410.827 42.2116L403.988 37.049L398.116 34.3394L393.354 34.2023L389.811 36.6699L387.552 41.6834L386.598 49.0973L386.925 58.6893L388.465 70.1749L391.112 83.226L394.735 97.4906L399.178 112.612L404.28 128.246L409.873 144.074L415.799 159.814L421.908 175.226L428.067 190.113L434.16 204.325L440.091 217.751L445.78 230.315L451.166 241.976L456.202 252.717L460.855 262.54L465.102 271.464L468.929 279.52L472.328 286.744L475.298 293.178L477.836 298.865L479.947 303.847L481.632 308.166L482.892 311.859L483.728 314.962L484.139 317.506L484.121 319.519L483.667 321.022L482.765 322.035L481.403 322.572L479.563 322.644L477.222 322.258L474.355 321.418L470.932 320.124L466.919 318.374L462.279 316.166L456.973 313.495L450.957 310.356L444.189 306.747L436.627 302.668L428.232 298.12L418.97 293.116L408.818 287.672L397.764 281.818L385.816 275.596L373.004 269.064L359.387 262.297L345.058 255.393L330.149 248.465L314.831 241.653L299.324 235.109L283.886 229.006L268.815 223.524L254.439 218.844L241.104 215.143L229.156 212.581L218.929 211.291L210.72 211.37L204.771 212.87L201.256 215.796L200.267 220.101L201.808 225.693L205.797 232.433L212.069 240.153L220.391 248.658L230.48 257.743L242.015 267.203L254.662 276.842L268.086 286.48L281.971 295.961L296.027 305.156L309.997 313.962L323.666 322.304L336.859 330.131L349.437 337.414L361.298 344.141L372.374 350.318L382.62 355.958L392.014 361.086L400.552 365.731L408.241 369.925L415.1 373.704L421.149 377.103L426.416 380.155L430.927 382.895L434.707 385.353L437.78 387.56L440.166 389.543L441.883 391.328L442.941 392.939L443.347 394.399L443.104 395.728L442.208 396.945L440.649 398.072L438.413 399.124L435.481 400.121L431.828 401.081L427.425 402.023L422.239 402.965L416.236 403.928L409.378 404.933L401.629 406.005L392.956 407.166L383.329 408.443L372.73 409.864L361.153 411.459L348.608 413.256L335.132 415.286L320.787 417.578L305.673 420.158L289.928 423.048L273.733 426.263L257.317 429.81L240.956 433.686L224.965 437.873L209.697 442.34L195.527 447.039L182.839 451.907L172.004 456.867L163.363 461.828L157.201 466.694L153.735 471.364L153.09 475.742L155.299 479.736L160.292 483.272L167.906 486.29L177.897 488.754L189.952 490.647L203.715 491.973L218.804 492.758L234.832 493.041L251.428 492.876L268.25 492.325L284.993 491.453L301.398 490.328L317.256 489.015L332.399 487.576L346.709 486.066L360.101 484.537L372.527 483.03L383.964 481.583L394.413 480.227L403.888 478.987L412.418 477.885L420.038 476.939L426.786 476.162L432.704 475.567L437.834 475.165L442.213 474.967L445.879 474.983L448.863 475.223L451.193 475.699L452.891 476.423L453.975 477.41L454.459 478.676L454.35 480.24L453.652 482.122L452.362 484.347L450.475 486.942L447.981 489.935L444.867 493.359L441.118 497.251L436.716 501.646L431.646 506.585L425.89 512.107L419.438 518.252L412.282 525.057L404.426 532.555L395.883 540.773L386.683 549.724L376.876 559.411L366.534 569.815L355.758 580.896L344.677 592.585L333.454 604.782L322.282 617.352L311.387 630.126L301.019 642.896L291.445 655.426L282.943 667.452L275.783 678.698L270.217 688.88L266.459 697.732L264.676 705.01L264.97 710.517L267.376 714.107L271.853 715.703L278.289 715.294L286.509 712.94L296.283 708.766L307.345 702.949L319.407 695.71L332.173 687.297L345.358 677.97L358.696 667.989L371.952 657.604L384.925 647.043L397.451 636.507L409.404 626.168L420.693 616.168L431.258 606.618L441.064 597.604L450.102 589.184L458.378 581.4L465.911 574.273L472.73 567.812L478.872 562.019L484.375 556.885L489.28 552.397L493.628 548.543L497.457 545.305L500.806 542.671L503.708 540.628L506.195 539.166L508.296 538.278L510.037 537.962L511.439 538.219L512.523 539.057L513.304 540.487L513.798 542.524L514.017 545.19L513.971 548.51L513.671 552.515L513.123 557.239L512.338 562.721L511.322 569.001L510.087 576.121L508.642 584.123L507.002 593.044L505.185 602.917L503.212 613.767L501.111 625.602L498.917 638.414L496.671 652.17L494.423 666.809L492.232 682.23L490.164 698.297L488.292 714.824L486.695 731.581L485.454 748.289L484.651 764.629L484.646 764.904L485.673 764.309L487.932 763.729L490.789 763.474L494.138 763.513L497.853 763.803L501.801 764.29L505.846 764.913L509.861 765.606L513.727 766.306L517.339 766.949L520.608 767.473L523.453 767.819L525.804 767.928L527.596 767.74L528.76 767.189L529.233 766.208L529.046 764.789L528.293 762.965L527.06 760.77L525.429 758.24L523.483 755.414L521.313 752.344L519.013 749.087L516.69 745.717L514.452 742.315L512.413 738.973L510.685 735.788L509.369 732.86L508.553 730.279L508.301 728.126L508.648 726.461L509.601 725.318L511.135 724.707L513.195 724.61L515.706 724.984L518.578 725.768L521.711 726.886L525.006 728.254L528.368 729.787L531.713 731.401L534.967 733.02L538.073 734.576L540.983 736.01L543.662 737.271L546.088 738.319L548.246 739.121L548.75 739.262L551.528 729.4L553.744 720.945L553.687 720.666L552.968 717.176L552.251 713.561L551.589 709.903L551.039 706.299L550.66 702.857L550.509 699.695L550.637 696.929L551.087 694.669L551.89 693.012L553.056 692.029L554.582 691.759L556.443 692.206L558.597 693.338L560.301 694.585L563.176 682.155L566.375 667.554L569.257 653.761L571.845 640.858L574.165 628.895L576.246 617.896L578.118 607.864L579.81 598.789L581.35 590.647L582.765 583.408L584.08 577.038L585.321 571.502L586.509 566.764L587.666 562.791L588.812 559.554L589.968 557.027L591.152 555.188L592.384 554.021ZM507.023 835.41L505.305 834.862L502.072 833.955L498.489 833.007L494.666 832.003L490.818 830.953L492.4 834.446L495.978 838.266L500.125 839.28L504.76 837.466L507.023 835.41ZM486.143 811.72L488.023 811.188L491.624 810.262L495.178 809.399L498.592 808.588L501.79 807.811L504.711 807.053L507.308 806.297L509.546 805.529L511.399 804.731L512.852 803.889L513.894 802.988L514.519 802.014L514.728 800.953L514.522 799.794L513.909 798.523L512.9 797.131L511.511 795.61L509.765 793.952L507.692 792.154L505.331 790.218L502.734 788.148L499.965 785.958L497.1 783.665L494.231 781.299L491.462 778.894L488.906 776.495L486.682 774.153L484.906 771.924L484.528 771.286L484.362 780.246L484.655 794.761L485.582 807.79L486.143 811.72Z" fill="#DD7649" fill-opacity="0.5"/>
</g>
</svg>
