<svg width="810" height="405" viewBox="0 0 810 405" fill="none" xmlns="http://www.w3.org/2000/svg">
<circle cx="405" cy="405" r="405" fill="#182B39"/>
<path d="M455.669 107.122C454.945 107.283 454.208 107.409 453.495 107.601C451.361 108.206 449.256 108.917 447.098 109.443C445.054 109.954 442.98 110.369 440.899 110.725C436.049 111.561 431.289 112.685 426.705 114.524C423.834 115.677 420.934 116.764 418.021 117.808C417.237 118.066 416.418 118.201 415.593 118.208C413.698 118.269 412.198 117.008 411.68 115.077C410.982 112.464 411.282 109.898 412.048 107.364C412.885 104.612 413.89 101.904 414.622 99.1281C415.353 96.352 415.274 93.5864 414.753 90.7919C413.772 85.4317 410.806 81.1058 407.672 76.8455C405.954 74.5089 404.359 72.0827 402.804 69.6303C402.178 68.6304 401.854 67.4357 401.288 66.0858C400.749 66.6779 400.307 67.1594 399.862 67.6331C397.218 70.3776 394.734 73.309 391.876 75.8061C389.308 78.0533 386.35 79.8401 383.54 81.8189C381.4 83.3266 379.274 84.816 377.588 86.858C375.948 88.8473 375.385 91.1918 375.219 93.6496C375.119 95.3468 375.288 97.0704 375.219 98.7571C375.159 100.073 375.122 101.438 374.693 102.638C373.904 104.825 371.348 105.738 368.986 105.08C366.496 104.388 365.115 102.652 364.086 100.449C363.207 98.565 362.391 96.6283 361.281 94.881C359.247 91.6787 356.218 89.4288 353.076 87.3842C348.778 84.5895 344.241 82.1795 339.519 80.1821C338.678 79.8476 337.82 79.5586 336.948 79.3164C336.204 79.098 335.912 79.3164 336.062 80.069C336.289 81.1971 336.576 82.3126 336.919 83.4108C338.146 87.3869 337.864 91.1918 335.941 94.9021C334.454 97.7624 333.554 100.839 332.783 103.97C332.453 105.298 331.974 106.585 331.357 107.806C330.554 109.414 328.97 109.885 327.315 110.119C327.123 110.146 326.928 110.146 326.736 110.159C325.518 110.246 325.291 110.59 326.06 111.554C327.941 113.922 329.904 116.203 331.849 118.508C334.891 122.119 337.983 125.684 340.967 129.344C341.726 130.351 342.338 131.461 342.782 132.641C343.664 134.789 342.751 136.491 340.453 136.944C338.808 137.262 337.143 137.47 335.47 137.565C332.783 137.725 330.086 137.707 327.402 137.873C326.283 137.972 325.178 138.184 324.102 138.504C323.313 138.72 323.223 139.178 323.902 139.638C325.172 140.551 326.506 141.37 327.894 142.091C336.314 146.188 344.508 150.645 352.587 155.353C355.665 157.15 358.826 158.813 362.223 159.921C366.388 161.274 370.235 160.889 373.506 157.653C376.059 155.132 378.127 152.277 379.232 148.832C380.364 145.319 380.085 141.833 378.611 138.462C376.769 134.252 373.896 130.689 371.093 127.1C368.678 124.005 366.249 120.921 363.931 117.761C363.246 116.832 362.841 115.685 362.423 114.603C362.089 113.759 362.025 112.843 362.794 112.159C363.562 111.475 364.473 111.809 365.241 112.253C367.005 113.295 368.485 114.754 369.551 116.503C371.888 120.208 374.154 123.976 376.293 127.794C379.119 132.841 381.777 137.981 384.555 143.056C385.074 143.928 385.682 144.744 386.368 145.49C386.858 146.056 387.374 145.943 387.595 145.227C387.937 144.184 388.2 143.116 388.384 142.033C388.781 139.428 389.042 136.799 389.437 134.197C389.937 130.965 390.473 127.744 391.084 124.537C391.658 121.516 392.273 118.508 393 115.519C394.052 111.206 394.989 106.856 396.744 102.749C396.808 102.538 396.918 102.345 397.068 102.183C397.386 101.92 397.804 101.544 398.097 101.604C398.389 101.665 398.773 102.223 398.76 102.552C398.689 104.715 398.636 106.891 398.352 109.033C397.92 112.298 397.331 115.543 396.773 118.785C396.283 121.569 395.72 124.342 395.194 127.121C394.668 129.9 394.142 132.678 393.692 135.47C393.152 138.691 392.66 141.922 392.179 145.151C392.079 145.831 392.064 146.52 392.134 147.203C392.231 148.198 392.705 148.519 393.592 148.085C395.541 147.156 397.497 146.211 399.365 145.127C408.801 139.644 418.208 134.11 427.634 128.608C428.557 128.081 429.531 127.621 430.481 127.131C430.581 127.081 430.678 126.989 430.773 126.989C431.207 126.989 431.641 127.039 432.089 127.071C431.92 127.492 431.878 128.086 431.562 128.315C429.226 130.05 426.892 131.794 424.458 133.373C414.795 139.639 405.107 145.867 395.391 152.056C394.965 152.319 394.402 153.045 393.949 152.245C393.563 151.558 394.407 151.353 394.807 151.095C403.984 145.176 413.167 139.271 422.358 133.378C422.675 133.196 422.94 132.936 423.129 132.623C422.948 132.674 422.772 132.741 422.603 132.823C416.69 136.294 410.79 139.791 404.87 143.241C401.791 145.033 398.678 146.767 395.555 148.485C394.871 148.832 394.148 149.097 393.402 149.274C392.226 149.601 391.158 148.932 391.123 147.696C391.043 145.969 391.117 144.238 391.347 142.525C392.136 137.509 393.065 132.512 393.965 127.513C394.915 122.25 395.936 116.987 396.86 111.725C397.244 109.509 397.433 107.264 397.699 105.022C397.707 104.793 397.694 104.563 397.662 104.336L397.399 104.272C397.157 104.814 396.944 105.368 396.762 105.933C395.628 110.23 394.41 114.506 393.434 118.827C392.494 123 391.758 127.21 391.044 131.444C390.36 135.531 389.847 139.649 389.202 143.746C389.06 144.528 388.806 145.286 388.447 145.996C387.874 147.193 386.776 147.448 385.847 146.501C384.913 145.572 384.103 144.524 383.44 143.385C381.25 139.491 379.14 135.546 377.048 131.607C374.451 126.744 372.004 121.79 368.775 117.306C367.665 115.772 366.473 114.285 364.786 113.319C364.441 113.122 363.978 113.124 363.57 113.027C363.57 113.477 363.368 114.001 363.539 114.361C364.125 115.624 364.688 116.937 365.52 118.045C368.346 121.792 371.309 125.437 374.167 129.157C376.293 131.918 378.295 134.778 379.693 138.002C382.008 143.404 381.424 148.569 378.34 153.474C376.606 156.232 374.593 158.763 371.709 160.445C369.143 161.939 366.388 162.087 363.575 161.434C359.002 160.368 354.965 158.053 350.961 155.729C343.593 151.448 336.109 147.356 328.433 143.643C326.795 142.819 325.203 141.906 323.665 140.907C322.876 140.417 322.018 139.799 322.207 138.707C322.392 137.675 323.378 137.473 324.231 137.283C325.295 137.01 326.381 136.825 327.475 136.731C330.191 136.583 332.914 136.589 335.633 136.433C337.214 136.332 338.786 136.112 340.335 135.775C341.851 135.452 342.44 134.262 341.674 132.881C340.664 131.039 339.601 129.181 338.254 127.584C334.833 123.505 331.207 119.595 327.728 115.561C326.626 114.269 325.632 112.888 324.757 111.432C324.047 110.261 324.447 109.538 325.76 109.169C326.103 109.074 326.456 109.015 326.812 108.993C329.367 108.785 330.541 107.82 331.238 105.33C331.936 102.841 332.554 100.402 333.372 97.9887C333.98 96.2046 334.83 94.5021 335.596 92.7759C336.68 90.3419 336.759 87.8237 336.196 85.2739C335.864 83.8029 335.406 82.3609 335.012 80.911C334.988 80.8321 334.97 80.7479 334.954 80.6689C334.533 78.5323 335.409 77.6113 337.454 78.3428C340.172 79.3277 342.838 80.4528 345.44 81.7136C349.246 83.5499 352.877 85.728 356.289 88.221C360.236 91.1155 363.162 94.7837 364.888 99.407C365.496 101.031 366.32 102.565 367.957 103.444C368.952 103.99 370.096 104.207 371.222 104.062C372.588 103.878 373.656 102.949 373.811 101.57C373.98 99.9619 374.048 98.3448 374.014 96.7283C373.972 93.9627 374.069 91.2339 375.167 88.6394C376.185 86.2291 377.977 84.4476 380.032 82.9582C382.598 81.0794 385.253 79.319 387.876 77.5165C391.708 74.8852 394.915 71.5775 397.941 68.0778C398.686 67.1992 399.477 66.3604 400.31 65.5648C401.228 64.7017 402.136 64.8148 402.499 65.9937C403.951 70.6592 407.191 74.201 409.943 78.0455C412.159 81.1373 414.153 84.345 415.248 88.0237C416.387 91.8576 416.7 95.752 415.64 99.6465C414.922 102.278 413.985 104.875 413.198 107.488C412.472 109.906 412.085 112.364 412.827 114.856C413.353 116.611 414.669 117.487 416.421 116.961C419.191 116.124 421.932 115.174 424.645 114.111C428.855 112.453 433.136 111.004 437.609 110.19C441.043 109.575 444.451 108.875 447.843 108.085C450.056 107.559 452.208 106.804 454.392 106.175C454.867 106.037 455.356 105.96 455.85 105.946C457.063 105.912 457.508 106.638 456.89 107.709C456.37 108.58 455.806 109.424 455.2 110.238C453.406 112.732 451.608 115.237 450.464 118.111C448.888 122.082 448.246 126.362 448.588 130.621C448.793 133.144 449.485 135.439 450.993 137.517C452 138.899 451.8 140.122 450.577 141.362C449.353 142.601 447.719 143.177 446.051 143.57C443.464 144.18 440.851 144.691 438.273 145.333C436.449 145.788 435.283 146.911 434.965 148.88C434.525 151.614 434.439 154.337 436.154 156.632C437.094 157.89 438.541 158.776 439.788 159.789C440.701 160.534 441.735 161.15 442.577 161.958C443.838 163.176 443.741 164.589 442.217 165.447C440.867 166.228 439.406 166.797 437.883 167.134C425.721 169.631 413.395 169.907 401.044 168.997C396.575 168.688 392.14 168 387.787 166.942C387.3 166.82 386.921 166.842 386.8 167.444C386.066 171.06 384.416 174.286 382.387 177.291C378.73 182.698 374.969 188.035 371.201 193.358C364.383 203.026 358.21 213.057 353.063 223.698L347.042 236.126C347.006 236.2 347 236.318 346.945 236.347C346.682 236.507 346.377 236.644 346.092 236.792C346.032 236.476 345.829 236.107 345.932 235.852C346.279 234.963 346.721 234.105 347.142 233.247C349.937 227.629 352.692 221.99 355.544 216.406C358.866 210.003 362.602 203.824 366.728 197.908C370.972 191.74 375.34 185.656 379.622 179.506C381.703 176.512 383.65 173.423 384.903 169.962C385.229 169.065 385.429 168.134 385.692 167.202C385.826 166.736 385.663 166.528 385.184 166.363C383.379 165.718 381.564 165.094 379.816 164.318C379.006 163.918 378.277 163.371 377.666 162.705C376.835 161.85 376.877 160.703 377.598 159.782C378.966 158.034 382.535 157.2 384.55 158.124C385.142 158.39 385.66 158.798 386.056 159.313C386.453 159.827 386.716 160.431 386.824 161.071C387.036 162.337 387.148 163.618 387.158 164.902C387.176 165.428 387.271 165.715 387.824 165.823C389.6 166.171 391.36 166.613 393.147 166.902C398.336 167.736 403.576 168.214 408.83 168.331C414.986 168.505 421.146 168.272 427.271 167.634C430.868 167.249 434.439 166.602 438.001 165.973C439.099 165.737 440.161 165.356 441.159 164.842C442.441 164.229 442.543 163.413 441.462 162.51C440.457 161.668 439.357 160.947 438.262 160.2C436.52 159 434.925 157.661 434.22 155.574C433.533 153.589 433.376 151.46 433.762 149.395C433.908 148.452 434.18 147.532 434.573 146.661C435.236 145.346 436.509 144.625 437.883 144.267C440.057 143.701 442.283 143.338 444.462 142.775C445.933 142.364 447.382 141.878 448.803 141.317C449.175 141.138 449.505 140.883 449.772 140.567C450.598 139.728 450.735 139.067 450.035 138.154C447.238 134.454 447.177 130.207 447.474 125.876C447.893 119.824 450.401 114.624 454.037 109.904C454.666 109.091 455.227 108.227 455.819 107.385L455.669 107.122ZM386.074 163.505C386.084 163.172 386.068 162.838 386.026 162.508C385.792 161.16 385.453 159.876 384.105 159.147C382.703 158.411 379.403 159.182 378.532 160.529C378.319 160.86 378.356 161.481 378.501 161.876C378.7 162.27 379.03 162.582 379.435 162.758C381.098 163.513 382.766 164.268 384.474 164.902C386.053 165.481 386.076 165.413 386.074 163.505Z" fill="#C1DBD0"/>
<path d="M428.6 203.928C420.555 206.56 412.485 209.267 404.904 213.072C397.449 216.814 390.608 221.701 385.363 228.242C380.119 234.784 376.114 242.739 368.786 247.301C361.457 251.864 352.445 252.52 344.024 252.083C334.025 251.556 324.081 249.451 314.053 250.564C312.853 250.698 311.66 250.873 310.474 251.091L310.906 252.185C315.642 249.472 319.589 245.638 323.536 241.923C327.602 238.097 331.857 234.616 336.722 231.853C346.829 226.114 358.265 223.251 369.704 221.703C375.996 220.856 382.335 220.388 388.666 219.993C391.697 219.798 394.826 219.409 397.857 219.746C400.503 220.055 402.956 221.285 404.788 223.219C406.517 224.977 407.817 227.111 408.943 229.292C410.261 231.836 411.418 234.459 412.409 237.147C414.448 242.699 415.627 248.536 415.18 254.475C414.324 265.932 408.193 276.21 402.023 285.58C401.244 286.766 400.454 287.947 399.654 289.122L400.733 289.288C399.47 279.965 392.518 272.918 388.966 264.5C388.074 262.449 387.478 260.281 387.197 258.061C386.93 255.389 387.175 252.69 387.921 250.109C389.402 244.702 392.363 239.865 394.665 234.8C399.091 225.135 400.981 213.841 397.928 203.486C395.126 193.95 388.113 186.685 379.73 181.672C375.477 179.184 370.994 177.116 366.341 175.496C364.036 174.67 361.691 173.986 359.365 173.236C357.039 172.486 354.752 171.615 352.787 170.168C351.838 169.475 351.018 168.622 350.363 167.647C350.291 167.525 350.178 167.434 350.044 167.388C349.911 167.342 349.765 167.346 349.633 167.398C349.502 167.45 349.393 167.547 349.327 167.671C349.261 167.796 349.241 167.94 349.271 168.078C350.44 176.921 353.851 185.317 359.181 192.469C364.667 199.826 372.028 205.575 380.495 209.115C384.833 210.928 389.395 212.151 394.057 212.754C398.873 213.388 403.675 213.233 408.48 212.591C413.577 211.915 418.621 211.157 423.679 212.53C427.986 213.704 431.944 216.025 435.257 219.004C442.48 225.5 446.243 234.816 448.151 244.152C448.391 245.322 448.605 246.495 448.793 247.67L449.793 247.12C445.212 241.726 438.762 238.602 432.412 235.805C429.155 234.374 425.866 233.008 422.689 231.395C419.356 229.69 415.935 227.658 414.174 224.19C412.414 220.722 412.332 216.559 412.922 212.778C413.54 208.699 414.966 204.789 416.374 200.936C418.861 194.124 421.374 186.99 420.092 179.622C419.445 175.873 417.65 172.352 414.709 169.886C411.625 167.313 407.688 165.979 403.72 165.742C403.641 165.741 403.564 165.756 403.491 165.785C403.418 165.815 403.352 165.858 403.296 165.913C403.24 165.968 403.195 166.033 403.165 166.106C403.134 166.178 403.118 166.255 403.117 166.334C403.117 166.435 403.141 166.534 403.188 166.623C406.61 171.937 408.069 178.279 407.312 184.553C406.57 190.606 403.08 196.592 404.98 202.778C405.793 205.428 407.483 207.747 410.125 208.762C410.838 209.041 411.177 207.897 410.464 207.625C408.117 206.72 406.664 204.468 406.025 202.121C405.236 199.26 405.68 196.332 406.391 193.513C407.164 190.429 408.188 187.411 408.535 184.235C409.214 177.858 407.693 171.441 404.225 166.047L403.699 166.926C407.264 167.136 410.804 168.299 413.64 170.528C416.406 172.715 418.129 175.867 418.835 179.291C420.337 186.59 417.719 193.821 415.245 200.579C412.669 207.628 409.675 215.922 412.53 223.364C413.859 226.832 416.548 229.258 419.698 231.097C422.758 232.887 426.042 234.292 429.289 235.705C436.375 238.789 443.827 241.883 448.953 247.915C449.369 248.404 450.045 247.896 449.956 247.362C448.435 237.957 445.38 228.416 439.015 221.106C436.124 217.744 432.574 215.011 428.584 213.078C424.419 211.103 419.813 210.243 415.216 210.581C412.514 210.767 409.84 211.223 407.156 211.562C404.729 211.871 402.283 212.008 399.836 211.973C395.088 211.885 390.374 211.139 385.832 209.754C376.861 207.041 368.827 201.873 362.639 194.834C356.715 188.053 352.68 179.831 350.94 170.997C350.732 169.944 350.563 168.855 350.426 167.776L349.334 168.21C352.06 172.291 356.965 173.736 361.415 175.102C366.098 176.502 370.657 178.29 375.043 180.449C383.727 184.803 391.694 191.216 395.568 200.36C399.804 210.359 398.61 221.964 394.652 231.842C392.586 236.997 389.626 241.747 387.695 246.954C385.903 251.783 385.326 256.84 386.766 261.835C389.337 270.689 396.37 277.457 398.904 286.322C399.201 287.389 399.421 288.476 399.562 289.575C399.636 290.101 400.386 290.119 400.641 289.738C407.085 280.16 413.816 270.002 415.845 258.424C416.83 252.627 416.5 246.684 414.882 241.031C414.064 238.164 413.04 235.359 411.819 232.639C410.725 230.166 409.562 227.692 408.033 225.435C406.688 223.424 405.054 221.551 402.978 220.267C400.531 218.751 397.715 218.388 394.878 218.462C391.644 218.54 388.4 218.817 385.171 219.033C381.943 219.248 378.74 219.506 375.535 219.822C363.604 221.03 351.647 223.287 340.724 228.419C335.546 230.829 330.725 233.942 326.397 237.668C322.15 241.352 318.324 245.536 313.792 248.87C312.671 249.695 311.504 250.455 310.295 251.146C310.173 251.217 310.08 251.33 310.033 251.463C309.986 251.597 309.989 251.743 310.041 251.875C310.093 252.007 310.191 252.116 310.316 252.182C310.441 252.248 310.586 252.267 310.724 252.235C320.865 250.309 331.149 252.272 341.293 253.077C349.648 253.741 358.502 253.543 366.252 249.983C370.064 248.228 373.33 245.62 376.101 242.486C378.872 239.352 381.208 235.818 383.661 232.413C386.113 229.008 388.81 225.743 392.01 222.94C395.189 220.182 398.652 217.77 402.341 215.746C409.785 211.594 417.853 208.723 425.918 206.044L428.863 205.073C429.584 204.839 429.302 203.686 428.576 203.923L428.6 203.928Z" fill="#C1DBD0"/>
<path d="M450.069 188.403C446.08 188.071 442.591 185.814 439.43 183.532C436.039 181.074 432.846 178.354 429.881 175.396C427.35 172.883 424.763 170.002 423.863 166.449C423.466 164.87 423.426 163.249 424.032 161.713C424.531 160.455 425.545 159.245 426.952 159.05C427.934 158.91 428.905 159.313 429.847 159.471C430.692 159.634 431.563 159.606 432.397 159.389C433.95 158.964 435.281 157.958 436.112 156.579C436.523 155.873 436.783 155.09 436.875 154.279C436.973 153.527 436.965 152.756 437.109 152.008C437.241 151.345 437.496 150.671 438.183 150.429C438.973 150.132 440.025 150.364 440.841 150.508C447.982 151.787 453.55 157.297 456.319 163.805C457.832 167.36 458.589 171.225 458.789 175.083C458.976 178.53 458.834 182.309 457.063 185.379C456.648 186.101 456.136 186.762 455.542 187.345L456.458 188.084C457.774 185.453 459.7 183.195 461.834 181.177C464.047 179.099 466.391 177.166 468.852 175.388C473.852 171.754 479.641 168.786 485.98 168.983C487.535 169.029 489.077 169.295 490.558 169.773C491.648 170.128 492.866 170.723 493.453 171.751C494.213 173.083 493.119 174.193 492.279 175.146L488.94 178.972C488.466 179.514 487.903 180.106 488.011 180.888C488.111 181.606 488.729 182.048 489.364 182.293C490.827 182.853 492.437 182.414 493.897 182.08C494.992 181.817 496.266 181.63 497.318 182.156C498.621 182.788 498.429 184.248 498.052 185.408C496.234 191.011 490.792 194.355 485.445 195.984C482.352 196.924 479.169 197.541 475.949 197.826C472.723 198.158 469.466 198.031 466.276 197.45C464.878 197.186 463.276 196.923 462.081 196.089C461.687 195.826 461.197 195.405 461.134 194.9C461.118 194.685 461.181 194.471 461.31 194.299C461.44 194.126 461.628 194.007 461.839 193.963C462.971 193.626 464.321 194.281 465.305 194.752C466.587 195.4 467.784 196.202 468.87 197.142C471.1 199.091 473.136 201.252 474.949 203.594C476.781 205.85 478.325 208.325 479.546 210.962C481.733 215.817 482.298 221.406 480.251 226.411C479.301 228.731 477.712 230.9 475.609 232.297C473.37 233.786 470.391 234.499 467.978 232.971C466.757 232.197 465.744 231.105 464.386 230.552C463.268 230.102 461.845 230.01 460.816 230.737C459.874 231.394 459.582 232.5 459.282 233.544C459.188 234.016 458.999 234.464 458.726 234.86C458.366 235.294 457.811 235.249 457.319 235.092C456.195 234.697 455.14 233.892 454.298 233.06C453.459 232.218 452.749 231.256 452.193 230.205C451.064 228.034 450.414 225.646 450.285 223.203C449.882 216.851 452.472 210.778 453.756 204.662C454.256 202.278 454.495 199.442 456.142 197.507C456.491 197.052 456.942 196.684 457.458 196.434C457.644 196.342 457.854 196.313 458.058 196.35C458.321 196.45 458.226 196.773 458.184 196.984C457.897 198.234 457.304 199.393 456.458 200.357C452.337 205.094 445.406 205.041 439.717 206.196C436.47 206.898 433.264 207.776 430.113 208.828C428.634 209.301 427.079 209.738 425.51 209.58C424.848 209.512 424.208 209.308 423.629 208.981C423.049 208.654 422.544 208.21 422.145 207.678C420.411 205.417 420.703 202.368 421.992 199.976C422.666 198.715 423.621 197.686 424.518 196.61C425.36 195.602 426.218 194.489 426.481 193.168C426.976 190.668 425.239 188.874 423.824 187.056C423.187 186.237 422.545 185.298 422.463 184.235C422.358 182.948 423.047 181.745 423.987 180.914C426.255 178.904 429.676 179.461 432.326 180.243C434.975 181.024 437.42 182.261 439.817 183.585C444.554 186.193 449.274 189.334 454.708 190.297C455.858 190.503 457.037 190.653 458.184 190.326C459.271 190.019 460.11 189.319 460.274 188.166C460.276 188.036 460.236 187.909 460.159 187.804C460.083 187.699 459.974 187.622 459.85 187.585C457.95 187.016 455.971 188.855 456.108 190.776C456.245 192.697 458.332 193.531 459.989 192.918C460.887 192.587 461.655 191.884 461.831 190.913C461.934 190.347 461.329 189.892 460.855 190.313C459.753 191.3 458.303 192.81 458.963 194.431C459.445 195.618 461.152 196.515 462.173 195.41C462.246 195.338 462.299 195.248 462.326 195.149C462.354 195.05 462.356 194.946 462.332 194.846C462.308 194.746 462.259 194.654 462.189 194.579C462.12 194.503 462.032 194.447 461.934 194.416C460.146 193.645 458.15 193.502 456.271 194.01C455.358 194.226 454.498 194.626 453.745 195.187C453.071 195.737 452.658 196.742 453.377 197.45C454.016 198.057 455.058 197.805 455.669 197.297C456.188 196.828 456.502 196.172 456.542 195.473C456.674 194.076 455.753 192.632 454.277 192.55C452.522 192.455 450.911 194.392 451.508 196.092C451.551 196.246 451.653 196.378 451.792 196.457C451.931 196.536 452.096 196.557 452.25 196.515C452.292 196.504 452.333 196.488 452.372 196.468C454.121 195.434 454.806 192.474 452.898 191.205C451.222 190.097 448.459 191.682 448.985 193.75C449.018 193.874 449.091 193.985 449.192 194.065C449.293 194.146 449.417 194.192 449.545 194.197C452.177 194.045 454.369 191.829 454.229 189.132C454.197 188.477 454.041 187.834 453.769 187.237C453.532 186.711 453.219 186.116 452.566 186.156C451.532 186.206 451.272 187.611 451.74 188.34C452.585 189.655 454.335 188.582 455.19 187.892C456.103 187.161 457.163 186.093 456.919 184.811C456.726 183.798 455.548 182.84 454.513 183.29C453.25 183.835 453.429 185.614 453.932 186.624C454.23 187.23 454.696 187.738 455.276 188.086C455.855 188.433 456.522 188.607 457.197 188.584C457.882 188.539 458.541 188.303 459.099 187.903C459.657 187.503 460.092 186.955 460.355 186.321L459.221 185.982C458.721 187.727 460.01 189.684 461.834 189.845C463.744 190.019 465.255 188.129 464.992 186.321C464.95 186.169 464.85 186.038 464.713 185.959C464.576 185.88 464.413 185.858 464.26 185.898C464.214 185.909 464.17 185.927 464.129 185.95C461.558 187.558 461.052 191.521 463.215 193.687L463.952 192.774C463.121 192.176 461.979 192.363 461.221 192.989C460.827 193.322 460.557 193.777 460.454 194.281C460.351 194.786 460.421 195.311 460.652 195.771C460.881 196.264 461.248 196.681 461.708 196.972C462.169 197.262 462.703 197.413 463.247 197.407C463.824 197.379 464.386 197.21 464.884 196.917C465.382 196.623 465.801 196.212 466.105 195.721C466.173 195.609 466.202 195.478 466.188 195.348C466.173 195.218 466.116 195.097 466.026 195.002C465.518 194.573 464.861 194.363 464.198 194.418C463.535 194.473 462.921 194.789 462.492 195.297C462.322 195.497 462.186 195.723 462.087 195.965C461.808 196.673 462.942 197.018 463.221 196.305C463.5 195.592 464.6 195.334 465.171 195.821L465.094 195.102C464.373 196.221 462.592 196.776 461.795 195.41C461.639 195.186 461.571 194.912 461.601 194.641C461.632 194.37 461.759 194.119 461.96 193.934C462.14 193.759 462.373 193.65 462.623 193.627C462.872 193.604 463.122 193.666 463.331 193.805C463.884 194.197 464.542 193.363 464.071 192.892C462.468 191.276 462.755 188.224 464.705 187.008L463.842 186.635C463.994 187.687 462.931 188.821 461.852 188.698C460.774 188.574 460.063 187.34 460.347 186.356C460.563 185.606 459.503 185.327 459.213 186.016C459.013 186.451 458.689 186.818 458.282 187.071C457.875 187.324 457.403 187.452 456.924 187.44C456.432 187.4 455.964 187.208 455.587 186.889C455.209 186.571 454.941 186.142 454.819 185.664C454.74 185.379 454.603 184.59 454.961 184.411C455.224 184.277 455.603 184.69 455.7 184.898C456.132 185.819 454.721 186.832 454.108 187.266C453.861 187.448 452.979 188.056 452.722 187.69C452.69 187.597 452.69 187.496 452.722 187.403C452.731 187.368 452.745 187.334 452.764 187.303C452.764 187.303 452.5 187.303 452.664 187.379L452.316 187.116C452.731 187.648 452.992 188.285 453.07 188.955C453.148 189.625 453.04 190.304 452.759 190.918C452.477 191.531 452.032 192.055 451.473 192.433C450.914 192.811 450.262 193.028 449.588 193.06L450.148 193.508C449.885 192.455 451.537 191.697 452.329 192.282C453.382 193.095 452.798 194.887 451.803 195.466L452.664 195.839C452.353 194.96 453.019 193.984 453.908 193.795C454.75 193.618 455.319 194.339 455.371 195.11C455.408 195.502 455.306 195.894 455.084 196.218C454.985 196.351 454.857 196.459 454.711 196.536C454.619 196.586 454.285 196.715 454.185 196.605C453.921 196.315 455.2 195.684 455.358 195.608C455.944 195.332 456.563 195.135 457.2 195.021C458.678 194.763 460.198 194.952 461.568 195.563L461.326 194.568C460.847 195.094 460.039 194.305 459.968 193.779C459.824 192.726 460.96 191.787 461.647 191.184L460.668 190.592C460.437 191.842 458.618 192.434 457.663 191.576C456.445 190.497 458.063 188.319 459.479 188.721L459.058 188.145C458.911 189.198 457.374 189.355 456.561 189.345C455.206 189.326 453.811 188.958 452.522 188.556C449.764 187.719 447.198 186.385 444.693 184.982C442.143 183.556 439.638 182.04 436.991 180.796C434.299 179.53 431.328 178.388 428.308 178.333C425.379 178.267 422.224 179.706 421.39 182.748C420.666 185.427 422.603 187.382 424.1 189.326C424.758 190.179 425.376 191.168 425.35 192.287C425.321 193.655 424.418 194.831 423.571 195.837C422.592 196.997 421.576 198.113 420.858 199.473C420.098 200.869 419.693 202.431 419.679 204.02C419.711 206.749 421.292 209.514 423.947 210.433C425.513 210.983 427.244 210.791 428.831 210.393C430.502 209.972 432.123 209.341 433.778 208.859C437.151 207.881 440.586 207.127 444.059 206.604C447.277 206.099 450.59 205.596 453.506 204.06C455.948 202.77 458.129 200.741 459.068 198.089C459.297 197.439 459.553 196.647 459.266 195.984C459.131 195.7 458.908 195.466 458.63 195.318C458.353 195.17 458.035 195.115 457.724 195.16C456.437 195.279 455.382 196.397 454.713 197.423C453.169 199.792 452.964 202.804 452.345 205.494C451.556 208.899 450.487 212.222 449.782 215.638C449.164 218.635 448.838 221.671 449.256 224.713C449.593 227.268 450.427 229.826 451.887 231.971C452.594 233.01 453.456 233.936 454.442 234.715C455.477 235.528 456.953 236.557 458.332 236.352C459.534 236.173 460.074 235.092 460.387 234.028C460.671 233.052 460.871 231.787 462.021 231.473C463.363 231.108 464.652 231.923 465.647 232.7C466.865 233.628 468.034 234.594 469.576 234.894C472.488 235.463 475.444 234.176 477.593 232.263C481.701 228.61 483.203 222.748 482.609 217.427C481.927 211.338 478.538 205.907 474.633 201.341C472.636 199.007 470.481 196.694 467.934 194.939C466.699 194.055 465.332 193.372 463.884 192.916C462.776 192.595 461.289 192.521 460.447 193.476C459.521 194.545 460.029 195.923 461.005 196.747C462.171 197.736 463.697 198.094 465.16 198.421C468.537 199.142 472.004 199.354 475.444 199.049C478.832 198.785 482.183 198.167 485.443 197.207C488.493 196.302 491.442 194.987 493.961 192.997C496.221 191.205 498.084 188.845 499.071 186.114C499.558 184.758 499.876 183.14 498.9 181.903C498.134 180.919 496.795 180.614 495.592 180.635C494.071 180.661 492.65 181.314 491.14 181.361C490.752 181.382 490.364 181.341 489.99 181.24C489.753 181.172 489.271 181.03 489.2 180.746C489.129 180.461 489.506 180.122 489.664 179.94L490.592 178.875C491.75 177.559 492.976 176.27 494.055 174.888C494.937 173.754 495.253 172.336 494.447 171.067C493.734 169.946 492.521 169.207 491.29 168.757C489.756 168.211 488.152 167.891 486.527 167.807C483.247 167.66 479.973 168.223 476.93 169.457C473.867 170.649 471.041 172.351 468.386 174.267C465.779 176.136 463.297 178.174 460.958 180.369C458.779 182.427 456.798 184.751 455.432 187.474C455.169 188.048 455.84 188.711 456.345 188.213C459.037 185.561 459.882 181.711 459.995 178.046C460.127 174.014 459.589 169.989 458.403 166.133C457.232 162.386 455.353 158.847 452.679 155.953C450.168 153.195 446.991 151.129 443.451 149.953C442.59 149.682 441.711 149.473 440.82 149.329C439.907 149.182 438.901 149.006 437.988 149.251C436.162 149.737 435.883 151.619 435.749 153.227C435.689 154.016 435.633 154.821 435.291 155.561C434.945 156.287 434.43 156.92 433.789 157.406C433.148 157.893 432.4 158.219 431.607 158.358C430.644 158.524 429.721 158.25 428.786 158.047C427.852 157.845 426.902 157.742 425.992 158.071C425.257 158.327 424.599 158.765 424.079 159.344C423.014 160.583 422.399 162.146 422.337 163.778C422.147 167.636 424.403 171.162 426.847 173.949C429.636 177.135 432.884 179.972 436.204 182.58C439.475 185.145 443.009 187.811 447.046 189.013C448.016 189.303 449.015 189.49 450.024 189.571C450.785 189.637 450.814 188.453 450.051 188.387L450.069 188.403Z" fill="#C1DBD0"/>
</svg>
