<svg id="about-graphic-2" width="996" height="1071" viewBox="0 0 996 1071" fill="none" xmlns="http://www.w3.org/2000/svg">
<g>
<path id="about-star-3" fill-rule="evenodd" clip-rule="evenodd" d="M751.432 808.962V808.962L751.589 810.273L752.062 811.595L752.852 812.936L753.963 814.306L755.399 815.716L757.167 817.176L759.274 818.697L761.727 820.29L764.534 821.966L767.703 823.738L771.241 825.618L775.154 827.618L779.446 829.751L784.116 832.029L789.159 834.462L794.563 837.063L800.306 839.839L806.358 842.795L812.672 845.933L819.188 849.252L825.826 852.74L832.487 856.381L839.053 860.151L845.386 864.012L851.329 867.92L856.719 871.819L861.383 875.647L865.159 879.334L867.899 882.809L869.484 886.003L869.836 888.853L868.92 891.308L866.753 893.333L863.4 894.909L858.969 896.035L853.601 896.727L847.459 897.017L840.719 896.947L833.553 896.566L826.128 895.929L818.591 895.088L811.073 894.097L803.68 893.003L796.499 891.851L789.597 890.678L783.021 889.516L776.805 888.394L770.97 887.333L765.526 886.353L760.475 885.468L755.814 884.689L751.536 884.027L747.631 883.49L744.085 883.083L740.886 882.813L738.02 882.684L735.475 882.701L733.237 882.868L731.295 883.191L729.638 883.674L728.257 884.323L727.142 885.143L726.287 886.143L725.686 887.328L725.333 888.708L725.225 890.292L725.359 892.09L725.732 894.114L726.345 896.375L727.195 898.887L728.283 901.663L729.608 904.717L731.17 908.063L732.967 911.717L734.996 915.69L737.253 919.994L739.728 924.64L742.411 929.631L745.285 934.969L748.326 940.647L751.505 946.648L754.782 952.946L758.107 959.5L761.42 966.253L764.649 973.129L767.712 980.035L770.515 986.859L772.959 993.468L774.942 999.72L776.365 1005.46L777.137 1010.54L777.185 1014.82L776.458 1018.17L774.933 1020.51L772.618 1021.78L769.553 1021.96L765.805 1021.09L761.466 1019.24L756.642 1016.5L751.449 1013.01L746.003 1008.9L740.413 1004.31L734.779 999.378L729.189 994.241L723.712 989.012L718.406 983.789L713.312 978.656L708.46 973.68L703.867 968.914L699.544 964.397L695.492 960.157L691.708 956.215L688.186 952.583L684.914 949.267L681.882 946.271L679.075 943.594L676.48 941.233L674.083 939.187L671.871 937.45L669.829 936.019L667.946 934.89L666.209 934.059L664.607 933.526L663.128 933.289L661.762 933.347L660.5 933.703L659.332 934.36L658.249 935.32L657.242 936.591L656.305 938.178L655.427 940.09L654.601 942.336L653.82 944.927L653.074 947.872L652.355 951.185L651.654 954.874L650.961 958.952L650.266 963.426L649.558 968.303L648.826 973.584L648.055 979.266L647.232 985.338L646.344 991.779L645.373 998.557L644.304 1005.62L643.122 1012.91L641.81 1020.34L640.356 1027.8L638.748 1035.16L636.977 1042.27L635.042 1048.97L632.945 1055.09L630.697 1060.43L628.314 1064.82L625.822 1068.11L623.252 1070.19L620.641 1070.96L618.026 1070.4L615.447 1068.53L612.94 1065.42L610.539 1061.19L608.267 1055.99L606.146 1049.99L604.184 1043.37L602.388 1036.31L600.754 1028.98L599.275 1021.53L597.942 1014.09L596.74 1006.77L595.655 999.664L594.669 992.837L593.769 986.34L592.937 980.207L592.159 974.462L591.421 969.117L590.71 964.176L590.014 959.638L589.321 955.497L588.622 951.747L587.907 948.375L587.165 945.372L586.39 942.725L585.572 940.425L584.703 938.46L583.776 936.822L582.781 935.502L581.711 934.492L580.557 933.788L579.31 933.384L577.961 933.278L576.501 933.469L574.919 933.955L573.204 934.737L571.345 935.819L569.33 937.202L567.146 938.89L564.779 940.887L562.217 943.197L559.444 945.823L556.449 948.768L553.216 952.033L549.734 955.616L545.993 959.509L541.984 963.702L537.704 968.177L533.154 972.906L528.342 977.852L523.284 982.964L518.01 988.177L512.557 993.412L506.98 998.571L501.348 1003.54L495.745 1008.19L490.269 1012.39L485.027 1015.99L480.137 1018.86L475.713 1020.86L471.865 1021.89L468.686 1021.88L466.248 1020.78L464.595 1018.62L463.742 1015.42L463.669 1011.28L464.33 1006.32L465.655 1000.67L467.556 994.492L469.934 987.929L472.686 981.131L475.714 974.23L478.922 967.342L482.227 960.564L485.555 953.974L488.843 947.632L492.04 941.582L495.105 935.851L498.008 930.458L500.722 925.411L503.232 920.711L505.523 916.353L507.589 912.328L509.423 908.624L511.023 905.23L512.386 902.13L513.512 899.311L514.4 896.758L515.05 894.458L515.462 892.397L515.634 890.564L515.565 888.946L515.251 887.535L514.689 886.319L513.875 885.29L512.802 884.442L511.464 883.766L509.852 883.257L507.956 882.909L505.766 882.717L503.27 882.677L500.457 882.783L497.312 883.031L493.822 883.416L489.975 883.933L485.757 884.576L481.158 885.336L476.169 886.205L470.788 887.172L465.014 888.22L458.858 889.334L452.338 890.491L445.485 891.664L438.344 892.823L430.98 893.928L423.474 894.939L415.933 895.807L408.48 896.481L401.263 896.906L394.443 897.029L388.194 896.799L382.691 896.173L378.101 895.118L374.568 893.614L372.207 891.66L371.089 889.271L371.24 886.481L372.633 883.338L375.196 879.904L378.816 876.246L383.35 872.435L388.635 868.543L394.502 864.632L400.783 860.76L407.322 856.974L413.976 853.31L420.625 849.796L427.166 846.45L433.517 843.282L439.614 840.297L445.409 837.493L450.868 834.865L455.97 832.405L460.699 830.104L465.052 827.949L469.025 825.928L472.623 824.03L475.85 822.242L478.715 820.551L481.223 818.945L483.385 817.414L485.206 815.945L486.695 814.528L487.857 813.152L488.698 811.807L489.221 810.483L489.428 809.171L489.321 807.86L488.899 806.54L488.16 805.203L487.1 803.838L485.716 802.436L484.001 800.984L481.949 799.474L479.552 797.893L476.802 796.231L473.691 794.475L470.212 792.613L466.358 790.633L462.127 788.522L457.517 786.268L452.533 783.86L447.186 781.286L441.494 778.539L435.489 775.612L429.213 772.502L422.725 769.212L416.1 765.75L409.435 762.132L402.845 758.381L396.465 754.531L390.449 750.627L384.96 746.723L380.169 742.879L376.241 739.165L373.327 735.651L371.552 732.408L371 729.5L371.714 726.979L373.684 724.883L376.854 723.236L381.123 722.039L386.352 721.279L392.382 720.927L399.039 720.943L406.148 721.278L413.543 721.878L421.071 722.69L428.6 723.661L436.019 724.741L443.239 725.887L450.189 727.059L456.819 728.224L463.094 729.355L468.991 730.426L474.498 731.421L479.611 732.322L484.333 733.118L488.672 733.799L492.636 734.357L496.238 734.785L499.492 735.077L502.409 735.229L505.005 735.236L507.291 735.092L509.279 734.795L510.981 734.338L512.405 733.716L513.562 732.923L514.458 731.953L515.099 730.797L515.491 729.449L515.638 727.898L515.543 726.135L515.207 724.148L514.633 721.925L513.821 719.454L512.77 716.721L511.483 713.713L509.958 710.413L508.199 706.81L506.206 702.889L503.986 698.638L501.545 694.047L498.894 689.111L496.049 683.828L493.032 678.203L489.873 672.252L486.609 665.999L483.288 659.482L479.968 652.757L476.72 645.895L473.625 638.986L470.774 632.141L468.266 625.488L466.203 619.169L464.684 613.336L463.803 608.14L463.636 603.726L464.237 600.219L465.635 597.716L467.826 596.277L470.776 595.922L474.42 596.627L478.672 598.329L483.426 600.932L488.568 604.313L493.982 608.337L499.556 612.861L505.188 617.744L510.791 622.855L516.29 628.077L521.626 633.307L526.756 638.459L531.649 643.464L536.284 648.266L540.65 652.825L544.745 657.111L548.571 661.101L552.135 664.784L555.445 668.15L558.515 671.197L561.357 673.925L563.985 676.336L566.412 678.432L568.653 680.218L570.721 681.697L572.628 682.874L574.388 683.752L576.011 684.332L577.509 684.617L578.892 684.606L580.17 684.297L581.353 683.689L582.448 682.777L583.466 681.556L584.415 680.02L585.301 678.16L586.135 675.968L586.923 673.433L587.674 670.545L588.396 667.292L589.1 663.663L589.793 659.648L590.487 655.237L591.192 650.425L591.92 645.208L592.684 639.589L593.497 633.578L594.374 627.194L595.331 620.467L596.383 613.444L597.546 606.185L598.836 598.774L600.266 591.313L601.85 583.927L603.594 576.762L605.503 569.982L607.575 563.764L609.8 558.29L612.163 553.735L614.639 550.256L617.199 547.982L619.806 547L622.423 547.348L625.011 549.013L627.531 551.93L629.951 555.989L632.245 561.045L634.391 566.93L636.379 573.464L638.202 580.466L639.861 587.766L641.363 595.208L642.719 602.658L643.941 610L645.044 617.145L646.044 624.02L646.957 630.573L647.799 636.765L648.585 642.573L649.328 647.983L650.043 652.988L650.74 657.59L651.433 661.793L652.13 665.605L652.842 669.037L653.579 672.098L654.348 674.8L655.159 677.155L656.019 679.173L656.937 680.862L657.92 682.233L658.978 683.291L660.118 684.044L661.349 684.495L662.681 684.649L664.123 684.505L665.685 684.066L667.378 683.331L669.213 682.297L671.202 680.963L673.359 679.323L675.696 677.376L678.226 675.116L680.964 672.54L683.923 669.646L687.117 666.432L690.558 662.9L694.258 659.055L698.223 654.909L702.46 650.477L706.968 645.786L711.739 640.872L716.759 635.783L722.001 630.58L727.429 625.343L732.99 620.165L738.619 615.157L744.233 610.445L749.736 606.165L755.023 602.459L759.977 599.467L764.482 597.321L768.429 596.13L771.72 595.973L774.28 596.893L776.059 598.893L777.04 601.93L777.234 605.925L776.686 610.765L775.461 616.312L773.646 622.418L771.337 628.93L768.637 635.7L765.647 642.593L762.462 649.49L759.167 656.291L755.838 662.915L752.54 669.3L749.326 675.399L746.237 681.182L743.307 686.63L740.561 691.732L738.018 696.487L735.691 700.9L733.589 704.977L731.717 708.731L730.08 712.173L728.679 715.319L727.516 718.182L726.59 720.776L725.901 723.116L725.452 725.214L725.241 727.083L725.272 728.734L725.547 730.178L726.069 731.424L726.842 732.482L727.873 733.359L729.169 734.061L730.737 734.597L732.587 734.97L734.729 735.186L737.175 735.251L739.937 735.168L743.029 734.942L746.463 734.578L750.252 734.082L754.411 733.459L758.948 732.716L763.874 731.864L769.193 730.912L774.904 729.875L781.001 728.77L787.465 727.619L794.268 726.446L801.366 725.283L808.7 724.166L816.189 723.137L823.733 722.243L831.209 721.535L838.474 721.067L845.369 720.892L851.72 721.062L857.353 721.623L862.1 722.608L865.81 724.04L868.363 725.923L869.682 728.244L869.733 730.973L868.534 734.064L866.15 737.456L862.69 741.084L858.291 744.874L853.114 748.758L847.329 752.67L841.103 756.551L834.595 760.354L827.95 764.039L821.293 767.579L814.729 770.953L808.343 774.149L802.202 777.163L796.357 779.996L790.842 782.651L785.682 785.137L780.893 787.464L776.48 789.641L772.447 791.682L768.789 793.599L765.503 795.404L762.582 797.11L760.017 798.728L757.801 800.271L755.926 801.749L754.384 803.173L753.171 804.555L752.279 805.904L751.706 807.231L751.448 808.545L751.432 808.962Z" fill="#F4A24C"/>
<path id="about-star-2" fill-rule="evenodd" clip-rule="evenodd" d="M956.914 442.82V442.82L957.127 443.902L957.764 444.998L958.82 446.119L960.283 447.277L962.137 448.486L964.358 449.755L966.913 451.094L969.757 452.509L972.835 454.003L976.074 455.579L979.388 457.231L982.675 458.949L985.822 460.719L988.703 462.52L991.193 464.324L993.168 466.1L994.518 467.814L995.158 469.432L995.03 470.921L994.117 472.255L992.44 473.412L990.06 474.384L987.072 475.169L983.596 475.779L979.769 476.233L975.737 476.558L971.642 476.786L967.621 476.955L963.796 477.103L960.277 477.269L957.16 477.495L954.532 477.821L952.472 478.292L951.057 478.952L950.369 479.855L950.457 481.042L951.239 482.509L952.62 484.242L954.512 486.227L956.826 488.445L959.469 490.871L962.338 493.473L965.323 496.208L968.302 499.026L971.147 501.866L973.728 504.659L975.916 507.333L977.598 509.815L978.678 512.035L979.09 513.936L978.8 515.474L977.812 516.623L976.164 517.378L973.923 517.755L971.183 517.784L968.052 517.514L964.644 517L961.074 516.304L957.448 515.49L953.862 514.619L950.396 513.748L947.117 512.929L944.076 512.205L941.313 511.616L938.855 511.194L936.719 510.966L934.915 510.956L933.449 511.181L932.32 511.658L931.522 512.401L931.05 513.419L930.892 514.721L931.036 516.313L931.463 518.196L932.154 520.367L933.081 522.818L934.214 525.533L935.511 528.488L936.925 531.646L938.4 534.959L939.871 538.367L941.264 541.794L942.502 545.153L943.501 548.345L944.184 551.27L944.477 553.823L944.322 555.911L943.679 557.454L942.529 558.398L940.881 558.714L938.77 558.409L936.252 557.518L933.402 556.109L930.308 554.269L927.064 552.105L923.763 549.731L920.491 547.266L917.328 544.823L914.34 542.509L911.585 540.425L909.107 538.661L906.946 537.304L905.132 536.438L903.696 536.149L902.668 536.531L902.043 537.626L901.758 539.368L901.749 541.686L901.959 544.513L902.332 547.775L902.813 551.392L903.344 555.27L903.866 559.305L904.319 563.376L904.645 567.352L904.788 571.096L904.699 574.473L904.339 577.353L903.683 579.628L902.719 581.216L901.453 582.068L899.908 582.175L898.116 581.564L896.124 580.295L893.982 578.458L891.743 576.161L889.458 573.522L887.174 570.662L884.93 567.696L882.758 564.732L880.682 561.861L878.719 559.163L876.879 556.703L875.164 554.533L873.575 552.694L872.107 551.216L870.754 550.122L869.504 549.427L868.349 549.144L867.275 549.279L866.271 549.834L865.322 550.808L864.416 552.196L863.537 553.988L862.672 556.165L861.806 558.704L860.924 561.57L860.012 564.715L859.056 568.079L858.045 571.586L856.968 575.143L855.819 578.645L854.594 581.971L853.293 584.993L851.924 587.581L850.498 589.613L849.032 590.981L847.544 591.606L846.059 591.441L844.6 590.476L843.19 588.747L841.847 586.323L840.586 583.31L839.416 579.837L838.339 576.046L837.352 572.085L836.444 568.099L835.603 564.225L834.809 560.585L834.041 557.289L833.275 554.435L832.485 552.112L831.64 550.404L830.706 549.398L829.646 549.183L828.435 549.761L827.067 551.034L825.54 552.91L823.855 555.299L822.016 558.109L820.034 561.241L817.925 564.584L815.715 568.017L813.436 571.409L811.128 574.62L808.837 577.51L806.616 579.944L804.515 581.804L802.585 582.994L800.869 583.451L799.4 583.148L798.198 582.1L797.27 580.355L796.608 577.995L796.192 575.125L795.99 571.862L795.966 568.331L796.077 564.653L796.277 560.94L796.525 557.292L796.778 553.792L797 550.508L797.157 547.494L797.218 544.791L797.159 542.425L796.956 540.417L796.591 538.778L796.045 537.514L795.304 536.624L794.355 536.106L793.188 535.953L791.792 536.155L790.161 536.699L788.292 537.565L786.185 538.731L783.847 540.167L781.29 541.835L778.534 543.689L775.611 545.671L772.563 547.712L769.443 549.736L766.316 551.652L763.258 553.367L760.356 554.783L757.695 555.806L755.365 556.351L753.443 556.35L751.994 555.761L751.062 554.567L750.664 552.782L750.792 550.454L751.408 547.652L752.454 544.471L753.849 541.015L755.502 537.397L757.313 533.726L759.183 530.107L761.014 526.631L762.715 523.38L764.198 520.421L765.385 517.812L766.197 515.602L766.557 513.837L766.382 512.561L765.589 511.815L764.179 511.565L762.213 511.734L759.749 512.249L756.844 513.043L753.564 514.048L749.983 515.194L746.186 516.406L742.272 517.607L738.354 518.717L734.553 519.655L730.996 520.345L727.808 520.718L725.101 520.719L722.972 520.312L721.488 519.479L720.685 518.226L720.564 516.58L721.092 514.586L722.205 512.304L723.817 509.801L725.826 507.15L728.123 504.42L730.596 501.675L733.142 498.972L735.666 496.355L738.085 493.862L740.328 491.519L742.338 489.343L744.068 487.345L745.481 485.529L746.55 483.895L747.254 482.437L747.577 481.148L747.507 480.02L747.038 479.04L746.167 478.197L744.893 477.476L743.22 476.862L741.16 476.34L738.729 475.892L735.953 475.498L732.867 475.136L729.52 474.785L725.976 474.42L722.313 474.015L718.625 473.545L715.023 472.985L711.627 472.311L708.565 471.503L705.966 470.548L703.947 469.438L702.609 468.175L702.022 466.766L702.224 465.229L703.21 463.59L704.938 461.877L707.327 460.122L710.267 458.357L713.624 456.612L717.256 454.913L721.016 453.279L724.762 451.724L728.362 450.255L731.697 448.873L734.658 447.575L737.149 446.352L739.08 445.192L740.362 444.079L740.903 442.992L740.619 441.91L739.563 440.807L737.829 439.664L735.507 438.463L732.685 437.19L729.459 435.835L725.931 434.394L722.217 432.866L718.447 431.256L714.758 429.576L711.297 427.843L708.21 426.082L705.632 424.32L703.683 422.59L702.454 420.924L702 419.352L702.338 417.9L703.443 416.588L705.255 415.429L707.681 414.425L710.609 413.572L713.913 412.857L717.463 412.263L721.136 411.767L724.818 411.344L728.41 410.969L731.827 410.616L735.001 410.261L737.881 409.879L740.425 409.45L742.606 408.954L744.403 408.371L745.804 407.686L746.805 406.884L747.402 405.949L747.598 404.869L747.399 403.632L746.815 402.229L745.86 400.651L744.554 398.893L742.921 396.953L740.996 394.833L738.822 392.542L736.452 390.094L733.953 387.514L731.404 384.833L728.896 382.096L726.532 379.355L724.419 376.671L722.669 374.113L721.387 371.753L720.664 369.661L720.573 367.898L721.158 366.516L722.427 365.548L724.356 365.005L726.888 364.88L729.935 365.14L733.388 365.735L737.124 366.602L741.019 367.666L744.946 368.847L748.792 370.064L752.453 371.239L755.837 372.297L758.869 373.165L761.48 373.777L763.61 374.063L765.203 373.955L766.2 373.376L766.563 372.266L766.364 370.651L765.688 368.579L764.612 366.092L763.215 363.238L761.574 360.073L759.775 356.661L757.907 353.078L756.066 349.413L754.352 345.766L752.864 342.246L751.698 338.965L750.937 336.032L750.649 333.544L750.877 331.58L751.64 330.195L752.928 329.413L754.705 329.228L756.913 329.606L759.478 330.485L762.313 331.785L765.33 333.415L768.444 335.278L771.574 337.278L774.652 339.323L777.62 341.332L780.432 343.233L783.055 344.965L785.465 346.48L787.646 347.736L789.591 348.7L791.298 349.349L792.768 349.661L794.008 349.622L795.025 349.222L795.831 348.451L796.437 347.306L796.858 345.786L797.111 343.894L797.214 341.641L797.188 339.043L797.059 336.124L796.854 332.921L796.607 329.483L796.353 325.874L796.133 322.171L795.989 318.471L795.966 314.88L796.106 311.519L796.45 308.51L797.031 305.975L797.873 304.024L798.988 302.747L800.373 302.204L802.014 302.42L803.88 303.381L805.931 305.036L808.12 307.3L810.394 310.059L812.702 313.182L814.995 316.532L817.231 319.967L819.375 323.352L821.4 326.564L823.286 329.487L825.021 332.021L826.598 334.07L828.017 335.545L829.277 336.355L830.384 336.402L831.354 335.637L832.223 334.143L833.027 332.007L833.798 329.313L834.562 326.148L835.346 322.606L836.17 318.794L837.055 314.829L838.016 310.845L839.063 306.984L840.204 303.393L841.436 300.219L842.754 297.595L844.145 295.635L845.59 294.421L847.07 294L848.559 294.376L850.035 295.516L851.476 297.347L852.864 299.771L854.187 302.668L855.437 305.911L856.61 309.37L857.709 312.922L858.741 316.456L859.713 319.875L860.637 323.097L861.527 326.057L862.397 328.704L863.261 331L864.134 332.917L865.03 334.435L865.963 335.542L866.948 336.231L867.998 336.499L869.127 336.348L870.345 335.784L871.664 334.816L873.095 333.458L874.645 331.731L876.319 329.663L878.119 327.29L880.044 324.662L882.085 321.838L884.229 318.893L886.453 315.917L888.729 313.011L891.018 310.289L893.277 307.87L895.456 305.874L897.501 304.414L899.362 303.585L900.99 303.458L902.348 304.072L903.409 305.43L904.163 307.493L904.615 310.191L904.787 313.422L904.713 317.064L904.439 320.982L904.02 325.037L903.514 329.097L902.979 333.037L902.476 336.748L902.062 340.132L901.794 343.106L901.727 345.594L901.919 347.526L902.428 348.835L903.323 349.447L904.633 349.361L906.329 348.669L908.383 347.46L910.763 345.817L913.435 343.825L916.354 341.574L919.468 339.16L922.713 336.69L926.014 334.275L929.287 332.031L932.439 330.076L935.376 328.519L938.009 327.454L940.257 326.957L942.057 327.074L943.367 327.819L944.172 329.176L944.479 331.098L944.323 333.513L943.757 336.33L942.85 339.448L941.679 342.765L940.327 346.18L938.872 349.603L937.391 352.954L935.951 356.167L934.611 359.191L933.422 361.986L932.425 364.523L931.656 366.785L931.142 368.76L930.906 370.444L930.966 371.838L931.337 372.946L932.03 373.775L933.053 374.336L934.412 374.64L936.108 374.702L938.139 374.541L940.496 374.179L943.165 373.64L946.12 372.955L949.328 372.161L952.741 371.301L956.297 370.424L959.92 369.586L963.519 368.846L966.991 368.267L970.223 367.912L973.1 367.841L975.51 368.102L977.356 368.735L978.56 369.758L979.074 371.174L978.884 372.963L978.011 375.087L976.512 377.493L974.473 380.113L972.004 382.876L969.229 385.709L966.279 388.541L963.282 391.309L960.363 393.958L957.637 396.444L955.208 398.731L953.171 400.793L951.618 402.608L950.635 404.162L950.316 405.439L950.755 406.43L951.947 407.162L953.811 407.687L956.266 408.055L959.236 408.308L962.637 408.489L966.376 408.638L970.347 408.796L974.433 409.001L978.5 409.291L982.408 409.701L986.011 410.259L989.169 410.987L991.755 411.899L993.664 412.998L994.824 414.277L995.202 415.719L994.803 417.299L993.671 418.986L991.884 420.746L989.545 422.545L986.774 424.35L983.698 426.132L980.443 427.869L977.126 429.544L973.853 431.144L970.716 432.665L967.79 434.105L965.138 435.467L962.806 436.757L960.832 437.984L959.242 439.158L958.055 440.289L957.284 441.391L956.935 442.476L956.914 442.82Z" fill="#C1DBD0"/>
<path id="about-star-1" fill-rule="evenodd" clip-rule="evenodd" d="M541.088 426.584V426.584L541.419 427.938L542.415 429.311L544.083 430.725L546.438 432.201L549.498 433.761L553.285 435.427L557.827 437.223L563.154 439.176L569.297 441.313L576.289 443.661L584.161 446.252L592.937 449.114L602.638 452.281L613.271 455.781L624.829 459.644L637.284 463.895L650.582 468.553L664.64 473.633L679.336 479.135L694.51 485.05L709.958 491.352L725.432 497.996L740.643 504.918L755.263 512.033L768.942 519.236L781.314 526.402L792.018 533.393L800.717 540.062L807.118 546.257L810.99 551.835L812.183 556.668L810.635 560.647L806.381 563.695L799.548 565.766L790.348 566.85L779.063 566.973L766.024 566.19L751.595 564.584L736.15 562.258L720.055 559.328L703.652 555.915L687.247 552.142L671.106 548.127L655.448 543.978L640.444 539.791L626.225 535.651L612.88 531.628L600.464 527.779L589.005 524.15L578.506 520.777L568.954 517.685L560.324 514.894L552.58 512.416L545.682 510.261L539.588 508.434L534.256 506.939L529.643 505.78L525.712 504.958L522.426 504.479L519.755 504.348L517.671 504.572L516.152 505.16L515.179 506.124L514.741 507.481L514.827 509.248L515.432 511.447L516.557 514.104L518.204 517.248L520.378 520.912L523.087 525.132L526.341 529.945L530.149 535.395L534.521 541.521L539.462 548.367L544.976 555.972L551.058 564.372L557.695 573.593L564.862 583.653L572.518 594.554L580.606 606.275L589.046 618.773L597.735 631.975L606.544 645.77L615.321 660.011L623.885 674.51L632.038 689.038L639.563 703.328L646.237 717.084L651.838 729.987L656.16 741.714L659.022 751.95L660.281 760.407L659.846 766.842L657.679 771.072L653.805 772.988L648.308 772.561L641.324 769.842L633.04 764.96L623.671 758.111L613.458 749.544L602.645 739.544L591.473 728.416L580.167 716.468L568.926 703.997L557.922 691.279L547.296 678.559L537.154 666.046L527.576 653.915L518.612 642.303L510.289 631.315L502.616 621.025L495.585 611.481L489.177 602.713L483.365 594.729L478.115 587.53L473.393 581.102L469.159 575.43L465.376 570.492L462.008 566.266L459.019 562.732L456.378 559.868L454.052 557.658L452.014 556.089L450.239 555.15L448.703 554.838L447.385 555.153L446.265 556.099L445.325 557.688L444.549 559.936L443.921 562.863L443.426 566.495L443.051 570.863L442.779 576.001L442.595 581.946L442.484 588.738L442.428 596.416L442.406 605.017L442.397 614.573L442.377 625.109L442.317 636.638L442.188 649.154L441.955 662.631L441.582 677.015L441.031 692.217L440.262 708.11L439.234 724.522L437.911 741.235L436.261 757.985L434.256 774.461L431.882 790.314L429.133 805.171L426.02 818.643L422.569 830.348L418.821 839.931L414.834 847.086L410.676 851.574L406.428 853.242L402.172 852.031L397.994 847.984L393.975 841.24L390.185 832.024L386.683 820.635L383.515 807.419L380.707 792.757L378.273 777.037L376.21 760.636L374.504 743.908L373.132 727.17L372.06 710.694L371.252 694.706L370.668 679.384L370.27 664.863L370.017 651.237L369.874 638.565L369.805 626.879L369.78 616.185L369.772 606.474L369.753 597.723L369.704 589.901L369.602 582.97L369.432 576.893L369.175 571.629L368.817 567.14L368.342 563.393L367.737 560.356L366.985 558.002L366.072 556.309L364.982 555.261L363.697 554.846L362.196 555.059L360.461 555.897L358.467 557.366L356.189 559.473L353.6 562.231L350.668 565.658L347.363 569.772L343.649 574.595L339.489 580.149L334.847 586.455L329.684 593.531L323.963 601.389L317.652 610.032L310.722 619.454L303.152 629.628L294.933 640.509L286.07 652.028L276.586 664.085L266.53 676.547L255.974 689.248L245.022 701.982L233.809 714.509L222.5 726.56L211.292 737.839L200.406 748.039L190.081 756.855L180.562 763.995L172.089 769.205L164.885 772.279L159.14 773.077L155.001 771.534L152.559 767.667L151.849 761.573L152.843 753.423L155.458 743.452L159.559 731.942L164.97 719.204L171.487 705.563L178.892 691.337L186.959 676.829L195.472 662.309L204.227 648.013L213.042 634.135L221.76 620.831L230.247 608.215L238.396 596.366L246.126 585.333L253.374 575.139L260.097 565.785L266.269 557.256L271.873 549.527L276.906 542.562L281.368 536.324L285.265 530.77L288.607 525.858L291.402 521.546L293.661 517.796L295.391 514.572L296.599 511.839L297.287 509.569L297.456 507.734L297.102 506.314L296.215 505.288L294.784 504.641L292.791 504.36L290.215 504.435L287.029 504.859L283.203 505.626L278.702 506.732L273.487 508.174L267.517 509.948L260.75 512.051L253.144 514.478L244.657 517.22L235.254 520.265L224.907 523.595L213.601 527.185L201.337 531.001L188.137 535.001L174.052 539.127L159.165 543.311L143.601 547.473L127.523 551.516L111.144 555.335L94.7209 558.813L78.5546 561.829L62.9822 564.259L48.3666 565.987L35.0815 566.907L23.4933 566.933L13.9408 566.004L6.71488 564.091L2.03939 561.196L0.0558513 557.361L0.813723 552.658L4.26719 547.19L10.2789 541.084L18.6302 534.481L29.0366 527.531L41.1665 520.383L54.6615 513.178L69.1561 506.041L84.2951 499.082L99.7476 492.389L115.218 486.029L130.45 480.05L145.235 474.481L159.403 469.334L172.829 464.609L185.422 460.294L197.125 456.371L207.907 452.815L217.756 449.598L226.679 446.689L234.692 444.057L241.822 441.672L248.099 439.504L253.553 437.523L258.219 435.703L262.124 434.018L265.298 432.443L267.764 430.956L269.541 429.533L270.643 428.155L271.079 426.799L270.854 425.447L269.965 424.078L268.404 422.672L266.159 421.207L263.213 419.663L259.544 418.015L255.124 416.241L249.924 414.315L243.913 412.209L237.058 409.897L229.329 407.347L220.698 404.53L211.145 401.414L200.66 397.969L189.248 394.165L176.934 389.978L163.765 385.385L149.821 380.373L135.217 374.938L120.107 369.087L104.686 362.845L89.198 356.251L73.9248 349.368L59.1873 342.277L45.3344 335.081L32.73 327.9L21.737 320.871L12.6975 314.141L5.91337 307.861L1.62598 302.175L0 297.216L1.11114 293.095L4.94027 289.895L11.3744 287.667L20.2145 286.426L31.1892 286.153L43.9727 286.796L58.2051 288.278L73.5129 290.496L89.5282 293.339L105.904 296.683L122.327 300.406L138.526 304.39L154.274 308.525L169.392 312.712L183.743 316.864L197.232 320.911L209.798 324.791L221.41 328.457L232.062 331.873L241.763 335.011L250.538 337.851L258.42 340.379L265.45 342.586L271.669 344.466L277.12 346.014L281.844 347.227L285.882 348.102L289.268 348.636L292.035 348.823L294.211 348.657L295.819 348.127L296.878 347.224L297.401 345.931L297.398 344.23L296.875 342.102L295.832 339.519L294.269 336.455L292.179 332.876L289.556 328.748L286.39 324.031L282.67 318.686L278.389 312.67L273.539 305.941L268.116 298.46L262.124 290.189L255.574 281.1L248.489 271.174L240.907 260.407L232.884 248.814L224.494 236.435L215.837 223.339L207.036 209.63L198.243 195.448L189.632 180.976L181.4 166.436L173.76 152.089L166.936 138.227L161.149 125.166L156.611 113.23L153.506 102.736L151.983 93.9786L152.145 87.2079L154.036 82.6174L157.642 80.3286L162.889 80.3841L169.647 82.7448L177.738 87.2936L186.949 93.8447L197.045 102.157L207.779 111.949L218.909 122.918L230.208 134.756L241.472 147.162L252.523 159.858L263.218 172.593L273.442 185.151L283.114 197.353L292.179 209.056L300.605 220.149L308.381 230.554L315.513 240.219L322.019 249.112L327.924 257.22L333.26 264.544L338.065 271.094L342.374 276.885L346.226 281.938L349.658 286.276L352.705 289.919L355.399 292.889L357.773 295.201L359.855 296.872L361.67 297.911L363.243 298.322L364.595 298.108L365.745 297.263L366.713 295.777L367.514 293.636L368.164 290.819L368.679 287.301L369.073 283.052L369.36 278.039L369.556 272.225L369.678 265.57L369.742 258.036L369.768 249.585L369.777 240.183L369.794 229.804L369.845 218.434L369.961 206.074L370.175 192.746L370.523 178.502L371.043 163.423L371.775 147.63L372.759 131.287L374.033 114.605L375.629 97.8414L377.576 81.2997L379.891 65.3224L382.58 50.2811L385.636 36.563L389.036 24.5519L392.74 14.6087L396.693 7.04897L400.829 2.12339L405.069 0L409.329 0.75243L413.525 4.35451L417.574 10.6822L421.405 19.5224L424.956 30.5882L428.18 43.5377L431.047 57.9953L433.541 73.5731L435.662 89.89L437.423 106.588L438.846 123.344L439.964 139.878L440.812 155.957L441.428 171.395L441.853 186.051L442.127 199.824L442.285 212.651L442.363 224.495L442.393 235.347L442.403 245.213L442.418 254.115L442.461 262.083L442.553 269.153L442.711 275.363L442.953 280.755L443.295 285.364L443.75 289.227L444.333 292.375L445.06 294.837L445.946 296.634L447.007 297.783L448.261 298.298L449.725 298.185L451.422 297.447L453.373 296.079L455.604 294.075L458.142 291.421L461.016 288.102L464.26 284.099L467.906 279.39L471.993 273.954L476.556 267.769L481.633 260.817L487.263 253.084L493.477 244.565L500.307 235.267L507.775 225.21L515.89 214.438L524.652 203.014L534.039 191.035L544.008 178.627L554.491 165.952L565.388 153.208L576.57 140.63L587.876 128.484L599.114 117.062L610.067 106.669L620.498 97.6129L630.162 90.1876L638.817 84.6551L646.237 81.2299L652.225 80.0632L656.628 81.2321L659.344 84.7333L660.329 90.4823L659.602 98.3187L657.237 108.017L653.363 119.303L648.148 131.867L641.792 145.386L634.514 159.539L626.537 174.022L618.081 188.557L609.352 202.903L600.535 216.858L591.792 230.262L583.261 242.994L575.051 254.969L567.25 266.134L559.922 276.462L553.113 285.95L546.852 294.609L541.157 302.463L536.033 309.547L531.48 315.898L527.494 321.558L524.064 326.57L521.183 330.974L518.839 334.811L517.025 338.117L515.734 340.926L514.963 343.268L514.711 345.17L514.982 346.655L515.783 347.743L517.127 348.45L519.029 348.788L521.51 348.769L524.597 348.4L528.319 347.688L532.711 346.635L537.809 345.247L543.656 343.525L550.293 341.474L557.763 339.098L566.107 336.406L575.362 333.408L585.557 330.122L596.709 326.572L608.822 322.788L621.876 318.815L635.825 314.705L650.59 310.524L666.057 306.353L682.066 302.284L698.413 298.422L714.848 294.882L731.077 291.784L746.768 289.253L761.561 287.405L775.083 286.35L786.965 286.177L796.863 286.951L804.476 288.707L809.569 291.447L811.987 295.136L811.666 299.708L808.634 305.061L803.017 311.075L795.021 317.609L784.921 324.513L773.042 331.639L759.74 338.845L745.38 346L730.321 352.994L714.898 359.735L699.412 366.151L684.126 372.193L669.258 377.829L654.982 383.043L641.432 387.835L628.701 392.214L616.853 396.198L605.924 399.811L595.926 403.08L586.857 406.036L578.7 408.71L571.431 411.132L565.021 413.333L559.437 415.341L554.649 417.185L550.624 418.89L547.335 420.481L544.758 421.981L542.872 423.412L541.664 424.797L541.121 426.154L541.088 426.584Z" fill="#DD7649"/>
</g>
</svg>
