<svg id="about-graphic-4" width="895" height="909" viewBox="0 0 895 909" fill="none" xmlns="http://www.w3.org/2000/svg">
<path fill-rule="evenodd" clip-rule="evenodd" d="M547.013 454.238C546.965 454.363 547.001 454.504 547.103 454.591L547.854 455.229C548.032 455.38 548.238 455.493 548.461 455.561L551.667 456.541L557.634 457.768L566.218 459.22L577.723 460.991L592.541 463.193L611.112 465.957L633.86 469.432L661.082 473.772L692.778 479.113L728.429 485.536L766.745 493.009L805.49 501.323L841.484 510.047L870.948 518.53L889.373 525.661C889.918 525.872 890.42 526.178 890.856 526.566L891.127 526.807C893.662 529.06 893.013 533.18 889.909 534.546V534.546C889.368 534.783 888.788 534.916 888.198 534.937L868.957 535.61L838.971 533.916L802.847 530.306L764.294 525.414L726.368 519.874L691.182 514.218L659.922 508.831L633.041 503.955L610.499 499.714L591.98 496.155L577.044 493.273L565.236 491.041L556.133 489.426L549.384 488.397L544.712 487.938L542.218 488.034C542.021 488.041 541.83 488.103 541.666 488.213V488.213C541.216 488.513 541.062 489.102 541.306 489.584L541.421 489.812C541.504 489.975 541.619 490.12 541.759 490.237L543.947 492.074L548.174 494.883L554.393 498.618L562.842 503.452L573.821 509.595L587.68 517.3L604.789 526.842L625.469 538.498L649.899 552.49L677.957 568.907L709.036 587.585L741.836 607.976L774.242 629.029L803.38 649.174L825.965 666.461L838.149 678.134C838.669 678.632 839.03 679.273 839.187 679.976V679.976C839.731 682.409 837.731 684.66 835.25 684.407L830.493 683.921C829.902 683.86 829.32 683.726 828.763 683.52L808.254 675.974L779.005 662.638L745.24 645.651L710.196 626.928L676.434 608.11L645.638 590.388L618.674 574.479L595.792 560.718L576.845 549.167L561.48 539.731L549.27 532.243L539.8 526.521L532.713 522.405L527.73 519.783L524.929 518.704C524.759 518.639 524.574 518.627 524.397 518.669V518.669C523.886 518.791 523.588 519.322 523.75 519.821L523.973 520.508C524.02 520.652 524.087 520.788 524.173 520.912L526.388 524.134L530.508 529.239L536.515 536.243L544.594 545.427L554.98 557.14L567.926 571.769L583.65 589.695L602.249 611.199L623.581 636.329L647.108 664.721L671.756 695.392L695.828 726.596L717.079 755.829L733.02 780.108L740.951 795.584C741.267 796.199 741.407 796.89 741.357 797.58V797.58C741.165 800.195 738.43 801.823 736.04 800.744L732.323 799.065C731.792 798.825 731.295 798.517 730.844 798.147L714.346 784.594L691.619 762.789L665.899 736.117L639.55 707.403L614.387 678.981L591.565 652.481L571.643 628.838L554.745 608.439L540.72 591.3L529.279 577.22L520.084 565.904L512.807 557.039L507.157 550.335L502.89 545.552L500.126 542.816C499.92 542.613 499.698 542.427 499.461 542.262L498.092 541.303C497.901 541.169 497.666 541.113 497.435 541.147V541.147C497.018 541.208 496.697 541.545 496.656 541.964L496.583 542.708C496.564 542.896 496.574 543.086 496.613 543.272L497.263 546.399L498.865 551.622L501.409 558.882L504.971 568.477L509.649 580.777L515.551 596.207L522.777 615.216L531.387 638.207L541.352 665.424L552.489 696.78L564.389 731.639L576.353 768.582L587.382 805.273L596.253 838.52L601.719 864.68L602.683 878.731C602.754 879.766 602.316 880.771 601.508 881.422V881.422C600.15 882.517 598.163 882.313 597.056 880.963L591.486 874.169C591.012 873.591 590.593 872.97 590.235 872.315L578.89 851.581L564.742 821.217L549.735 785.842L535.063 748.919L521.56 713.192L509.684 680.48L499.587 651.745L491.216 627.297L484.402 607.03L478.931 590.615L474.585 577.642L471.169 567.712L468.517 560.487L466.642 556.07C466.543 555.838 466.428 555.613 466.296 555.398L465.199 553.606C465.073 553.4 464.859 553.263 464.619 553.235V553.235C464.237 553.19 463.879 553.426 463.77 553.795L463.377 555.126C463.328 555.291 463.297 555.462 463.284 555.634L462.963 559.937L462.882 566.974L463.02 576.733L463.335 589.567L463.783 605.905L464.305 626.209L464.819 650.891L465.212 680.184L465.336 713.946L465.01 751.418L464.043 790.979L462.263 830.013L459.581 865.02L456.036 892.091L452.227 906.235C451.974 907.175 451.31 907.951 450.419 908.345V908.345C448.724 909.095 446.747 908.265 446.095 906.529L443.226 898.884C442.977 898.222 442.793 897.536 442.677 896.838L438.875 874.002L435.631 841.338L433.233 803.741L431.65 764.796L430.761 727.284L430.397 693.013L430.387 662.912L430.583 637.252L430.865 615.886L431.145 598.447L431.358 584.483L431.459 573.548L431.409 565.245L431.179 559.249L430.777 555.66C430.751 555.43 430.7 555.203 430.626 554.983L430.202 553.724C430.107 553.444 429.875 553.232 429.587 553.163V553.163C429.272 553.088 428.941 553.197 428.732 553.444L427.964 554.353C427.824 554.519 427.704 554.7 427.606 554.894L426.023 558.023L423.793 563.441L420.951 571.071L417.36 581.204L412.852 594.197L407.231 610.451L400.283 630.371L391.799 654.28L381.61 682.296L369.661 714.146L356.09 748.947L341.337 785.002L326.211 819.71L311.89 849.731L300.37 870.431C299.982 871.128 299.533 871.79 299.029 872.408L293.072 879.713C292.056 880.96 290.262 881.235 288.918 880.351V880.351C287.972 879.728 287.436 878.644 287.515 877.514L288.339 865.688C288.417 864.566 288.576 863.45 288.815 862.351L294.111 837.95L303.37 804.493L314.944 767.325L327.538 729.749L340.082 694.228L351.818 662.277L362.298 634.595L371.321 611.294L378.852 592.134L384.952 576.705L389.722 564.552L393.267 555.254L395.671 548.459L396.904 544.185C396.956 544.005 396.99 543.82 397.007 543.633L397.148 542.042C397.178 541.702 396.982 541.383 396.666 541.256V541.256C396.413 541.155 396.125 541.194 395.909 541.36L394.37 542.538C394.19 542.676 394.022 542.827 393.867 542.991L390.658 546.398L385.794 552.137L379.304 560.142L370.919 570.67L360.321 584.027L347.166 600.524L331.137 620.407L312.026 643.734L289.869 670.225L265.104 699.068L238.742 728.761L212.461 757.057L188.537 781.134L170.485 797.195C169.85 797.761 169.167 798.271 168.446 798.722L159.964 804.014C158.685 804.811 157.019 804.579 156.008 803.461V803.461C155.195 802.563 154.977 801.275 155.449 800.159L159.886 789.676C160.293 788.714 160.772 787.784 161.317 786.893L174.131 765.985L193.542 738.045L216.317 707.418L240.191 676.723L263.388 647.868L284.728 621.992L303.576 599.59L319.71 580.705L333.172 565.109L344.15 552.448L352.891 542.336L359.643 534.405L364.627 528.34L368.018 523.882L369.784 521.086C369.889 520.92 369.971 520.74 370.026 520.552L370.285 519.678C370.394 519.31 370.254 518.913 369.937 518.696V518.696C369.729 518.553 369.469 518.506 369.224 518.566L367.711 518.939C367.452 519.003 367.199 519.09 366.956 519.2L363.5 520.763L357.975 523.715L350.51 527.99L340.8 533.73L328.476 541.105L313.123 550.296L294.323 561.47L271.726 574.722L245.177 589.999L214.892 607.001L181.674 625.066L147.105 643.089L113.636 659.523L84.4221 672.532L63.7035 680.004C63.1309 680.21 62.5361 680.348 61.9311 680.416L56.3819 681.034C54.0575 681.292 52.1294 679.259 52.5115 676.952V676.952C52.6368 676.196 53.0048 675.501 53.5601 674.972L65.4971 663.615L88.2245 646.512L117.856 626.434L151.028 605.349L184.733 584.874L216.723 566.103L245.599 549.623L270.69 535.615L291.851 523.998L309.257 514.545L323.235 506.977L334.157 501.013L342.366 496.405L348.136 492.947L351.458 490.619C351.585 490.53 351.701 490.424 351.801 490.306L352.425 489.567C352.729 489.207 352.681 488.666 352.317 488.365V488.365C352.164 488.239 351.971 488.17 351.772 488.171L348.948 488.183L343.525 488.898L335.629 490.296L324.968 492.387L311.156 495.199L293.744 498.761L272.271 503.085L246.362 508.145L215.881 513.836L181.135 519.94L143.131 526.09L103.793 531.753L66.0277 536.268L33.4995 538.939L10.978 539.182C10.3498 539.189 9.72291 539.125 9.109 538.992L2.98464 537.663C0.817114 537.193 -0.343138 534.823 0.615263 532.822V532.822C0.963201 532.096 1.55518 531.515 2.28782 531.181L16.7997 524.564L43.3334 516.102L77.2524 507.143L114.79 498.408L152.659 490.405L188.45 483.411L220.696 477.51L248.724 472.652L272.423 468.717L292.021 465.556L307.909 463.02L320.527 460.974L330.294 459.3L337.569 457.902L342.638 456.699L345.449 455.711C345.621 455.651 345.781 455.559 345.921 455.441L346.251 455.162C346.63 454.842 346.718 454.293 346.458 453.871V453.871C346.349 453.695 346.189 453.556 345.998 453.475L344.29 452.746C343.981 452.614 343.663 452.505 343.338 452.42L339.412 451.391L332.866 450.063L323.929 448.487L312.263 446.571L297.464 444.205L279.094 441.259L256.737 437.587L230.096 433.039L199.152 427.479L164.374 420.832L126.951 413.131L88.9883 404.585L53.5185 395.628L24.2219 386.92L5.58883 379.59C5.05392 379.38 4.55763 379.082 4.12018 378.709L3.19359 377.919C0.757539 375.843 1.27606 371.944 4.17019 370.577V370.577C4.71899 370.318 5.31543 370.174 5.92214 370.156L24.8697 369.589L54.9115 371.542L91.4293 375.543L130.626 380.916L169.311 386.976L205.244 393.143L237.146 398.996L264.513 404.272L287.365 408.837L306.023 412.641L320.931 415.689L332.55 418.007L341.29 419.624L347.475 420.556L351.098 420.783C351.248 420.792 351.399 420.775 351.542 420.731L351.788 420.655C352.392 420.471 352.69 419.791 352.416 419.222V419.222C352.347 419.077 352.244 418.951 352.116 418.852L349.494 416.832L344.458 413.705L337.052 409.483L327.028 403.976L314.064 396.948L297.789 388.127L277.853 377.228L254.017 364L226.304 348.303L195.192 330.22L161.83 310.194L128.194 289.152L97.075 268.551L71.7873 250.278L56.2125 236.908C55.7768 236.533 55.4024 236.093 55.103 235.603L54.0917 233.948C52.5023 231.345 54.1088 227.968 57.1305 227.558V227.558C57.7451 227.475 58.3705 227.528 58.9623 227.714L76.5651 233.238L103.706 244.763L136.185 260.312L170.709 278.015L204.571 296.209L235.911 313.642L263.697 329.516L287.55 343.428L307.528 355.258L323.935 365.066L337.177 372.999L347.677 379.24L355.82 383.965L361.935 387.326L366.277 389.435L368.766 390.274C368.945 390.334 369.137 390.35 369.325 390.318V390.318C369.905 390.22 370.318 389.7 370.282 389.112L370.277 389.037C370.266 388.852 370.213 388.671 370.122 388.509L368.786 386.126L365.873 382.136L361.413 376.608L355.246 369.303L347.165 359.924L336.927 348.116L324.281 333.497L309.012 315.693L291.02 294.423L270.427 269.625L247.722 241.629L223.899 211.351L200.546 180.448L179.8 151.334L164.075 126.947L156.045 111.12C155.748 110.533 155.602 109.881 155.621 109.224V109.224C155.703 106.439 158.575 104.619 161.128 105.734L164.105 107.035C164.634 107.266 165.128 107.57 165.571 107.939L181.828 121.462L204.464 143.564L230.264 170.84L256.814 200.365L282.228 229.679L305.288 257.037L325.389 281.424L342.386 302.41L356.425 319.966L367.8 334.29L376.853 345.684L383.915 354.462L389.272 360.9L393.148 365.203L395.512 367.318C395.638 367.43 395.792 367.508 395.957 367.543V367.543C396.526 367.662 397.07 367.255 397.116 366.676L397.154 366.206C397.166 366.057 397.153 365.907 397.117 365.762L396.206 362.116L394.153 356.06L390.98 347.593L386.611 336.393L380.946 322.056L373.88 304.133L365.334 282.189L355.306 255.911L343.935 225.277L331.582 190.772L318.901 153.628L306.87 116.006L296.728 80.9727L289.797 52.1665L287.324 34.0763C287.238 33.4439 287.3 32.8 287.508 32.1963V32.1963C288.458 29.4286 291.924 28.5272 294.102 30.4814L295.986 32.1722C296.412 32.5545 296.779 32.9982 297.074 33.4886L307.724 51.1716L321.497 78.9383L336.51 112.541L351.489 148.491L365.5 183.918L377.993 216.839L388.744 246.131L397.757 271.35L405.172 292.512L411.192 309.892L416.032 323.879L419.896 334.881L422.96 343.274L425.372 349.369L427.052 352.98C427.184 353.264 427.339 353.538 427.514 353.798L428.505 355.271C428.627 355.452 428.806 355.586 429.014 355.651V355.651C429.454 355.788 429.929 355.593 430.145 355.186L430.416 354.675C430.503 354.512 430.562 354.335 430.59 354.153L431.063 351.111L431.357 345.795L431.461 338.258L431.405 328.201L431.223 315.249L430.958 298.966L430.668 278.897L430.434 254.635L430.363 225.944L430.597 192.937L431.3 156.306L432.644 117.562L434.774 79.1779L437.754 44.5227L441.519 17.4394L445.483 2.83801C445.718 1.97163 446.297 1.23873 447.085 0.808744V0.808744C448.838 -0.147889 451.032 0.662764 451.743 2.52949L454.394 9.49713C454.633 10.1253 454.807 10.7765 454.912 11.4403L458.539 34.2035L461.508 67.1065L463.57 105.271L464.781 144.995L465.29 183.355L465.288 218.417L464.963 249.174L464.474 275.313L463.945 296.972L463.466 314.523L463.103 328.424L462.904 339.12L462.911 346.992L463.164 352.322L463.65 354.949C463.69 355.161 463.812 355.35 463.99 355.472V355.472C464.345 355.717 464.829 355.643 465.095 355.304L465.814 354.39C465.914 354.263 465.999 354.124 466.066 353.977L467.809 350.182L470.248 343.762L473.405 334.726L477.434 322.764L482.524 307.49L488.886 288.492L496.74 265.401L506.274 238.023L517.588 206.509L530.606 171.589L544.978 134.792L559.992 98.5743L574.561 66.2136L587.321 41.3686L596.134 28.4113C596.611 27.7098 597.336 27.2144 598.162 27.024V27.024C600.221 26.5501 602.203 28.0674 602.282 30.1785L602.536 36.9696C602.561 37.6138 602.515 38.2586 602.402 38.8931L598.419 61.0958L590.503 92.4849L580.023 128.458L568.234 165.62L556.224 201.339L544.786 233.913L534.419 262.479L525.368 286.802L517.705 307.04L511.391 323.562L506.335 336.81L502.429 347.224L499.57 355.192L497.674 361.036L496.776 364.637C496.715 364.879 496.679 365.127 496.667 365.377L496.596 366.832C496.583 367.103 496.697 367.364 496.904 367.539V367.539C497.176 367.768 497.56 367.808 497.874 367.641L498.792 367.15C498.973 367.054 499.14 366.935 499.291 366.796L501.79 364.491L505.658 360.28L510.843 354.211L517.573 346.063L526.122 335.562L536.811 322.396L549.977 306.26L565.935 286.911L584.891 264.281L606.826 238.619L631.338 210.667L657.474 181.825L683.63 154.212L707.589 130.537L725.763 114.605C726.454 114 727.192 113.451 727.971 112.964L736.918 107.368C738.089 106.636 739.603 106.766 740.631 107.689V107.689C741.617 108.573 741.933 109.986 741.417 111.205L737.167 121.247C736.792 122.133 736.348 122.989 735.839 123.805L722.85 144.645L703.021 172.634L679.584 203.513L654.906 234.582L630.876 263.841L608.764 290.075L589.263 312.745L572.625 331.787L558.814 347.428L547.64 360.027L538.853 369.976L532.209 377.641L527.504 383.325L524.786 387.007C524.663 387.173 524.555 387.35 524.463 387.535L523.667 389.139C523.532 389.409 523.569 389.733 523.76 389.966V389.966C523.955 390.204 524.273 390.303 524.568 390.217L526.259 389.726C526.454 389.669 526.644 389.595 526.826 389.505L530.908 387.48L537.299 383.85L545.975 378.655L557.269 371.749L571.582 362.953L589.344 352.091L610.944 339.037L636.611 323.792L666.247 306.59L699.205 288.015L734.077 269.103L768.576 251.362L799.638 236.652L822.475 227.431C823.39 227.062 824.332 226.764 825.293 226.54L836.072 224.028C837.33 223.735 838.637 224.252 839.355 225.325V225.325C840.143 226.502 840.033 228.064 839.088 229.119L832.166 236.852C831.567 237.52 830.916 238.138 830.217 238.7L811.443 253.803L784.032 273.26L752.325 294.218L719.381 314.959L687.575 334.264L658.46 351.435L632.842 366.199L610.976 378.579L592.76 388.766L577.905 397.025L566.048 403.637L556.829 408.863L549.929 412.928L545.089 416.015L542.368 418.083C542.204 418.208 542.056 418.353 541.927 418.515L541.265 419.35C541.048 419.625 541.017 420.003 541.187 420.309V420.309C541.32 420.55 541.56 420.712 541.832 420.748L543.257 420.934C543.502 420.966 543.749 420.974 543.995 420.957L547.682 420.703L553.743 419.857L562.061 418.431L572.965 416.399L586.855 413.728L604.183 410.386L625.401 406.361L650.878 401.678L680.765 396.434L714.789 390.829L752.024 385.201L790.667 380.037L827.946 375.947L860.307 373.58L882.963 373.488C883.617 373.486 884.268 373.552 884.908 373.686L891.783 375.132C893.808 375.558 894.962 377.705 894.201 379.629V379.629C893.882 380.435 893.262 381.086 892.473 381.443L878.344 387.839L851.764 396.081L817.427 404.808L779.174 413.311L740.431 421.084L703.749 427.852L670.705 433.533L642.037 438.179L617.887 441.913L598.028 444.886L582.063 447.252L569.548 449.148L560.071 450.69L553.298 451.98L549.499 452.969C549.165 453.056 548.842 453.182 548.537 453.343L547.16 454.072C547.092 454.108 547.04 454.167 547.013 454.238V454.238Z" fill="#95ACA4"/>
</svg>
