<svg width="1373" height="1373" viewBox="0 0 1373 1373" fill="none" xmlns="http://www.w3.org/2000/svg">
<path id="about-graphic-1" fill-rule="evenodd" clip-rule="evenodd" d="M733.434 686.847C733.429 686.897 733.434 686.949 733.449 686.997L733.496 687.145C733.546 687.306 733.632 687.453 733.747 687.577L733.862 687.701C733.964 687.809 734.077 687.906 734.201 687.988L734.76 688.357L735.822 688.878L737.218 689.438L738.974 690.047L741.12 690.72L743.696 691.471L746.748 692.318L750.331 693.28L754.513 694.383L759.369 695.653L764.991 697.123L771.482 698.833L778.964 700.826L787.571 703.158L797.458 705.889L808.796 709.092L821.772 712.849L836.588 717.253L853.453 722.409L872.582 728.431L894.178 735.441L918.421 743.565L945.447 752.926L975.322 763.634L1008.01 775.778L1043.35 789.406L1080.99 804.51L1120.4 821.007L1160.83 838.721L1201.27 857.366L1240.53 876.54L1277.23 895.731L1309.91 914.326L1337.11 931.651L1354.54 944.777C1356.52 946.267 1358.38 947.903 1360.12 949.669L1368.25 957.942C1369.43 959.146 1370.37 960.568 1371.02 962.13L1372.2 964.987C1373.31 967.674 1372.86 970.752 1371.03 973.011V973.011C1369.81 974.519 1368.07 975.527 1366.16 975.842L1358.86 977.042C1356.73 977.392 1354.56 977.489 1352.41 977.33L1334.23 975.989L1305.92 970.805L1272.06 962.387L1234.11 951.238L1193.59 937.942L1151.91 923.107L1110.31 907.329L1069.83 891.144L1031.25 875.015L995.146 859.311L961.849 844.314L931.529 830.219L904.209 817.146L879.807 805.155L858.17 794.258L839.095 784.431L822.358 775.625L807.727 767.776L794.973 760.811L783.88 754.653L774.246 749.228L765.89 744.462L758.649 740.288L752.38 736.644L746.955 733.474L742.266 730.727L738.218 728.361L734.731 726.337L731.734 724.622L729.17 723.19L726.988 722.016L725.146 721.082L723.611 720.373L722.352 719.879L721.603 719.664C721.433 719.615 721.259 719.581 721.083 719.561L720.78 719.527C720.646 719.513 720.511 719.519 720.379 719.547L720.254 719.574C720.108 719.605 719.972 719.676 719.864 719.779V719.779C719.752 719.885 719.673 720.021 719.636 720.17L719.609 720.277C719.577 720.406 719.567 720.54 719.579 720.673L719.606 720.966C719.622 721.138 719.653 721.307 719.699 721.473L719.902 722.209L720.38 723.447L721.071 724.96L721.986 726.776L723.141 728.929L724.552 731.462L726.243 734.422L728.241 737.868L730.579 741.869L733.293 746.504L736.428 751.866L740.032 758.065L744.161 765.224L748.877 773.486L754.247 783.012L760.343 793.983L767.241 806.597L775.016 821.072L783.743 837.634L793.486 856.515L804.296 877.943L816.198 902.119L829.185 929.204L843.202 959.287L858.132 992.354L873.788 1028.25L889.894 1066.65L906.089 1107.01L921.918 1148.55L936.847 1190.28L950.288 1230.94L961.629 1269.15L970.283 1303.4L975.74 1332.2L977.323 1350.77C977.519 1353.06 977.462 1355.37 977.154 1357.64L976.087 1365.54C975.84 1367.37 974.988 1369.06 973.666 1370.35V1370.35C971.418 1372.54 968.122 1373.27 965.157 1372.23L963.078 1371.51C961.503 1370.95 960.062 1370.07 958.851 1368.93L951.047 1361.52C949.134 1359.71 947.367 1357.75 945.764 1355.65L932.994 1338.99L915.801 1312.28L897.283 1279.98L878.118 1243.55L858.923 1204.44L840.221 1164.04L822.423 1123.57L805.822 1084.04L790.604 1046.23L776.858 1010.7L764.598 977.788L753.779 947.684L744.316 920.43L736.098 895.968L729.004 874.166L722.908 854.846L717.688 837.807L713.229 822.835L709.424 809.719L706.181 798.257L703.415 788.26L701.054 779.556L699.036 771.99L697.305 765.424L695.818 759.736L694.533 754.822L693.418 750.59L692.445 746.961L691.59 743.869L690.832 741.257L690.154 739.078L689.54 737.292L688.977 735.868L688.454 734.78L688.083 734.202C688 734.075 687.904 733.956 687.796 733.85L687.628 733.686C687.532 733.592 687.418 733.52 687.293 733.475L687.275 733.468C687.107 733.407 686.924 733.399 686.751 733.444V733.444C686.62 733.479 686.498 733.544 686.396 733.634L686.241 733.771C686.132 733.867 686.036 733.976 685.954 734.097L685.586 734.637L685.068 735.672L684.512 737.041L683.907 738.768L683.24 740.882L682.496 743.422L681.657 746.434L680.705 749.973L679.615 754.104L678.359 758.904L676.906 764.462L675.217 770.881L673.248 778.279L670.946 786.792L668.249 796.572L665.087 807.788L661.378 820.627L657.029 835.29L651.938 851.985L645.99 870.928L639.063 892.322L631.033 916.35L621.775 943.153L611.179 972.803L599.152 1005.27L585.645 1040.41L570.657 1077.89L554.267 1117.19L536.642 1157.57L518.06 1198.05L498.911 1237.46L479.702 1274.42L461.037 1307.47L443.586 1335.16L428.042 1356.15L416.894 1367.48C415.682 1368.71 414.263 1369.72 412.701 1370.46L409.133 1372.15C406.699 1373.3 403.841 1373.09 401.596 1371.61V1371.61C399.878 1370.47 398.688 1368.69 398.29 1366.67L396.983 1360.03C396.59 1358.03 396.454 1355.99 396.579 1353.95L397.673 1336.2L402.581 1308.39L410.758 1274.91L421.709 1237.23L434.856 1196.86L449.589 1155.22L465.312 1113.57L481.481 1072.96L497.629 1034.21L513.376 997.888L528.437 964.356L542.608 933.794L555.765 906.235L567.841 881.604L578.824 859.752L588.734 840.48L597.619 823.564L605.541 808.772L612.574 795.876L618.792 784.657L624.273 774.914L629.088 766.462L633.306 759.137L636.99 752.795L640.196 747.307L642.975 742.562L645.37 738.466L647.42 734.937L649.158 731.903L650.612 729.306L651.805 727.095L652.758 725.228L653.484 723.669L653.995 722.389L654.221 721.627C654.273 721.452 654.311 721.274 654.334 721.093L654.375 720.781C654.392 720.646 654.389 720.509 654.365 720.375L654.34 720.232C654.314 720.088 654.251 719.953 654.155 719.842V719.842C654.052 719.722 653.916 719.635 653.764 719.591L653.676 719.566C653.548 719.529 653.415 719.515 653.283 719.524L653.001 719.545C652.834 719.557 652.668 719.585 652.507 719.628L651.784 719.819L650.567 720.28L649.077 720.954L647.287 721.851L645.162 722.986L642.661 724.376L639.737 726.044L636.332 728.017L632.379 730.326L627.798 733.009L622.497 736.109L616.37 739.674L609.293 743.76L601.125 748.427L591.707 753.742L580.859 759.778L568.384 766.609L554.067 774.313L537.681 782.962L518.994 792.623L497.778 803.347L473.829 815.163L446.982 828.066L417.141 842.005L384.31 856.87L348.632 872.477L310.42 888.561L270.196 904.765L228.713 920.643L186.963 935.666L146.164 949.249L107.709 960.78L73.0933 969.669L43.8068 975.397L24.875 977.217C22.4386 977.451 19.9847 977.436 17.5513 977.172L9.11461 976.256C7.35373 976.065 5.6927 975.342 4.35215 974.185V974.185C1.78487 971.968 0.73462 968.464 1.65903 965.2L2.01079 963.958C2.46567 962.352 3.28813 960.874 4.41307 959.641L11.0566 952.359C12.9519 950.281 15.019 948.367 17.236 946.637L33.115 934.247L59.3172 917.188L91.2195 898.749L127.379 879.611L166.325 860.396L206.664 841.637L247.162 823.753L286.793 807.047L324.76 791.713L360.491 777.848L393.617 765.47L423.945 754.538L451.423 744.97L476.102 736.657L498.108 729.478L517.617 723.307L534.828 718.021L549.956 713.504L563.211 709.651L574.797 706.366L584.903 703.565L593.704 701.174L601.355 699.13L607.996 697.378L613.749 695.873L618.721 694.573L623.004 693.446L626.678 692.463L629.81 691.599L632.459 690.834L634.671 690.15L636.486 689.531L637.938 688.965L639.052 688.438L639.648 688.066C639.78 687.983 639.903 687.887 640.014 687.778L640.192 687.604C640.287 687.512 640.362 687.401 640.413 687.279L640.428 687.243C640.494 687.083 640.51 686.907 640.474 686.738V686.738C640.445 686.603 640.383 686.477 640.295 686.371L640.173 686.224C640.081 686.115 639.976 686.018 639.859 685.936L639.339 685.57L638.329 685.054L636.987 684.501L635.29 683.901L633.208 683.239L630.704 682.502L627.732 681.671L624.237 680.729L620.156 679.65L615.413 678.409L609.919 676.973L603.574 675.304L596.259 673.359L587.84 671.085L578.168 668.422L567.073 665.3L554.372 661.637L539.863 657.343L523.338 652.315L504.584 646.438L483.394 639.594L459.583 631.655L433.006 622.5L403.586 612.012L371.337 600.102L336.406 586.712L299.099 571.839L259.922 555.555L219.6 538.019L179.085 519.498L139.551 500.376L102.346 481.15L68.9274 462.416L40.7596 444.842L19.1962 429.119L7.3049 417.774C6.01296 416.541 4.92844 415.108 4.09316 413.53L1.86567 409.321C0.698079 407.114 0.694076 404.474 1.85497 402.265V402.265C2.87728 400.319 4.69549 398.914 6.83637 398.415L12.7695 397.034C14.6521 396.596 16.5863 396.422 18.5169 396.516L35.8242 397.358L63.1175 401.989L96.1939 409.922L133.59 420.673L173.801 433.669L215.389 448.299L257.076 463.965L297.795 480.118L336.715 496.283L373.244 512.076L407.004 527.2L437.803 541.449L465.598 554.69L490.456 566.855L512.521 577.926L531.989 587.92L549.083 596.885L564.034 604.882L577.072 611.983L588.416 618.264L598.269 623.801L606.817 628.667L614.225 632.931L620.641 636.655L626.192 639.898L630.992 642.709L635.136 645.133L638.708 647.209L641.778 648.971L644.408 650.447L646.648 651.661L648.541 652.632L650.123 653.375L651.424 653.904L652.199 654.142C652.378 654.197 652.561 654.238 652.747 654.265L653.068 654.312C653.204 654.332 653.343 654.332 653.48 654.312L653.641 654.289C653.782 654.269 653.916 654.212 654.029 654.124V654.124C654.158 654.024 654.254 653.887 654.305 653.732L654.328 653.663C654.37 653.538 654.388 653.406 654.381 653.274L654.367 653.003C654.358 652.84 654.334 652.678 654.294 652.52L654.114 651.811L653.67 650.615L653.013 649.148L652.134 647.382L651.019 645.285L649.65 642.816L648.006 639.927L646.058 636.563L643.777 632.655L641.126 628.127L638.061 622.888L634.535 616.83L630.493 609.833L625.875 601.757L620.614 592.444L614.639 581.716L607.874 569.377L600.244 555.214L591.673 539L582.096 520.504L571.458 499.496L559.73 475.77L546.913 449.156L533.055 419.552L518.259 386.955L502.704 351.492L486.647 313.463L470.438 273.371L454.517 231.952L439.406 190.179L425.687 149.252L413.971 110.554L404.852 75.5744L398.857 45.8091L396.805 26.5333C396.529 23.9397 396.501 21.3257 396.72 18.7267L397.472 9.79509C397.617 8.08465 398.23 6.44727 399.246 5.06362V5.06362C401.413 2.11233 405.107 0.703621 408.689 1.463L409.043 1.53818C410.695 1.88829 412.229 2.65572 413.499 3.76724L420.5 9.89271C422.562 11.6968 424.457 13.6831 426.163 15.8275L438.395 31.2111L455.313 56.9028L473.667 88.4052L492.772 124.282L512 163.061L530.811 203.34L548.776 243.869L565.583 283.605L581.029 321.731L595.012 357.658L607.506 391.003L618.55 421.56L628.223 449.266L636.631 474.165L643.895 496.38L650.142 516.082L655.493 533.47L660.067 548.757L663.969 562.154L667.296 573.867L670.133 584.085L672.554 592.984L674.623 600.722L676.396 607.439L677.919 613.259L679.234 618.29L680.374 622.625L681.367 626.346L682.24 629.519L683.012 632.204L683.702 634.45L684.325 636.296L684.895 637.776L685.424 638.915L685.798 639.53C685.881 639.666 685.978 639.794 686.087 639.911L686.265 640.102C686.355 640.199 686.463 640.277 686.583 640.333L686.636 640.357C686.788 640.428 686.957 640.451 687.122 640.424V640.424C687.261 640.401 687.392 640.343 687.503 640.256L687.64 640.148C687.75 640.062 687.847 639.96 687.93 639.847L688.125 639.579C688.237 639.424 688.338 639.261 688.427 639.091L688.807 638.361L689.356 637.047L689.952 635.379L690.608 633.329L691.339 630.86L692.161 627.926L693.094 624.475L694.161 620.443L695.388 615.755L696.807 610.325L698.456 604.051L700.377 596.817L702.622 588.492L705.252 578.924L708.334 567.949L711.95 555.381L716.19 541.023L721.156 524.665L726.96 506.095L733.723 485.105L741.569 461.507L750.623 435.152L760.999 405.957L772.793 373.928L786.064 339.199L800.818 302.063L816.994 263.009L834.437 222.743L852.891 182.2L871.98 142.538L891.218 105.092L910.013 71.3156L927.704 42.6757L943.597 20.54L955.118 8.10802C956.383 6.74278 957.844 5.57254 959.452 4.63541L964.229 1.85148C966.234 0.683163 968.666 0.505023 970.82 1.3687V1.3687C973.008 2.24612 974.659 4.09809 975.279 6.37233L976.692 11.5476C977.177 13.3256 977.392 15.1667 977.327 17.0087L976.74 33.8373L972.39 60.6133L964.704 93.2837L954.157 130.394L941.319 170.438L926.798 211.969L911.195 253.693L895.063 294.525L878.885 333.616L863.052 370.354L847.866 404.346L833.543 435.387L820.219 463.422L807.968 488.51L796.812 510.793L786.733 530.462L777.689 547.737L769.618 562.852L762.449 576.034L756.106 587.506L750.513 597.472L745.597 606.118L741.288 613.612L737.522 620.102L734.244 625.719L731.4 630.575L728.947 634.768L726.845 638.383L725.059 641.491L723.561 644.154L722.327 646.424L721.338 648.343L720.576 649.949L720.032 651.272L719.782 652.06C719.724 652.243 719.679 652.431 719.648 652.621L719.595 652.951C719.572 653.089 719.569 653.23 719.585 653.37L719.605 653.547C719.621 653.686 719.671 653.82 719.752 653.934V653.934C719.848 654.072 719.984 654.178 720.142 654.237L720.192 654.256C720.316 654.303 720.448 654.325 720.58 654.321L720.839 654.313C720.998 654.308 721.155 654.287 721.31 654.25L722.005 654.082L723.181 653.654L724.625 653.015L726.366 652.154L728.435 651.058L730.873 649.71L733.726 648.088L737.05 646.166L740.911 643.913L745.386 641.292L750.565 638.262L756.553 634.774L763.47 630.775L771.454 626.205L780.661 620.998L791.269 615.082L803.471 608.382L817.48 600.822L833.521 592.329L851.826 582.833L872.624 572.281L896.125 560.639L922.503 547.907L951.864 534.127L984.224 519.4L1019.46 503.896L1057.3 487.866L1097.25 471.653L1138.59 455.69L1180.38 440.493L1221.42 426.64L1260.34 414.741L1295.67 405.394L1325.9 399.133L1345.5 396.856C1348.26 396.535 1351.04 396.461 1353.81 396.632L1363.19 397.214C1364.87 397.318 1366.5 397.841 1367.92 398.736L1368.4 399.039C1371.45 400.955 1373.09 404.476 1372.61 408.044V408.044C1372.38 409.755 1371.67 411.366 1370.56 412.691L1364.88 419.49C1363.23 421.464 1361.39 423.273 1359.39 424.894L1344.4 437.056L1319.23 453.832L1288.14 472.097L1252.56 491.168L1213.97 510.409L1173.76 529.272L1133.21 547.318L1093.38 564.227L1055.11 579.788L1018.99 593.89L985.434 606.504L954.654 617.661L926.723 627.44L901.605 635.945L879.184 643.297L859.291 649.62L841.727 655.039L826.282 659.671L812.742 663.623L800.904 666.992L790.574 669.866L781.576 672.317L773.752 674.412L766.959 676.207L761.072 677.749L755.982 679.079L751.595 680.232L747.829 681.236L744.614 682.118L741.892 682.897L739.614 683.593L737.737 684.221L736.229 684.795L735.063 685.327L734.431 685.702C734.29 685.786 734.157 685.883 734.035 685.992L733.876 686.134C733.747 686.249 733.641 686.386 733.562 686.539L733.474 686.712C733.452 686.754 733.439 686.8 733.434 686.847V686.847Z" fill="#95ACA4"/>
</svg>
