<svg width="506" height="579" viewBox="0 0 506 579" fill="none" xmlns="http://www.w3.org/2000/svg">
<path id="about-graphic-3" fill-rule="evenodd" clip-rule="evenodd" d="M374.612 289.169V289.169L374.688 290.39L374.917 291.616L375.298 292.851L375.834 294.101L376.523 295.37L377.367 296.664L378.367 297.987L379.524 299.344L380.839 300.741L382.313 302.183L383.948 303.675L385.745 305.223L387.704 306.831L389.828 308.506L392.115 310.253L394.568 312.078L397.185 313.986L399.966 315.983L402.91 318.075L406.015 320.266L409.278 322.562L412.696 324.967L416.262 327.487L419.973 330.126L423.818 332.886L427.79 335.771L431.877 338.783L436.066 341.923L440.343 345.191L444.691 348.587L449.091 352.107L453.522 355.749L457.959 359.506L462.379 363.372L466.752 367.337L471.051 371.391L475.242 375.52L479.295 379.71L483.175 383.944L486.847 388.203L490.278 392.467L493.432 396.713L496.276 400.919L498.777 405.06L500.907 409.11L502.637 413.044L503.942 416.837L504.803 420.463L505.203 423.899L505.13 427.121L504.577 430.109L503.543 432.843L502.031 435.308L500.049 437.491L497.612 439.381L494.738 440.97L491.449 442.257L487.772 443.239L483.738 443.921L479.378 444.309L474.728 444.411L469.823 444.239L464.702 443.808L459.401 443.133L453.957 442.233L448.406 441.126L442.782 439.833L437.119 438.374L431.448 436.77L425.797 435.041L420.191 433.209L414.656 431.293L409.21 429.312L403.873 427.285L398.661 425.229L393.586 423.159L388.659 421.091L383.89 419.038L379.285 417.014L374.848 415.029L370.583 413.094L366.492 411.217L362.575 409.407L358.832 407.672L355.26 406.017L351.857 404.448L348.62 402.97L345.545 401.587L342.627 400.303L339.863 399.12L337.247 398.042L334.775 397.071L332.44 396.209L330.238 395.458L328.164 394.82L326.212 394.297L324.377 393.889L322.653 393.599L321.037 393.428L319.523 393.378L318.106 393.45L316.781 393.646L315.545 393.969L314.392 394.42L313.318 395.001L312.32 395.715L311.392 396.564L310.532 397.551L309.734 398.679L308.996 399.951L308.313 401.371L307.681 402.941L307.097 404.665L306.557 406.547L306.056 408.59L305.591 410.799L305.157 413.176L304.751 415.726L304.368 418.452L304.004 421.358L303.653 424.445L303.311 427.718L302.972 431.177L302.632 434.826L302.284 438.663L301.923 442.69L301.543 446.905L301.136 451.306L300.696 455.889L300.217 460.648L299.69 465.577L299.109 470.666L298.467 475.905L297.754 481.28L296.965 486.775L296.092 492.372L295.127 498.051L294.064 503.786L292.896 509.552L291.617 515.319L290.223 521.057L288.709 526.73L287.072 532.303L285.31 537.737L283.422 542.993L281.41 548.03L279.276 552.808L277.023 557.286L274.657 561.423L272.185 565.183L269.617 568.529L266.962 571.427L264.232 573.85L261.441 575.771L258.602 577.171L255.73 578.035L252.842 578.353L249.952 578.122L247.077 577.345L244.232 576.03L241.432 574.19L238.692 571.846L236.024 569.021L233.441 565.745L230.953 562.048L228.57 557.968L226.298 553.542L224.145 548.809L222.113 543.811L220.205 538.587L218.424 533.178L216.767 527.625L215.233 521.966L213.82 516.236L212.523 510.471L211.338 504.703L210.259 498.961L209.279 493.272L208.391 487.66L207.589 482.148L206.865 476.752L206.212 471.491L205.622 466.377L205.087 461.422L204.6 456.635L204.155 452.024L203.743 447.594L203.359 443.349L202.995 439.292L202.646 435.424L202.305 431.746L201.966 428.256L201.625 424.954L201.276 421.837L200.914 418.903L200.534 416.149L200.132 413.571L199.703 411.166L199.244 408.931L198.749 406.862L198.215 404.954L197.638 403.205L197.014 401.611L196.339 400.168L195.61 398.872L194.822 397.721L193.972 396.712L193.056 395.841L192.069 395.105L191.007 394.503L189.867 394.032L188.644 393.689L187.334 393.473L185.932 393.381L184.434 393.412L182.834 393.564L181.128 393.835L179.312 394.224L177.378 394.729L175.324 395.349L173.143 396.082L170.829 396.927L168.379 397.88L165.786 398.941L163.046 400.108L160.154 401.376L157.104 402.743L153.893 404.207L150.517 405.761L146.972 407.403L143.256 409.126L139.366 410.924L135.303 412.79L131.066 414.717L126.656 416.695L122.078 418.714L117.334 420.763L112.432 422.829L107.38 424.899L102.189 426.959L96.8706 428.992L91.4413 430.982L85.9185 432.909L80.3228 434.756L74.6771 436.502L69.0071 438.128L63.341 439.611L57.7092 440.932L52.1444 442.07L46.6808 443.004L41.3544 443.716L36.2018 444.187L31.2604 444.401L26.5673 444.344L22.1589 444.003L18.0702 443.368L14.3345 442.434L10.982 441.196L8.04009 439.654L5.53204 437.812L3.47699 435.675L1.88938 433.254L0.778666 430.561L0.149171 427.613L0 424.427L0.325122 421.024L1.11354 417.426L2.34959 413.658L4.01333 409.745L6.08098 405.711L8.52549 401.583L11.3171 397.386L14.4239 393.145L17.8126 388.882L21.4487 384.621L25.2977 380.382L29.3251 376.183L33.4969 372.044L37.7804 367.977L42.144 363.997L46.5581 360.115L50.9946 356.34L55.4278 352.679L59.8339 349.139L64.1915 345.723L68.4811 342.435L72.6856 339.274L76.7898 336.242L80.7807 333.337L84.647 330.557L88.3792 327.899L91.9694 325.361L95.411 322.937L98.6991 320.624L101.83 318.417L104.799 316.31L107.607 314.298L110.25 312.376L112.728 310.539L115.042 308.78L117.192 307.093L119.177 305.475L121 303.918L122.66 302.417L124.16 300.968L125.5 299.564L126.682 298.201L127.707 296.872L128.576 295.574L129.29 294.302L129.85 293.049L130.256 291.812L130.509 290.585L130.61 289.364L130.558 288.143L130.353 286.919L129.996 285.685L129.485 284.438L128.82 283.172L128.001 281.883L127.026 280.565L125.894 279.214L124.604 277.823L123.155 276.389L121.546 274.905L119.775 273.367L117.842 271.768L115.745 270.104L113.483 268.369L111.057 266.557L108.466 264.662L105.711 262.68L102.793 260.604L99.7135 258.429L96.4753 256.15L93.082 253.762L89.5385 251.261L85.8508 248.642L82.0263 245.901L78.0739 243.036L74.0044 240.045L69.8303 236.925L65.5661 233.677L61.2282 230.301L56.8353 226.801L52.4083 223.178L47.9701 219.439L43.5459 215.59L39.1631 211.64L34.8508 207.599L30.6399 203.481L26.5629 199.3L22.6533 195.072L18.9456 190.815L15.4743 186.551L12.2741 182.3L9.37851 178.086L6.8201 173.934L4.62933 169.867L2.83419 165.913L1.45955 162.096L0.526631 158.441L0.0525114 154.974L0.0497093 151.716L0.525862 148.69L1.48351 145.914L2.92 143.405L4.82749 141.176L7.19311 139.239L9.99919 137.602L13.2237 136.267L16.8405 135.236L20.8202 134.506L25.1305 134.073L29.7368 133.926L34.6031 134.055L39.6925 134.446L44.9676 135.083L50.3914 135.948L55.9278 137.024L61.5419 138.288L67.2005 139.722L72.8724 141.305L78.5287 143.015L84.143 144.832L89.6913 146.736L95.1525 148.708L100.508 150.729L105.741 152.782L110.839 154.85L115.789 156.92L120.584 158.975L125.216 161.005L129.68 162.997L133.972 164.941L138.091 166.827L142.036 168.648L145.807 170.396L149.406 172.064L152.836 173.647L156.099 175.14L159.2 176.538L162.142 177.838L164.93 179.037L167.569 180.132L170.064 181.12L172.42 182L174.643 182.768L176.737 183.425L178.709 183.967L180.562 184.393L182.303 184.702L183.936 184.892L185.466 184.961L186.898 184.909L188.237 184.732L189.487 184.43L190.653 184L191.739 183.44L192.749 182.747L193.688 181.92L194.558 180.954L195.366 179.849L196.113 178.6L196.805 177.204L197.445 175.658L198.036 173.959L198.583 172.102L199.09 170.085L199.561 167.903L199.999 165.553L200.409 163.031L200.795 160.333L201.163 157.456L201.515 154.398L201.858 151.155L202.197 147.725L202.537 144.107L202.883 140.299L203.241 136.303L203.618 132.117L204.021 127.746L204.454 123.192L204.927 118.461L205.446 113.558L206.017 108.494L206.65 103.278L207.35 97.9235L208.127 92.4463L208.986 86.864L209.936 81.1973L210.983 75.4694L212.134 69.7065L213.395 63.9371L214.77 58.1926L216.265 52.5068L217.882 46.9156L219.624 41.4568L221.492 36.1698L223.484 31.0949L225.599 26.273L227.834 21.7448L230.182 17.5503L232.638 13.7279L235.191 10.314L237.833 7.34203L240.552 4.84191L243.334 2.83932L246.167 1.35524L249.034 0.405408L251.921 0L254.811 0.143381L257.69 0.834005L260.541 2.06445L263.349 3.8216L266.1 6.08693L268.78 8.83694L271.377 12.0436L273.88 15.6752L276.281 19.6966L278.571 24.0703L280.743 28.757L282.795 33.7161L284.722 38.9068L286.524 44.2885L288.201 49.8213L289.754 55.4665L291.186 61.1873L292.501 66.9488L293.703 72.7186L294.799 78.4666L295.795 84.1656L296.697 89.791L297.512 95.3208L298.248 100.736L298.912 106.02L299.511 111.158L300.054 116.139L300.548 120.953L301 125.593L301.416 130.052L301.805 134.326L302.171 138.413L302.522 142.311L302.864 146.02L303.203 149.54L303.543 152.872L303.891 156.018L304.25 158.981L304.627 161.764L305.025 164.369L305.449 166.801L305.904 169.063L306.393 171.159L306.92 173.092L307.49 174.866L308.106 176.485L308.773 177.952L309.493 179.27L310.271 180.444L311.111 181.476L312.017 182.369L312.992 183.125L314.042 183.749L315.169 184.241L316.378 184.604L317.674 184.84L319.061 184.952L320.544 184.94L322.127 184.808L323.816 184.555L325.615 184.185L327.529 183.698L329.564 183.096L331.724 182.381L334.016 181.554L336.444 180.618L339.014 179.574L341.73 178.424L344.598 177.172L347.623 175.82L350.808 174.372L354.157 172.831L357.675 171.203L361.364 169.493L365.226 167.706L369.261 165.85L373.471 163.932L377.853 161.962L382.405 159.949L387.123 157.904L392 155.84L397.029 153.769L402.199 151.707L407.498 149.668L412.91 147.671L418.42 145.732L424.005 143.871L429.645 142.107L435.312 140.461L440.981 138.954L446.621 137.605L452.198 136.437L457.68 135.469L463.031 134.721L468.214 134.21L473.191 133.954L477.927 133.967L482.383 134.263L486.525 134.85L490.319 135.736L493.734 136.926L496.743 138.419L499.322 140.214L501.45 142.304L503.113 144.681L504.3 147.331L505.006 150.24L505.231 153.39L504.981 156.76L504.266 160.328L503.1 164.07L501.503 167.962L499.497 171.978L497.111 176.093L494.373 180.281L491.314 184.517L487.968 188.778L484.369 193.041L480.551 197.285L476.55 201.49L472.399 205.641L468.131 209.72L463.778 213.714L459.37 217.613L454.936 221.405L450.5 225.085L446.088 228.644L441.722 232.08L437.42 235.389L433.201 238.57L429.08 241.623L425.07 244.548L421.183 247.348L417.429 250.024L413.816 252.582L410.35 255.023L407.037 257.353L403.882 259.577L400.886 261.7L398.053 263.726L395.383 265.662L392.878 267.513L390.538 269.284L388.363 270.982L386.351 272.611L384.503 274.177L382.817 275.686L381.291 277.144L379.926 278.554L378.718 279.924L377.669 281.257L376.775 282.56L376.036 283.836L375.452 285.091L375.022 286.331L374.744 287.559L374.619 288.781L374.612 289.169Z" fill="#F4A24C"/>
</svg>
