<svg width="507" height="327" viewBox="0 0 507 327" fill="none" xmlns="http://www.w3.org/2000/svg">
<path id="Emily-Port" d="M1.6 146V6H95.2V23.2H20V65.4H90.2V82.6H20V128.8H96.2V146H1.6ZM116.359 46H133.959V47.2C133.959 51.6 133.293 56.3333 131.959 61.4C130.626 66.4667 129.359 71.1333 128.159 75.4L131.359 76.4C132.026 74.2667 132.626 72 133.159 69.6C133.826 67.0667 134.493 64.6 135.159 62.2C135.959 59.8 136.826 57.5333 137.759 55.4C138.826 53.1333 140.159 51.2 141.759 49.6C144.293 47.0667 147.226 45.3333 150.559 44.4C154.026 43.4667 158.426 43 163.759 43C168.693 43 173.159 43.4667 177.159 44.4C181.159 45.3333 184.626 46.9333 187.559 49.2C189.293 50.5333 190.493 52.3333 191.159 54.6C191.826 56.7333 192.226 59.0667 192.359 61.6C192.493 64 192.359 66.4667 191.959 69C191.693 71.5333 191.426 73.9333 191.159 76.2L194.759 76.6C195.026 74.4667 195.426 72.2 195.959 69.8C196.493 67.4 197.159 65.1333 197.959 63C198.759 60.7333 199.759 58.6 200.959 56.6C202.159 54.6 203.626 52.9333 205.359 51.6C208.426 49.3333 211.893 47.3333 215.759 45.6C219.759 43.8667 224.093 43 228.759 43C233.826 43 238.559 43.7333 242.959 45.2C247.359 46.6667 251.159 48.8667 254.359 51.8C257.693 54.6 260.293 58.1333 262.159 62.4C264.026 66.6667 264.959 71.6667 264.959 77.4V146H247.359V89C247.359 78.2 245.493 70.3333 241.759 65.4C238.026 60.3333 232.293 57.8 224.559 57.8C216.026 57.8 209.893 60.3333 206.159 65.4C202.426 70.3333 200.559 78.2 200.559 89V146H182.959V89C182.959 78.2 181.026 70.3333 177.159 65.4C173.293 60.3333 167.359 57.8 159.359 57.8C150.559 57.8 144.093 60.3333 139.959 65.4C135.959 70.3333 133.959 78.2 133.959 89V146H116.359V46ZM293.536 46H311.136V146H293.536V46ZM292.336 6H311.936V25H292.336V6ZM361.444 1V118.6C361.444 122.733 362.244 125.6 363.844 127.2C365.577 128.667 368.577 129.4 372.844 129.4H386.444V146H373.644C363.244 146 355.644 144.133 350.844 140.4C346.177 136.533 343.844 130.333 343.844 121.8V1H361.444ZM394.487 46H414.487L446.087 115.4C447.287 118.067 447.954 121.067 448.087 124.4C448.221 127.6 448.288 130.667 448.288 133.6H451.888C451.888 130.667 451.954 127.6 452.087 124.4C452.221 121.067 452.887 118.067 454.087 115.4L485.688 46H505.688L459.688 145.8C458.221 148.867 456.821 151.733 455.488 154.4C454.288 157.2 452.954 160.2 451.487 163.4C449.354 168.2 447.221 172.6 445.087 176.6C443.087 180.6 440.821 184 438.288 186.8C435.754 189.733 432.888 192 429.688 193.6C426.488 195.2 422.688 196 418.288 196H397.688V179H411.688C414.754 179 417.288 178.533 419.288 177.6C421.421 176.8 423.221 175.6 424.688 174C426.287 172.4 427.688 170.4 428.888 168C430.221 165.733 431.621 163.067 433.087 160L440.288 144.8L394.487 46ZM46.4 183C53.8667 183 60.8667 183.533 67.4 184.6C74.0667 185.533 79.8667 187.467 84.8 190.4C89.7333 193.333 93.6 197.4 96.4 202.6C99.3333 207.8 100.8 214.6 100.8 223C100.8 231.4 99.3333 238.333 96.4 243.8C93.6 249.133 89.6667 253.333 84.6 256.4C79.5333 259.467 73.5333 261.6 66.6 262.8C59.6667 264 52.1333 264.6 44 264.6C41.3333 264.6 37.8 264.6 33.4 264.6C29.1333 264.6 24.6 264.533 19.8 264.4V323H1V183H46.4ZM45 247.8C49.8 247.8 54.4667 247.6 59 247.2C63.5333 246.8 67.4667 245.8 70.8 244.2C74.2667 242.467 77 239.933 79 236.6C81.1333 233.133 82.2 228.467 82.2 222.6C82.2 217 81.2 212.667 79.2 209.6C77.3333 206.533 74.7333 204.333 71.4 203C68.0667 201.533 64.1333 200.667 59.6 200.4C55.0667 200.133 50.2 200 45 200H19.8V247.8H45ZM163.564 326.2C155.697 326.2 148.497 324.867 141.964 322.2C135.431 319.4 129.764 315.6 124.964 310.8C120.297 306 116.631 300.333 113.964 293.8C111.431 287.267 110.164 280.2 110.164 272.6C110.164 264.867 111.431 257.8 113.964 251.4C116.631 245 120.297 239.467 124.964 234.8C129.764 230.133 135.431 226.533 141.964 224C148.497 221.333 155.697 220 163.564 220C171.431 220 178.631 221.333 185.164 224C191.831 226.667 197.497 230.333 202.164 235C206.831 239.667 210.431 245.2 212.964 251.6C215.631 258 216.964 265 216.964 272.6C216.964 280.2 215.631 287.267 212.964 293.8C210.431 300.333 206.831 306 202.164 310.8C197.497 315.6 191.831 319.4 185.164 322.2C178.631 324.867 171.431 326.2 163.564 326.2ZM128.164 272.6C128.164 277.533 128.897 282.267 130.364 286.8C131.831 291.333 134.031 295.267 136.964 298.6C139.897 301.933 143.564 304.6 147.964 306.6C152.364 308.6 157.564 309.6 163.564 309.6C169.564 309.6 174.764 308.667 179.164 306.8C183.564 304.8 187.231 302.133 190.164 298.8C193.097 295.333 195.297 291.4 196.764 287C198.231 282.467 198.964 277.667 198.964 272.6C198.964 267.533 198.231 262.8 196.764 258.4C195.297 254 193.097 250.2 190.164 247C187.231 243.8 183.564 241.267 179.164 239.4C174.764 237.533 169.564 236.6 163.564 236.6C157.564 236.6 152.364 237.533 147.964 239.4C143.564 241.267 139.897 243.8 136.964 247C134.031 250.2 131.831 254 130.364 258.4C128.897 262.8 128.164 267.533 128.164 272.6ZM237.686 323V223H255.086V229.2C255.086 232.133 254.486 235.267 253.286 238.6C252.219 241.8 251.153 244.733 250.086 247.4L253.286 248.6C254.353 245.933 255.419 242.933 256.486 239.6C257.686 236.267 259.353 233.6 261.486 231.6C263.886 229.2 266.286 227.267 268.686 225.8C271.086 224.2 273.819 223 276.886 222.2C280.086 221.4 283.686 220.867 287.686 220.6C291.686 220.2 296.353 220 301.686 220V236.6C295.819 236.6 290.086 237.133 284.486 238.2C278.886 239.267 273.886 241.2 269.486 244C265.219 246.667 261.753 250.267 259.086 254.8C256.419 259.333 255.086 265.067 255.086 272V323H237.686ZM384.391 223.4V239.4H358.391V295.8C358.391 299.933 359.391 302.733 361.391 304.2C363.524 305.667 366.924 306.4 371.591 306.4H383.391V323H364.591C356.857 323 350.991 320.4 346.991 315.2C342.991 309.867 340.991 303.4 340.991 295.8V239.4H320.991V223.4H340.991V189.8H358.391V223.4H384.391Z" stroke="#EBDECB" stroke-linejoin="round"/>
</svg>
