<svg id="photos-graphics" width="1520" height="1644" viewBox="0 0 1520 1644" fill="none" xmlns="http://www.w3.org/2000/svg">
<g>
<path id="photos-star-2" fill-rule="evenodd" clip-rule="evenodd" d="M806.129 878.689C806.13 878.74 806.141 878.79 806.161 878.837L806.224 878.978C806.292 879.133 806.394 879.27 806.522 879.38L806.65 879.49C806.763 879.587 806.887 879.67 807.019 879.737L807.615 880.043L808.728 880.443L810.178 880.843L811.991 881.254L814.199 881.684L816.842 882.144L819.969 882.647L823.637 883.205L827.915 883.836L832.882 884.559L838.633 885.396L845.274 886.373L852.931 887.524L861.744 888.884L871.873 890.5L883.497 892.423L896.81 894.715L912.023 897.446L929.357 900.696L949.036 904.556L971.277 909.123L996.273 914.504L1024.17 920.804L1055.05 928.127L1088.89 936.563L1125.52 946.181L1164.61 957.009L1205.61 969.025L1247.75 982.138L1290.01 996.175L1331.16 1010.87L1369.76 1025.86L1404.31 1040.71L1433.27 1054.91L1452.04 1066.02C1454.18 1067.28 1456.21 1068.7 1458.13 1070.26L1467.13 1077.58C1468.44 1078.64 1469.54 1079.95 1470.35 1081.43L1471.84 1084.14C1473.24 1086.69 1473.14 1089.8 1471.57 1092.24V1092.24C1470.52 1093.88 1468.91 1095.07 1467.04 1095.6L1459.93 1097.6C1457.85 1098.19 1455.7 1098.52 1453.54 1098.6L1435.33 1099.29L1406.62 1097.28L1372.03 1092.68L1333.08 1085.82L1291.34 1077.1L1248.26 1066.99L1205.17 1055.93L1163.14 1044.35L1123.01 1032.6L1085.38 1021.01L1050.63 1009.8L1018.93 999.165L990.323 989.208L964.741 980.003L942.026 971.577L921.978 963.93L904.366 957.038L888.954 950.863L875.505 945.358L863.796 940.471L853.619 936.15L844.786 932.342L837.126 928.998L830.49 926.073L824.747 923.525L819.782 921.316L815.496 919.415L811.806 917.79L808.637 916.419L805.929 915.28L803.63 914.356L801.697 913.633L800.092 913.099L798.786 912.747L798.018 912.617C797.843 912.588 797.667 912.573 797.489 912.573L797.185 912.573C797.05 912.573 796.916 912.595 796.789 912.637L796.667 912.677C796.525 912.725 796.399 912.81 796.302 912.925V912.925C796.203 913.043 796.14 913.187 796.119 913.339L796.105 913.448C796.087 913.58 796.092 913.715 796.119 913.845L796.178 914.133C796.213 914.302 796.263 914.467 796.327 914.627L796.61 915.336L797.223 916.513L798.077 917.939L799.189 919.642L800.575 921.654L802.259 924.014L804.269 926.769L806.637 929.971L809.405 933.688L812.617 937.992L816.329 942.973L820.599 948.733L825.498 955.389L831.103 963.076L837.498 971.946L844.775 982.172L853.031 993.942L862.367 1007.46L872.879 1022.95L884.66 1040.64L897.783 1060.73L912.299 1083.43L928.215 1108.91L945.487 1137.25L963.998 1168.45L983.545 1202.39L1003.82 1238.76L1024.4 1277.06L1044.74 1316.6L1064.22 1356.4L1082.09 1395.33L1097.61 1432.04L1110.01 1465.11L1118.64 1493.13L1122.27 1511.41C1122.72 1513.66 1122.92 1515.96 1122.87 1518.25L1122.68 1526.22C1122.64 1528.06 1121.98 1529.84 1120.81 1531.27V1531.27C1118.82 1533.7 1115.63 1534.79 1112.57 1534.09L1110.42 1533.59C1108.79 1533.22 1107.26 1532.51 1105.93 1531.5L1097.35 1525.01C1095.25 1523.42 1093.28 1521.67 1091.45 1519.77L1076.91 1504.62L1056.85 1479.99L1034.86 1449.95L1011.77 1415.87L988.347 1379.13L965.273 1341.06L943.088 1302.82L922.199 1265.38L902.874 1229.5L885.266 1195.71L869.425 1164.37L855.328 1135.65L842.895 1109.62L832.011 1086.22L822.539 1065.34L814.334 1046.82L807.253 1030.46L801.158 1016.08L795.92 1003.47L791.423 992.438L787.564 982.81L784.25 974.422L781.404 967.127L778.955 960.793L776.844 955.306L775.021 950.565L773.444 946.483L772.074 942.985L770.88 940.007L769.837 937.495L768.92 935.405L768.112 933.698L767.394 932.345L766.753 931.323L766.32 930.79C766.224 930.672 766.115 930.565 765.996 930.472L765.811 930.327C765.705 930.245 765.584 930.186 765.454 930.155L765.436 930.15C765.262 930.108 765.079 930.12 764.913 930.185V930.185C764.786 930.234 764.672 930.312 764.581 930.413L764.442 930.566C764.345 930.673 764.261 930.793 764.193 930.921L763.887 931.499L763.487 932.586L763.087 934.008L762.678 935.791L762.25 937.966L761.792 940.573L761.294 943.66L760.74 947.283L760.116 951.51L759.401 956.419L758.575 962.104L757.61 968.67L756.474 976.242L755.132 984.958L753.539 994.977L751.642 1006.48L749.383 1019.65L746.69 1034.7L743.485 1051.86L739.678 1071.35L735.171 1093.38L729.86 1118.15L723.638 1145.81L716.401 1176.46L708.057 1210.06L698.537 1246.48L687.806 1285.4L675.884 1326.27L662.855 1368.36L648.885 1410.66L634.232 1451.95L619.249 1490.81L604.372 1525.74L590.105 1555.2L576.989 1577.78L567.169 1590.28C566.102 1591.63 564.803 1592.79 563.333 1593.7L559.974 1595.78C557.683 1597.19 554.821 1597.3 552.424 1596.08V1596.08C550.591 1595.14 549.21 1593.51 548.591 1591.54L546.554 1585.09C545.94 1583.14 545.578 1581.13 545.477 1579.09L544.591 1561.32L546.38 1533.14L550.786 1498.96L557.483 1460.3L566.063 1418.72L576.079 1375.69L587.077 1332.56L598.634 1290.41L610.377 1250.1L621.991 1212.25L633.233 1177.26L643.921 1145.31L653.934 1116.46L663.2 1090.64L671.687 1067.7L679.395 1047.45L686.345 1029.65L692.575 1014.07L698.131 1000.47L703.064 988.631L707.428 978.339L711.275 969.404L714.653 961.656L717.61 954.944L720.186 949.133L722.42 944.11L724.345 939.773L725.991 936.037L727.381 932.83L728.537 930.087L729.478 927.757L730.217 925.795L730.765 924.165L731.131 922.837L731.272 922.054C731.304 921.875 731.321 921.694 731.324 921.512L731.33 921.197C731.332 921.06 731.314 920.925 731.275 920.794L731.234 920.655C731.193 920.514 731.115 920.388 731.008 920.288V920.288C730.892 920.18 730.747 920.109 730.59 920.082L730.5 920.066C730.37 920.044 730.236 920.045 730.105 920.069L729.827 920.121C729.663 920.152 729.501 920.198 729.345 920.258L728.648 920.528L727.49 921.122L726.085 921.957L724.405 923.048L722.419 924.411L720.088 926.071L717.368 928.053L714.203 930.392L710.531 933.126L706.276 936.302L701.353 939.971L695.66 944.195L689.08 949.042L681.482 954.587L672.712 960.916L662.602 968.12L650.963 976.295L637.59 985.541L622.267 995.957L604.769 1007.63L584.876 1020.65L562.388 1035.05L537.14 1050.86L509.033 1068.03L478.057 1086.45L444.334 1105.92L408.145 1126.15L369.97 1146.72L330.508 1167.11L290.686 1186.68L251.649 1204.71L214.713 1220.45L181.299 1233.13L152.83 1242.07L134.218 1245.98C131.823 1246.49 129.382 1246.74 126.935 1246.75L118.448 1246.78C116.677 1246.79 114.946 1246.25 113.485 1245.25V1245.25C110.687 1243.33 109.254 1239.97 109.811 1236.62L110.022 1235.35C110.296 1233.7 110.949 1232.14 111.93 1230.79L117.723 1222.81C119.376 1220.54 121.218 1218.41 123.229 1216.44L137.633 1202.36L161.777 1182.5L191.434 1160.63L225.243 1137.59L261.813 1114.17L299.818 1091.05L338.078 1068.77L375.609 1047.77L411.637 1028.31L445.606 1010.56L477.151 994.58L506.077 980.346L532.322 967.784L555.924 956.781L576.997 947.201L595.699 938.901L612.217 931.735L626.749 925.566L639.494 920.264L650.643 915.712L660.376 911.805L668.856 908.451L676.233 905.57L682.638 903.092L688.188 900.956L692.985 899.112L697.116 897.516L700.658 896.131L703.675 894.924L706.222 893.87L708.345 892.944L710.08 892.128L711.46 891.403L712.508 890.757L713.059 890.32C713.181 890.223 713.293 890.114 713.392 889.993L713.549 889.801C713.633 889.699 713.696 889.58 713.732 889.453L713.743 889.415C713.791 889.249 713.788 889.073 713.733 888.909V888.909C713.689 888.778 713.614 888.659 713.514 888.563L713.376 888.431C713.273 888.333 713.158 888.248 713.033 888.18L712.475 887.874L711.414 887.473L710.019 887.073L708.266 886.665L706.124 886.239L703.553 885.784L700.506 885.289L696.929 884.741L692.753 884.122L687.901 883.416L682.283 882.599L675.791 881.646L668.305 880.525L659.686 879.201L649.778 877.629L638.405 875.758L625.375 873.53L610.479 870.874L593.498 867.712L574.207 863.956L552.387 859.508L527.842 854.265L500.413 848.118L470.009 840.965L436.637 832.711L400.434 823.284L361.706 812.649L320.963 800.818L278.941 787.87L236.62 773.965L195.206 759.354L156.095 744.38L120.802 729.475L90.8561 715.139L67.6795 701.91L54.6013 691.956C53.1804 690.874 51.9434 689.571 50.9379 688.095L48.2566 684.16C46.8511 682.097 46.5538 679.473 47.462 677.148V677.148C48.2618 675.101 49.9127 673.503 51.9849 672.77L57.7279 670.738C59.5501 670.093 61.453 669.705 63.3821 669.584L80.6758 668.498L108.315 670.068L142.068 674.277L180.427 680.807L221.833 689.255L264.789 699.174L307.958 710.111L350.219 721.64L390.695 733.381L428.752 745.018L463.983 756.298L496.175 767.037L525.269 777.108L551.324 786.436L574.483 794.986L594.941 802.756L612.925 809.766L628.672 816.052L642.418 821.661L654.389 826.642L664.797 831.05L673.832 834.937L681.669 838.351L688.458 841.34L694.336 843.945L699.418 846.206L703.805 848.154L707.586 849.821L710.833 851.231L713.611 852.405L715.971 853.363L717.961 854.117L719.616 854.681L720.968 855.061L721.764 855.211C721.948 855.246 722.135 855.267 722.322 855.273L722.646 855.284C722.784 855.289 722.922 855.273 723.056 855.239L723.213 855.198C723.351 855.162 723.478 855.091 723.58 854.991V854.991C723.697 854.877 723.778 854.731 723.812 854.571L723.827 854.5C723.854 854.37 723.857 854.237 723.836 854.106L723.791 853.839C723.765 853.678 723.723 853.52 723.665 853.367L723.408 852.683L722.834 851.543L722.018 850.158L720.948 848.501L719.607 846.541L717.973 844.239L716.017 841.551L713.708 838.424L711.007 834.794L707.869 830.589L704.241 825.722L700.064 820.093L695.27 813.589L689.783 806.076L683.52 797.405L676.39 787.408L668.296 775.897L659.139 762.669L648.82 747.508L637.247 730.19L624.341 710.494L610.05 688.217L594.356 663.192L577.294 635.312L558.968 604.56L539.569 571.045L519.386 535.035L498.824 496.993L478.4 457.599L458.741 417.763L440.56 378.614L424.617 341.457L411.669 307.707L402.403 278.792L398.223 259.863C397.66 257.317 397.342 254.722 397.27 252.115L397.026 243.155C396.979 241.439 397.407 239.743 398.263 238.256V238.256C400.089 235.082 403.604 233.271 407.247 233.628L407.608 233.663C409.288 233.828 410.898 234.42 412.284 235.384L419.922 240.693C422.172 242.257 424.276 244.021 426.209 245.962L440.075 259.892L459.743 283.545L481.482 312.813L504.455 346.345L527.872 382.748L551.042 420.687L573.399 458.97L594.516 496.592L614.103 532.766L631.991 566.917L648.113 598.667L662.483 627.808L675.174 654.268L686.296 678.079L695.984 699.349L704.381 718.235L711.631 734.921L717.875 749.605L723.241 762.486L727.849 773.756L731.803 783.596L735.198 792.171L738.114 799.631L740.622 806.11L742.783 811.725L744.648 816.578L746.262 820.76L747.663 824.347L748.883 827.404L749.949 829.987L750.884 832.141L751.708 833.907L752.439 835.314L753.092 836.388L753.532 836.957C753.629 837.084 753.74 837.2 753.861 837.304L754.059 837.474C754.159 837.56 754.275 837.626 754.401 837.668L754.456 837.687C754.615 837.74 754.786 837.744 754.947 837.698V837.698C755.082 837.66 755.206 837.589 755.306 837.49L755.431 837.367C755.53 837.269 755.616 837.158 755.685 837.036L755.849 836.747C755.944 836.581 756.026 836.408 756.095 836.229L756.392 835.462L756.792 834.094L757.199 832.371L757.623 830.261L758.075 827.725L758.566 824.719L759.11 821.185L759.722 817.06L760.421 812.265L761.228 806.71L762.169 800.292L763.275 792.889L764.581 784.366L766.131 774.566L767.975 763.315L770.173 750.424L772.791 735.684L775.909 718.876L779.614 699.775L784.002 678.164L789.178 653.84L795.248 626.643L802.317 596.476L810.479 563.335L819.809 527.346L830.346 488.801L842.083 448.192L854.945 406.236L868.779 363.895L883.344 322.357L898.302 283.006L913.229 247.35L927.628 216.922L940.964 193.158L951.032 179.523C952.138 178.025 953.459 176.7 954.953 175.59L959.392 172.293C961.254 170.909 963.651 170.461 965.888 171.081V171.081C968.16 171.709 970.006 173.367 970.875 175.558L972.854 180.544C973.534 182.257 973.952 184.063 974.092 185.901L975.379 202.69L974.03 229.784L970.021 263.106L963.663 301.158L955.354 342.38L945.536 385.268L934.665 428.467L923.17 470.838L911.435 511.485L899.782 549.755L888.467 585.224L877.681 617.664L867.554 647.005L858.166 673.3L849.555 696.684L841.724 717.35L834.655 735.524L828.314 751.441L822.654 765.339L817.625 777.445L813.173 787.97L809.248 797.109L805.798 805.035L802.777 811.903L800.143 817.849L797.857 822.991L795.884 827.431L794.196 831.257L792.767 834.545L791.575 837.358L790.601 839.75L789.83 841.768L789.252 843.448L788.858 844.823L788.697 845.634C788.66 845.823 788.636 846.014 788.627 846.207L788.61 846.54C788.603 846.68 788.616 846.821 788.647 846.958L788.686 847.132C788.717 847.269 788.782 847.395 788.875 847.5V847.5C788.987 847.627 789.134 847.716 789.297 847.758L789.349 847.771C789.477 847.804 789.611 847.811 789.742 847.792L789.998 847.756C790.155 847.733 790.309 847.695 790.459 847.641L791.131 847.397L792.252 846.841L793.617 846.045L795.251 844.996L797.186 843.677L799.458 842.067L802.113 840.138L805.203 837.858L808.79 835.19L812.946 832.088L817.757 828.501L823.32 824.37L829.75 819.627L837.177 814.199L845.749 808L855.633 800.942L867.015 792.928L880.098 783.859L895.096 773.636L912.232 762.165L931.729 749.368L953.792 735.187L978.591 719.603L1006.24 702.647L1036.76 684.416L1070.06 665.092L1105.89 644.957L1143.79 624.407L1183.1 603.949L1222.93 584.204L1262.18 565.877L1299.55 549.727L1333.62 536.513L1362.97 526.932L1382.19 522.492C1384.89 521.867 1387.65 521.483 1390.43 521.346L1399.81 520.882C1401.49 520.798 1403.16 521.138 1404.68 521.87L1405.19 522.117C1408.43 523.682 1410.46 526.999 1410.37 530.598V530.598C1410.33 532.325 1409.8 534.004 1408.85 535.444L1403.96 542.833C1402.54 544.978 1400.92 546.98 1399.11 548.812L1385.56 562.565L1362.41 582.033L1333.55 603.64L1300.3 626.545L1264.08 649.955L1226.22 673.168L1187.93 695.608L1150.23 716.837L1113.92 736.554L1079.59 754.582L1047.64 770.845L1018.29 785.354L991.622 798.175L967.604 809.418L946.139 819.215L927.071 827.709L910.218 835.046L895.383 841.365L882.367 846.797L870.976 851.461L861.029 855.464L852.36 858.901L844.816 861.852L838.265 864.39L832.585 866.577L827.675 868.464L823.443 870.097L819.812 871.514L816.715 872.747L814.097 873.824L811.909 874.769L810.114 875.602L808.679 876.339L807.58 876.998L806.993 877.441C806.862 877.539 806.741 877.651 806.632 877.773L806.489 877.932C806.374 878.06 806.284 878.208 806.223 878.369L806.154 878.55C806.137 878.595 806.129 878.641 806.129 878.689V878.689Z" fill="#95ACA4"/>
<path id="photos-star-1" fill-rule="evenodd" clip-rule="evenodd" d="M885.055 381.619V381.619L884.79 382.813L884.671 384.054L884.695 385.347L884.863 386.696L885.174 388.106L885.627 389.583L886.221 391.131L886.957 392.756L887.834 394.463L888.851 396.257L890.008 398.143L891.306 400.128L892.743 402.216L894.32 404.414L896.034 406.726L897.885 409.159L899.871 411.717L901.99 414.407L904.24 417.232L906.616 420.197L909.116 423.307L911.733 426.565L914.463 429.974L917.297 433.537L920.227 437.254L923.245 441.127L926.337 445.153L929.493 449.33L932.698 453.656L935.935 458.123L939.187 462.724L942.436 467.451L945.659 472.29L948.835 477.229L951.939 482.25L954.946 487.336L957.83 492.464L960.564 497.613L963.119 502.756L965.468 507.865L967.583 512.913L969.437 517.867L971.005 522.696L972.262 527.367L973.186 531.849L973.759 536.108L973.963 540.114L973.785 543.837L973.218 547.249L972.255 550.325L970.897 553.043L969.145 555.384L967.009 557.334L964.501 558.882L961.636 560.023L958.434 560.754L954.917 561.079L951.112 561.005L947.047 560.543L942.75 559.707L938.254 558.517L933.589 556.994L928.787 555.161L923.88 553.044L918.898 550.671L913.871 548.07L908.826 545.27L903.789 542.299L898.784 539.187L893.832 535.961L888.954 532.648L884.165 529.274L879.482 525.862L874.915 522.436L870.476 519.016L866.173 515.621L862.012 512.27L857.998 508.976L854.134 505.755L850.42 502.619L846.859 499.578L843.447 496.642L840.185 493.818L837.068 491.114L834.095 488.534L831.259 486.084L828.558 483.767L825.987 481.587L823.539 479.544L821.211 477.643L818.996 475.882L816.889 474.264L814.885 472.789L812.977 471.458L811.16 470.27L809.43 469.226L807.779 468.326L806.204 467.57L804.698 466.958L803.257 466.491L801.876 466.168L800.549 465.989L799.271 465.957L798.038 466.071L796.846 466.332L795.689 466.741L794.562 467.3L793.462 468.01L792.383 468.874L791.321 469.891L790.272 471.066L789.23 472.4L788.191 473.895L787.15 475.553L786.103 477.378L785.045 479.371L783.97 481.536L782.873 483.873L781.75 486.386L780.595 489.077L779.403 491.947L778.167 494.997L776.884 498.227L775.547 501.638L774.149 505.23L772.687 508.999L771.154 512.944L769.544 517.059L767.852 521.341L766.073 525.781L764.202 530.371L762.234 535.101L760.165 539.957L757.992 544.924L755.712 549.986L753.322 555.122L750.823 560.31L748.212 565.527L745.493 570.744L742.667 575.931L739.738 581.058L736.712 586.09L733.595 590.991L730.397 595.725L727.127 600.252L723.799 604.535L720.424 608.535L717.019 612.213L713.599 615.534L710.183 618.462L706.788 620.965L703.434 623.015L700.141 624.586L696.926 625.659L693.811 626.218L690.812 626.253L687.949 625.758L685.236 624.736L682.689 623.193L680.319 621.141L678.138 618.598L676.155 615.586L674.374 612.133L672.799 608.269L671.433 604.029L670.273 599.448L669.316 594.566L668.558 589.422L667.99 584.056L667.604 578.508L667.39 572.818L667.336 567.023L667.431 561.16L667.66 555.263L668.011 549.365L668.469 543.494L669.023 537.677L669.657 531.94L670.358 526.302L671.115 520.783L671.913 515.398L672.743 510.161L673.593 505.084L674.451 500.175L675.31 495.44L676.159 490.886L676.99 486.516L677.797 482.331L678.571 478.332L679.307 474.518L679.998 470.889L680.639 467.442L681.226 464.175L681.754 461.083L682.219 458.164L682.617 455.412L682.945 452.824L683.199 450.394L683.376 448.119L683.474 445.994L683.489 444.013L683.419 442.173L683.261 440.468L683.013 438.894L682.671 437.448L682.233 436.123L681.695 434.918L681.056 433.827L680.311 432.847L679.458 431.975L678.493 431.206L677.413 430.538L676.214 429.967L674.893 429.49L673.444 429.105L671.865 428.808L670.151 428.596L668.297 428.467L666.3 428.417L664.154 428.443L661.855 428.543L659.399 428.714L656.78 428.952L653.995 429.253L651.039 429.615L647.908 430.032L644.599 430.501L641.108 431.018L637.434 431.577L633.573 432.172L629.525 432.798L625.29 433.449L620.868 434.117L616.263 434.794L611.478 435.473L606.52 436.145L601.394 436.8L596.111 437.427L590.684 438.017L585.125 438.559L579.452 439.039L573.684 439.447L567.843 439.769L561.955 439.994L556.046 440.108L550.148 440.099L544.293 439.955L538.515 439.665L532.853 439.216L527.345 438.601L522.029 437.81L516.948 436.835L512.141 435.672L507.647 434.317L503.506 432.768L499.753 431.026L496.422 429.093L493.544 426.975L491.144 424.679L489.244 422.214L487.861 419.591L487.006 416.825L486.685 413.93L486.897 410.923L487.636 407.82L488.891 404.64L490.645 401.402L492.876 398.124L495.559 394.824L498.663 391.521L502.155 388.232L506 384.972L510.16 381.757L514.597 378.6L519.271 375.513L524.144 372.506L529.177 369.587L534.332 366.765L539.574 364.044L544.87 361.428L550.186 358.921L555.495 356.522L560.769 354.233L565.983 352.052L571.116 349.977L576.149 348.005L581.064 346.132L585.848 344.356L590.487 342.67L594.972 341.069L599.294 339.55L603.447 338.105L607.426 336.73L611.226 335.418L614.845 334.164L618.282 332.962L621.537 331.807L624.609 330.692L627.5 329.613L630.21 328.563L632.743 327.539L635.099 326.533L637.281 325.542L639.292 324.56L641.135 323.583L642.812 322.605L644.325 321.623L645.678 320.63L646.872 319.624L647.911 318.599L648.795 317.55L649.528 316.474L650.112 315.365L650.546 314.219L650.835 313.032L650.977 311.799L650.975 310.515L650.83 309.175L650.542 307.775L650.112 306.309L649.54 304.772L648.827 303.16L647.973 301.467L646.978 299.687L645.842 297.816L644.567 295.847L643.152 293.776L641.598 291.596L639.906 289.302L638.076 286.889L636.112 284.351L634.014 281.683L631.785 278.88L629.428 275.937L626.948 272.85L624.348 269.616L621.636 266.231L618.819 262.693L615.903 259L612.899 255.153L609.817 251.151L606.67 246.997L603.473 242.695L600.239 238.25L596.988 233.669L593.738 228.962L590.509 224.14L587.324 219.216L584.207 214.207L581.182 209.13L578.277 204.007L575.518 198.86L572.932 193.714L570.548 188.597L568.394 183.538L566.497 178.567L564.882 173.716L563.574 169.017L562.595 164.503L561.965 160.206L561.702 156.158L561.818 152.388L562.322 148.925L563.222 145.794L564.518 143.018L566.207 140.615L568.282 138.602L570.732 136.99L573.542 135.784L576.692 134.987L580.16 134.598L583.921 134.609L587.947 135.01L592.209 135.788L596.675 136.923L601.316 138.394L606.097 140.18L610.99 142.253L615.962 144.587L620.983 147.154L626.028 149.924L631.068 152.869L636.079 155.961L641.041 159.171L645.932 162.472L650.736 165.838L655.437 169.245L660.023 172.671L664.483 176.093L668.808 179.493L672.992 182.852L677.03 186.156L680.918 189.389L684.656 192.54L688.241 195.596L691.676 198.55L694.963 201.392L698.102 204.116L701.098 206.716L703.955 209.187L706.677 211.525L709.269 213.727L711.736 215.792L714.083 217.716L716.316 219.499L718.44 221.14L720.46 222.637L722.383 223.992L724.213 225.202L725.957 226.269L727.62 227.192L729.207 227.971L730.724 228.606L732.175 229.097L733.565 229.443L734.901 229.644L736.186 229.7L737.425 229.609L738.624 229.372L739.786 228.986L740.917 228.451L742.021 227.765L743.103 226.926L744.168 225.933L745.219 224.784L746.262 223.476L747.301 222.007L748.341 220.374L749.387 218.576L750.443 216.61L751.515 214.473L752.608 212.163L753.726 209.678L754.876 207.016L756.062 204.175L757.29 201.153L758.565 197.952L759.894 194.569L761.281 191.006L762.733 187.265L764.254 183.348L765.852 179.26L767.53 175.004L769.295 170.588L771.151 166.021L773.103 161.313L775.155 156.477L777.312 151.526L779.575 146.478L781.947 141.352L784.429 136.171L787.022 130.957L789.724 125.738L792.533 120.544L795.446 115.405L798.457 110.356L801.56 105.431L804.746 100.669L808.005 96.1056L811.325 91.7812L814.693 87.7339L818.095 84.0018L821.513 80.6219L824.931 77.6292L828.33 75.0562L831.692 72.9323L834.997 71.2831L838.225 70.1295L841.358 69.488L844.376 69.3696L847.262 69.7797L850 70.7181L852.574 72.179L854.973 74.151L857.184 76.6172L859.2 79.5558L861.014 82.9406L862.621 86.7412L864.021 90.9242L865.213 95.4532L866.202 100.29L866.992 105.395L867.589 110.728L868.003 116.25L868.244 121.92L868.323 127.701L868.251 133.555L868.042 139.449L867.71 145.349L867.267 151.226L866.728 157.053L866.106 162.805L865.415 168.46L864.666 173.999L863.873 179.406L863.048 184.667L862.201 189.77L861.343 194.707L860.484 199.47L859.633 204.053L858.798 208.453L857.987 212.668L857.207 216.696L856.465 220.539L855.766 224.197L855.116 227.673L854.521 230.969L853.983 234.088L853.508 237.035L853.099 239.813L852.76 242.427L852.494 244.881L852.304 247.181L852.193 249.33L852.165 251.333L852.221 253.196L852.365 254.922L852.599 256.516L852.925 257.983L853.348 259.326L853.87 260.55L854.492 261.659L855.22 262.656L856.056 263.546L857.002 264.331L858.064 265.014L859.244 265.601L860.546 266.092L861.973 266.492L863.532 266.803L865.224 267.028L867.055 267.17L869.029 267.233L871.151 267.218L873.425 267.129L875.857 266.97L878.449 266.743L881.207 266.451L884.136 266.099L887.238 265.69L890.519 265.229L893.981 264.719L897.626 264.167L901.457 263.577L905.475 262.955L909.681 262.308L914.072 261.643L918.648 260.966L923.405 260.287L928.336 259.613L933.436 258.955L938.694 258.322L944.1 257.726L949.639 257.176L955.295 256.685L961.049 256.265L966.88 255.928L972.762 255.687L978.67 255.554L984.572 255.543L990.436 255.664L996.228 255.931L1001.91 256.353L1007.45 256.942L1012.8 257.704L1017.92 258.649L1022.77 259.782L1027.32 261.107L1031.52 262.625L1035.33 264.336L1038.73 266.239L1041.69 268.328L1044.16 270.596L1046.14 273.035L1047.61 275.633L1048.55 278.377L1048.96 281.253L1048.83 284.243L1048.17 287.332L1047 290.501L1045.32 293.731L1043.17 297.004L1040.55 300.302L1037.52 303.605L1034.08 306.898L1030.29 310.163L1026.18 313.386L1021.78 316.554L1017.14 319.653L1012.3 322.673L1007.29 325.606L1002.15 328.445L996.922 331.182L991.633 333.814L986.318 336.339L981.006 338.755L975.725 341.062L970.5 343.26L965.353 345.352L960.303 347.34L955.367 349.228L950.562 351.02L945.899 352.72L941.389 354.333L937.04 355.865L932.86 357.322L928.853 358.708L925.025 360.029L921.376 361.292L917.91 362.502L914.627 363.664L911.525 364.785L908.606 365.87L905.867 366.923L903.306 367.952L900.922 368.96L898.712 369.953L896.674 370.936L894.804 371.914L893.101 372.891L891.562 373.873L890.184 374.863L888.965 375.867L887.902 376.889L886.992 377.933L886.235 379.005L885.629 380.108L885.17 381.248L885.055 381.619Z" fill="#F4A24C"/>
</g>
</svg>
