<svg id="projects-graphic-1" width="499" height="524" viewBox="0 0 499 524" fill="none" xmlns="http://www.w3.org/2000/svg">
<path fill-rule="evenodd" clip-rule="evenodd" d="M380.432 261.962L380.589 263.273L381.062 264.595L381.852 265.936L382.963 267.306L384.399 268.716L386.167 270.176L388.274 271.697L390.727 273.29L393.534 274.966L396.703 276.738L400.241 278.618L404.154 280.618L408.446 282.751L413.116 285.029L418.159 287.462L423.563 290.063L429.306 292.839L435.358 295.795L441.672 298.933L448.188 302.252L454.826 305.74L461.487 309.381L468.053 313.151L474.386 317.012L480.329 320.92L485.719 324.819L490.383 328.647L494.159 332.334L496.899 335.809L498.484 339.003L498.836 341.853L497.92 344.308L495.753 346.333L492.4 347.909L487.969 349.035L482.601 349.727L476.459 350.017L469.719 349.947L462.553 349.566L455.128 348.929L447.591 348.088L440.073 347.097L432.68 346.003L425.499 344.851L418.597 343.678L412.021 342.516L405.805 341.394L399.97 340.333L394.526 339.353L389.475 338.468L384.814 337.689L380.536 337.027L376.631 336.49L373.085 336.083L369.886 335.813L367.02 335.684L364.475 335.701L362.237 335.868L360.295 336.191L358.638 336.674L357.257 337.323L356.142 338.143L355.287 339.143L354.686 340.328L354.333 341.708L354.225 343.292L354.359 345.09L354.732 347.114L355.345 349.375L356.195 351.887L357.283 354.663L358.608 357.717L360.17 361.063L361.967 364.717L363.996 368.69L366.253 372.994L368.728 377.64L371.411 382.631L374.285 387.969L377.326 393.647L380.505 399.648L383.782 405.946L387.107 412.5L390.42 419.253L393.649 426.129L396.712 433.035L399.515 439.859L401.959 446.468L403.942 452.72L405.365 458.462L406.137 463.543L406.185 467.82L405.458 471.173L403.933 473.51L401.618 474.776L398.553 474.959L394.805 474.09L390.466 472.237L385.642 469.502L380.449 466.009L375.003 461.896L369.413 457.306L363.779 452.378L358.189 447.241L352.712 442.012L347.406 436.789L342.312 431.656L337.46 426.68L332.867 421.914L328.544 417.397L324.492 413.157L320.708 409.215L317.186 405.583L313.914 402.267L310.882 399.271L308.075 396.594L305.48 394.233L303.083 392.187L300.871 390.45L298.829 389.019L296.946 387.89L295.209 387.059L293.607 386.526L292.128 386.289L290.762 386.347L289.5 386.703L288.332 387.36L287.249 388.32L286.242 389.591L285.305 391.178L284.427 393.09L283.601 395.336L282.82 397.927L282.074 400.872L281.355 404.185L280.654 407.874L279.961 411.952L279.266 416.426L278.558 421.303L277.826 426.584L277.055 432.266L276.232 438.338L275.344 444.779L274.373 451.557L273.304 458.622L272.122 465.911L270.81 473.338L269.356 480.796L267.748 488.157L265.977 495.272L264.042 501.974L261.945 508.086L259.697 513.425L257.314 517.819L254.822 521.113L252.252 523.186L249.641 523.958L247.026 523.398L244.447 521.528L241.94 518.421L239.539 514.193L237.267 508.992L235.146 502.992L233.184 496.372L231.388 489.311L229.754 481.978L228.275 474.526L226.942 467.087L225.74 459.77L224.655 452.664L223.669 445.837L222.769 439.34L221.937 433.207L221.159 427.462L220.421 422.117L219.71 417.176L219.014 412.638L218.321 408.497L217.622 404.747L216.907 401.375L216.165 398.372L215.39 395.725L214.572 393.425L213.703 391.46L212.776 389.822L211.781 388.502L210.711 387.492L209.557 386.788L208.31 386.384L206.961 386.278L205.501 386.469L203.919 386.955L202.204 387.737L200.345 388.819L198.33 390.202L196.146 391.89L193.779 393.887L191.217 396.197L188.444 398.823L185.449 401.768L182.216 405.033L178.734 408.616L174.993 412.509L170.984 416.702L166.704 421.177L162.154 425.906L157.342 430.852L152.284 435.964L147.01 441.177L141.557 446.412L135.98 451.571L130.348 456.54L124.745 461.193L119.269 465.392L114.027 468.993L109.137 471.858L104.713 473.859L100.865 474.89L97.6857 474.877L95.2478 473.784L93.5955 471.615L92.7419 468.419L92.6691 464.281L93.3305 459.319L94.6554 453.673L96.5559 447.492L98.9335 440.929L101.686 434.131L104.714 427.23L107.922 420.342L111.227 413.564L114.555 406.974L117.843 400.632L121.04 394.582L124.105 388.851L127.008 383.458L129.722 378.411L132.232 373.711L134.523 369.353L136.589 365.328L138.423 361.624L140.023 358.23L141.386 355.13L142.512 352.311L143.4 349.758L144.05 347.458L144.462 345.397L144.634 343.564L144.565 341.946L144.251 340.535L143.689 339.319L142.875 338.29L141.802 337.442L140.464 336.766L138.852 336.257L136.956 335.909L134.766 335.717L132.27 335.677L129.457 335.783L126.312 336.031L122.822 336.416L118.975 336.933L114.757 337.576L110.158 338.336L105.169 339.205L99.7877 340.172L94.0143 341.22L87.8581 342.334L81.3378 343.491L74.4845 344.664L67.344 345.823L59.9797 346.928L52.4745 347.939L44.9327 348.807L37.48 349.481L30.2626 349.906L23.443 350.029L17.1943 349.799L11.6915 349.173L7.10075 348.118L3.56792 346.614L1.20675 344.66L0.0893961 342.271L0.240105 339.481L1.6333 336.338L4.1963 332.904L7.8162 329.246L12.3498 325.435L17.6349 321.543L23.5018 317.632L29.7831 313.76L36.3217 309.974L42.9765 306.31L49.6253 302.796L56.1663 299.45L62.5171 296.282L68.6139 293.297L74.4089 290.493L79.8683 287.865L84.9696 285.405L89.6995 283.104L94.0517 280.949L98.0252 278.928L101.623 277.03L104.85 275.242L107.715 273.551L110.223 271.945L112.385 270.414L114.206 268.945L115.695 267.528L116.857 266.152L117.698 264.807L118.221 263.483L118.428 262.171L118.321 260.86L117.899 259.54L117.16 258.203L116.1 256.838L114.716 255.436L113.001 253.984L110.949 252.474L108.552 250.893L105.802 249.231L102.691 247.475L99.2118 245.613L95.3584 243.633L91.1269 241.522L86.517 239.268L81.5329 236.86L76.1856 234.286L70.4944 231.539L64.4893 228.612L58.2132 225.502L51.7249 222.212L45.1003 218.75L38.4351 215.132L31.845 211.381L25.4654 207.531L19.4487 203.627L13.9598 199.723L9.16859 195.879L5.24096 192.165L2.32739 188.651L0.551599 185.408L0 182.5L0.713689 179.979L2.6843 177.883L5.85445 176.236L10.1227 175.039L15.3523 174.279L21.3823 173.927L28.0391 173.943L35.1481 174.278L42.5425 174.878L50.0706 175.69L57.5998 176.661L65.019 177.741L72.2386 178.887L79.1891 180.059L85.8195 181.224L92.0942 182.355L97.991 183.426L103.498 184.421L108.611 185.322L113.333 186.118L117.672 186.799L121.636 187.357L125.238 187.785L128.492 188.077L131.409 188.229L134.005 188.236L136.291 188.092L138.279 187.795L139.981 187.338L141.405 186.716L142.562 185.923L143.458 184.953L144.099 183.797L144.491 182.449L144.638 180.898L144.543 179.135L144.207 177.148L143.633 174.925L142.821 172.454L141.77 169.721L140.483 166.713L138.958 163.413L137.199 159.81L135.206 155.889L132.986 151.638L130.545 147.047L127.894 142.111L125.049 136.828L122.032 131.203L118.873 125.252L115.609 118.999L112.288 112.482L108.968 105.757L105.72 98.8945L102.625 91.9859L99.7745 85.1411L97.2663 78.4881L95.2028 72.1693L93.6844 66.3358L92.8031 61.1399L92.6357 56.7258L93.2371 53.2186L94.635 50.7155L96.826 49.2769L99.7756 48.9219L103.42 49.6271L107.672 51.3293L112.426 53.9319L117.568 57.3134L122.982 61.3372L128.556 65.8607L134.188 70.7437L139.791 75.8552L145.29 81.077L150.626 86.3068L155.756 91.4589L160.649 96.4637L165.284 101.266L169.65 105.825L173.745 110.111L177.571 114.101L181.135 117.784L184.445 121.15L187.515 124.197L190.357 126.925L192.985 129.336L195.412 131.432L197.653 133.218L199.721 134.697L201.628 135.874L203.388 136.752L205.011 137.332L206.509 137.617L207.892 137.606L209.17 137.297L210.353 136.689L211.448 135.777L212.466 134.556L213.415 133.02L214.301 131.16L215.135 128.968L215.923 126.433L216.674 123.545L217.396 120.292L218.1 116.663L218.793 112.648L219.487 108.237L220.192 103.425L220.92 98.2081L221.684 92.5893L222.497 86.5782L223.374 80.1939L224.331 73.4673L225.383 66.4437L226.546 59.1853L227.836 51.7741L229.266 44.313L230.85 36.9269L232.594 29.7618L234.503 22.9821L236.575 16.7643L238.8 11.29L241.163 6.73461L243.639 3.25603L246.199 0.982127L248.806 0L251.423 0.348149L254.011 2.01287L256.531 4.92953L258.951 8.98853L261.245 14.0449L263.391 19.93L265.379 26.4638L267.202 33.4661L268.861 40.766L270.363 48.2083L271.719 55.6575L272.941 63.0004L274.044 70.1451L275.044 77.0202L275.957 83.5727L276.799 89.7652L277.585 95.5732L278.328 100.983L279.043 105.988L279.74 110.59L280.433 114.793L281.13 118.605L281.842 122.037L282.579 125.098L283.348 127.8L284.159 130.155L285.019 132.173L285.937 133.862L286.92 135.233L287.978 136.291L289.118 137.044L290.349 137.495L291.681 137.649L293.123 137.505L294.685 137.066L296.378 136.331L298.213 135.297L300.202 133.963L302.359 132.323L304.696 130.376L307.226 128.116L309.964 125.54L312.923 122.646L316.117 119.432L319.558 115.9L323.258 112.055L327.223 107.909L331.46 103.477L335.968 98.7864L340.739 93.8723L345.759 88.7828L351.001 83.5804L356.429 78.343L361.99 73.1651L367.619 68.1573L373.233 63.4449L378.736 59.1646L384.023 55.4586L388.977 52.4675L393.482 50.3212L397.429 49.1296L400.72 48.9726L403.28 49.8932L405.059 51.8928L406.04 54.9302L406.234 58.9251L405.686 63.7645L404.461 69.3121L402.646 75.4182L400.337 81.93L397.637 88.7001L394.647 95.5931L391.462 102.49L388.167 109.291L384.838 115.915L381.54 122.3L378.326 128.399L375.237 134.182L372.307 139.63L369.561 144.732L367.018 149.487L364.691 153.9L362.589 157.977L360.717 161.731L359.08 165.173L357.679 168.319L356.516 171.182L355.59 173.776L354.901 176.116L354.452 178.214L354.241 180.083L354.272 181.734L354.547 183.178L355.069 184.424L355.842 185.482L356.873 186.359L358.169 187.061L359.737 187.597L361.587 187.97L363.729 188.186L366.175 188.251L368.937 188.168L372.029 187.942L375.463 187.578L379.252 187.082L383.411 186.459L387.948 185.716L392.874 184.864L398.193 183.912L403.904 182.875L410.001 181.77L416.465 180.619L423.268 179.446L430.366 178.283L437.7 177.166L445.189 176.137L452.733 175.243L460.209 174.535L467.474 174.067L474.369 173.892L480.72 174.062L486.353 174.623L491.1 175.608L494.81 177.04L497.363 178.923L498.682 181.244L498.733 183.973L497.534 187.064L495.15 190.456L491.69 194.084L487.291 197.874L482.114 201.758L476.329 205.67L470.103 209.551L463.595 213.354L456.95 217.039L450.293 220.579L443.729 223.953L437.343 227.149L431.202 230.163L425.357 232.996L419.842 235.651L414.682 238.137L409.893 240.464L405.48 242.641L401.447 244.682L397.789 246.599L394.503 248.404L391.582 250.11L389.017 251.728L386.801 253.271L384.926 254.749L383.384 256.173L382.171 257.555L381.279 258.904L380.706 260.231L380.448 261.545L380.432 261.962Z" fill="#F4A24C"/>
</svg>
