<svg id="projects-graphic-2" width="294" height="298" viewBox="0 0 294 298" fill="none" xmlns="http://www.w3.org/2000/svg">
<path fill-rule="evenodd" clip-rule="evenodd" d="M254.914 148.82L255.127 149.902L255.764 150.998L256.82 152.119L258.283 153.277L260.137 154.486L262.358 155.755L264.913 157.094L267.757 158.509L270.835 160.003L274.074 161.579L277.388 163.231L280.675 164.949L283.822 166.719L286.703 168.52L289.193 170.324L291.168 172.1L292.518 173.814L293.158 175.432L293.03 176.921L292.117 178.255L290.44 179.412L288.06 180.384L285.072 181.169L281.596 181.779L277.769 182.233L273.737 182.558L269.642 182.786L265.621 182.955L261.796 183.103L258.277 183.269L255.16 183.495L252.532 183.821L250.472 184.292L249.057 184.952L248.369 185.855L248.457 187.042L249.239 188.509L250.62 190.242L252.512 192.227L254.826 194.445L257.469 196.871L260.338 199.473L263.323 202.208L266.302 205.026L269.147 207.866L271.728 210.659L273.916 213.333L275.598 215.815L276.678 218.035L277.09 219.936L276.8 221.474L275.812 222.623L274.164 223.378L271.923 223.755L269.183 223.784L266.052 223.514L262.644 223L259.074 222.304L255.448 221.49L251.862 220.619L248.396 219.748L245.117 218.929L242.076 218.205L239.313 217.616L236.855 217.194L234.719 216.966L232.915 216.956L231.449 217.181L230.32 217.658L229.522 218.401L229.05 219.419L228.892 220.721L229.036 222.313L229.463 224.196L230.154 226.367L231.081 228.818L232.214 231.533L233.511 234.488L234.925 237.646L236.4 240.959L237.871 244.367L239.264 247.794L240.502 251.153L241.501 254.345L242.184 257.27L242.477 259.823L242.322 261.911L241.679 263.454L240.529 264.398L238.881 264.714L236.77 264.409L234.252 263.518L231.402 262.109L228.308 260.269L225.064 258.105L221.763 255.731L218.491 253.266L215.328 250.823L212.34 248.509L209.585 246.425L207.107 244.661L204.946 243.304L203.132 242.438L201.696 242.149L200.668 242.531L200.043 243.626L199.758 245.368L199.749 247.686L199.959 250.513L200.332 253.775L200.813 257.392L201.344 261.27L201.866 265.305L202.319 269.376L202.645 273.352L202.788 277.096L202.699 280.473L202.339 283.353L201.683 285.628L200.719 287.216L199.453 288.068L197.908 288.175L196.116 287.564L194.124 286.295L191.982 284.458L189.743 282.161L187.458 279.522L185.174 276.662L182.93 273.696L180.758 270.732L178.682 267.861L176.719 265.163L174.879 262.703L173.164 260.533L171.575 258.694L170.107 257.216L168.754 256.122L167.504 255.427L166.349 255.144L165.275 255.279L164.271 255.834L163.322 256.808L162.416 258.196L161.537 259.988L160.672 262.165L159.806 264.704L158.924 267.57L158.012 270.715L157.056 274.079L156.045 277.586L154.968 281.143L153.819 284.645L152.594 287.971L151.293 290.993L149.924 293.581L148.498 295.613L147.032 296.981L145.544 297.606L144.059 297.441L142.6 296.476L141.19 294.747L139.847 292.323L138.586 289.31L137.416 285.837L136.339 282.046L135.352 278.085L134.444 274.099L133.603 270.225L132.809 266.585L132.041 263.289L131.275 260.435L130.485 258.112L129.64 256.404L128.706 255.398L127.646 255.183L126.435 255.761L125.067 257.034L123.54 258.91L121.855 261.299L120.016 264.109L118.034 267.241L115.925 270.584L113.715 274.017L111.436 277.409L109.128 280.62L106.837 283.51L104.616 285.944L102.515 287.804L100.585 288.994L98.8693 289.451L97.4 289.148L96.1981 288.1L95.2699 286.355L94.6079 283.995L94.1916 281.125L93.9905 277.862L93.9663 274.331L94.0765 270.653L94.2772 266.94L94.5248 263.292L94.7783 259.792L95.0002 256.508L95.1567 253.494L95.2182 250.791L95.1589 248.425L94.9562 246.417L94.5906 244.778L94.0449 243.514L93.3042 242.624L92.3555 242.106L91.1876 241.953L89.7916 242.155L88.1607 242.699L86.2917 243.565L84.185 244.731L81.8467 246.167L79.2895 247.835L76.5342 249.689L73.6114 251.671L70.563 253.712L67.4425 255.736L64.3156 257.652L61.2584 259.367L58.3555 260.783L55.6953 261.806L53.3648 262.351L51.443 262.35L49.9942 261.761L49.0618 260.567L48.6641 258.782L48.7917 256.454L49.4083 253.652L50.4538 250.471L51.8489 247.015L53.5016 243.397L55.3131 239.726L57.1831 236.107L59.0144 232.631L60.7148 229.38L62.1984 226.421L63.3849 223.812L64.1967 221.602L64.5565 219.837L64.3821 218.561L63.5886 217.815L62.1788 217.565L60.2131 217.734L57.7488 218.249L54.8445 219.043L51.5645 220.048L47.9828 221.194L44.1855 222.406L40.2719 223.607L36.3538 224.717L32.5531 225.655L28.9962 226.345L25.8076 226.718L23.1012 226.719L20.972 226.312L19.488 225.479L18.6851 224.226L18.5641 222.58L19.0917 220.586L20.205 218.304L21.8172 215.801L23.8263 213.15L26.1226 210.42L28.5962 207.675L31.1424 204.972L33.6664 202.355L36.0851 199.862L38.3282 197.519L40.3378 195.343L42.0676 193.345L43.4811 191.529L44.5503 189.895L45.2541 188.437L45.5767 187.148L45.5073 186.02L45.0385 185.04L44.1668 184.197L42.8925 183.476L41.2203 182.862L39.1602 182.34L36.7292 181.892L33.9528 181.498L30.867 181.136L27.5205 180.785L23.9762 180.42L20.3129 180.015L16.6253 179.545L13.0228 178.985L9.62671 178.311L6.56517 177.503L3.96581 176.548L1.94705 175.438L0.608543 174.175L0.021965 172.766L0.223672 171.229L1.21034 169.59L2.93839 167.877L5.32737 166.122L8.26661 164.357L11.6241 162.612L15.256 160.913L19.0159 159.279L22.762 157.724L26.3622 156.255L29.6966 154.873L32.6579 153.575L35.1489 152.352L37.0798 151.192L38.362 150.079L38.9026 148.992L38.6194 147.91L37.5629 146.807L35.829 145.664L33.5068 144.463L30.6852 143.19L27.4585 141.835L23.9306 140.394L20.2172 138.866L16.4467 137.256L12.7582 135.576L9.29738 133.843L6.20985 132.082L3.63237 130.32L1.68346 128.59L0.454047 126.924L0 125.352L0.337592 123.9L1.44281 122.588L3.25454 121.429L5.68111 120.425L8.60904 119.572L11.9126 118.857L15.4629 118.263L19.136 117.767L22.8181 117.344L26.4096 116.969L29.8266 116.616L33.0014 116.261L35.8809 115.879L38.4251 115.45L40.6055 114.954L42.4027 114.371L43.8045 113.686L44.8046 112.884L45.4015 111.949L45.5976 110.869L45.3988 109.632L44.815 108.229L43.8602 106.651L42.5536 104.893L40.9211 102.953L38.9961 100.833L36.8216 98.5419L34.4518 96.0942L31.953 93.5137L29.4041 90.8333L26.8964 88.096L24.5319 85.3547L22.4192 82.671L20.669 80.1135L19.3865 77.7534L18.6642 75.6606L18.5735 73.898L19.1576 72.516L20.4269 71.5476L22.3565 71.0054L24.8882 70.8798L27.9348 71.1398L31.3876 71.7355L35.1245 72.6024L39.0187 73.6661L42.9464 74.847L46.7922 76.0643L50.4525 77.2394L53.8371 78.2969L56.8685 79.1655L59.4796 79.7768L61.6103 80.0633L63.2035 79.9553L64.1996 79.3763L64.5631 78.2655L64.3642 76.6512L63.6878 74.5785L62.6123 72.0916L61.2148 69.2383L59.5744 66.0731L57.7751 62.6607L55.9071 59.0775L54.0662 55.4125L52.352 51.7659L50.8644 48.2463L49.6982 44.9655L48.9375 42.0321L48.6489 39.5438L48.877 37.58L49.6398 36.1947L50.9276 35.4128L52.7049 35.2284L54.9132 35.6059L57.4776 36.4848L60.3128 37.7853L63.3303 39.4155L66.4438 41.2783L69.5739 43.2776L72.6517 45.3227L75.6196 47.3315L78.4321 49.2327L81.0551 50.9655L83.4649 52.48L85.6463 53.7356L87.5913 54.7003L89.2978 55.3486L90.7681 55.661L92.0077 55.6223L93.0251 55.2216L93.8307 54.4508L94.437 53.3058L94.8583 51.7858L95.1109 49.8945L95.2136 47.6414L95.1879 45.0428L95.0586 42.124L94.8541 38.9212L94.6067 35.4833L94.3529 31.8738L94.1327 28.1715L93.9889 24.4709L93.9655 20.8803L94.1059 17.5186L94.4499 14.5097L95.0309 11.9748L95.8728 10.0241L96.9876 8.74692L98.3732 8.20384L100.014 8.41984L101.88 9.38129L103.931 11.0365L106.12 13.2997L108.394 16.0585L110.702 19.1824L112.995 22.5318L115.231 25.9666L117.375 29.3522L119.4 32.5636L121.286 35.4875L123.021 38.0211L124.598 40.0703L126.017 41.5454L127.277 42.3553L128.384 42.4015L129.354 41.6374L130.223 40.1434L131.027 38.0073L131.798 35.3132L132.562 32.1479L133.346 28.6061L134.17 24.7936L135.055 20.8293L136.016 16.8453L137.063 12.9841L138.204 9.39347L139.436 6.21905L140.754 3.59514L142.145 1.63489L143.59 0.421228L145.07 0L146.559 0.37645L148.035 1.51566L149.476 3.34682L150.864 5.77058L152.187 8.66821L153.437 11.9112L154.61 15.3703L155.709 18.9224L156.741 22.4561L157.713 25.8745L158.637 29.0966L159.527 32.0569L160.397 34.7043L161.261 37.0002L162.134 38.9169L163.03 40.4348L163.963 41.5417L164.948 42.2305L165.998 42.4989L167.127 42.3484L168.345 41.7843L169.664 40.8161L171.095 39.4582L172.645 37.7311L174.319 35.6627L176.119 33.2902L178.044 30.6616L180.085 27.8378L182.229 24.8934L184.453 21.9172L186.729 19.0113L189.018 16.289L191.277 13.87L193.456 11.874L195.501 10.4136L197.362 9.58465L198.99 9.45804L200.348 10.0724L201.409 11.4295L202.163 13.493L202.615 16.1911L202.787 19.4225L202.713 23.0643L202.439 26.9818L202.02 31.0371L201.514 35.0967L200.979 39.0373L200.476 42.7482L200.062 46.1325L199.794 49.1059L199.727 51.5937L199.919 53.5264L200.428 54.8352L201.323 55.4472L202.633 55.3613L204.329 54.6694L206.383 53.4598L208.763 51.8167L211.435 49.8247L214.354 47.5737L217.468 45.1605L220.713 42.6901L224.014 40.2748L227.287 38.0314L230.439 36.0763L233.376 34.5188L236.009 33.4544L238.257 32.9571L240.057 33.0735L241.367 33.8188L242.172 35.176L242.479 37.098L242.323 39.5127L241.757 42.3297L240.85 45.4483L239.679 48.765L238.327 52.1803L236.872 55.6029L235.391 58.9538L233.951 62.1672L232.611 65.191L231.422 67.9856L230.425 70.5229L229.656 72.7845L229.142 74.7597L228.906 76.444L228.966 77.838L229.337 78.946L230.03 79.7752L231.053 80.3356L232.412 80.6396L234.108 80.7023L236.139 80.5415L238.496 80.1786L241.165 79.6395L244.12 78.9549L247.328 78.1613L250.741 77.3014L254.297 76.4244L257.92 75.5858L261.519 74.8456L264.991 74.2668L268.223 73.9123L271.1 73.8408L273.51 74.1024L275.356 74.7347L276.56 75.7581L277.074 77.1738L276.884 78.963L276.011 81.0873L274.512 83.4926L272.473 86.1131L270.004 88.8764L267.229 91.7091L264.279 94.541L261.282 97.3089L258.363 99.9581L255.637 102.444L253.208 104.731L251.171 106.793L249.618 108.608L248.635 110.162L248.316 111.439L248.755 112.43L249.947 113.162L251.811 113.687L254.266 114.055L257.236 114.308L260.637 114.489L264.376 114.638L268.347 114.796L272.433 115.001L276.5 115.291L280.408 115.701L284.011 116.259L287.169 116.987L289.755 117.899L291.664 118.998L292.824 120.277L293.202 121.719L292.803 123.299L291.671 124.986L289.884 126.746L287.545 128.545L284.774 130.35L281.698 132.132L278.443 133.869L275.126 135.544L271.853 137.144L268.716 138.665L265.79 140.105L263.138 141.467L260.806 142.757L258.832 143.984L257.242 145.158L256.055 146.289L255.284 147.391L254.935 148.476L254.914 148.82Z" fill="#C1DBD0"/>
</svg>
