<svg id="research-graphic-2" width="813" height="854" viewBox="0 0 813 854" fill="none" xmlns="http://www.w3.org/2000/svg">
<g>
<path id="research-star-2" fill-rule="evenodd" clip-rule="evenodd" d="M541.088 426.584V426.584L541.419 427.938L542.415 429.311L544.083 430.725L546.438 432.201L549.498 433.761L553.285 435.427L557.827 437.223L563.154 439.176L569.297 441.313L576.289 443.661L584.161 446.252L592.937 449.114L602.638 452.281L613.271 455.781L624.829 459.644L637.284 463.895L650.582 468.553L664.64 473.633L679.336 479.135L694.51 485.05L709.958 491.352L725.432 497.996L740.643 504.918L755.263 512.033L768.942 519.236L781.314 526.402L792.018 533.393L800.717 540.062L807.118 546.257L810.99 551.835L812.183 556.668L810.635 560.647L806.381 563.695L799.548 565.766L790.348 566.85L779.063 566.973L766.024 566.19L751.595 564.584L736.15 562.258L720.055 559.328L703.652 555.915L687.247 552.142L671.106 548.127L655.448 543.978L640.444 539.791L626.225 535.651L612.88 531.628L600.464 527.779L589.005 524.15L578.506 520.777L568.954 517.685L560.324 514.894L552.58 512.416L545.682 510.261L539.588 508.434L534.256 506.939L529.643 505.78L525.712 504.958L522.426 504.479L519.755 504.348L517.671 504.572L516.152 505.16L515.179 506.124L514.741 507.481L514.827 509.248L515.432 511.447L516.557 514.104L518.204 517.248L520.378 520.912L523.087 525.132L526.341 529.945L530.149 535.395L534.521 541.521L539.462 548.367L544.976 555.972L551.058 564.372L557.695 573.593L564.862 583.653L572.518 594.554L580.606 606.275L589.046 618.773L597.735 631.975L606.544 645.77L615.321 660.011L623.885 674.51L632.038 689.038L639.563 703.328L646.237 717.084L651.838 729.987L656.16 741.714L659.022 751.95L660.281 760.407L659.846 766.842L657.679 771.072L653.805 772.988L648.308 772.561L641.324 769.842L633.04 764.96L623.671 758.111L613.458 749.544L602.645 739.544L591.473 728.416L580.167 716.468L568.926 703.997L557.922 691.279L547.296 678.559L537.154 666.046L527.576 653.915L518.612 642.303L510.289 631.315L502.616 621.025L495.585 611.481L489.177 602.713L483.365 594.729L478.115 587.53L473.393 581.102L469.159 575.43L465.376 570.492L462.008 566.266L459.019 562.732L456.378 559.868L454.052 557.658L452.014 556.089L450.239 555.15L448.703 554.838L447.385 555.153L446.265 556.099L445.325 557.688L444.549 559.936L443.921 562.863L443.426 566.495L443.051 570.863L442.779 576.001L442.595 581.946L442.484 588.738L442.428 596.416L442.406 605.017L442.397 614.573L442.377 625.109L442.317 636.638L442.188 649.154L441.955 662.631L441.582 677.015L441.031 692.217L440.262 708.11L439.234 724.522L437.911 741.235L436.261 757.985L434.256 774.461L431.882 790.314L429.133 805.171L426.02 818.643L422.569 830.348L418.821 839.931L414.834 847.086L410.676 851.574L406.428 853.242L402.172 852.031L397.994 847.984L393.975 841.24L390.185 832.024L386.683 820.635L383.515 807.419L380.707 792.757L378.273 777.037L376.21 760.636L374.504 743.908L373.132 727.17L372.06 710.694L371.252 694.706L370.668 679.384L370.27 664.863L370.017 651.237L369.874 638.565L369.805 626.879L369.78 616.185L369.772 606.474L369.753 597.723L369.704 589.901L369.602 582.97L369.432 576.893L369.175 571.629L368.817 567.14L368.342 563.393L367.737 560.356L366.985 558.002L366.072 556.309L364.982 555.261L363.697 554.846L362.196 555.059L360.461 555.897L358.467 557.366L356.189 559.473L353.6 562.231L350.668 565.658L347.363 569.772L343.649 574.595L339.489 580.149L334.847 586.455L329.684 593.531L323.963 601.389L317.652 610.032L310.722 619.454L303.152 629.628L294.933 640.509L286.07 652.028L276.586 664.085L266.53 676.547L255.974 689.248L245.022 701.982L233.809 714.509L222.5 726.56L211.292 737.839L200.406 748.039L190.081 756.855L180.562 763.995L172.089 769.205L164.885 772.279L159.14 773.077L155.001 771.534L152.559 767.667L151.849 761.573L152.843 753.423L155.458 743.452L159.559 731.942L164.97 719.204L171.487 705.563L178.892 691.337L186.959 676.829L195.472 662.309L204.227 648.013L213.042 634.135L221.76 620.831L230.247 608.215L238.396 596.366L246.126 585.333L253.374 575.139L260.097 565.785L266.269 557.256L271.873 549.527L276.906 542.562L281.368 536.324L285.265 530.77L288.607 525.858L291.402 521.546L293.661 517.796L295.391 514.572L296.599 511.839L297.287 509.569L297.456 507.734L297.102 506.314L296.215 505.288L294.784 504.641L292.791 504.36L290.215 504.435L287.029 504.859L283.203 505.626L278.702 506.732L273.487 508.174L267.517 509.948L260.75 512.051L253.144 514.478L244.657 517.22L235.254 520.265L224.907 523.595L213.601 527.185L201.337 531.001L188.137 535.001L174.052 539.127L159.165 543.311L143.601 547.473L127.523 551.516L111.144 555.335L94.7209 558.813L78.5546 561.829L62.9822 564.259L48.3666 565.987L35.0815 566.907L23.4933 566.933L13.9408 566.004L6.71488 564.091L2.03939 561.196L0.0558513 557.361L0.813723 552.658L4.26719 547.19L10.2789 541.084L18.6302 534.481L29.0366 527.531L41.1665 520.383L54.6615 513.178L69.1561 506.041L84.2951 499.082L99.7476 492.389L115.218 486.029L130.45 480.05L145.235 474.481L159.403 469.334L172.829 464.609L185.422 460.294L197.125 456.371L207.907 452.815L217.756 449.598L226.679 446.689L234.692 444.057L241.822 441.672L248.099 439.504L253.553 437.523L258.219 435.703L262.124 434.018L265.298 432.443L267.764 430.956L269.541 429.533L270.643 428.155L271.079 426.799L270.854 425.447L269.965 424.078L268.404 422.672L266.159 421.207L263.213 419.663L259.544 418.015L255.124 416.241L249.924 414.315L243.913 412.209L237.058 409.897L229.329 407.347L220.698 404.53L211.145 401.414L200.66 397.969L189.248 394.165L176.934 389.978L163.765 385.385L149.821 380.373L135.217 374.938L120.107 369.087L104.686 362.845L89.198 356.251L73.9248 349.368L59.1873 342.277L45.3344 335.081L32.73 327.9L21.737 320.871L12.6975 314.141L5.91337 307.861L1.62598 302.175L0 297.216L1.11114 293.095L4.94027 289.895L11.3744 287.667L20.2145 286.426L31.1892 286.153L43.9727 286.796L58.2051 288.278L73.5129 290.496L89.5282 293.339L105.904 296.683L122.327 300.406L138.526 304.39L154.274 308.525L169.392 312.712L183.743 316.864L197.232 320.911L209.798 324.791L221.41 328.457L232.062 331.873L241.763 335.011L250.538 337.851L258.42 340.379L265.45 342.586L271.669 344.466L277.12 346.014L281.844 347.227L285.882 348.102L289.268 348.636L292.035 348.823L294.211 348.657L295.819 348.127L296.878 347.224L297.401 345.931L297.398 344.23L296.875 342.102L295.832 339.519L294.269 336.455L292.179 332.876L289.556 328.748L286.39 324.031L282.67 318.686L278.389 312.67L273.539 305.941L268.116 298.46L262.124 290.189L255.574 281.1L248.489 271.174L240.907 260.407L232.884 248.814L224.494 236.435L215.837 223.339L207.036 209.63L198.243 195.448L189.632 180.976L181.4 166.436L173.76 152.089L166.936 138.227L161.149 125.166L156.611 113.23L153.506 102.736L151.983 93.9786L152.145 87.2079L154.036 82.6174L157.642 80.3286L162.889 80.3841L169.647 82.7448L177.738 87.2936L186.949 93.8447L197.045 102.157L207.779 111.949L218.909 122.918L230.208 134.756L241.472 147.162L252.523 159.858L263.218 172.593L273.442 185.151L283.114 197.353L292.179 209.056L300.605 220.149L308.381 230.554L315.513 240.219L322.019 249.112L327.924 257.22L333.26 264.544L338.065 271.094L342.374 276.885L346.226 281.938L349.658 286.276L352.705 289.919L355.399 292.889L357.773 295.201L359.855 296.872L361.67 297.911L363.243 298.322L364.595 298.108L365.745 297.263L366.713 295.777L367.514 293.636L368.164 290.819L368.679 287.301L369.073 283.052L369.36 278.039L369.556 272.225L369.678 265.57L369.742 258.036L369.768 249.585L369.777 240.183L369.794 229.804L369.845 218.434L369.961 206.074L370.175 192.746L370.523 178.502L371.043 163.423L371.775 147.63L372.759 131.287L374.033 114.605L375.629 97.8414L377.576 81.2997L379.891 65.3224L382.58 50.2811L385.636 36.563L389.036 24.5519L392.74 14.6087L396.693 7.04897L400.829 2.12339L405.069 0L409.329 0.75243L413.525 4.35451L417.574 10.6822L421.405 19.5224L424.956 30.5882L428.18 43.5377L431.047 57.9953L433.541 73.5731L435.662 89.89L437.423 106.588L438.846 123.344L439.964 139.878L440.812 155.957L441.428 171.395L441.853 186.051L442.127 199.824L442.285 212.651L442.363 224.495L442.393 235.347L442.403 245.213L442.418 254.115L442.461 262.083L442.553 269.153L442.711 275.363L442.953 280.755L443.295 285.364L443.75 289.227L444.333 292.375L445.06 294.837L445.946 296.634L447.007 297.783L448.261 298.298L449.725 298.185L451.422 297.447L453.373 296.079L455.604 294.075L458.142 291.421L461.016 288.102L464.26 284.099L467.906 279.39L471.993 273.954L476.556 267.769L481.633 260.817L487.263 253.084L493.477 244.565L500.307 235.267L507.775 225.21L515.89 214.438L524.652 203.014L534.039 191.035L544.008 178.627L554.491 165.952L565.388 153.208L576.57 140.63L587.876 128.484L599.114 117.062L610.067 106.669L620.498 97.6129L630.162 90.1876L638.817 84.6551L646.237 81.2299L652.225 80.0632L656.628 81.2321L659.344 84.7333L660.329 90.4823L659.602 98.3187L657.237 108.017L653.363 119.303L648.148 131.867L641.792 145.386L634.514 159.539L626.537 174.022L618.081 188.557L609.352 202.903L600.535 216.858L591.792 230.262L583.261 242.994L575.051 254.969L567.25 266.134L559.922 276.462L553.113 285.95L546.852 294.609L541.157 302.463L536.033 309.547L531.48 315.898L527.494 321.558L524.064 326.57L521.183 330.974L518.839 334.811L517.025 338.117L515.734 340.926L514.963 343.268L514.711 345.17L514.982 346.655L515.783 347.743L517.127 348.45L519.029 348.788L521.51 348.769L524.597 348.4L528.319 347.688L532.711 346.635L537.809 345.247L543.656 343.525L550.293 341.474L557.763 339.098L566.107 336.406L575.362 333.408L585.557 330.122L596.709 326.572L608.822 322.788L621.876 318.815L635.825 314.705L650.59 310.524L666.057 306.353L682.066 302.284L698.413 298.422L714.848 294.882L731.077 291.784L746.768 289.253L761.561 287.405L775.083 286.35L786.965 286.177L796.863 286.951L804.476 288.707L809.569 291.447L811.987 295.136L811.666 299.708L808.634 305.061L803.017 311.075L795.021 317.609L784.921 324.513L773.042 331.639L759.74 338.845L745.38 346L730.321 352.994L714.898 359.735L699.412 366.151L684.126 372.193L669.258 377.829L654.982 383.043L641.432 387.835L628.701 392.214L616.853 396.198L605.924 399.811L595.926 403.08L586.857 406.036L578.7 408.71L571.431 411.132L565.021 413.333L559.437 415.341L554.649 417.185L550.624 418.89L547.335 420.481L544.758 421.981L542.872 423.412L541.664 424.797L541.121 426.154L541.088 426.584Z" fill="#DD7649"/>
<path id="research-star-1" fill-rule="evenodd" clip-rule="evenodd" d="M305.914 703.82V703.82L306.127 704.902L306.764 705.998L307.82 707.119L309.283 708.277L311.137 709.486L313.358 710.755L315.913 712.094L318.757 713.509L321.835 715.003L325.074 716.579L328.388 718.231L331.675 719.949L334.822 721.719L337.703 723.52L340.193 725.324L342.168 727.1L343.518 728.814L344.158 730.432L344.03 731.921L343.117 733.255L341.44 734.412L339.06 735.384L336.072 736.169L332.596 736.779L328.769 737.233L324.737 737.558L320.642 737.786L316.621 737.955L312.796 738.103L309.277 738.269L306.16 738.495L303.532 738.821L301.472 739.292L300.057 739.952L299.369 740.855L299.457 742.042L300.239 743.509L301.62 745.242L303.512 747.227L305.826 749.445L308.469 751.871L311.338 754.473L314.323 757.208L317.302 760.026L320.147 762.866L322.728 765.659L324.916 768.333L326.598 770.815L327.678 773.035L328.09 774.936L327.8 776.474L326.812 777.623L325.164 778.378L322.923 778.755L320.183 778.784L317.052 778.514L313.644 778L310.074 777.304L306.448 776.49L302.862 775.619L299.396 774.748L296.117 773.929L293.076 773.205L290.313 772.616L287.855 772.194L285.719 771.966L283.915 771.956L282.449 772.181L281.32 772.658L280.522 773.401L280.05 774.419L279.892 775.721L280.036 777.313L280.463 779.196L281.154 781.367L282.081 783.818L283.214 786.533L284.511 789.488L285.925 792.646L287.4 795.959L288.871 799.367L290.264 802.794L291.502 806.153L292.501 809.345L293.184 812.27L293.477 814.823L293.322 816.911L292.679 818.454L291.529 819.398L289.881 819.714L287.77 819.409L285.252 818.518L282.402 817.109L279.308 815.269L276.064 813.105L272.763 810.731L269.491 808.266L266.328 805.823L263.34 803.509L260.585 801.425L258.107 799.661L255.946 798.304L254.132 797.438L252.696 797.149L251.668 797.531L251.043 798.626L250.758 800.368L250.749 802.686L250.959 805.513L251.332 808.775L251.813 812.392L252.344 816.27L252.866 820.305L253.319 824.376L253.645 828.352L253.788 832.096L253.699 835.473L253.339 838.353L252.683 840.628L251.719 842.216L250.453 843.068L248.908 843.175L247.116 842.564L245.124 841.295L242.982 839.458L240.743 837.161L238.458 834.522L236.174 831.662L233.93 828.696L231.758 825.732L229.682 822.861L227.719 820.163L225.879 817.703L224.164 815.533L222.575 813.694L221.107 812.216L219.754 811.122L218.504 810.427L217.349 810.144L216.275 810.279L215.271 810.834L214.322 811.808L213.416 813.196L212.537 814.988L211.672 817.165L210.806 819.704L209.924 822.57L209.012 825.715L208.056 829.079L207.045 832.586L205.968 836.143L204.819 839.645L203.594 842.971L202.293 845.993L200.924 848.581L199.498 850.613L198.032 851.981L196.544 852.606L195.059 852.441L193.6 851.476L192.19 849.747L190.847 847.323L189.586 844.31L188.416 840.837L187.339 837.046L186.352 833.085L185.444 829.099L184.603 825.225L183.809 821.585L183.041 818.289L182.275 815.435L181.485 813.112L180.64 811.404L179.706 810.398L178.646 810.183L177.435 810.761L176.067 812.034L174.54 813.91L172.855 816.299L171.016 819.109L169.034 822.241L166.925 825.584L164.715 829.017L162.436 832.409L160.128 835.62L157.837 838.51L155.616 840.944L153.515 842.804L151.585 843.994L149.869 844.451L148.4 844.148L147.198 843.1L146.27 841.355L145.608 838.995L145.192 836.125L144.99 832.862L144.966 829.331L145.077 825.653L145.277 821.94L145.525 818.292L145.778 814.792L146 811.508L146.157 808.494L146.218 805.791L146.159 803.425L145.956 801.417L145.591 799.778L145.045 798.514L144.304 797.624L143.355 797.106L142.188 796.953L140.792 797.155L139.161 797.699L137.292 798.565L135.185 799.731L132.847 801.167L130.29 802.835L127.534 804.689L124.611 806.671L121.563 808.712L118.443 810.736L115.316 812.652L112.258 814.367L109.356 815.783L106.695 816.806L104.365 817.351L102.443 817.35L100.994 816.761L100.062 815.567L99.6641 813.782L99.7917 811.454L100.408 808.652L101.454 805.471L102.849 802.015L104.502 798.397L106.313 794.726L108.183 791.107L110.014 787.631L111.715 784.38L113.198 781.421L114.385 778.812L115.197 776.602L115.557 774.837L115.382 773.561L114.589 772.815L113.179 772.565L111.213 772.734L108.749 773.249L105.844 774.043L102.564 775.048L98.9828 776.194L95.1855 777.406L91.2719 778.607L87.3538 779.717L83.5531 780.655L79.9962 781.345L76.8076 781.718L74.1012 781.719L71.972 781.312L70.488 780.479L69.6851 779.226L69.5641 777.58L70.0917 775.586L71.205 773.304L72.8172 770.801L74.8263 768.15L77.1226 765.42L79.5962 762.675L82.1424 759.972L84.6664 757.355L87.0851 754.862L89.3282 752.519L91.3378 750.343L93.0676 748.345L94.4811 746.529L95.5503 744.895L96.2541 743.437L96.5767 742.148L96.5073 741.02L96.0385 740.04L95.1668 739.197L93.8925 738.476L92.2203 737.862L90.1602 737.34L87.7292 736.892L84.9528 736.498L81.867 736.136L78.5205 735.785L74.9762 735.42L71.3129 735.015L67.6253 734.545L64.0228 733.985L60.6267 733.311L57.5652 732.503L54.9658 731.548L52.9471 730.438L51.6085 729.175L51.022 727.766L51.2237 726.229L52.2103 724.59L53.9384 722.877L56.3274 721.122L59.2666 719.357L62.6241 717.612L66.256 715.913L70.0159 714.279L73.762 712.724L77.3622 711.255L80.6966 709.873L83.6579 708.575L86.1489 707.352L88.0798 706.192L89.362 705.079L89.9026 703.992L89.6194 702.91L88.5629 701.807L86.829 700.664L84.5068 699.463L81.6852 698.19L78.4585 696.835L74.9306 695.394L71.2172 693.866L67.4467 692.256L63.7582 690.576L60.2974 688.843L57.2098 687.082L54.6324 685.32L52.6835 683.59L51.454 681.924L51 680.352L51.3376 678.9L52.4428 677.588L54.2545 676.429L56.6811 675.425L59.609 674.572L62.9126 673.857L66.4629 673.263L70.136 672.767L73.8181 672.344L77.4096 671.969L80.8266 671.616L84.0014 671.261L86.8809 670.879L89.4251 670.45L91.6055 669.954L93.4027 669.371L94.8045 668.686L95.8046 667.884L96.4015 666.949L96.5976 665.869L96.3988 664.632L95.815 663.229L94.8602 661.651L93.5536 659.893L91.9211 657.953L89.9961 655.833L87.8216 653.542L85.4518 651.094L82.953 648.514L80.4041 645.833L77.8964 643.096L75.5319 640.355L73.4192 637.671L71.669 635.113L70.3865 632.753L69.6642 630.661L69.5735 628.898L70.1576 627.516L71.4269 626.548L73.3565 626.005L75.8882 625.88L78.9348 626.14L82.3876 626.735L86.1245 627.602L90.0187 628.666L93.9464 629.847L97.7922 631.064L101.453 632.239L104.837 633.297L107.869 634.165L110.48 634.777L112.61 635.063L114.203 634.955L115.2 634.376L115.563 633.266L115.364 631.651L114.688 629.579L113.612 627.092L112.215 624.238L110.574 621.073L108.775 617.661L106.907 614.078L105.066 610.413L103.352 606.766L101.864 603.246L100.698 599.965L99.9375 597.032L99.6489 594.544L99.877 592.58L100.64 591.195L101.928 590.413L103.705 590.228L105.913 590.606L108.478 591.485L111.313 592.785L114.33 594.415L117.444 596.278L120.574 598.278L123.652 600.323L126.62 602.332L129.432 604.233L132.055 605.965L134.465 607.48L136.646 608.736L138.591 609.7L140.298 610.349L141.768 610.661L143.008 610.622L144.025 610.222L144.831 609.451L145.437 608.306L145.858 606.786L146.111 604.894L146.214 602.641L146.188 600.043L146.059 597.124L145.854 593.921L145.607 590.483L145.353 586.874L145.133 583.171L144.989 579.471L144.966 575.88L145.106 572.519L145.45 569.51L146.031 566.975L146.873 565.024L147.988 563.747L149.373 563.204L151.014 563.42L152.88 564.381L154.931 566.036L157.12 568.3L159.394 571.059L161.702 574.182L163.995 577.532L166.231 580.967L168.375 584.352L170.4 587.564L172.286 590.487L174.021 593.021L175.598 595.07L177.017 596.545L178.277 597.355L179.384 597.402L180.354 596.637L181.223 595.143L182.027 593.007L182.798 590.313L183.562 587.148L184.346 583.606L185.17 579.794L186.055 575.829L187.016 571.845L188.063 567.984L189.204 564.393L190.436 561.219L191.754 558.595L193.145 556.635L194.59 555.421L196.07 555L197.559 555.376L199.035 556.516L200.476 558.347L201.864 560.771L203.187 563.668L204.437 566.911L205.61 570.37L206.709 573.922L207.741 577.456L208.713 580.875L209.637 584.097L210.527 587.057L211.397 589.704L212.261 592L213.134 593.917L214.03 595.435L214.963 596.542L215.948 597.231L216.998 597.499L218.127 597.348L219.345 596.784L220.664 595.816L222.095 594.458L223.645 592.731L225.319 590.663L227.119 588.29L229.044 585.662L231.085 582.838L233.229 579.893L235.453 576.917L237.729 574.011L240.018 571.289L242.277 568.87L244.456 566.874L246.501 565.414L248.362 564.585L249.99 564.458L251.348 565.072L252.409 566.43L253.163 568.493L253.615 571.191L253.787 574.422L253.713 578.064L253.439 581.982L253.02 586.037L252.514 590.097L251.979 594.037L251.476 597.748L251.062 601.132L250.794 604.106L250.727 606.594L250.919 608.526L251.428 609.835L252.323 610.447L253.633 610.361L255.329 609.669L257.383 608.46L259.763 606.817L262.435 604.825L265.354 602.574L268.468 600.16L271.713 597.69L275.014 595.275L278.287 593.031L281.439 591.076L284.376 589.519L287.009 588.454L289.257 587.957L291.057 588.074L292.367 588.819L293.172 590.176L293.479 592.098L293.323 594.513L292.757 597.33L291.85 600.448L290.679 603.765L289.327 607.18L287.872 610.603L286.391 613.954L284.951 617.167L283.611 620.191L282.422 622.986L281.425 625.523L280.656 627.785L280.142 629.76L279.906 631.444L279.966 632.838L280.337 633.946L281.03 634.775L282.053 635.336L283.412 635.64L285.108 635.702L287.139 635.541L289.496 635.179L292.165 634.64L295.12 633.955L298.328 633.161L301.741 632.301L305.297 631.424L308.92 630.586L312.519 629.846L315.991 629.267L319.223 628.912L322.1 628.841L324.51 629.102L326.356 629.735L327.56 630.758L328.074 632.174L327.884 633.963L327.011 636.087L325.512 638.493L323.473 641.113L321.004 643.876L318.229 646.709L315.279 649.541L312.282 652.309L309.363 654.958L306.637 657.444L304.208 659.731L302.171 661.793L300.618 663.608L299.635 665.162L299.316 666.439L299.755 667.43L300.947 668.162L302.811 668.687L305.266 669.055L308.236 669.308L311.637 669.489L315.376 669.638L319.347 669.796L323.433 670.001L327.5 670.291L331.408 670.701L335.011 671.259L338.169 671.987L340.755 672.899L342.664 673.998L343.824 675.277L344.202 676.719L343.803 678.299L342.671 679.986L340.884 681.746L338.545 683.545L335.774 685.35L332.698 687.132L329.443 688.869L326.126 690.544L322.853 692.144L319.716 693.665L316.79 695.105L314.138 696.467L311.806 697.757L309.832 698.984L308.242 700.158L307.055 701.289L306.284 702.391L305.935 703.476L305.914 703.82Z" fill="#C1DBD0"/>
</g>
</svg>
