<svg id="research-graphic-1" width="384" height="389" viewBox="0 0 384 389" fill="none" xmlns="http://www.w3.org/2000/svg">
<path fill-rule="evenodd" clip-rule="evenodd" d="M234.59 194.535V194.535V194.535C234.925 194.82 235.316 195.034 235.737 195.162L236.613 195.43L239.163 195.954L242.831 196.574L247.748 197.331L254.081 198.271L262.017 199.452L271.739 200.936L283.372 202.79L296.918 205.071L312.153 207.815L328.528 211.007L345.086 214.558L360.468 218.284L373.059 221.907L380.934 224.954C381.166 225.043 381.381 225.174 381.567 225.34L381.683 225.442C382.766 226.405 382.489 228.165 381.162 228.748V228.748C380.932 228.85 380.684 228.906 380.432 228.915L372.209 229.203L359.394 228.479L343.956 226.938L327.48 224.848L311.272 222.481L296.236 220.066L282.876 217.765L271.388 215.682L261.755 213.871L253.841 212.35L247.458 211.119L242.412 210.166L238.522 209.476L235.637 209.037L233.641 208.841L232.575 208.882C232.491 208.885 232.409 208.911 232.339 208.958V208.958C232.147 209.086 232.081 209.338 232.185 209.544L232.234 209.641C232.27 209.711 232.319 209.772 232.379 209.823L233.314 210.607L235.12 211.807L237.778 213.402L241.389 215.467L246.08 218.091L252.003 221.382L259.315 225.458L268.153 230.436L278.593 236.413L290.584 243.425L303.865 251.403L317.883 260.112L331.732 269.105L344.184 277.71L353.836 285.093L359.043 290.079C359.265 290.292 359.419 290.566 359.487 290.866V290.866C359.719 291.905 358.865 292.867 357.805 292.759L355.771 292.551C355.518 292.525 355.27 292.468 355.032 292.38L346.267 289.157L333.767 283.461L319.337 276.205L304.361 268.207L289.933 260.17L276.772 252.6L265.249 245.805L255.47 239.927L247.373 234.993L240.807 230.963L235.589 227.765L231.542 225.321L228.513 223.563L226.383 222.443L225.186 221.982C225.114 221.954 225.035 221.949 224.959 221.967V221.967C224.741 222.019 224.613 222.246 224.683 222.459L224.778 222.752C224.798 222.814 224.827 222.872 224.863 222.925L225.81 224.301L227.57 226.481L230.138 229.473L233.59 233.396L238.029 238.399L243.561 244.648L250.281 252.304L258.23 261.489L267.346 272.223L277.4 284.35L287.934 297.451L298.221 310.779L307.303 323.265L314.115 333.635L317.505 340.245C317.64 340.509 317.699 340.804 317.678 341.099V341.099C317.596 342.216 316.428 342.911 315.407 342.45L313.817 341.733C313.59 341.63 313.378 341.498 313.185 341.34L306.135 335.552L296.422 326.238L285.431 314.845L274.17 302.581L263.417 290.441L253.663 279.122L245.15 269.023L237.928 260.311L231.935 252.99L227.045 246.976L223.116 242.143L220.006 238.356L217.591 235.492L215.768 233.449L214.587 232.281C214.499 232.194 214.404 232.115 214.302 232.044L213.718 231.635C213.636 231.577 213.535 231.553 213.437 231.568V231.568C213.259 231.594 213.121 231.738 213.104 231.917L213.072 232.235C213.064 232.315 213.069 232.396 213.085 232.475L213.363 233.811L214.048 236.042L215.135 239.143L216.657 243.241L218.656 248.495L221.178 255.086L224.267 263.205L227.946 273.025L232.205 284.65L236.964 298.044L242.05 312.933L247.163 328.713L251.876 344.384L255.667 358.585L258.003 369.759L258.415 375.76C258.445 376.203 258.258 376.632 257.912 376.91V376.91C257.332 377.378 256.483 377.29 256.011 376.714L253.63 373.812C253.427 373.565 253.248 373.3 253.095 373.02L248.247 364.164L242.201 351.195L235.787 336.085L229.517 320.314L223.746 305.054L218.671 291.081L214.356 278.808L210.779 268.365L207.867 259.709L205.529 252.697L203.672 247.156L202.212 242.915L201.078 239.829L200.277 237.942C200.235 237.843 200.185 237.747 200.129 237.655L199.66 236.89C199.606 236.802 199.515 236.743 199.412 236.731V236.731C199.249 236.712 199.096 236.813 199.05 236.97L198.882 237.539C198.861 237.609 198.847 237.682 198.842 237.756L198.705 239.594L198.67 242.599L198.729 246.768L198.864 252.25L199.055 259.228L199.278 267.9L199.498 278.443L199.666 290.955L199.719 305.376L199.58 321.381L199.166 338.279L198.406 354.952L197.26 369.904L195.744 381.467L194.117 387.508C194.009 387.91 193.725 388.241 193.344 388.41V388.41C192.619 388.73 191.775 388.375 191.496 387.634L190.27 384.369C190.164 384.086 190.085 383.793 190.035 383.494L188.411 373.741L187.024 359.789L185.999 343.73L185.323 327.095L184.943 311.073L184.788 296.435L184.783 283.578L184.867 272.617L184.987 263.491L185.107 256.042L185.198 250.078L185.241 245.407L185.22 241.861L185.122 239.3L184.95 237.767C184.939 237.668 184.917 237.571 184.885 237.477L184.704 236.94C184.664 236.82 184.564 236.73 184.441 236.7V236.7C184.307 236.668 184.165 236.715 184.076 236.82L183.748 237.209C183.688 237.279 183.637 237.357 183.595 237.44L182.918 238.776L181.965 241.09L180.751 244.349L179.216 248.678L177.289 254.227L174.887 261.17L171.918 269.678L168.292 279.891L163.938 291.857L158.831 305.461L153.032 320.326L146.727 335.726L140.263 350.551L134.143 363.374L129.22 372.215C129.054 372.513 128.862 372.796 128.646 373.06L126.101 376.18C125.667 376.713 124.9 376.83 124.326 376.453V376.453C123.922 376.186 123.692 375.723 123.726 375.24L124.078 370.19C124.112 369.71 124.18 369.234 124.282 368.764L126.545 358.341L130.502 344.051L135.448 328.176L140.83 312.126L146.191 296.953L151.206 283.306L155.685 271.482L159.541 261.53L162.76 253.346L165.366 246.756L167.405 241.565L168.92 237.593L169.947 234.691L170.474 232.865C170.496 232.788 170.511 232.709 170.518 232.63L170.578 231.95C170.591 231.805 170.507 231.669 170.372 231.615V231.615C170.264 231.571 170.141 231.588 170.049 231.659L169.391 232.162C169.314 232.221 169.242 232.286 169.176 232.356L167.805 233.811L165.726 236.262L162.953 239.681L159.369 244.178L154.84 249.883L149.218 256.93L142.368 265.422L134.201 275.386L124.732 286.701L114.149 299.021L102.883 311.704L91.6513 323.79L81.427 334.074L73.7128 340.934C73.4411 341.176 73.1494 341.394 72.8408 341.586L69.2156 343.847C68.6694 344.187 67.9577 344.088 67.5258 343.611V343.611C67.1784 343.227 67.0852 342.676 67.2871 342.2L69.183 337.722C69.357 337.311 69.5614 336.914 69.7946 336.534L75.2706 327.603L83.566 315.669L93.299 302.587L103.502 289.477L113.415 277.152L122.535 266.099L130.59 256.531L137.485 248.464L143.238 241.803L147.929 236.395L151.665 232.076L154.55 228.688L156.68 226.098L158.13 224.194L158.884 222.999C158.929 222.928 158.964 222.851 158.988 222.771L159.098 222.398C159.145 222.241 159.085 222.071 158.949 221.978V221.978C158.86 221.917 158.75 221.897 158.645 221.923L157.998 222.082C157.888 222.109 157.78 222.147 157.676 222.194L156.199 222.861L153.837 224.122L150.647 225.948L146.498 228.4L141.231 231.55L134.67 235.476L126.635 240.249L116.978 245.909L105.633 252.434L92.6903 259.696L78.494 267.412L63.721 275.111L49.4178 282.13L36.933 287.686L28.0786 290.878C27.8341 290.966 27.5799 291.025 27.3215 291.054L24.9487 291.318C23.956 291.428 23.1325 290.56 23.2958 289.574V289.574C23.3493 289.251 23.5067 288.955 23.7439 288.729L28.8453 283.878L38.558 276.572L51.2213 267.997L65.3973 258.991L79.8014 250.245L93.4726 242.227L105.813 235.188L116.536 229.205L125.579 224.243L133.018 220.206L138.991 216.973L143.659 214.426L147.167 212.457L149.633 210.98L151.052 209.986C151.107 209.948 151.156 209.903 151.199 209.852L151.465 209.537C151.596 209.383 151.575 209.152 151.42 209.023V209.023C151.354 208.969 151.272 208.94 151.187 208.94L149.98 208.945L147.662 209.251L144.288 209.848L139.732 210.741L133.829 211.942L126.388 213.463L117.211 215.31L106.139 217.471L93.1126 219.902L78.2636 222.51L62.0226 225.137L45.2113 227.555L29.0721 229.484L15.1709 230.625L5.5459 230.729C5.27767 230.732 5.00996 230.704 4.74781 230.648L2.12962 230.08C1.20373 229.879 0.708149 228.866 1.11771 228.012V228.012C1.26636 227.702 1.51923 227.454 1.83214 227.311L8.03417 224.485L19.3735 220.87L33.869 217.044L49.911 213.313L66.0946 209.894L81.39 206.907L95.1704 204.386L107.148 202.311L117.277 200.631L125.652 199.28L132.442 198.197L137.834 197.323L142.008 196.609L145.117 196.012L147.283 195.497L148.484 195.076C148.558 195.05 148.626 195.011 148.686 194.96L148.827 194.841C148.989 194.704 149.027 194.47 148.916 194.29V194.29C148.869 194.214 148.801 194.155 148.719 194.12L147.989 193.809C147.857 193.753 147.721 193.706 147.582 193.67L145.904 193.23L143.107 192.663L139.288 191.99L134.302 191.172L127.978 190.161L120.127 188.903L110.573 187.334L99.1876 185.391L85.9635 183.017L71.1007 180.177L55.1081 176.888L38.8844 173.238L23.7262 169.412L11.2061 165.693L3.24284 162.562C3.01444 162.472 2.80251 162.345 2.61569 162.186L2.22005 161.849C1.17898 160.962 1.4005 159.296 2.63718 158.712V158.712C2.87151 158.601 3.12616 158.54 3.3852 158.532L11.4829 158.29L24.3215 159.124L39.9276 160.833L56.6785 163.128L73.2108 165.717L88.567 168.351L102.2 170.851L113.896 173.104L123.662 175.054L131.635 176.679L138.006 177.981L142.972 178.971L146.707 179.661L149.35 180.06L150.899 180.157C150.963 180.161 151.027 180.153 151.088 180.134L151.194 180.102C151.452 180.023 151.579 179.733 151.462 179.49V179.49C151.432 179.428 151.388 179.374 151.334 179.332L150.213 178.469L148.061 177.134L144.896 175.33L140.612 172.978L135.072 169.976L128.117 166.208L119.597 161.553L109.41 155.903L97.567 149.198L84.2712 141.475L70.0139 132.921L55.6392 123.933L42.3403 115.134L31.5334 107.329L24.8774 101.618C24.6912 101.458 24.5313 101.27 24.4034 101.061L23.9718 100.355C23.2923 99.2427 23.9788 97.7991 25.2701 97.6244V97.6244C25.5325 97.5889 25.7996 97.6116 26.0523 97.6908L33.5753 100.05L45.1741 104.973L59.0544 111.614L73.8083 119.176L88.2795 126.947L101.673 134.393L113.547 141.173L123.741 147.116L132.279 152.169L139.29 156.358L144.949 159.747L149.436 162.412L152.917 164.431L155.53 165.866L157.386 166.767L158.449 167.125C158.526 167.151 158.608 167.158 158.688 167.144V167.144C158.936 167.102 159.112 166.88 159.097 166.629L159.095 166.597C159.09 166.518 159.067 166.441 159.029 166.372L158.458 165.354L157.213 163.649L155.307 161.288L152.671 158.168L149.218 154.162L144.843 149.119L139.438 142.874L132.913 135.269L125.224 126.184L116.423 115.592L106.72 103.635L96.5391 90.7019L86.5594 77.5022L77.6932 65.0668L70.9733 54.6503L67.5416 47.8899C67.4144 47.6393 67.3521 47.3607 67.3604 47.0797V47.0797C67.3954 45.8901 68.6219 45.1128 69.7126 45.589L70.986 46.1449C71.2121 46.2436 71.423 46.3737 71.6127 46.5314L78.5599 52.3073L88.2336 61.7479L99.2593 73.3983L110.606 86.0095L121.467 98.5301L131.321 110.216L139.912 120.632L147.175 129.596L153.175 137.094L158.036 143.213L161.905 148.08L164.923 151.829L167.212 154.579L168.869 156.417L169.879 157.32C169.933 157.368 169.999 157.401 170.069 157.416V157.416C170.312 157.467 170.545 157.293 170.565 157.046L170.581 156.845C170.586 156.782 170.581 156.718 170.565 156.656L170.176 155.098L169.298 152.512L167.942 148.895L166.075 144.111L163.654 137.987L160.635 130.332L156.983 120.959L152.697 109.735L147.837 96.65L142.558 81.9116L137.139 66.0466L131.997 49.9771L127.663 35.0131L124.701 22.7091L123.644 14.9826C123.607 14.7122 123.634 14.4369 123.723 14.1788V14.1788C124.129 12.9966 125.609 12.6115 126.54 13.446L127.346 14.1688C127.528 14.3321 127.685 14.5218 127.811 14.7314L132.363 22.2841L138.249 34.1441L144.664 48.497L151.065 63.8521L157.053 78.9843L162.392 93.046L166.987 105.557L170.839 116.329L174.008 125.368L176.58 132.792L178.649 138.766L180.3 143.465L181.609 147.05L182.64 149.654L183.358 151.196C183.415 151.317 183.481 151.434 183.555 151.545L183.979 152.174C184.031 152.252 184.108 152.309 184.197 152.337V152.337C184.384 152.395 184.587 152.312 184.68 152.138L184.796 151.92C184.833 151.85 184.858 151.775 184.87 151.697L185.072 150.398L185.198 148.127L185.242 144.908L185.218 140.612L185.14 135.08L185.027 128.125L184.903 119.553L184.803 109.19L184.773 96.9347L184.873 82.8364L185.173 67.1905L185.748 50.6415L186.658 34.2465L187.931 19.4442L189.54 7.87606L191.234 1.63977C191.335 1.26944 191.582 0.956189 191.919 0.772461V0.772461C192.669 0.363856 193.606 0.710249 193.91 1.50785L195.043 4.48333C195.145 4.75187 195.219 5.03023 195.264 5.31399L196.814 15.0365L198.083 29.0904L198.964 45.3915L199.482 62.3592L199.699 78.7437L199.699 93.72L199.56 106.857L199.351 118.022L199.124 127.273L198.92 134.77L198.765 140.707L198.68 145.276L198.682 148.638L198.79 150.915L198.998 152.037C199.015 152.128 199.068 152.208 199.144 152.26V152.26C199.295 152.365 199.502 152.333 199.616 152.189L199.923 151.798C199.966 151.744 200.002 151.685 200.031 151.622L200.776 150.001L201.818 147.258L203.167 143.399L204.889 138.289L207.064 131.766L209.783 123.651L213.14 113.788L217.214 102.094L222.049 88.6334L227.612 73.718L233.754 58.001L240.171 42.5313L246.397 28.709L251.85 18.097L255.616 12.5626C255.82 12.2629 256.13 12.0512 256.483 11.9699V11.9699C257.363 11.7675 258.21 12.416 258.243 13.3182L258.352 16.2177C258.363 16.4931 258.343 16.7687 258.295 17.0398L256.593 26.5231L253.21 39.9303L248.731 55.2956L243.693 71.1685L238.56 86.4251L233.672 100.338L229.242 112.54L225.374 122.929L222.099 131.574L219.401 138.63L217.24 144.289L215.571 148.737L214.349 152.141L213.539 154.637L213.155 156.175C213.129 156.278 213.113 156.384 213.108 156.491L213.078 157.113C213.073 157.228 213.121 157.34 213.21 157.414V157.414C213.326 157.512 213.49 157.53 213.624 157.458L214.017 157.249C214.094 157.207 214.165 157.156 214.23 157.097L215.298 156.113L216.951 154.314L219.167 151.722L222.043 148.241L225.696 143.756L230.264 138.133L235.891 131.24L242.71 122.976L250.811 113.31L260.186 102.349L270.661 90.4096L281.83 78.0901L293.008 66.2957L303.247 56.1836L311.014 49.3789C311.309 49.1201 311.625 48.8856 311.958 48.6774L315.781 46.2872C316.282 45.9745 316.928 46.0302 317.368 46.4239V46.4239C317.789 46.8017 317.924 47.4057 317.703 47.927L315.888 52.2157C315.727 52.5942 315.538 52.9594 315.32 53.3081L309.769 62.2095L301.295 74.1645L291.279 87.3538L280.733 100.624L270.463 113.122L261.014 124.327L252.68 134.01L245.57 142.144L239.667 148.824L234.892 154.206L231.137 158.456L228.297 161.729L226.287 164.157L225.125 165.73C225.073 165.801 225.026 165.876 224.987 165.955L224.647 166.64C224.589 166.756 224.605 166.894 224.687 166.994V166.994C224.77 167.096 224.906 167.138 225.032 167.101L225.755 166.891C225.838 166.867 225.919 166.835 225.997 166.797L227.741 165.932L230.473 164.382L234.18 162.163L239.007 159.213L245.124 155.456L252.715 150.816L261.945 145.24L272.914 138.729L285.579 131.381L299.664 123.447L314.567 115.369L329.31 107.792L342.585 101.509L352.344 97.5701C352.735 97.4124 353.138 97.2851 353.548 97.1895L358.156 96.1164C358.693 95.9914 359.251 96.2118 359.558 96.67V96.67C359.895 97.173 359.848 97.8403 359.444 98.2913L356.486 101.594C356.23 101.879 355.952 102.143 355.653 102.383L347.63 108.834L335.915 117.145L322.365 126.097L308.286 134.956L294.694 143.202L282.251 150.536L271.304 156.842L261.959 162.13L254.174 166.481L247.826 170.009L242.759 172.833L238.819 175.065L235.87 176.801L233.802 178.12L232.639 179.003C232.569 179.057 232.505 179.119 232.451 179.188L232.168 179.545C232.075 179.662 232.062 179.824 232.134 179.954V179.954C232.191 180.057 232.293 180.126 232.41 180.142L233.019 180.221C233.123 180.235 233.229 180.238 233.334 180.231L234.91 180.122L237.5 179.761L241.055 179.152L245.715 178.284L251.651 177.143L259.056 175.716L268.123 173.996L279.012 171.996L291.784 169.756L306.324 167.362L322.237 164.958L338.751 162.753L354.683 161.006L368.512 159.995L378.195 159.956C378.474 159.954 378.752 159.983 379.025 160.04L381.964 160.658C382.829 160.84 383.322 161.757 382.997 162.579V162.579C382.861 162.923 382.596 163.201 382.259 163.353L376.22 166.085L364.861 169.606L350.187 173.333L333.84 176.965L317.282 180.285L301.606 183.176L287.484 185.603L275.233 187.587L264.912 189.182L256.426 190.452L249.603 191.463L244.255 192.272L240.205 192.931L237.31 193.482L235.686 193.905C235.544 193.942 235.406 193.995 235.275 194.064L234.771 194.331C234.688 194.375 234.624 194.447 234.59 194.535V194.535Z" fill="#95ACA4"/>
</svg>
