<?xml version="1.0" encoding="utf-8"?>
<!-- Generator: Adobe Illustrator 24.1.1, SVG Export Plug-In . SVG Version: 6.00 Build 0)  -->
<svg version="1.1" id="Layer_1" xmlns="http://www.w3.org/2000/svg" xmlns:xlink="http://www.w3.org/1999/xlink" x="0px" y="0px"
	 viewBox="0 0 938.8 948.5" style="enable-background:new 0 0 938.8 948.5;" xml:space="preserve">
<g>
	<path d="M259.3,892.4l-55.2-34.3l10.1-16.3l17.4,10.8l30.6-49.3l20.6,12.8l-30.6,49.3l17.2,10.7L259.3,892.4z"/>
	<path d="M188.3,850.7l-18.1-16.1l19-21.3c-6.2,1.7-13.7,0.9-20.6-5.2c-10.6-9.4-9.9-22.7,0.7-34.5l23.7-26.6l18,16l-21.7,24.3
		c-3.9,4.4-3.8,9.3,0.1,12.8c4,3.6,8.8,3.1,12.7-1.3l21.7-24.3l18.1,16.1L188.3,850.7z"/>
	<path d="M171.5,718.7c11.4,14.4,10.2,32-5.2,44.2c-15.4,12.2-32.8,9.4-44.2-5.1c-11.4-14.4-10.3-31.9,4.8-43.8
		c1.2-0.9,2.6-1.9,4-2.7l24.1,30.4c4.7-4.1,4.2-7.5,2.2-10.1c-2-2.5-4.3-2.7-6.3-2.2l-15.9-20.1
		C146.8,703.2,161.9,706.5,171.5,718.7z M146.5,748l-8.9-11.3c-3.3,2.6-2.8,6.4-0.6,9.2C139.5,749.2,142.7,750.1,146.5,748z"/>
	<path d="M73.4,681.3c-2.8-5.7-3.5-10.8-1.4-16.3l-4.9,2.4l-10.5-21.7l81.7-39.8l10.5,21.7l-32.5,15.8c6.4,1.7,10.6,4.8,13.3,10.5
		c6.3,13,0.7,29.8-16,38S79.7,694.3,73.4,681.3z M89.4,666.4c1.6,3.2,6.5,6.8,13.5,3.4s6.6-9.1,5-12.4c-1.6-3.2-6.2-6.9-13.2-3.5
		C87.7,657.3,87.9,663.2,89.4,666.4z"/>
	<path d="M91.7,549l6.5,23.3l-9,2.5c6.1,1.9,12,6.6,14.5,15.6c3.8,13.7-4,24.4-19.3,28.6l-34.4,9.5l-6.4-23.2l31.4-8.7
		c5.7-1.6,8.2-5.8,6.8-10.8c-1.4-5.1-5.8-7.3-11.4-5.8l-31.4,8.7l-6.4-23.3L91.7,549z"/>
	<path d="M14,552.6c-6.7,0.9-12.7-3.7-13.9-12.2C-1,532,3.6,526,10.3,525.1c6.6-0.9,12.5,3.7,13.6,12.1
		C25.1,545.7,20.6,551.7,14,552.6z M30.4,548.6l-3.2-24l60.9-8.2l3.2,24L30.4,548.6z"/>
	<path d="M24,480.7c-0.3-15.8,8.9-27.8,25-31l0.4,25.6c-2.9,0.9-4.8,2.6-4.7,5.6c0.1,3.7,3.5,6.3,10.9,6.1
		c7.4-0.1,10.7-2.8,10.7-6.5c0-3.1-1.9-4.7-4.9-5.5L61,449.4c16.2,2.7,25.7,14.4,26,30.2c0.3,18.4-11.4,31.6-31,31.9
		C36.3,511.9,24.3,499.1,24,480.7z"/>
	<path d="M6.4,431.9l3.8-23.9l41.7,6.6l-20.3-18.8l4.4-27.8l27,27.5l33.8-18.5l-4.5,28.5l-26.6,11.1l24.2,3.8l-3.8,23.9L6.4,431.9z"
		/>
	<path d="M60.2,296.6c5.3-13.1,20.3-19.2,38.7-11.8c18.4,7.4,25,22.2,19.8,35.3c-3,7.6-8.5,11.6-14.8,12.3l7.8,3.1l-9,22.5
		l-74.9-30.1l9-22.5l25.6,10.3C58.3,310.9,57.1,304.2,60.2,296.6z M76.8,311.9c-1.9,4.7,0,9.6,6.3,12.2c6.3,2.5,11.1,0.2,12.9-4.4
		s0-9.6-6.3-12.2C83.4,305,78.6,307.3,76.8,311.9z"/>
	<path d="M142.9,271.5l-12.3,20.8L77.7,261L90,240.2l9.8,5.8c-3.5-7.6-3.9-16.5,0.1-23.3l22.2,13.2l-3.5,5.9
		c-4.4,7.5-4.6,12.7,2.6,17L142.9,271.5z"/>
	<path d="M174.1,228.5c-11.6,14.4-29.7,17.8-44.9,5.5c-15.3-12.3-15.7-30.7-4.1-45.1c11.6-14.4,29.7-17.8,44.9-5.5
		S185.7,214.1,174.1,228.5z M157.8,215.3c2.7-3.3,2.5-8.2-3.2-12.8s-10.6-3.8-13.2-0.5c-2.7,3.3-2.5,8.2,3.2,12.8
		S155.1,218.7,157.8,215.3z"/>
	<path d="M152.6,155.1l18.5-15.2l27.7,25.6l-17.6-33.9l19.9-16.4l30.5,23.9l-20-32.5L229,92.2l27.8,56.8l-21,17.3L208,144.3l16,31.8
		l-21,17.3L152.6,155.1z"/>
	<path d="M292.1,92.4c-2.7-5.2-7.4-6.9-12-4.5c-4.7,2.5-6,7.1-3.3,12.4l15,28.9l-21.5,11.1L242,85.8l21.5-11.1l4.3,8.3
		c0.6-6.3,4-13.1,12.2-17.4c12.6-6.5,24.7-1.1,32,13l16.4,31.7l-21.4,11.1L292.1,92.4z"/>
	<path d="M343.1,62l-6.3,1.9l-5.7-19.3l6.3-1.9c-4.7-16.8,4.3-29.2,24.8-33.4l5.9,19.8c-5.5,1-7.6,2.7-7.2,6.7l8.5-2.5l5.7,19.3
		l-8.7,2.6l11.7,39.6l-23.2,6.9L343.1,62z"/>
	<path d="M419.6,87c-18.3,2.8-33.9-6.8-36.9-26.2c-3-19.4,9-33.3,27.3-36.1s33.9,6.8,36.9,26.2C449.9,70.3,437.9,84.2,419.6,87z
		 M416.4,66.3c4.2-0.6,7.4-4.4,6.3-11.7c-1.1-7.2-5.3-9.9-9.5-9.2s-7.4,4.4-6.3,11.7S412.1,67,416.4,66.3z"/>
	<path d="M486.3,67.9l-8,13.7l-26.6-0.5l21.2-32l-21.2-29.5l27,0.5l10.1,14.1l8.1-13.8l26.6,0.5l-21.8,31.2l21.7,30.3l-27-0.5
		L486.3,67.9z"/>
	<path d="M579.6,31.1l-12.6,64.5c-3.7,18.7-15.5,22.6-29.7,19.8l-7.9-1.6l4-20.2l4.6,0.9c3.1,0.6,4.6-0.4,5.2-3.2l12.7-64.9
		L579.6,31.1z M557.1,9.6c1.3-6.6,7.6-10.8,16-9.2c8.3,1.6,12.6,7.9,11.3,14.5c-1.3,6.5-7.5,10.6-15.9,9
		C560.1,22.2,555.9,16.1,557.1,9.6z"/>
	<path d="M637.6,113.2l-22.9-7.8l3-8.9c-5,3.9-12.2,6.2-21,3.2c-13.4-4.6-17.9-17.1-12.8-32.1l11.5-33.7l22.8,7.8l-10.5,30.8
		c-1.9,5.6,0.1,10.1,5.1,11.8c5.1,1.7,9.3-0.6,11.2-6.2l10.5-30.8l22.9,7.8L637.6,113.2z"/>
	<path d="M732.2,130.7c2.8-4.4,1.6-8.9-2.8-11.7c-4.5-2.9-9-1.9-11.8,2.5L700.3,149l-20.4-12.9l17.4-27.5c2.8-4.4,1.6-8.9-2.8-11.7
		c-4.5-2.9-9-1.9-11.8,2.5l-17.4,27.5L644.9,114l32.9-51.9L698.2,75l-4.4,7c5.3-2.3,12.4-2.5,19.7,2.1c7.6,4.8,11.3,11.9,11,20
		c6.6-2.8,15.3-3.4,22.9,1.5c13.4,8.5,15.4,22,6.9,35.4l-19.1,30.1l-20.4-12.9L732.2,130.7z"/>
	<path d="M811.9,163c9.9,10.1,9.4,26.3-4.7,40.2c-14.2,13.9-30.4,14-40.3,3.9c-5.7-5.8-7.2-12.5-5.3-18.5l-27,26.5l-16.9-17.3
		l64.9-63.6l16.9,17.3l-6,5.9C799.5,155.6,806.1,157.2,811.9,163z M791.1,172.1c-3.5-3.6-8.8-3.9-13.7,0.9c-4.8,4.7-4.7,10-1.1,13.6
		c3.5,3.6,8.8,3.9,13.7-0.9C794.8,181,794.6,175.7,791.1,172.1z"/>
	<path d="M802.6,251.7c-10.2-14.6-9.1-29.6,0.6-37.6l13.3,19c-2.7,2.6-2.4,5.9-0.3,9c1.4,2.1,3.4,2.6,4.6,1.7
		c6.6-4.6-17.6-26.4,0.9-39.3c9.1-6.4,21.7-4.4,31.6,9.8c10,14.4,6.8,27.1-2.1,35.5L839,232.1c2.3-2.4,2.5-5.5,0.3-8.7
		c-1.4-2-3-2.6-4.5-1.5c-6.3,4.4,18,26.7-1.4,40.2C824.4,268.4,812,265.1,802.6,251.7z"/>
	<path d="M841,321.1c-7.3-17-1.8-34.5,16.2-42.2s34.5,0.5,41.7,17.5s1.8,34.5-16.2,42.2C864.7,346.3,848.3,338.1,841,321.1z
		 M860.3,312.9c1.7,3.9,6.1,6,12.8,3.2s8.3-7.6,6.6-11.5c-1.7-3.9-6.1-6-12.8-3.2C860.2,304.3,858.6,308.9,860.3,312.9z"/>
	<path d="M920.5,361.8l-35.2,18.4L925,381l5.8,25l-64.5-6l-6.9-29.4l55.2-33.9L920.5,361.8z"/>
	<path d="M871.7,451.6c-1.1-18.4,10-32,29.6-33.2s32.2,11.1,33.3,29.5c1.1,18.4-9.8,32-29,33.2c-1.5,0.1-3.3,0.1-4.8,0l-2.3-38.7
		c-6.2,0.7-7.8,3.7-7.6,7c0.2,3.2,2,4.7,3.9,5.4l1.5,25.6C883.1,478.4,872.6,467.1,871.7,451.6z M909,441.9l0.9,14.4
		c4.2-0.3,6-3.6,5.8-7.2C915.4,445,913.3,442.4,909,441.9z"/>
	<path d="M871.5,512.1l2-24.1l61.3,5l-2,24.1l-11.3-0.9c6.5,5.3,10.7,13.1,10.1,21.1l-25.7-2.1l0.6-6.8c0.7-8.7-1.4-13.5-9.8-14.1
		L871.5,512.1z"/>
	<path d="M904.9,567.7l1.9-7.4l19.6,4.9l-1.9,7.4l14.4,3.6l-5.9,23.5l-14.4-3.6l-2.5,9.7l-19.6-4.9l2.5-9.7l-16.1-4
		c-2.7-0.7-4.3,0.3-5.1,3.3l-1.4,5.6l-20-5l2.2-8.9c3.5-14,12.1-23,30.6-18.4L904.9,567.7z"/>
	<path d="M929.6,628.7l-9.4,22.3L893.9,640c3.6,5.3,5.3,12.6,1.7,21.2c-5.5,13.1-18.2,16.7-32.9,10.5l-32.9-13.8l9.3-22.2l30,12.6
		c5.4,2.3,10.1,0.6,12.1-4.3c2.1-4.9,0-9.3-5.4-11.6l-30-12.6l9.4-22.3L929.6,628.7z"/>
	<path d="M810.2,687.5c10-15.5,27-20,43.5-9.3c16.5,10.6,19.5,28,9.5,43.4c-10,15.5-26.8,20.1-43,9.6c-1.3-0.8-2.7-1.9-3.9-2.9
		l21-32.6c-5.4-3.1-8.5-1.6-10.2,1.2c-1.7,2.7-1.1,5,0,6.7l-13.9,21.5C803.5,715.9,801.8,700.5,810.2,687.5z M846,701.6l-7.8,12.1
		c3.6,2.3,7,0.6,8.9-2.4C849.4,707.9,849.2,704.5,846,701.6z"/>
	<path d="M838,786l-16.3,17.9l-59.6-54.4l16.3-17.9L838,786z"/>
	<path d="M780,818.1c-6.3,5.3-13.1,6.3-18.9,3.9l5.4,6.4L748,844l-39.5-47.1l18.4-15.5l5.4,6.4c-1.3-6.1,0.9-12.7,7.1-17.9
		c10.8-9.1,26.9-7.4,39.7,7.8C791.9,792.9,790.8,809,780,818.1z M760.2,807.1c3.8-3.2,4.5-8.5,0.2-13.7c-4.3-5.2-9.7-5.4-13.5-2.2
		c-3.8,3.2-4.5,8.5-0.2,13.7S756.3,810.4,760.2,807.1z"/>
	<path d="M682.4,862.1l9.5-31.9l-22,13.2l-10.3-17.2l44.7-26.8l9.8,16.3l-8.5,31.3l19.8-11.9l10.3,17.2l-43.5,26.1L682.4,862.1z"/>
	<path d="M638.8,901.7l-24.8,10l2.6-99l24.6-9.9l-2.2,35.9l45.6,44.7l-25,10l-22.3-24.6L638.8,901.7z"/>
	<path d="M560.5,923.9c-8.1,1.3-14.3-1.4-18.1-6.4l4.3,27.2l-23.9,3.8l-12.6-79.7l23.9-3.8l1.3,8.3c2-5.9,7.2-10.4,15.3-11.7
		c14-2.2,26.9,7.6,30,27.2C583.7,908.4,574.5,921.7,560.5,923.9z M549.2,904.2c5-0.8,8.3-4.9,7.2-11.6c-1.1-6.7-5.5-9.6-10.4-8.8
		c-5,0.8-8.3,4.9-7.2,11.6C539.8,902.1,544.3,905,549.2,904.2z"/>
	<path d="M473.2,867.9c18.5,0.3,32.3,12.4,32,32s-14.5,31.3-33,31c-18.5-0.3-32.3-12.4-32-32C440.5,879.2,454.6,867.6,473.2,867.9z
		 M472.8,888.8c-4.3-0.1-8,3.1-8.1,10.4c-0.1,7.3,3.5,10.6,7.8,10.7c4.3,0.1,8-3.1,8.1-10.4C480.7,892.2,477.2,888.9,472.8,888.8z"
		/>
	<path d="M402.7,924.5c-8-1.5-13.1-6.2-15-12.2l-1.6,8.2l-23.7-4.5l11.4-59.3c3.1-16,14.1-29.1,36.7-24.8
		c19.7,3.8,29.2,15.9,27.9,31.5l-23.3-4.5c0-3.2-2.4-5.3-6.8-6.2c-4.8-0.9-9.2,0-10.8,8.5l-1.4,7.2c3.9-4.9,10.4-7.3,18.4-5.8
		c13.9,2.7,22.7,16.2,19,35.7C429.8,917.9,416.6,927.2,402.7,924.5z M398.7,902.2c4.9,0.9,9.5-1.8,10.7-8.5
		c1.3-6.6-1.9-10.9-6.8-11.9c-4.9-0.9-9.5,1.8-10.7,8.5C390.6,897,393.8,901.3,398.7,902.2z"/>
	<path d="M355.1,847.6c8.2,2.7,11.6,9.4,9.5,15.7c-2.1,6.4-8.9,9.8-17.1,7.1c-8.1-2.7-11.4-9.5-9.3-15.9
		C340.3,848.2,347,844.9,355.1,847.6z"/>
</g>
</svg>
