<?xml version="1.0" encoding="utf-8"?>
<!-- Generator: Adobe Illustrator 24.1.1, SVG Export Plug-In . SVG Version: 6.00 Build 0)  -->
<svg version="1.1" id="Layer_1" xmlns="http://www.w3.org/2000/svg" xmlns:xlink="http://www.w3.org/1999/xlink" x="0px" y="0px"
	 viewBox="0 0 1333.5 911" style="enable-background:new 0 0 1333.5 911;" xml:space="preserve">
<style type="text/css">
	.st0{fill:#27435E;}
</style>
<path class="st0" d="M1333,520.6c5.7,104.1-39.2,192.2-136.9,265.1c-39.9,29.8-82.1,56.5-130,78c-12.2,5.5-25.7,9.5-39.1,13
	c-35.8,9.2-71.2,20-107.9,25.9c-73,11.8-145.9,11.8-219.1-3.9c-82.4-17.6-153.3-48.3-212.5-95.8c-23.6-18.9-49-36.6-74.9-53.7
	c-39.8-26.4-89.1-37.9-138.4-48.6c-56.9-12.3-111.7-28-160.6-54.2C72.1,624.1,44.1,593.9,26,558C-12.3,482-9.2,406.4,41.3,335
	C70,294.6,112,260.4,160.1,231.9c73.3-43.5,147.3-86.3,230.5-118.4c12.3-4.8,24.4-10,37.3-13.8c20.6-5.9,34.5-16.2,45.8-30.9
	c32.7-42.5,85-61.4,146.5-67.7c61.6-6.3,113,14.1,162,38.5c23.1,11.5,42.7,27,65.7,38.6c34.2,17.1,70.4,31.6,105,48.2
	c68.6,32.9,139.8,63.3,204,100.8c63.5,37.1,106.8,88.3,139.5,145C1323.9,420,1332.2,469.6,1333,520.6z"/>
</svg>
