<svg width="604" height="610" viewBox="0 0 604 610" fill="none" xmlns="http://www.w3.org/2000/svg">
<g id="circle-text">
<g id="outer">
<path id="Vector" d="M166.812 573.919L131.309 551.858L137.805 541.375L148.996 548.321L168.677 516.613L181.926 524.845L162.245 556.553L173.308 563.435L166.812 573.919Z" fill="white"/>
<path id="Vector_2" d="M121.147 547.099L109.506 536.744L121.726 523.045C117.739 524.138 112.915 523.623 108.477 519.7C101.66 513.654 102.11 505.1 108.927 497.511L124.17 480.403L135.747 490.694L121.791 506.322C119.282 509.152 119.347 512.304 121.855 514.555C124.428 516.87 127.515 516.549 130.023 513.719L143.98 498.09L155.621 508.445L121.147 547.099Z" fill="white"/>
<path id="Vector_3" d="M110.342 462.202C117.674 471.463 116.903 482.783 106.998 490.629C97.0933 498.476 85.9023 496.675 78.5703 487.349C71.2382 478.088 71.9457 466.832 81.6574 459.179C82.4292 458.6 83.3297 457.957 84.2301 457.442L99.7303 476.994C102.753 474.357 102.432 472.171 101.145 470.498C99.8589 468.89 98.3796 468.762 97.0933 469.083L86.867 456.156C94.4563 452.233 104.168 454.355 110.342 462.202ZM94.2634 481.046L88.5393 473.778C86.4168 475.451 86.7384 477.895 88.1534 479.696C89.7613 481.818 91.8194 482.397 94.2634 481.046Z" fill="white"/>
<path id="Vector_4" d="M47.2482 438.147C45.4474 434.481 44.9972 431.201 46.3478 427.664L43.1963 429.207L36.4431 415.251L88.9894 389.653L95.7426 403.61L74.8398 413.772C78.9561 414.865 81.6573 416.859 83.3939 420.525C87.4458 428.886 83.8441 439.691 73.1033 444.965C62.3625 450.239 51.3001 446.508 47.2482 438.147ZM57.5388 428.564C58.5679 430.622 61.7193 432.938 66.2215 430.751C70.7236 428.564 70.4663 424.898 69.4373 422.776C68.4082 420.718 65.4497 418.338 60.9475 420.525C56.4454 422.712 56.5741 426.506 57.5388 428.564Z" fill="white"/>
<path id="Vector_5" d="M59.0181 353.057L63.1987 368.043L57.4102 369.651C61.3335 370.873 65.1282 373.896 66.7361 379.684C69.1801 388.495 64.1634 395.377 54.3231 398.078L32.1983 404.188L28.0821 389.267L48.2774 383.672C51.9434 382.643 53.5513 379.941 52.6509 376.725C51.7504 373.445 48.9205 372.03 45.3188 372.995L25.1236 378.591L21.0073 363.605L59.0181 353.057Z" fill="white"/>
<path id="Vector_6" d="M9.04452 355.373C4.73534 355.951 0.876373 352.993 0.104579 347.526C-0.602898 342.123 2.35564 338.264 6.66482 337.686C10.9097 337.107 14.7043 340.065 15.4118 345.468C16.1836 350.935 13.2894 354.794 9.04452 355.373ZM19.5924 352.8L17.5342 337.364L56.7027 332.09L58.7609 347.526L19.5924 352.8Z" fill="white"/>
<path id="Vector_7" d="M15.4761 309.129C15.2832 298.967 21.2003 291.249 31.5552 289.191L31.8124 305.656C29.9473 306.235 28.7253 307.328 28.7896 309.258C28.8539 311.638 31.0406 313.31 35.8 313.181C40.5594 313.117 42.6818 311.38 42.6818 309.001C42.6818 307.007 41.4598 305.978 39.5304 305.463L39.2731 288.998C49.6923 290.735 55.8023 298.26 55.9953 308.422C56.1882 320.256 48.6632 328.746 36.0573 328.939C23.387 329.196 15.6691 320.963 15.4761 309.129Z" fill="white"/>
<path id="Vector_8" d="M4.15649 277.743L6.60051 262.371L33.4203 266.616L20.3642 254.525L23.1941 236.645L40.5594 254.332L62.2982 242.433L59.404 260.764L42.2959 267.903L57.8604 270.347L55.4164 285.718L4.15649 277.743Z" fill="white"/>
<path id="Vector_9" d="M38.7586 190.723C42.1673 182.298 51.8148 178.375 63.6489 183.134C75.4831 187.893 79.7279 197.412 76.3835 205.838C74.454 210.726 70.9166 213.298 66.8647 213.749L71.8814 215.742L66.0929 230.213L17.9202 210.854L23.7086 196.383L40.1735 203.008C37.5366 199.921 36.7648 195.611 38.7586 190.723ZM49.4351 200.564C48.2131 203.587 49.4351 206.738 53.487 208.41C57.5389 210.018 60.6261 208.539 61.7837 205.58C62.9414 202.622 61.7837 199.406 57.7318 197.734C53.6799 196.126 50.5927 197.605 49.4351 200.564Z" fill="white"/>
<path id="Vector_10" d="M91.948 174.58L84.0371 187.958L50.0139 167.827L57.9248 154.449L64.2278 158.179C61.9767 153.291 61.7194 147.567 64.2921 143.194L78.5703 151.683L76.3192 155.478C73.4893 160.302 73.3607 163.646 77.9914 166.412L91.948 174.58Z" fill="white"/>
<path id="Vector_11" d="M112.015 146.924C104.554 156.186 92.9127 158.372 83.1367 150.461C73.2963 142.551 73.0391 130.716 80.4997 121.455C87.9604 112.193 99.6016 110.007 109.378 117.917C119.154 125.828 119.475 137.663 112.015 146.924ZM101.531 138.434C103.268 136.312 103.139 133.16 99.473 130.202C95.807 127.243 92.6555 127.758 90.9832 129.88C89.2467 132.003 89.3754 135.154 93.0414 138.113C96.7074 141.071 99.7946 140.621 101.531 138.434Z" fill="white"/>
<path id="Vector_12" d="M98.1866 99.716L110.085 89.94L127.901 106.405L116.581 84.6017L129.38 74.0539L148.996 89.4255L136.133 68.5227L147.324 59.2612L165.204 95.7927L151.698 106.919L133.818 92.7699L144.108 113.222L130.602 124.349L98.1866 99.716Z" fill="white"/>
<path id="Vector_13" d="M187.908 59.3898C186.171 56.0454 183.148 54.952 180.19 56.4956C177.167 58.1035 176.331 61.0621 178.067 64.4708L187.715 83.0582L173.887 90.1973L155.685 55.145L169.513 48.0059L172.279 53.3441C172.665 49.2922 174.852 44.9187 180.125 42.1531C188.229 37.9726 196.011 41.4456 200.707 50.5142L211.254 70.9024L197.491 78.0415L187.908 59.3898Z" fill="white"/>
<path id="Vector_14" d="M220.709 39.8377L216.657 41.0598L212.991 28.6467L217.043 27.4247C214.02 16.6196 219.808 8.64444 232.993 5.94316L236.788 18.6777C233.25 19.3209 231.9 20.4143 232.157 22.9869L237.624 21.379L241.29 33.792L235.694 35.4643L243.219 60.9334L228.298 65.3712L220.709 39.8377Z" fill="white"/>
<path id="Vector_15" d="M269.911 55.9168C258.141 57.7176 248.107 51.5433 246.178 39.066C244.248 26.5886 251.966 17.6487 263.736 15.8478C275.506 14.047 285.539 20.2213 287.469 32.6987C289.398 45.176 281.68 54.1159 269.911 55.9168ZM267.852 42.6033C270.554 42.2174 272.612 39.7734 271.904 35.0784C271.197 30.4476 268.496 28.7111 265.794 29.1613C263.093 29.6115 261.035 31.9912 261.742 36.6863C262.45 41.3813 265.087 43.0536 267.852 42.6033Z" fill="white"/>
<path id="Vector_16" d="M312.81 43.6324L307.664 52.4437L290.556 52.1221L304.191 31.541L290.556 12.5677L307.922 12.8893L314.417 21.9579L319.627 13.0822L336.735 13.4038L322.714 33.4705L336.671 52.9582L319.305 52.6367L312.81 43.6324Z" fill="white"/>
<path id="Vector_17" d="M372.816 19.9641L364.713 61.448C362.333 73.4751 354.744 75.9834 345.611 74.1825L340.53 73.1535L343.102 60.1616L346.061 60.7405C348.055 61.1264 349.02 60.4832 349.405 58.6824L357.574 16.9412L372.816 19.9641ZM358.345 6.13611C359.181 1.89124 363.233 -0.810032 368.636 0.219026C373.974 1.24808 376.74 5.3 375.904 9.54486C375.068 13.7254 371.08 16.3624 365.677 15.3333C360.275 14.2399 357.574 10.3167 358.345 6.13611Z" fill="white"/>
<path id="Vector_18" d="M410.12 72.7676L395.391 67.7509L397.321 62.0268C394.105 64.5351 389.474 66.0144 383.814 64.0849C375.196 61.1264 372.302 53.0869 375.582 43.4394L382.978 21.7649L397.642 26.7816L390.889 46.5909C389.667 50.1926 390.953 53.0869 394.169 54.1802C397.449 55.2736 400.151 53.7943 401.373 50.1926L408.126 30.3833L422.854 35.3999L410.12 72.7676Z" fill="white"/>
<path id="Vector_19" d="M470.963 84.0229C472.764 81.193 471.992 78.2988 469.162 76.4979C466.268 74.6327 463.373 75.2759 461.573 78.1058L450.446 95.7927L437.325 87.496L448.516 69.809C450.317 66.9791 449.546 64.0849 446.716 62.284C443.821 60.4189 440.927 61.062 439.126 63.8919L427.935 81.5789L414.815 73.2821L435.975 39.902L449.095 48.1988L446.265 52.7009C449.674 51.2217 454.241 51.093 458.936 54.0516C463.824 57.1388 466.203 61.7052 466.01 66.9148C470.255 65.1139 475.851 64.7281 480.739 67.8795C489.357 73.3464 490.643 82.0291 485.177 90.6474L472.892 110.007L459.772 101.71L470.963 84.0229Z" fill="white"/>
<path id="Vector_20" d="M522.223 104.797C528.59 111.293 528.268 121.712 519.2 130.652C510.067 139.592 499.648 139.656 493.28 133.16C489.614 129.43 488.65 125.121 489.872 121.262L472.506 138.306L461.637 127.179L503.378 86.274L514.248 97.4007L510.389 101.195C514.248 100.038 518.492 101.067 522.223 104.797ZM508.845 110.65C506.594 108.334 503.185 108.141 500.034 111.229C496.947 114.251 497.011 117.66 499.326 119.976C501.577 122.291 504.986 122.484 508.138 119.397C511.225 116.374 511.096 112.965 508.845 110.65Z" fill="white"/>
<path id="Vector_21" d="M516.241 161.845C509.681 152.455 510.389 142.808 516.627 137.663L525.181 149.883C523.445 151.555 523.638 153.677 524.988 155.671C525.889 157.022 527.175 157.343 527.947 156.764C532.192 153.806 516.627 139.785 528.526 131.488C534.379 127.372 542.482 128.658 548.85 137.791C555.281 147.053 553.223 155.221 547.499 160.623L539.652 149.239C541.132 147.696 541.26 145.702 539.845 143.644C538.945 142.358 537.916 141.972 536.951 142.679C532.899 145.509 548.528 159.852 536.051 168.534C530.262 172.586 522.287 170.464 516.241 161.845Z" fill="white"/>
<path id="Vector_22" d="M540.939 206.481C536.244 195.547 539.781 184.292 551.358 179.339C562.935 174.387 573.547 179.661 578.178 190.595C582.808 201.528 579.335 212.784 567.758 217.736C556.182 222.688 545.634 217.415 540.939 206.481ZM553.352 201.207C554.445 203.715 557.275 205.066 561.584 203.265C565.893 201.464 566.922 198.377 565.829 195.869C564.736 193.36 561.906 192.01 557.597 193.81C553.287 195.676 552.258 198.634 553.352 201.207Z" fill="white"/>
<path id="Vector_23" d="M592.07 232.657L569.431 244.492L594.964 245.006L598.695 261.085L557.211 257.226L552.773 238.317L588.275 216.514L592.07 232.657Z" fill="white"/>
<path id="Vector_24" d="M560.684 290.413C559.976 278.579 567.115 269.832 579.721 269.06C592.327 268.289 600.431 276.199 601.139 288.034C601.846 299.868 594.836 308.615 582.487 309.387C581.522 309.451 580.365 309.451 579.4 309.387L577.921 284.496C573.933 284.946 572.904 286.876 573.033 288.998C573.161 291.056 574.319 292.021 575.541 292.471L576.506 308.936C568.016 307.65 561.263 300.382 560.684 290.413ZM584.674 284.175L585.253 293.436C587.954 293.243 589.112 291.121 588.983 288.805C588.79 286.168 587.439 284.496 584.674 284.175Z" fill="white"/>
<path id="Vector_25" d="M560.555 329.325L561.841 313.824L601.267 317.04L599.981 332.54L592.713 331.961C596.894 335.37 599.595 340.387 599.209 345.532L582.68 344.182L583.066 339.808C583.516 334.213 582.165 331.125 576.763 330.739L560.555 329.325Z" fill="white"/>
<path id="Vector_26" d="M582.037 365.084L583.259 360.325L595.865 363.476L594.643 368.236L603.904 370.551L600.11 385.665L590.848 383.35L589.24 389.589L576.634 386.437L578.242 380.199L567.887 377.626C566.151 377.176 565.122 377.819 564.607 379.748L563.707 383.35L550.843 380.134L552.258 374.41C554.509 365.406 560.041 359.617 571.939 362.576L582.037 365.084Z" fill="white"/>
<path id="Vector_27" d="M597.923 404.317L591.877 418.66L574.962 411.585C577.277 414.994 578.371 419.689 576.055 425.22C572.518 433.645 564.35 435.961 554.895 431.973L533.735 423.097L539.717 408.819L559.011 416.923C562.485 418.402 565.507 417.309 566.794 414.157C568.144 411.006 566.794 408.176 563.321 406.697L544.026 398.593L550.072 384.25L597.923 404.317Z" fill="white"/>
<path id="Vector_28" d="M521.129 442.135C527.561 432.166 538.495 429.272 549.107 436.154C559.719 442.971 561.649 454.162 555.217 464.067C548.785 474.036 537.98 476.994 527.561 470.241C526.725 469.727 525.825 469.019 525.053 468.376L538.559 447.409C535.086 445.415 533.092 446.38 531.999 448.181C530.905 449.917 531.291 451.396 531.999 452.49L523.059 466.318C516.82 460.401 515.727 450.496 521.129 442.135ZM544.155 451.204L539.138 458.986C541.453 460.465 543.64 459.372 544.862 457.442C546.341 455.255 546.213 453.069 544.155 451.204Z" fill="white"/>
<path id="Vector_29" d="M539.009 505.486L528.526 516.999L490.193 482.011L500.677 470.498L539.009 505.486Z" fill="white"/>
<path id="Vector_30" d="M501.706 526.132C497.654 529.541 493.28 530.184 489.55 528.64L493.023 532.756L481.125 542.79L455.72 512.497L467.554 502.528L471.027 506.644C470.191 502.721 471.606 498.476 475.594 495.131C482.54 489.279 492.895 490.372 501.127 500.148C509.359 509.924 508.652 520.279 501.706 526.132ZM488.971 519.057C491.415 516.999 491.866 513.59 489.1 510.246C486.334 506.901 482.861 506.773 480.417 508.831C477.973 510.889 477.523 514.298 480.289 517.642C483.054 520.987 486.463 521.179 488.971 519.057Z" fill="white"/>
<path id="Vector_31" d="M438.933 554.431L445.043 533.914L430.894 542.404L424.269 531.341L453.019 514.105L459.322 524.588L453.855 544.719L466.589 537.066L473.214 548.128L445.236 564.914L438.933 554.431Z" fill="white"/>
<path id="Vector_32" d="M410.892 579.9L394.941 586.332L396.613 522.659L412.435 516.292L411.02 539.381L440.348 568.13L424.269 574.562L409.927 558.74L410.892 579.9Z" fill="white"/>
<path id="Vector_33" d="M360.532 594.178C355.322 595.014 351.335 593.278 348.891 590.062L351.656 607.556L336.285 610L328.181 558.74L343.553 556.296L344.389 561.634C345.675 557.84 349.019 554.945 354.229 554.109C363.233 552.694 371.53 558.997 373.524 571.603C375.453 584.209 369.536 592.763 360.532 594.178ZM353.264 581.508C356.48 580.993 358.603 578.356 357.895 574.047C357.188 569.738 354.358 567.873 351.206 568.387C347.99 568.902 345.868 571.539 346.575 575.848C347.219 580.157 350.113 582.022 353.264 581.508Z" fill="white"/>
<path id="Vector_34" d="M304.384 558.161C316.283 558.354 325.158 566.136 324.965 578.742C324.772 591.348 315.639 598.873 303.741 598.68C291.842 598.487 282.967 590.705 283.16 578.099C283.353 565.429 292.421 557.968 304.384 558.161ZM304.127 571.603C301.361 571.539 298.982 573.597 298.917 578.292C298.853 582.987 301.168 585.11 303.934 585.174C306.7 585.238 309.079 583.18 309.144 578.485C309.208 573.79 306.957 571.668 304.127 571.603Z" fill="white"/>
<path id="Vector_35" d="M259.041 594.564C253.896 593.599 250.616 590.576 249.394 586.718L248.365 591.991L233.122 589.097L240.454 550.958C242.448 540.667 249.522 532.242 264.058 535.007C276.728 537.451 282.838 545.234 282.002 555.267L267.016 552.373C267.016 550.315 265.473 548.964 262.643 548.385C259.556 547.806 256.726 548.385 255.697 553.852L254.796 558.483C257.305 555.331 261.485 553.788 266.631 554.752C275.57 556.489 281.23 565.172 278.851 577.713C276.471 590.319 267.981 596.301 259.041 594.564ZM256.469 580.222C259.62 580.8 262.579 579.064 263.35 574.755C264.187 570.51 262.128 567.744 258.977 567.101C255.825 566.522 252.867 568.259 252.095 572.568C251.259 576.877 253.317 579.643 256.469 580.222Z" fill="white"/>
<path id="Vector_36" d="M228.427 545.105C233.701 546.842 235.887 551.151 234.537 555.203C233.186 559.319 228.813 561.506 223.539 559.769C218.329 558.033 216.207 553.659 217.557 549.543C218.908 545.491 223.217 543.368 228.427 545.105Z" fill="white"/>
</g>
<g id="middle">
<path id="Vector_37" d="M204.945 493.675L183.964 480.851L185.958 477.543L194.387 482.709L211.334 455.021L215.367 457.514L198.465 485.156L206.939 490.367L204.945 493.675Z" fill="white"/>
<path id="Vector_38" d="M174.131 476.41L170.551 473.329L179.795 462.634C176.397 463.677 172.681 462.589 169.645 459.961C164.841 455.792 163.663 449.402 169.01 443.239L180.022 430.506L183.556 433.587L172.998 445.822C169.191 450.218 169.645 454.568 173.27 457.695C176.94 460.867 181.426 460.776 185.46 456.109L195.791 444.191L199.371 447.273L174.131 476.41Z" fill="white"/>
<path id="Vector_39" d="M168.24 416.051C173.36 422.349 172.726 430.642 165.657 436.352C158.678 442.061 150.612 441.155 145.356 434.675C140.145 428.24 141.232 420.356 147.304 415.416C148.12 414.736 148.8 414.283 149.615 413.74L164.026 431.458C168.285 427.515 168.195 422.349 165.113 418.588C162.394 415.28 158.996 414.555 155.959 415.688L152.742 411.746C157.727 409.571 163.754 410.567 168.24 416.051ZM160.989 433.859L149.615 419.857C145.265 423.346 145.492 428.512 148.573 432.319C151.519 435.899 156.367 436.941 160.989 433.859Z" fill="white"/>
<path id="Vector_40" d="M118.439 391.716C116.263 386.958 117.17 382.427 119.209 379.753L114.451 381.928L112.457 377.578L150.748 360.087L152.742 364.437L135.613 372.231C138.921 372.503 143.09 374.769 145.265 379.617C148.392 386.505 145.401 394.345 137.335 398.015C129.314 401.731 121.656 398.74 118.439 391.716ZM121.837 389.224C124.012 393.982 129.314 396.429 135.432 393.62C141.549 390.81 143.317 385.146 141.141 380.433C138.966 375.675 133.574 373.228 127.456 376.037C121.384 378.756 119.662 384.466 121.837 389.224Z" fill="white"/>
<path id="Vector_41" d="M130.311 334.982L131.444 339.604L127.366 340.646C130.674 341.689 133.166 344.679 134.072 348.395C135.658 354.785 132.939 360.766 125.009 362.715L108.787 366.748L107.654 362.216L123.287 358.319C128.906 356.914 131.036 353.108 129.858 348.486C128.68 343.728 124.964 341.281 118.982 342.776L103.711 346.492L102.578 341.87L130.311 334.982Z" fill="white"/>
<path id="Vector_42" d="M93.6061 333.17C91.7935 333.396 90.2074 332.173 90.0262 330.36C89.7996 328.638 91.0684 327.097 92.881 326.871C94.6936 326.644 96.2796 327.868 96.4609 329.59C96.6422 331.402 95.4187 332.988 93.6061 333.17ZM101.31 331.493L100.721 326.78L129.088 323.336L129.677 328.049L101.31 331.493Z" fill="white"/>
<path id="Vector_43" d="M99.0439 304.802C98.908 297.733 102.488 293.02 108.469 291.48L108.56 296.6C105.116 297.643 102.986 300.543 103.077 304.757C103.168 309.968 106.929 313.775 113.907 313.639C120.976 313.503 124.647 309.606 124.556 304.394C124.466 300.18 122.426 297.371 118.801 296.419L118.711 291.298C124.42 292.658 128.453 297.235 128.544 304.304C128.68 312.415 123.016 318.306 113.953 318.442C105.025 318.623 99.1798 312.914 99.0439 304.802Z" fill="white"/>
<path id="Vector_44" d="M90.6154 280.242L91.3404 275.529L113.726 278.973L102.896 266.194L103.893 259.669L115.901 275.121L132.124 263.928L131.127 270.318L116.943 279.471L129.405 281.375L128.68 286.042L90.6154 280.242Z" fill="white"/>
<path id="Vector_45" d="M115.584 222.828C118.529 215.713 126.097 212.496 134.299 215.94C142.501 219.338 145.764 227.087 142.818 234.156C140.824 238.96 136.972 241.407 133.438 241.815L138.287 243.854L136.474 248.249L100.856 233.431L102.669 229.036L116.807 234.927C114.587 232.026 113.635 227.495 115.584 222.828ZM118.982 225.32C116.989 230.078 118.937 235.788 125.009 238.325C131.217 240.908 136.565 238.235 138.558 233.477C140.598 228.628 138.604 223.009 132.396 220.426C126.233 217.843 121.022 220.471 118.982 225.32Z" fill="white"/>
<path id="Vector_46" d="M152.878 213.266L150.431 217.344L125.961 202.662L128.408 198.584L132.396 200.986C130.492 197.95 130.402 194.324 132.713 190.427L136.927 192.965L136.293 194.053C133.982 197.95 133.936 201.937 139.601 205.336L152.878 213.266Z" fill="white"/>
<path id="Vector_47" d="M168.058 192.331C162.983 198.584 154.645 199.762 147.621 194.053C140.598 188.388 140.19 179.869 145.31 173.57C150.431 167.271 158.814 165.912 165.838 171.622C172.817 177.331 173.179 185.987 168.058 192.331ZM164.796 189.702C167.923 185.851 168.33 179.96 162.711 175.383C157.138 170.851 151.519 172.392 148.437 176.198C145.265 180.096 145.084 185.76 150.658 190.246C156.277 194.868 161.669 193.554 164.796 189.702Z" fill="white"/>
<path id="Vector_48" d="M159.177 157.302L162.938 154.221L183.239 168.586L173.496 145.566L177.257 142.484L197.876 156.668L187.635 134.01L191.26 131.019L202.498 158.752L198.691 161.879L178.979 148.738L188.042 170.625L184.236 173.751L159.177 157.302Z" fill="white"/>
<path id="Vector_49" d="M223.207 128.074C220.488 122.908 216.274 121.775 212.059 123.996C207.754 126.261 206.214 130.476 209.114 135.913L216.455 149.87L212.241 152.091L198.918 126.805L203.132 124.585L205.035 128.165C205.307 124.675 207.618 121.639 211.017 119.827C216.863 116.745 223.252 117.969 227.059 125.219L234.898 140.128L230.729 142.303L223.207 128.074Z" fill="white"/>
<path id="Vector_50" d="M247.813 109.676L244.233 110.673L243.191 106.912L246.771 105.915L246.227 103.966C244.505 97.8489 246.725 94.2237 253.749 92.2752L254.837 96.0816C250.713 97.2598 249.807 99.1177 250.804 102.698L251.347 104.646L257.102 103.015L258.145 106.776L252.39 108.407L259.051 132.152L254.474 133.376L247.813 109.676Z" fill="white"/>
<path id="Vector_51" d="M281.391 127.983C273.37 129.116 266.528 124.268 265.259 115.295C264.036 106.368 269.519 99.8428 277.539 98.7552C285.606 97.6224 292.629 102.38 293.853 111.307C295.122 120.28 289.457 126.851 281.391 127.983ZM280.847 123.86C285.741 123.18 290.092 119.147 289.095 111.987C288.098 104.873 282.932 102.154 278.083 102.834C273.144 103.513 269.111 107.501 270.108 114.615C271.059 121.775 275.908 124.539 280.847 123.86Z" fill="white"/>
<path id="Vector_52" d="M309.033 115.159L302.327 125.672L297.387 125.582L306.858 111.579L297.886 97.0333L303.233 97.1239L309.849 107.818L316.465 97.3505L321.404 97.4411L312.024 111.398L320.997 125.99L315.649 125.899L309.033 115.159Z" fill="white"/>
<path id="Vector_53" d="M348.14 101.429L341.57 135.551C340.573 140.626 337.537 142.258 332.778 141.351L330.06 140.807L330.83 136.865L332.778 137.228C335.316 137.726 336.494 137.001 336.947 134.509L343.518 100.477L348.14 101.429ZM344.198 92.6377C344.56 90.8251 346.192 89.7375 347.914 90.0547C349.636 90.3719 350.769 92.0486 350.406 93.8159C350.043 95.6285 348.412 96.716 346.69 96.3988C344.968 96.0816 343.881 94.4503 344.198 92.6377Z" fill="white"/>
<path id="Vector_54" d="M373.698 138.406L369.166 136.956L370.48 132.923C367.807 135.188 364 135.687 360.375 134.509C354.122 132.47 350.497 127.032 353.034 119.238L358.2 103.332L362.641 104.782L357.656 120.099C355.844 125.582 357.974 129.388 362.505 130.884C367.172 132.379 371.205 130.521 373.109 124.675L377.957 109.767L382.489 111.217L373.698 138.406Z" fill="white"/>
<path id="Vector_55" d="M423.363 147.605C426.399 142.62 425.266 138.451 421.278 136.004C417.2 133.512 412.759 134.418 409.587 139.675L401.385 153.088L397.397 150.641L405.826 136.865C408.862 131.88 407.729 127.711 403.742 125.264C399.663 122.772 395.222 123.678 392.05 128.935L383.848 142.348L379.815 139.856L394.724 115.476L398.757 117.969L396.627 121.503C399.799 119.917 403.515 120.28 406.732 122.228C410.72 124.675 412.986 128.482 412.351 133.104C415.931 130.476 420.553 130.657 424.314 132.968C429.888 136.367 432.063 142.484 427.804 149.463L419.013 163.827L415.025 161.38L423.363 147.605Z" fill="white"/>
<path id="Vector_56" d="M454.223 158.662C459.66 164.054 459.751 172.301 453.452 178.6C447.199 184.854 438.77 184.944 433.378 179.552C429.707 175.881 429.073 171.259 429.888 167.951L416.611 181.274L413.258 177.92L443.03 148.148L446.383 151.502L442.667 155.218C445.975 154.266 450.552 154.991 454.223 158.662ZM450.597 160.882C446.927 157.257 440.945 156.849 436.278 161.516C431.52 166.274 431.973 172.256 435.643 175.881C439.359 179.597 445.295 179.914 450.054 175.156C454.766 170.443 454.358 164.598 450.597 160.882Z" fill="white"/>
<path id="Vector_57" d="M451.549 201.303C447.652 195.865 447.924 189.929 451.957 186.666L454.812 190.654C452.727 192.467 452.455 195.684 454.766 198.947C456.941 201.983 459.706 202.617 461.609 201.258C466.775 197.542 453.951 185.987 462.606 179.778C466.186 177.241 471.487 178.51 475.203 183.675C478.874 188.796 478.511 194.189 474.161 197.678L471.397 193.826C473.617 192.013 474.025 188.977 471.805 185.896C469.765 183.041 467.228 182.316 465.325 183.675C459.796 187.618 472.439 198.947 464.237 205.064C460.476 207.692 455.219 206.424 451.549 201.303Z" fill="white"/>
<path id="Vector_58" d="M471.306 237.374C468.27 229.897 471.306 222.057 479.69 218.659C488.027 215.305 495.686 219.066 498.722 226.543C501.758 234.066 498.858 242.041 490.474 245.44C482.091 248.793 474.342 244.896 471.306 237.374ZM475.203 235.833C477.061 240.41 482.001 243.672 488.707 240.954C495.369 238.28 496.728 232.616 494.915 228.039C493.057 223.417 488.209 220.471 481.547 223.145C474.795 225.864 473.345 231.211 475.203 235.833Z" fill="white"/>
<path id="Vector_59" d="M506.607 251.059L484.901 264.925L510.413 268.414L511.501 273.354L481.23 268.505L480.052 263.113L505.564 246.074L506.607 251.059Z" fill="white"/>
<path id="Vector_60" d="M484.04 295.105C483.632 286.994 489.024 280.695 498.087 280.242C507.105 279.788 513.041 285.272 513.494 293.61C513.902 301.902 508.374 307.612 500.534 307.974C499.492 308.02 498.676 308.02 497.679 307.974L496.501 285.181C490.746 285.861 487.756 290.075 488.027 294.878C488.254 299.138 490.565 301.721 493.692 302.627L493.964 307.748C488.662 306.57 484.402 302.174 484.04 295.105ZM500.353 285.045L501.259 303.035C506.833 302.808 509.688 298.504 509.461 293.61C509.235 288.942 505.972 285.272 500.353 285.045Z" fill="white"/>
<path id="Vector_61" d="M484.13 318.533L484.538 313.82L512.996 316.267L512.588 320.98L507.966 320.572C511.002 322.475 512.724 325.693 512.316 330.224L507.422 329.816L507.513 328.547C507.921 324.016 506.153 320.436 499.583 319.847L484.13 318.533Z" fill="white"/>
<path id="Vector_62" d="M503.57 352.655L504.522 349.075L508.283 350.072L507.332 353.652L514.265 355.51L513.041 360.087L506.108 358.229L504.16 365.434L500.398 364.437L502.347 357.232L486.079 352.836C483.36 352.111 482.137 352.836 481.366 355.691L480.46 359.044L476.563 358.002L477.696 353.878C479.01 348.984 481.774 346.764 487.302 348.259L503.57 352.655Z" fill="white"/>
<path id="Vector_63" d="M510.912 377.533L509.054 381.883L496.048 376.355C498.087 379.255 498.178 383.152 496.592 386.868C494.1 392.713 488.39 395.749 480.868 392.532L465.37 385.916L467.228 381.611L482.091 387.955C487.438 390.266 491.426 388.499 493.329 384.103C495.233 379.663 493.783 375.403 488.118 372.956L473.617 366.748L475.475 362.398L510.912 377.533Z" fill="white"/>
<path id="Vector_64" d="M455.219 401.504C459.66 394.707 467.772 392.804 475.339 397.789C482.862 402.728 484.448 410.658 479.916 417.637C475.385 424.57 467.545 425.929 460.974 421.624C460.113 421.035 459.434 420.537 458.663 419.902L471.17 400.779C466.14 397.925 461.246 399.556 458.573 403.634C456.216 407.214 456.579 410.658 458.573 413.241L455.763 417.501C452.229 413.513 451.322 407.441 455.219 401.504ZM474.342 403L464.464 418.09C469.086 421.171 473.98 419.404 476.653 415.28C479.191 411.383 478.738 406.489 474.342 403Z" fill="white"/>
<path id="Vector_65" d="M463.285 453.843L459.977 457.242L432.335 430.325L435.643 426.926L463.285 453.843Z" fill="white"/>
<path id="Vector_66" d="M436.459 465.58C432.29 468.888 427.759 469.024 424.587 467.71L427.804 471.788L424.043 474.779L406.325 452.393L410.086 449.402L413.394 453.571C412.85 450.082 414.073 445.687 418.197 442.424C424.179 437.711 432.517 438.753 438 445.687C443.528 452.665 442.441 460.822 436.459 465.58ZM433.151 462.952C437.229 459.734 438.362 453.979 434.193 448.723C430.024 443.466 424.088 443.104 420.01 446.321C415.931 449.538 414.844 455.384 419.013 460.686C423.091 465.852 429.073 466.169 433.151 462.952Z" fill="white"/>
<path id="Vector_67" d="M397.443 485.836L399.391 460.912L387.156 467.8L385.253 464.402L402.201 454.885L404.104 458.284L402.201 483.207L414.209 476.455L416.113 479.809L399.346 489.234L397.443 485.836Z" fill="white"/>
<path id="Vector_68" d="M372.792 500.246L368.215 502.013L369.03 456.653L373.607 454.885L373.335 469.749L394.271 491.908L389.377 493.811L372.656 475.504L372.792 500.246Z" fill="white"/>
<path id="Vector_69" d="M333.639 509.671C329.198 510.215 324.803 508.448 322.447 505.412L324.304 520.411L319.546 521L314.834 482.709L319.592 482.12L320.226 487.467C321.54 484.114 324.894 481.032 330.059 480.398C337.672 479.446 344.243 484.703 345.331 493.494C346.418 502.285 341.298 508.72 333.639 509.671ZM332.235 505.683C337.4 505.049 341.343 500.744 340.527 494.083C339.712 487.422 334.818 484.023 329.652 484.657C324.486 485.292 320.498 489.733 321.314 496.394C322.129 502.919 327.069 506.318 332.235 505.683Z" fill="white"/>
<path id="Vector_70" d="M295.983 481.621C304.049 482.074 309.849 488.192 309.305 497.255C308.761 506.273 302.1 511.529 294.034 511.076C285.923 510.578 279.941 504.551 280.485 495.533C281.029 486.47 287.826 481.123 295.983 481.621ZM295.711 485.79C290.771 485.518 285.741 488.6 285.288 495.805C284.88 502.965 289.412 506.635 294.306 506.952C299.291 507.27 304.049 504.143 304.456 496.938C304.864 489.733 300.65 486.062 295.711 485.79Z" fill="white"/>
<path id="Vector_71" d="M258.281 505.819C253.205 504.551 250.215 501.152 249.308 497.753L248.039 502.829L243.372 501.696L250.35 473.374C252.254 465.716 258.688 461.592 266.845 463.586C274.141 465.399 278.446 470.383 277.857 476.501L273.325 475.368C273.144 471.788 270.425 468.707 265.848 467.574C260.954 466.35 256.468 468.571 255.018 474.507L253.568 480.307C255.97 477.724 260.229 475.957 265.304 477.18C272.736 479.038 277.041 486.243 274.911 494.853C272.827 503.508 265.712 507.632 258.281 505.819ZM258.371 501.605C263.446 502.874 268.658 500.246 270.244 493.72C271.875 487.195 268.522 482.301 263.446 481.032C258.371 479.763 253.115 482.482 251.483 489.008C249.897 495.397 253.296 500.336 258.371 501.605Z" fill="white"/>
<path id="Vector_72" d="M242.602 470.293C244.324 470.927 245.094 472.785 244.46 474.462C243.825 476.183 241.967 476.954 240.291 476.319C238.705 475.685 237.889 473.872 238.523 472.196C239.158 470.519 240.97 469.658 242.602 470.293Z" fill="white"/>
</g>
<g id="inner">
<path id="Vector_73" d="M244.22 417.978L232.326 410.809L232.625 410.32L238.3 413.742L249.706 394.76L250.249 395.086L238.843 414.068L244.519 417.489L244.22 417.978Z" fill="white"/>
<path id="Vector_74" d="M226.596 408.202L226.107 407.795L233.222 399.295C230.398 401.359 227.275 400.843 224.776 398.752C221.844 396.308 220.866 392.533 224.315 388.378L230.832 380.585L231.294 380.992L224.722 388.84C221.735 392.397 222.17 395.846 225.13 398.317C228.171 400.87 232 400.788 235.503 396.607L241.45 389.492L241.939 389.899L226.596 408.202Z" fill="white"/>
<path id="Vector_75" d="M223.039 371.515C226.134 375.235 225.863 380.096 221.572 383.68C217.254 387.292 212.448 386.695 209.325 382.974C205.903 378.901 207.125 374.366 209.922 372.03C210.574 371.487 210.819 371.297 211.28 370.944L221.355 383.001C225.564 379.335 225.075 374.882 222.577 371.895C220.106 368.935 216.603 368.011 213.588 369.804L213.181 369.315C216.304 367.468 220.133 368.066 223.039 371.515ZM220.92 383.382L211.199 371.732C206.691 375.099 207.288 379.634 209.759 382.594C212.312 385.663 216.657 386.939 220.92 383.382Z" fill="white"/>
<path id="Vector_76" d="M191.755 355.14C190.044 351.338 191.103 347.78 193.547 345.662L188.687 347.862L188.442 347.292L211.769 336.701L212.013 337.271L199.712 342.865C202.916 342.404 206.311 343.951 208.021 347.726C210.085 352.288 208.456 356.85 203.405 359.159C198.354 361.467 193.846 359.702 191.755 355.14ZM192.298 354.895C194.281 359.24 198.435 360.734 203.161 358.588C207.886 356.443 209.515 352.343 207.533 347.998C205.659 343.843 201.26 342.213 196.67 344.277C192.081 346.341 190.397 350.767 192.298 354.895Z" fill="white"/>
<path id="Vector_77" d="M199.522 321.928L199.685 322.553L195.068 323.693C198.571 323.666 200.852 325.974 201.613 329.124C202.509 332.818 201.097 336.456 195.856 337.76L186.052 340.177L185.917 339.579L195.801 337.163C200.309 336.049 201.993 333.008 201.07 329.287C200.119 325.431 196.996 323.232 191.701 324.535L182.767 326.735L182.604 326.11L199.522 321.928Z" fill="white"/>
<path id="Vector_78" d="M176.521 320.407C175.978 320.489 175.597 320.136 175.543 319.674C175.489 319.213 175.76 318.805 176.303 318.724C176.847 318.642 177.227 318.995 177.281 319.457C177.335 319.919 177.064 320.353 176.521 320.407ZM181.735 319.24L181.653 318.588L198.951 316.415L199.033 317.067L181.735 319.24Z" fill="white"/>
<path id="Vector_79" d="M180.485 304.358C180.404 299.85 182.902 296.89 186.487 296.266V296.918C183.038 297.515 181.001 300.502 181.056 304.358C181.11 308.35 183.771 312.071 189.528 311.962C195.313 311.88 197.838 308.079 197.757 304.087C197.702 300.203 195.557 297.325 192.081 296.809V296.157C195.666 296.673 198.272 299.552 198.354 304.06C198.435 308.893 195.177 312.505 189.555 312.587C183.961 312.695 180.567 309.219 180.485 304.358Z" fill="white"/>
<path id="Vector_80" d="M175 288.88L175.081 288.228L189.365 290.21L182.549 281.33L182.685 280.407L190.071 290.102L199.983 282.661L199.848 283.557L190.669 290.4L198.761 291.514L198.68 292.165L175 288.88Z" fill="white"/>
<path id="Vector_81" d="M189.257 257.325C191.103 252.681 195.53 250.671 200.689 252.708C205.849 254.745 207.723 259.225 205.903 263.869C204.383 267.752 201.07 269.436 197.865 269.164L202.808 271.12L202.59 271.69L180.377 262.946L180.594 262.375L191.565 266.693C189.012 264.629 187.736 261.208 189.257 257.325ZM189.8 257.542C188.143 261.778 190.017 266.096 194.688 267.942C199.386 269.789 203.676 267.915 205.36 263.679C207.098 259.225 205.279 255.234 200.445 253.305C195.611 251.405 191.538 253.088 189.8 257.542Z" fill="white"/>
<path id="Vector_82" d="M211.199 252.029L210.873 252.599L195.747 243.937L196.073 243.366L199.739 245.457C197.431 243.366 197.213 240.597 199.142 237.202L199.766 237.555L199.63 237.799C198.082 240.515 197.729 244.29 202.21 246.87L211.199 252.029Z" fill="white"/>
<path id="Vector_83" d="M220.839 237.827C217.852 241.656 212.991 242.497 208.537 239.049C204.111 235.6 203.758 230.658 206.718 226.829C209.678 223 214.566 222.185 218.992 225.634C223.446 229.083 223.826 233.998 220.839 237.827ZM220.404 237.474C222.876 234.324 223.202 229.707 218.639 226.15C214.077 222.592 209.678 224.032 207.234 227.209C204.763 230.359 204.437 235.002 208.999 238.56C213.507 242.09 217.933 240.624 220.404 237.474Z" fill="white"/>
<path id="Vector_84" d="M215.408 216.292L215.924 215.858L230.316 224.982L224.614 208.498L224.994 208.173L240.31 216.537L233.711 200.813L234.227 200.379L241.287 217.243L240.907 217.568L225.564 209.286L231.213 225.77L230.832 226.095L215.408 216.292Z" fill="white"/>
<path id="Vector_85" d="M254.974 197.202C252.747 193.128 249.38 192.259 246.012 194.106C242.536 196.007 241.206 199.591 243.813 204.371L248.239 212.517L247.669 212.816L239.359 197.527L239.929 197.229L242.129 201.275C241.233 197.908 242.889 195.165 245.741 193.617C249.081 191.798 252.964 192.259 255.544 196.984L260.405 205.919L259.862 206.217L254.974 197.202Z" fill="white"/>
<path id="Vector_86" d="M269.203 184.954L266.461 185.742L266.271 185.09L269.013 184.303L268.687 183.135C267.764 179.876 268.606 177.704 272.679 176.536L272.869 177.161C269.176 178.22 268.47 179.931 269.339 182.945L269.665 184.113L274.472 182.728L274.662 183.379L269.855 184.764L274.499 200.868L273.874 201.058L269.203 184.954Z" fill="white"/>
<path id="Vector_87" d="M289.923 197.745C285.117 198.424 281.016 195.654 280.229 190.087C279.441 184.52 282.618 180.718 287.398 180.039C292.204 179.36 296.278 182.13 297.065 187.697C297.853 193.264 294.703 197.066 289.923 197.745ZM289.842 197.174C293.807 196.604 297.255 193.508 296.441 187.806C295.626 182.103 291.471 180.066 287.506 180.637C283.542 181.207 280.066 184.303 280.88 190.005C281.668 195.708 285.877 197.718 289.842 197.174Z" fill="white"/>
<path id="Vector_88" d="M306.19 188.159L300.758 196.36H300.052L305.809 187.588L300.433 178.953H301.166L306.271 187.127L311.594 179.116H312.272L306.624 187.697L312.137 196.55H311.403L306.19 188.159Z" fill="white"/>
<path id="Vector_89" d="M328.023 181.153L324.004 203.122C323.651 205.05 322.592 206.217 320.121 205.756L318.98 205.538L319.089 204.914L320.229 205.131C321.994 205.457 322.999 204.995 323.406 202.823L327.398 181.044L328.023 181.153ZM327.833 175.721C327.941 175.178 328.376 174.934 328.81 175.015C329.245 175.097 329.571 175.477 329.489 176.02C329.408 176.563 328.946 176.808 328.512 176.726C328.05 176.645 327.751 176.237 327.833 175.721Z" fill="white"/>
<path id="Vector_90" d="M343.366 203.284L342.741 203.094L344.126 198.559C342.334 201.601 339.211 202.334 336.088 201.384C332.449 200.27 330.059 197.174 331.662 192.015L334.649 182.375L335.246 182.565L332.259 192.286C330.874 196.713 332.612 199.7 336.305 200.84C340.107 202.008 343.583 200.46 345.185 195.246L347.901 186.448L348.525 186.638L343.366 203.284Z" fill="white"/>
<path id="Vector_91" d="M375.573 208.96C377.935 204.968 377.066 201.709 373.916 199.863C370.685 197.962 366.937 198.804 364.14 203.556L359.524 211.404L359.008 211.105L364.194 202.28C366.557 198.288 365.688 195.029 362.538 193.183C359.279 191.254 355.559 192.123 352.762 196.876L348.145 204.724L347.602 204.398L356.455 189.381L356.998 189.707L354.663 193.671C357.215 191.119 360.23 191.146 362.837 192.694C365.498 194.269 366.991 197.039 365.606 200.732C368.241 197.826 371.472 197.772 374.215 199.401C377.338 201.248 378.804 204.724 376.061 209.367L370.902 218.139L370.386 217.84L375.573 208.96Z" fill="white"/>
<path id="Vector_92" d="M392.138 214.391C395.722 217.894 395.858 222.728 391.975 226.72C388.091 230.712 383.23 230.685 379.646 227.209C376.659 224.303 376.36 220.583 377.881 217.731L368.485 227.399L368.05 226.964L385.919 208.607L386.353 209.042L382.633 212.87C385.457 211.268 389.178 211.486 392.138 214.391ZM391.757 214.799C388.499 211.621 383.801 211.676 380.271 215.287C376.767 218.899 376.822 223.597 380.08 226.774C383.502 230.114 387.901 229.979 391.54 226.258C395.152 222.538 395.179 218.139 391.757 214.799Z" fill="white"/>
<path id="Vector_93" d="M391.323 240.678C389.15 237.718 388.743 234.758 391.133 232.531L391.513 233.047C389.639 234.758 389.558 237.284 391.812 240.352C393.55 242.715 396.129 243.068 397.84 241.791C402.158 238.614 393.17 231.689 398.574 227.698C400.447 226.313 403.434 226.964 405.308 229.517C407.372 232.314 407.263 235.301 404.819 237.311L404.439 236.795C406.34 235.247 406.883 232.667 404.819 229.87C403.163 227.643 400.529 227.046 398.927 228.241C394.011 231.852 403.027 238.723 398.166 242.307C396.075 243.882 393.115 243.122 391.323 240.678Z" fill="white"/>
<path id="Vector_94" d="M403.76 263.027C401.941 258.547 403.624 253.876 408.811 251.758C413.998 249.639 418.479 251.785 420.298 256.265C422.118 260.746 420.434 265.39 415.22 267.508C410.06 269.626 405.607 267.508 403.76 263.027ZM404.303 262.81C405.824 266.503 409.653 269.083 415.003 266.91C420.352 264.738 421.303 260.203 419.782 256.483C418.261 252.789 414.405 250.155 409.056 252.355C403.706 254.555 402.783 259.117 404.303 262.81Z" fill="white"/>
<path id="Vector_95" d="M424.779 269.354L410.223 279.755L427.82 282.96L427.956 283.611L409.354 280.162L409.246 279.701L424.643 268.648L424.779 269.354Z" fill="white"/>
<path id="Vector_96" d="M411.473 297.488C411.201 292.654 414.324 288.934 419.945 288.608C425.539 288.309 429.069 291.649 429.341 296.483C429.64 301.806 425.947 304.684 422.308 304.901C421.466 304.956 421.14 304.956 420.57 304.956L419.701 289.26C414.134 289.667 411.853 293.55 412.07 297.434C412.287 301.29 414.541 304.114 418.017 304.467L418.044 305.119C414.433 304.766 411.717 301.996 411.473 297.488ZM420.271 289.233L421.113 304.385C426.734 304.385 428.961 300.394 428.771 296.537C428.526 292.573 425.811 288.934 420.271 289.233Z" fill="white"/>
<path id="Vector_97" d="M411.663 310.061L411.717 309.409L429.097 310.821L429.042 311.473L424.833 311.12C427.793 312.043 429.178 314.46 428.879 318.344L428.173 318.289L428.2 317.991C428.445 314.868 427.169 311.31 422.009 310.876L411.663 310.061Z" fill="white"/>
<path id="Vector_98" d="M424.942 333.524L425.675 330.781L426.3 330.944L425.566 333.687L429.857 334.854L429.694 335.479L425.404 334.311L423.991 339.607L423.367 339.444L424.779 334.148L412.993 330.998C409.979 330.183 408.92 330.944 408.241 333.496L407.752 335.262L407.128 335.099L407.616 333.252C408.377 330.374 409.87 329.477 413.129 330.346L424.942 333.524Z" fill="white"/>
<path id="Vector_99" d="M428.255 347.59L428.01 348.188L417.8 343.87C420.597 345.961 421.004 349.111 419.755 352.125C418.261 355.628 414.948 357.692 409.979 355.601L400.61 351.637L400.855 351.066L410.278 355.058C414.568 356.878 417.718 355.438 419.212 351.908C420.76 348.242 419.565 344.63 414.541 342.512L406.014 338.9L406.259 338.303L428.255 347.59Z" fill="white"/>
<path id="Vector_100" d="M394.229 361.711C396.89 357.665 401.588 356.497 406.313 359.566C411.038 362.635 411.853 367.441 409.219 371.487C406.313 375.941 401.615 376.077 398.573 374.094C397.867 373.633 397.596 373.47 397.134 373.117L405.743 359.946C401.018 356.986 396.89 358.751 394.745 362.01C392.626 365.242 392.789 368.853 395.369 371.216L395.016 371.759C392.301 369.342 391.757 365.513 394.229 361.711ZM406.204 360.299L397.895 373.008C402.43 376.348 406.584 374.447 408.703 371.216C410.875 367.849 410.848 363.314 406.204 360.299Z" fill="white"/>
<path id="Vector_101" d="M398.302 394.896L397.84 395.357L380.841 378.602L381.302 378.141L398.302 394.896Z" fill="white"/>
<path id="Vector_102" d="M382.497 400.788C379.239 403.368 375.518 403.178 372.884 401.332L376.197 405.514L375.708 405.894L364.9 392.234L365.389 391.854L368.702 396.036C367.48 393.049 368.159 389.383 371.445 386.803C375.383 383.707 380.216 384.196 383.638 388.541C387.06 392.859 386.435 397.666 382.497 400.788ZM382.144 400.327C385.892 397.367 386.326 392.995 383.122 388.894C379.89 384.821 375.545 384.251 371.798 387.211C368.241 390.035 367.67 394.706 370.793 398.643C373.889 402.608 378.56 403.151 382.144 400.327Z" fill="white"/>
<path id="Vector_103" d="M361.207 413.66L362.076 394.488L352.925 399.675L352.626 399.159L362.375 393.646L362.674 394.162L361.832 413.334L370.413 408.501L370.712 409.017L361.533 414.203L361.207 413.66Z" fill="white"/>
<path id="Vector_104" d="M345.131 421.182L344.534 421.427L344.181 393.945L344.805 393.701L344.914 402.391L358.41 415.833L357.813 416.077L344.914 403.232L345.131 421.182Z" fill="white"/>
<path id="Vector_105" d="M321.668 426.722C317.541 427.265 314.445 425.202 313.141 422.242L314.662 433.919L314.065 434L310.969 410.32L311.566 410.239L312.272 415.561C312.761 412.33 315.232 409.533 319.36 409.017C324.33 408.365 328.213 411.271 328.946 416.783C329.625 422.269 326.611 426.071 321.668 426.722ZM321.587 426.152C326.312 425.527 328.946 421.997 328.294 416.838C327.615 411.678 324.167 408.935 319.442 409.56C314.934 410.157 312.055 413.878 312.707 418.874C313.359 423.871 317.079 426.722 321.587 426.152Z" fill="white"/>
<path id="Vector_106" d="M298.776 409.777C303.61 410.049 307.086 413.579 306.76 419.2C306.434 424.794 302.578 427.917 297.744 427.646C292.91 427.374 289.462 423.844 289.787 418.222C290.113 412.601 293.942 409.478 298.776 409.777ZM298.749 410.347C294.757 410.13 290.765 412.465 290.439 418.25C290.113 424.007 293.806 426.804 297.798 427.048C301.79 427.265 305.809 424.93 306.135 419.146C306.461 413.389 302.741 410.565 298.749 410.347Z" fill="white"/>
<path id="Vector_107" d="M274.879 424.142C270.833 423.138 268.715 420.069 268.579 416.892L267.303 421.997L266.705 421.834L271.131 404.319C272.353 399.431 276.617 397.584 280.527 398.562C284.709 399.621 286.855 402.554 286.99 406.057L286.366 405.894C286.203 402.744 284.302 400.11 280.392 399.132C276.535 398.154 272.815 400.11 271.729 404.482L270.29 410.239C271.919 407.496 275.232 405.785 279.278 406.817C284.139 408.039 286.692 412.167 285.334 417.571C283.949 422.948 279.74 425.364 274.879 424.142ZM275.042 423.599C279.686 424.767 283.433 422.459 284.682 417.408C285.959 412.357 283.759 408.555 279.115 407.387C274.689 406.274 270.67 408.691 269.448 413.579C268.199 418.44 270.616 422.486 275.042 423.599Z" fill="white"/>
<path id="Vector_108" d="M267.302 403.26C267.764 403.423 267.954 403.884 267.791 404.373C267.601 404.862 267.14 405.052 266.705 404.889C266.243 404.726 266.053 404.264 266.216 403.776C266.406 403.314 266.868 403.097 267.302 403.26Z" fill="white"/>
</g>
</g>
</svg>
