<svg width="509" height="508" viewBox="0 0 509 508" fill="none" xmlns="http://www.w3.org/2000/svg">
<path d="M436.968 178.574C484.39 129.59 477.015 89.5023 468.404 69.9873C464.371 60.9344 456.949 53.5123 447.896 49.4788C428.381 40.8679 388.293 33.4929 339.309 80.9149C279.485 138.786 324.804 159.875 307.409 190.942C298.798 206.389 238.955 273.069 176.399 316.093C113.843 359.117 57.7899 403.451 51.1131 429.66C48.9703 438.248 51.2904 446.28 53.8344 451.939C56.3561 457.23 60.7508 461.625 65.9441 464.049C71.517 466.679 79.5488 468.999 88.2236 466.77C114.432 460.093 158.766 404.04 201.79 341.484C244.814 278.928 311.494 219.085 326.941 210.474C358.009 193.079 379.097 238.399 436.968 178.574Z" fill="#27435E"/>
<path d="M427.968 170.574C475.39 121.59 468.015 81.5023 459.404 61.9873C455.371 52.9344 447.949 45.5123 438.896 41.4788C419.381 32.8679 379.293 25.4929 330.309 72.9149C270.485 130.786 315.804 151.875 298.409 182.942C289.798 198.389 229.955 265.069 167.399 308.093C104.843 351.117 48.7899 395.451 42.1131 421.66C39.9703 430.248 42.2904 438.28 44.8344 443.939C47.3561 449.23 51.7508 453.625 56.9441 456.049C62.517 458.679 70.5488 460.999 79.2236 458.77C105.432 452.093 149.766 396.04 192.79 333.484C235.814 270.928 302.494 211.085 317.941 202.474C349.009 185.079 370.097 230.399 427.968 170.574Z" stroke="#A0D2E3" stroke-miterlimit="10"/>
</svg>
