<?xml version="1.0" encoding="utf-8"?>
<!-- Generator: Adobe Illustrator 24.3.0, SVG Export Plug-In . SVG Version: 6.00 Build 0)  -->
<svg version="1.1" id="Layer_1" xmlns="http://www.w3.org/2000/svg" xmlns:xlink="http://www.w3.org/1999/xlink" x="0px" y="0px"
	 viewBox="0 0 768.3 799" style="enable-background:new 0 0 768.3 799;" xml:space="preserve">
<style type="text/css">
	.st0{fill:#DDDDDD;}
</style>
<g>
	<path class="st0" d="M177.9,742.3l-2.6-1.5l51.3-89.9l2.6,1.5L177.9,742.3z"/>
	<path class="st0" d="M129.9,636.2c-13.7,16.1-11.8,31.8,1.5,43.2c13.8,11.7,31.2,11.4,47.3-7.5l27.3-32.2l2.2,1.9l-51.4,60.5
		l-2.2-1.9l13.6-16c-12.9,9.3-27.2,6.8-38.5-2.8c-13.2-11.2-17.7-28.5-1.8-47.2l30-35.3l2.1,1.8L129.9,636.2z"/>
	<path class="st0" d="M110.5,632l-31.2-43.5l2.1-1.5l31.2,43.5L110.5,632z"/>
	<path class="st0" d="M35,477.7c30.6-11.4,55-0.6,67.6,33.1l9.5,25.5l-96.9,36.2L5.7,547C-6.9,513.3,4.4,489.1,35,477.7z
		 M100.1,511.8C88,479.3,64.4,469.9,36,480.5C7.7,491.1-4,513.6,8.1,546.1l8.5,22.7l92-34.4L100.1,511.8z"/>
	<path class="st0" d="M81.4,410.9c1.1,22-13.3,38.9-38.8,40.2C17,452.3,1.1,436.9,0.1,414.8c-1.2-24.2,15.7-37.3,32.3-38.1
		c3.8-0.2,5.3-0.3,7.9-0.2l3.5,71.5c25.4-1.7,35.9-19.3,35-37c-0.9-17.6-11-30.5-26.9-32.2l-0.1-2.9
		C68.2,377.7,80.4,390.3,81.4,410.9z M41.1,448.2l-3.4-69C12.1,379,1.8,397.1,2.6,414.8C3.6,432.8,15.9,449.4,41.1,448.2z"/>
	<path class="st0" d="M11.7,302.9c5.7-22.1,24.5-33.6,49-27.4c24.5,6.3,35.5,25.5,29.9,47.6c-4.7,18.4-18.7,28-33.4,28.5l59.7,15.3
		l-0.7,2.7l-113.1-29l0.7-2.7l23.5,6C14.7,336.4,7,321.2,11.7,302.9z M14.3,303.5c-5.1,20.1,5.8,38.5,28,44.2s40.6-5.2,45.8-25.3
		c5.4-21.1-5.1-38.2-28-44.1C37.1,272.5,19.7,282.5,14.3,303.5z"/>
	<path class="st0" d="M41.9,233.3l-6,11.4l-2.6-1.4l6-11.4l-17.9-9.5l1.4-2.6l17.9,9.5l11.7-22.1l2.6,1.4l-11.7,22.1l49.1,25.9
		c12.6,6.7,18,4.3,23.6-6.3l3.9-7.4l2.6,1.4l-4,7.7c-6.3,12-13.8,14.5-27.4,7.3L41.9,233.3z"/>
	<path class="st0" d="M45.9,162.1l1.9-2.2l38.4,32.7c-9.3-12.9-6.8-27.2,2.9-38.5c11.2-13.2,28.5-17.6,47.2-1.7l35.2,30l-1.8,2.1
		l-35.5-30.2c-16.1-13.7-31.8-11.8-43.2,1.5c-11.7,13.8-11.5,31.2,7.4,47.3l32.1,27.4l-1.9,2.2L45.9,162.1z"/>
	<path class="st0" d="M165.9,59.6l2.5-1.5l53.7,88.4l-2.5,1.5L165.9,59.6z"/>
	<path class="st0" d="M282,69.1c-7.4-19.8-22.1-25.8-38.5-19.6c-16.9,6.4-25.1,21.7-16.4,44.9l14.8,39.5l-2.8,1l-27.9-74.3l2.8-1
		l7.4,19.7c-1.8-15.8,7.3-27.1,21.2-32.3c16.2-6.1,33.5-1.6,42.1,21.4l16.3,43.3l-2.6,1L282,69.1z"/>
	<path class="st0" d="M295.2,54.2l53.2-6l0.3,2.6l-53.2,6L295.2,54.2z"/>
	<path class="st0" d="M466.6,63.4c-4.9,32.3-26.2,48.4-61.8,43l-26.9-4.1L393.4,0l26.9,4.1C455.9,9.4,471.5,31.1,466.6,63.4z
		 M405.2,103.8c34.3,5.2,54-10.9,58.5-40.8s-9.5-51.1-43.8-56.3l-24-3.6l-14.7,97.1L405.2,103.8z"/>
	<path class="st0" d="M502.5,136.4c-19.8-9.8-27.5-30.5-16.2-53.4s32.5-29.3,52.3-19.5c21.7,10.8,24.9,31.8,17.6,46.7
		c-1.7,3.4-2.3,4.7-3.7,7l-64.2-31.7c-10.9,23-0.6,40.7,15.3,48.6c15.8,7.8,32,5.2,41.3-7.8l2.6,1.3
		C537.9,141,520.9,145.5,502.5,136.4z M489.5,83l61.9,30.6c12.7-22.3,1.8-40.1-14-47.9C521.2,57.7,500.7,60.4,489.5,83z"/>
	<path class="st0" d="M630.7,128.2c16.5,15.7,17.4,37.8,0,56.1s-39.6,18.6-56.1,2.9c-13.7-13.1-15.3-30-8.6-43l-42.4,44.7l-2-1.9
		l80.4-84.6l2,1.9l-16.7,17.6C600,114.5,616.9,115.2,630.7,128.2z M628.9,130.2c-15-14.3-36.4-13.7-52.2,2.9s-15.2,38-0.2,52.3
		c15.8,15,35.8,14.2,52.1-3S644.6,145.1,628.9,130.2z"/>
	<path class="st0" d="M676.7,188.3l-7.1-10.8l2.5-1.6l7.1,10.8l17-11.1l1.6,2.5l-17,11.1l13.7,20.9l-2.5,1.6l-13.7-20.9l-46.5,30.4
		c-11.9,7.8-12.5,13.6-5.9,23.7l4.6,7l-2.5,1.6l-4.7-7.3c-7.4-11.3-6-19.1,6.9-27.5L676.7,188.3z"/>
	<path class="st0" d="M737.1,226.4l1,2.8l-47.2,17.6c15.8-1.8,27.1,7.3,32.3,21.2c6.1,16.3,1.5,33.5-21.5,42.1l-43.4,16.2l-1-2.6
		l43.7-16.3c19.8-7.4,25.8-22,19.7-38.4c-6.3-16.9-21.6-25.2-44.9-16.5l-39.5,14.8l-1-2.8L737.1,226.4z"/>
	<path class="st0" d="M768.2,381.2l0.1,2.9l-103.4,3.8l-0.1-2.9L768.2,381.2z"/>
	<path class="st0" d="M703.4,478c20.9,3.1,33.3-6.8,35.8-24.1c2.7-17.9-6.7-32.5-31.3-36.2l-41.7-6.2l0.4-2.9l78.5,11.7l-0.4,2.9
		l-20.8-3.1c14.7,6.1,20.1,19.5,17.9,34.2c-2.6,17.2-14.9,30-39.2,26.4l-45.8-6.8l0.4-2.8L703.4,478z"/>
	<path class="st0" d="M710,496.8l-20.6,49.4l-2.4-1l20.6-49.4L710,496.8z"/>
	<path class="st0" d="M618.5,642c-25.8-20-29.4-46.5-7.4-74.9l16.7-21.5l81.8,63.4l-16.7,21.5C670.8,659,644.3,662,618.5,642z
		 M613.2,568.7c-21.3,27.4-16.8,52.4,7.1,71c23.9,18.6,49.2,16.6,70.5-10.8l14.9-19.2l-77.6-60.2L613.2,568.7z"/>
	<path class="st0" d="M537.3,637.9c18.1-12.5,40.1-9.3,54.6,11.8c14.5,21,9.8,42.7-8.3,55.2c-20,13.8-39.9,6.3-49.4-7.3
		c-2.2-3.1-3-4.4-4.4-6.6l58.9-40.7c-14.8-20.7-35.3-20.3-49.9-10.2c-14.5,10-20.1,25.5-13.2,39.9l-2.4,1.7
		C516.1,666.6,520.4,649.6,537.3,637.9z M590.2,652.4l-56.8,39.3c13.3,21.9,34.2,21,48.7,11C597,692.4,604.6,673.2,590.2,652.4z"/>
	<path class="st0" d="M482.1,753.9c-21.7,6.8-41.5-3.2-49-27.3s3-43.6,24.8-50.4c18.1-5.7,33.6,1.2,41.8,13.4l-18.4-58.8l2.7-0.8
		l34.8,111.4l-2.7,0.8l-7.2-23.1C509.1,733.8,500.2,748.3,482.1,753.9z M481.3,751.4c19.8-6.2,29.7-25.1,22.9-47
		s-25.8-31.8-45.6-25.6c-20.8,6.5-29.8,24.4-22.7,47S460.6,757.9,481.3,751.4z"/>
	<path class="st0" d="M407.1,764.8l12.9-0.9l0.2,2.9l-12.9,0.9l1.4,20.2l-2.9,0.2l-1.4-20.2l-24.9,1.7l-0.2-2.9l24.9-1.7l-3.8-55.4
		c-1-14.2-5.8-17.6-17.8-16.8l-8.4,0.6l-0.2-2.9l8.7-0.6c13.5-0.9,19.6,4.1,20.6,19.5L407.1,764.8z"/>
	<path class="st0" d="M344.6,799l-2.9-0.4l7.5-49.9c-6.1,14.7-19.5,20.1-34.2,17.9c-17.2-2.6-30-14.9-26.3-39.2l6.9-45.8l2.8,0.4
		l-6.9,46.1c-3.2,20.9,6.7,33.3,24,35.9c17.9,2.7,32.5-6.7,36.2-31.3L358,691l2.9,0.4L344.6,799z"/>
</g>
</svg>
