<svg width="1502" height="1182" viewBox="0 0 1502 1182" fill="none" xmlns="http://www.w3.org/2000/svg">
<path d="M86.3961 672.929C58.0334 572.605 82.5465 476.809 161.907 384.28C194.311 346.465 229.638 311.17 271.666 279.7C282.365 271.662 294.661 264.802 306.969 258.452C339.884 241.634 372.059 223.342 406.576 209.547C475.219 182.044 546.348 166.077 621.21 165.363C705.464 164.487 781.367 178.912 849.533 212.292C876.7 225.564 905.36 237.271 934.376 248.283C978.992 265.324 1029.61 265.747 1080.06 265.389C1138.27 264.927 1195.18 268.243 1248.63 283.096C1294.01 295.765 1327.94 319.099 1353.47 350.163C1407.48 415.928 1421.02 490.372 1387.38 571.099C1368.23 616.804 1334.74 659.373 1294.05 697.716C1232.06 756.215 1169.23 814.184 1095.08 863.728C1084.13 871.106 1073.46 878.83 1061.71 885.363C1042.9 895.632 1031.59 908.726 1023.79 925.544C1001.19 974.175 954.301 1004.07 895.675 1023.69C836.95 1043.33 782.33 1034.68 729.176 1021.61C704.118 1015.45 681.599 1004.61 656.616 998.334C619.501 989.14 581.004 982.921 543.609 974.303C469.468 957.227 393.339 943.16 322.484 920.633C252.4 898.342 198.937 857.869 154.612 809.708C117.31 769.093 98.3473 722.515 86.3961 672.929Z" fill="#A0D2E3"/>
</svg>
