<svg width="820" height="238" viewBox="0 0 820 238" fill="none" xmlns="http://www.w3.org/2000/svg">
<path d="M116.264 85.5718C115.334 28.1977 87.0883 8.72971 70.3499 2.24037C62.5619 -0.746789 53.7277 -0.746789 45.9396 2.24037C29.2012 8.72971 0.955037 28.1977 0.0251226 85.5718C-1.13727 155.615 38.3841 141.195 46.5208 170.036C50.5892 184.354 54.6576 259.651 43.0337 322.484C31.4097 385.318 24.4354 445.061 36.0593 464.632C39.8952 471.018 46.0559 474.417 50.9379 476.271C55.5875 477.92 60.8183 477.92 65.3516 476.271C70.2337 474.52 76.3943 471.121 80.2302 464.632C91.8542 445.061 84.8798 385.318 73.2559 322.484C61.6319 259.651 65.7003 184.354 69.7687 170.036C77.9054 141.195 117.427 155.615 116.264 85.5718Z" fill="#E5F0F4"/>
<path d="M292.192 85.5718C291.262 28.1977 263.016 8.72971 246.278 2.24037C238.49 -0.746789 229.655 -0.746789 221.867 2.24037C205.129 8.72971 176.883 28.1977 175.953 85.5718C174.79 155.615 214.312 141.195 222.449 170.036C226.517 184.354 230.585 259.651 218.961 322.484C207.337 385.318 200.363 445.061 211.987 464.632C215.823 471.018 221.984 474.417 226.866 476.271C231.515 477.92 236.746 477.92 241.279 476.271C246.161 474.52 252.322 471.121 256.158 464.632C267.782 445.061 260.808 385.318 249.184 322.484C237.56 259.651 241.628 184.354 245.696 170.036C253.833 141.195 293.355 155.615 292.192 85.5718Z" fill="#E5F0F4"/>
<path d="M468.119 85.5718C467.189 28.1977 438.943 8.72971 422.205 2.24037C414.417 -0.746789 405.583 -0.746789 397.795 2.24037C381.056 8.72971 352.81 28.1977 351.88 85.5718C350.718 155.615 390.239 141.195 398.376 170.036C402.444 184.354 406.513 259.651 394.889 322.484C383.265 385.318 376.29 445.061 387.914 464.632C391.75 471.018 397.911 474.417 402.793 476.271C407.442 477.92 412.673 477.92 417.207 476.271C422.089 474.52 428.249 471.121 432.085 464.632C443.709 445.061 436.735 385.318 425.111 322.484C413.487 259.651 417.555 184.354 421.624 170.036C429.76 141.195 469.282 155.615 468.119 85.5718Z" fill="#27435E"/>
<path d="M644.047 85.5718C643.117 28.1977 614.871 8.72971 598.133 2.24037C590.345 -0.746789 581.51 -0.746789 573.722 2.24037C556.984 8.72971 528.738 28.1977 527.808 85.5718C526.645 155.615 566.167 141.195 574.304 170.036C578.372 184.354 582.44 259.651 570.816 322.484C559.192 385.318 552.218 445.061 563.842 464.632C567.678 471.018 573.839 474.417 578.721 476.271C583.37 477.92 588.601 477.92 593.134 476.271C598.016 474.52 604.177 471.121 608.013 464.632C619.637 445.061 612.663 385.318 601.039 322.484C589.415 259.651 593.483 184.354 597.551 170.036C605.688 141.195 645.21 155.615 644.047 85.5718Z" fill="#E5F0F4"/>
<path d="M819.975 85.5718C819.045 28.1977 790.799 8.72971 774.06 2.24037C766.272 -0.746789 757.438 -0.746789 749.65 2.24037C732.912 8.72971 704.665 28.1977 703.736 85.5718C702.573 155.615 742.095 141.195 750.231 170.036C754.3 184.354 758.368 259.651 746.744 322.484C735.12 385.318 728.146 445.061 739.77 464.632C743.606 471.018 749.766 474.417 754.648 476.271C759.298 477.92 764.529 477.92 769.062 476.271C773.944 474.52 780.105 471.121 783.941 464.632C795.565 445.061 788.59 385.318 776.966 322.484C765.342 259.651 769.411 184.354 773.479 170.036C781.616 141.195 821.137 155.615 819.975 85.5718Z" fill="#E5F0F4"/>
</svg>
