<svg width="166" height="296" viewBox="0 0 166 296" fill="none" xmlns="http://www.w3.org/2000/svg">
<path d="M165.216 121.601C163.895 40.0701 123.756 12.4053 99.9699 3.18365C88.9028 -1.06122 76.3491 -1.06122 65.282 3.18365C41.496 12.4053 1.35714 40.0701 0.0357002 121.601C-1.61611 221.136 54.5453 200.643 66.1079 241.628C71.8892 261.974 77.6706 368.974 61.1525 458.263C44.6345 547.551 34.7236 632.449 51.2417 660.26C56.6926 669.335 65.4472 674.166 72.3848 676.8C78.992 679.142 86.4251 679.142 92.8672 676.8C99.8048 674.312 108.559 669.482 114.01 660.26C130.528 632.449 120.618 547.551 104.099 458.263C87.5814 368.974 93.3627 261.974 99.144 241.628C110.707 200.643 166.868 221.136 165.216 121.601Z" fill="#A0D2E3"/>
</svg>
