<svg width="505" height="201" viewBox="0 0 505 201" fill="none" xmlns="http://www.w3.org/2000/svg">
<path d="M166.84 0.0434265C54.9773 1.65074 17.0204 50.4726 4.36806 79.4041C-1.45602 92.8653 -1.45602 108.135 4.36806 121.596C17.0204 150.527 54.9773 199.349 166.84 200.957C303.405 202.966 275.288 134.655 331.521 120.591C359.436 113.559 506.244 106.527 628.75 126.619C751.257 146.71 867.738 158.765 905.896 138.674C918.348 132.043 924.975 121.395 928.59 112.957C931.803 104.92 931.803 95.879 928.59 88.0434C925.176 79.605 918.549 68.9566 905.896 62.3265C867.738 42.2352 751.257 54.29 628.75 74.3813C506.244 94.4726 359.436 87.4407 331.521 80.4087C275.288 66.3448 303.405 -1.9657 166.84 0.0434265Z" fill="#A0D2E3"/>
</svg>
