<svg width="367" height="600" viewBox="0 0 367 600" fill="none" xmlns="http://www.w3.org/2000/svg">
<path d="M70.2 329.6C70.2 397.6 115.4 443.6 174.2 443.6C214.2 443.6 242.6 422.4 255.8 398.8V444.8C255.8 491.6 226.6 516.4 187.8 516.4C151.8 516.4 125.8 498.4 117.8 472H81.8C89 518.8 130.2 548 187.8 548C252.2 548 292.6 505.2 292.6 444.8V220.8H255.8V260.8C243 237.2 214.2 217.2 174.2 217.2C115.4 217.2 70.2 261.2 70.2 329.6ZM255.8 330C255.8 381.6 221.4 411.6 181.4 411.6C141.4 411.6 107.4 381.2 107.4 329.6C107.4 278 141.4 248.8 181.4 248.8C221.4 248.8 255.8 279.2 255.8 330Z" fill="white"/>
<path d="M255.8 398.8H256.8V394.964L254.927 398.312L255.8 398.8ZM117.8 472L118.757 471.71L118.542 471H117.8V472ZM81.8 472V471H80.6344L80.8116 472.152L81.8 472ZM292.6 220.8H293.6V219.8H292.6V220.8ZM255.8 220.8V219.8H254.8V220.8H255.8ZM255.8 260.8L254.921 261.277L256.8 260.8H255.8ZM69.2 329.6C69.2 398.085 114.783 444.6 174.2 444.6V442.6C116.017 442.6 71.2 397.115 71.2 329.6H69.2ZM174.2 444.6C214.577 444.6 243.304 423.191 256.673 399.288L254.927 398.312C241.896 421.609 213.823 442.6 174.2 442.6V444.6ZM254.8 398.8V444.8H256.8V398.8H254.8ZM254.8 444.8C254.8 467.987 247.572 485.612 235.646 497.44C223.716 509.271 206.987 515.4 187.8 515.4V517.4C207.413 517.4 224.684 511.129 237.054 498.86C249.428 486.588 256.8 468.413 256.8 444.8H254.8ZM187.8 515.4C152.134 515.4 126.601 497.594 118.757 471.71L116.843 472.29C124.999 499.206 151.466 517.4 187.8 517.4V515.4ZM117.8 471H81.8V473H117.8V471ZM80.8116 472.152C88.1091 519.586 129.87 549 187.8 549V547C130.53 547 89.8909 518.014 82.7884 471.848L80.8116 472.152ZM187.8 549C220.228 549 246.696 538.219 265.059 519.755C283.42 501.293 293.6 475.227 293.6 444.8H291.6C291.6 474.773 281.58 500.307 263.641 518.345C245.704 536.381 219.772 547 187.8 547V549ZM293.6 444.8V220.8H291.6V444.8H293.6ZM292.6 219.8H255.8V221.8H292.6V219.8ZM254.8 220.8V260.8H256.8V220.8H254.8ZM256.679 260.323C243.694 236.382 214.544 216.2 174.2 216.2V218.2C213.856 218.2 242.306 238.018 254.921 261.277L256.679 260.323ZM174.2 216.2C144.543 216.2 118.276 227.301 99.4264 247.06C80.5778 266.818 69.2 295.175 69.2 329.6H71.2C71.2 295.625 82.4222 267.782 100.874 248.44C119.324 229.099 145.057 218.2 174.2 218.2V216.2ZM254.8 330C254.8 355.57 246.281 375.71 232.884 389.452C219.483 403.198 201.146 410.6 181.4 410.6V412.6C201.654 412.6 220.517 405.002 234.316 390.848C248.119 376.69 256.8 356.03 256.8 330H254.8ZM181.4 410.6C161.658 410.6 143.423 403.101 130.121 389.257C116.821 375.416 108.4 355.174 108.4 329.6H106.4C106.4 355.626 114.979 376.384 128.679 390.643C142.377 404.899 161.142 412.6 181.4 412.6V410.6ZM108.4 329.6C108.4 304.027 116.82 284.09 130.114 270.551C143.411 257.007 161.646 249.8 181.4 249.8V247.8C161.154 247.8 142.389 255.193 128.686 269.149C114.98 283.11 106.4 303.573 106.4 329.6H108.4ZM181.4 249.8C220.824 249.8 254.8 279.728 254.8 330H256.8C256.8 278.672 221.976 247.8 181.4 247.8V249.8Z" fill="white"/>
<line x1="-4.37114e-08" y1="220.5" x2="367" y2="220.5" stroke="#F2CF1D" stroke-dasharray="25 25"/>
</svg>
