<svg width="219" height="66" viewBox="0 0 219 66" fill="none" xmlns="http://www.w3.org/2000/svg">
<path d="M29.208 49H35.032L42.904 4.392H37.08L33.624 24.104H10.904L14.424 4.392H8.6L0.664 49H6.488L10.136 28.648H32.792L29.208 49ZM44.914 49H50.738L56.946 13.928H51.122L44.914 49ZM55.09 8.232C57.266 8.232 59.314 6.504 59.698 4.264C60.082 2.024 58.674 0.295998 56.498 0.295998C54.322 0.295998 52.274 2.024 51.89 4.264C51.506 6.504 52.914 8.232 55.09 8.232ZM87.096 39.464C87.096 28.456 69.432 30.76 69.432 23.208C69.432 20.008 72.44 18.024 76.6 18.024C81.144 18.024 84.088 20.52 83.64 24.36H89.208C90.04 17.768 84.6 13.352 76.984 13.352C69.176 13.352 63.608 17.384 63.608 23.4C63.608 34.856 81.336 32.488 81.336 39.656C81.336 43.048 77.944 44.904 73.336 44.904C68.472 44.904 65.912 42.28 66.232 38.696H60.536C59.768 45.352 65.4 49.576 73.016 49.576C81.08 49.576 87.096 45.736 87.096 39.464ZM97.0455 39.4C95.8295 46.44 98.9015 49 105.11 49H110.358L111.253 44.072H106.966C103.382 44.072 102.294 42.856 102.934 39.4L106.582 18.728H115.734L116.566 13.928H107.478L109.014 5.096H103.126L101.59 13.928H97.0455L96.2135 18.728H100.694L97.0455 39.4ZM154.15 28.008C154.15 19.112 148.006 13.352 139.11 13.352C126.95 13.352 117.99 23.016 117.99 34.984C117.99 43.752 123.942 49.576 132.838 49.576C144.934 49.576 154.15 40.04 154.15 28.008ZM124.006 34.728C124.006 26.024 129.702 18.28 138.278 18.28C143.59 18.28 148.134 21.544 148.134 28.328C148.134 36.904 142.054 44.648 133.542 44.648C128.294 44.648 124.006 41.32 124.006 34.728ZM167.568 29.928C169.04 21.8 173.648 19.304 179.216 19.304H180.752L181.84 13.288C176.272 13.288 171.984 16.104 169.232 20.584L170.384 13.928H164.56L158.352 49H164.176L167.568 29.928ZM192.275 48.616L182.355 65.512H188.435L218.643 13.928H212.627L196.691 42.216L190.739 13.928H184.275L192.275 48.616Z" fill="white"/>
</svg>
