<?xml version="1.0" encoding="utf-8"?>
<!-- Generator: Adobe Illustrator 24.3.0, SVG Export Plug-In . SVG Version: 6.00 Build 0)  -->
<svg version="1.1" id="Layer_1" xmlns="http://www.w3.org/2000/svg" xmlns:xlink="http://www.w3.org/1999/xlink" x="0px" y="0px"
	 viewBox="0 0 764.9 754.7" style="enable-background:new 0 0 764.9 754.7;" xml:space="preserve">
<style type="text/css">
	.st0{fill:#FFFFFF;}
</style>
<g>
	<path class="st0" d="M155.4,625.2l46.7,37l33-41.6l12,9.5l-72.7,91.8l-12-9.5l31.9-40.3l-46.7-37l-31.9,40.3l-12-9.5l72.7-91.8
		l12,9.5L155.4,625.2z"/>
	<path class="st0" d="M74,629.1c-4.7,3.5-11.1,2.5-14.6-2.2c-3.3-4.5-2.3-10.8,2.4-14.3s11.1-2.5,14.4,1.9
		C79.7,619.3,78.8,625.6,74,629.1z M92.9,612l-9.1-12.3l74-54.7l9.1,12.3L92.9,612z"/>
	<path class="st0" d="M133.8,498.7c8.7,19.7,4.1,38.2-10.8,46l-6.4-14.4c7.8-4.4,10.7-14.3,5.5-26.2c-4.9-11.1-13.2-14.7-20.1-11.7
		c-18.7,8.3,14.3,53.2-17,67.1c-12.9,5.7-28.9-1.7-37.2-20.4c-8.3-18.6-3.7-35.3,12.3-43.5l6.2,14c-8.2,4.4-11.4,13.5-6.5,24.8
		c4.6,10.3,12.2,14.2,19,11.2c20-8.9-12.6-52.8,17.2-66.8C109.7,472.7,125.6,480.1,133.8,498.7z"/>
	<path class="st0" d="M37.8,463.8l2,11.8l-12.4,2.1l-2-11.8l-22.9,3.8L0,454.6l22.9-3.8l-4-23.7l12.4-2.1l4,23.7l53.5-8.9
		c8.9-1.5,11.5-5.3,10-14.6L97,414.1l12.8-2.1l2.3,13.6c2.7,16.1-2.4,26.3-20.7,29.3L37.8,463.8z"/>
	<path class="st0" d="M113.5,361.5c-3,25.9-23.7,43.4-52.7,40c-28.9-3.4-44.7-25.9-41.6-51.8c3.1-26,23.6-44.1,52.5-40.7
		C100.6,312.5,116.5,335.5,113.5,361.5z M100.1,360c1.9-15.9-7.2-32.6-30.3-35.4c-23-2.7-35.7,11.2-37.5,26.9
		c-1.9,16,7.3,31.8,30.3,34.5C85.7,388.7,98.2,375.8,100.1,360z"/>
	<path class="st0" d="M130.6,289.6l-6,14L40,267.3l6-14l13.7,5.9c-7.4-8.8-9.3-20.5-3.5-33.9l14.5,6.2l-1.6,3.7
		c-5.8,13.4-4.1,26.2,15.5,34.6L130.6,289.6z"/>
	<path class="st0" d="M114.2,145.9l9.8-12.4l71.5,127.7l-9.8,12.4l-23.4-41.8l-94.4-27.6l10.6-13.3l76.4,23.8L114.2,145.9z"/>
	<path class="st0" d="M282.6,84.6l-55.1,22.8l20.3,49l-14.1,5.9L188.8,54.2l14.1-5.9l19.7,47.5L277.7,73l-19.7-47.5l14.1-5.9
		L317,127.8l-14.1,5.9L282.6,84.6z"/>
	<path class="st0" d="M318.9,11.7c-0.7-5.8,3.2-10.9,9-11.6c5.5-0.7,10.6,3.2,11.3,9.1s-3.2,10.9-8.7,11.6
		C324.7,21.5,319.7,17.6,318.9,11.7z M324.6,36.6l15.2-1.9l11.5,91.3l-15.2,1.9L324.6,36.6z"/>
	<path class="st0" d="M403.6,127.6c-21.4-1.9-35.4-15-34.9-31.8l15.7,1.4c0,8.9,7.3,16.3,20.2,17.5c12,1.1,19.3-4.3,20-11.9
		c1.8-20.4-53.4-13.4-50.4-47.6c1.3-14.1,15.5-24.4,35.9-22.6c20.2,1.8,32.6,13.9,32,31.9l-15.2-1.4c0.2-9.3-6.3-16.6-18.5-17.7
		c-11.2-1-18.4,3.7-19.1,11.1c-2,21.8,52.3,14.7,50,47.5C438.1,119.2,423.8,129.4,403.6,127.6z"/>
	<path class="st0" d="M480.8,60.6l-11.2-4l4.2-11.9l11.2,4l7.8-21.8l14.4,5.1l-7.8,21.8L522,62l-4.2,11.9l-22.6-8.1L477,116.9
		c-3,8.5-1,12.7,7.9,15.8l10.6,3.8l-4.3,12.2l-13-4.6c-15.4-5.5-21.8-14.9-15.6-32.3L480.8,60.6z"/>
	<path class="st0" d="M533.2,176.5c-21.1-15.3-26.3-41.9-9.1-65.6c17.1-23.5,44.4-26.3,65.5-11c21.2,15.4,26.9,42.2,9.8,65.7
		C582.3,189.3,554.4,191.9,533.2,176.5z M541.1,165.6c12.9,9.4,32,9.7,45.7-9.2c13.6-18.8,7.7-36.6-5.1-45.9
		c-13.1-9.5-31.3-9.2-44.9,9.5C523.1,139,528.2,156.3,541.1,165.6z"/>
	<path class="st0" d="M587.7,226.6l-9.3-12.1l72.9-56.2l9.3,12.1l-11.8,9.1c11.3-2.1,22.4,1.8,31.3,13.4l-12.5,9.6l-2.5-3.2
		c-8.9-11.6-20.9-16.4-37.8-3.3L587.7,226.6z"/>
	<path class="st0" d="M721.3,282.2l6,14.6L581,297.2l-6-14.6l47.9-0.1l70-69l6.5,15.7l-57.9,55.2L721.3,282.2z"/>
	<path class="st0" d="M692.7,459.2l6.9-59.2l-52.7-6.1l1.8-15.2l116.3,13.5l-1.8,15.2l-51.1-5.9l-6.9,59.2l51.1,5.9l-1.8,15.2
		l-116.3-13.5L640,453L692.7,459.2z"/>
	<path class="st0" d="M714.2,519.3l-5.7,14.2l-85.4-34.4l5.7-14.2L714.2,519.3z M738.7,526.4c5.5,2.2,8,8.1,5.8,13.5
		c-2.1,5.1-8,7.7-13.4,5.5c-5.5-2.2-8-8.1-5.9-13.2C727.4,526.7,733.3,524.2,738.7,526.4z"/>
	<path class="st0" d="M596.3,543.9c12.2-17.7,30.4-23.6,44.8-14.9l-8.9,13c-7.8-4.3-17.8-1.6-25.1,9c-6.8,10-5.6,18.9,0.6,23.2
		c16.9,11.6,37.8-40.1,66.1-20.7c11.6,8,13.7,25.5,2.1,42.4c-11.5,16.8-28.1,21.7-43.5,12.4l8.6-12.6c8,4.7,17.5,2.6,24.5-7.5
		c6.4-9.3,5.7-17.9-0.4-22c-18-12.3-38.4,38.5-65.9,20.4C586.7,578.1,584.8,560.7,596.3,543.9z"/>
	<path class="st0" d="M617.1,643.9l9-7.9l8.3,9.5l-9,7.9l15.3,17.4l-11.5,10.1l-15.3-17.4l-18.1,15.8l-8.3-9.5l18.1-15.8l-35.8-40.8
		c-6-6.8-10.6-7-17.7-0.8l-8.5,7.4l-8.5-9.7l10.4-9.1c12.3-10.7,23.6-11.8,35.8,2.1L617.1,643.9z"/>
	<path class="st0" d="M490.3,633.3c23.6-11,49.4-2.6,61.7,23.9c12.3,26.4,1.4,51.6-22.2,62.6c-23.8,11.1-49.9,3-62.2-23.3
		C455.3,670,466.6,644.4,490.3,633.3z M496,645.5c-14.5,6.7-24,23.2-14.2,44.4c9.8,21,28.2,24.5,42.6,17.8
		c14.6-6.8,23.3-22.9,13.5-43.9C528,642.7,510.5,638.8,496,645.5z"/>
	<path class="st0" d="M420.1,656.5l15.1-2.2l13.4,91.1l-15.1,2.2l-2.2-14.8c-3.7,10.9-12.5,18.7-27,20.8l-2.3-15.6l4-0.6
		c14.5-2.1,24.5-10.2,21.4-31.3L420.1,656.5z"/>
	<path class="st0" d="M306.4,746l-15.7-1.8l70.9-128l15.7,1.8l-23.2,41.9l26.2,94.8l-16.9-2l-20-77.5L306.4,746z"/>
</g>
</svg>
