<svg width="188" height="46" viewBox="0 0 188 46" fill="none" xmlns="http://www.w3.org/2000/svg">
<path d="M29.208 45H35.032L42.904 0.391998H37.08L33.624 20.104H10.904L14.424 0.391998H8.6L0.664 45H6.488L10.136 24.648H32.792L29.208 45ZM81.65 24.008C81.65 15.112 75.506 9.352 66.61 9.352C54.45 9.352 45.49 19.016 45.49 30.984C45.49 39.752 51.442 45.576 60.338 45.576C72.434 45.576 81.65 36.04 81.65 24.008ZM51.506 30.728C51.506 22.024 57.202 14.28 65.778 14.28C71.09 14.28 75.634 17.544 75.634 24.328C75.634 32.904 69.554 40.648 61.042 40.648C55.794 40.648 51.506 37.32 51.506 30.728ZM136.476 45H142.236L145.884 24.328C147.676 14.28 142.3 9.288 134.364 9.288C128.988 9.288 123.484 12.04 120.54 17.096C119.196 11.912 114.844 9.288 109.084 9.288C104.476 9.288 99.9315 11.272 96.9875 14.984L97.8835 9.928H92.0595L85.8515 45H91.6755L95.1315 25.544V25.672C96.4115 18.12 101.148 14.344 107.036 14.344C112.86 14.344 115.996 17.992 114.716 25.16L111.196 45H116.956L120.604 24.712C122.14 17.8 126.684 14.344 132.316 14.344C138.076 14.344 141.212 17.992 139.996 25.16L136.476 45ZM172.141 14.28C178.157 14.28 182.573 18.056 181.293 25.224H159.085C160.877 18.184 166.381 14.28 172.141 14.28ZM185.005 34.184H178.733C176.813 37.96 173.037 40.648 167.789 40.648C161.709 40.648 157.421 36.616 158.317 29.448H186.349C186.733 28.232 186.989 27.208 187.181 25.992C188.845 16.52 183.405 9.352 173.229 9.352C163.053 9.352 154.669 16.328 152.685 27.4C150.701 38.536 156.909 45.576 166.893 45.576C175.597 45.576 182.061 40.584 185.005 34.184Z" fill="white"/>
</svg>
