<?xml version="1.0" encoding="utf-8"?>
<!-- Generator: Adobe Illustrator 24.3.0, SVG Export Plug-In . SVG Version: 6.00 Build 0)  -->
<svg version="1.1" id="Layer_1" xmlns="http://www.w3.org/2000/svg" xmlns:xlink="http://www.w3.org/1999/xlink" x="0px" y="0px"
	 viewBox="0 0 858.2 840.6" style="enable-background:new 0 0 858.2 840.6;" xml:space="preserve">
<style type="text/css">
	.st0{fill:#DDDDDD;}
</style>
<g>
	<path class="st0" d="M162.9,681.8l47.7,40.4l40.1-47.4l22.3,18.9l-94.2,111.4l-22.3-18.9l38.7-45.8L147.5,700l-38.7,45.8
		l-22.3-18.9l94.2-111.4l22.3,18.9L162.9,681.8z"/>
	<path class="st0" d="M152.7,555.1c14.2,30.3,3.7,63.1-29.2,78.5c-33.1,15.5-65.2,1.7-79.4-28.6s-4.3-63.8,28.9-79.3
		C105.9,510.3,138.4,524.6,152.7,555.1z M129.6,565.9c-6.6-14-23.1-22.7-43.9-12.9c-21,9.8-24.9,27.6-18.4,41.6s22.5,22,43.5,12.1
		C131.7,597,136.3,580.1,129.6,565.9z"/>
	<path class="st0" d="M67.5,329.3c-18.3-1.8-28.9,7.4-30.4,22.8c-1.5,15.6,7,26.7,25.3,28.5l63.6,6.3l-2.9,29.1l-63.6-6.3
		c-18.3-1.8-28.9,7.4-30.4,22.8c-1.6,15.8,7,26.9,25.3,28.8l63.6,6.3l-2.9,29.1L0,485.4l2.9-29.1l13.9,1.4
		C8,449.4,3.1,436.6,4.6,422.2c1.8-17.9,10.9-31.9,26.1-38.4c-12.4-8.8-19.8-24.9-18.1-41.7c2.7-27.7,22.1-45.5,54-42.3l67.6,6.7
		l-2.9,29.1L67.5,329.3z"/>
	<path class="st0" d="M181,259.7c-19.8,27.2-53.2,33.1-82.5,11.7c-29.5-21.6-34.2-54.5-14-82.2c19.7-27,52-32.7,79.9-12.3
		c3,2.2,6,4.6,8.6,7.3l-49.9,68.4c14.7,8.9,29.4,5.1,38-6.7c7.4-10.1,6.4-19.4,2.4-27l18.6-25.5C195.6,211,197.9,236.5,181,259.7z
		 M107.3,240.8l32.4-44.4c-12.6-8.7-27.5-4.5-36.4,7.6C95.1,215.4,95.9,229.6,107.3,240.8z"/>
	<path class="st0" d="M318.3,88.7L259.9,111l22.2,58l-27.3,10.4L202.7,43.2L230,32.7l21.4,56l58.4-22.3l-21.4-56L315.7,0l52.1,136.3
		l-27.3,10.4L318.3,88.7z"/>
	<path class="st0" d="M434.2,141.2c-33.4-2.2-57.1-27.2-54.7-63.5c2.4-36.5,30-57.9,63.4-55.7s57.9,27.1,55.5,63.6
		C496,121.8,467.8,143.4,434.2,141.2z M435.9,115.7c15.4,1,31-9.3,32.5-32.2c1.5-23.1-12.1-35.1-27.6-36.2
		c-15.4-1-30.1,9.1-31.7,32.3C407.7,102.5,420.3,114.7,435.9,115.7z"/>
	<path class="st0" d="M673,175.7c10.5-15.1,7.5-28.9-5.2-37.7c-12.9-8.9-26.8-6.8-37.2,8.3L594.2,199l-24.1-16.6l36.3-52.6
		c10.5-15.1,7.5-28.9-5.2-37.7c-13.1-9-27-6.9-37.4,8.2l-36.3,52.6l-24.1-16.6L569.2,41l24.1,16.6l-8,11.5
		c11.5-3.8,25.1-1.7,36.9,6.5c14.8,10.2,22.6,25,20.9,41.4c13.7-6.6,31.3-5.3,45.3,4.3c22.9,15.8,29.1,41.4,10.9,67.7l-38.5,56
		l-24.1-16.6L673,175.7z"/>
	<path class="st0" d="M679.3,308.7c-14.3-30.5-3.4-62.5,29.5-78c33.1-15.5,64.2-3.7,78.8,27.3c14.2,30.3,3.5,61.3-27.7,75.9
		c-3.4,1.6-6.9,3-10.6,4l-35.9-76.7c-14.9,8.6-18.7,23.3-12.5,36.5c5.3,11.4,13.9,14.9,22.5,15.1l13.4,28.6
		C714.9,344.9,691.4,334.6,679.3,308.7z M731.3,253.2l23.3,49.8c13.6-6.8,17.2-21.9,10.8-35.5C759.5,254.8,746.7,248.6,731.3,253.2z
		"/>
	<path class="st0" d="M762.5,511.4l8.6-61.9l-61.5-8.6l4-29L858.1,432l-4,29l-59.4-8.3l-8.6,61.9l59.4,8.3l-4,29L697,531.8l4-29
		L762.5,511.4z"/>
	<path class="st0" d="M660.7,587.5c18.1-28.1,51.5-36.7,82-17c30.8,19.8,36.1,54.3,18,82.4s-51.7,37.5-82.5,17.7
		C647.7,651,642.5,615.8,660.7,587.5z M682.1,601.3c-8.4,13-6.9,31.6,12.4,44c19.5,12.6,36.6,6.4,45-6.6s6.6-30.8-12.9-43.3
		C707.3,583,690.6,588.2,682.1,601.3z"/>
	<path class="st0" d="M515.1,780.1c8.2,16.5,21.7,20.5,35.5,13.6c14-7,18.9-20.2,10.7-36.6l-28.6-57.2l26.2-13.1l28.6,57.2
		c8.2,16.5,21.7,20.5,35.5,13.6c14.2-7.1,19.1-20.3,10.8-36.7l-28.6-57.2l26.2-13.1L683.1,754l-26.2,13.1l-6.3-12.5
		c-2.2,11.9-10.6,22.8-23.5,29.3c-16.1,8-32.8,7.8-46.4-1.6c-0.8,15.1-10.5,30-25.6,37.6c-24.9,12.4-50.3,5.5-64.6-23.1L460.3,736
		l26.2-13.1L515.1,780.1z"/>
	<path class="st0" d="M395.6,721.1c33.6,2.3,56.4,27.2,54,63.5c-2.4,36.5-27.8,58-62,55.7c-33.4-2.2-55.4-26.5-53.1-61
		c0.3-3.8,0.7-7.5,1.6-11.2l84.5,5.7c-0.3-17.2-11.3-27.6-25.9-28.6c-12.5-0.8-19.8,5-24.1,12.4l-31.5-2.1
		C346.7,734.8,367,719.2,395.6,721.1z M419,793.5l-54.8-3.7c-0.6,15.3,10.8,25.7,25.9,26.7C404,817.4,415.6,809.2,419,793.5z"/>
</g>
</svg>
