<svg width="280" height="65" viewBox="0 0 280 65" fill="none" xmlns="http://www.w3.org/2000/svg">
<path d="M0.664 48H6.488L14.424 3.392H8.6L0.664 48ZM42.078 48H47.838L51.486 27.328C53.278 17.28 47.902 12.288 39.838 12.288C35.102 12.288 30.494 14.272 27.55 17.984L28.446 12.928H22.622L16.414 48H22.238L25.694 28.48V28.608C27.038 21.056 31.774 17.344 37.726 17.344C43.614 17.344 46.814 20.992 45.598 28.16L42.078 48ZM59.8475 27.008H85.3835L86.2795 22.08H60.7435L59.8475 27.008ZM114.426 3.392H100.538L92.6015 48H106.49C121.146 48 131.642 39.616 134.074 25.792C136.57 11.968 129.018 3.392 114.426 3.392ZM99.2575 43.52L105.53 8.128H113.594C125.178 8.128 130.042 14.912 128.122 25.792C126.201 36.672 118.97 43.52 107.322 43.52H99.2575ZM158.204 17.28C164.22 17.28 168.636 21.056 167.356 28.224H145.148C146.94 21.184 152.444 17.28 158.204 17.28ZM171.068 37.184H164.796C162.876 40.96 159.1 43.648 153.852 43.648C147.772 43.648 143.484 39.616 144.38 32.448H172.412C172.796 31.232 173.052 30.208 173.244 28.992C174.908 19.52 169.468 12.352 159.292 12.352C149.116 12.352 140.732 19.328 138.748 30.4C136.764 41.536 142.972 48.576 152.956 48.576C161.66 48.576 168.124 43.584 171.068 37.184ZM188.419 19.392L189.571 12.928H183.747L174.659 64.64H180.483L184.515 41.536C186.115 45.12 190.019 48.576 196.419 48.576C205.827 48.576 214.339 41.216 216.259 30.336C218.179 19.392 212.227 12.352 202.755 12.352C196.419 12.352 191.235 15.68 188.419 19.392ZM210.307 30.336C208.835 38.592 202.563 43.456 196.099 43.456C189.763 43.456 185.027 38.656 186.499 30.4C187.971 22.272 194.371 17.408 200.707 17.408C207.171 17.408 211.779 22.08 210.307 30.336ZM223.733 38.4C222.517 45.44 225.589 48 231.797 48H237.045L237.941 43.072H233.653C230.069 43.072 228.981 41.856 229.621 38.4L233.269 17.728H242.421L243.253 12.928H234.165L235.701 4.096H229.813L228.277 12.928H223.733L222.901 17.728H227.381L223.733 38.4ZM244.102 48H249.926L253.382 28.48V28.608C254.726 21.056 259.462 17.344 265.414 17.344C271.302 17.344 274.502 20.992 273.286 28.16L269.766 48H275.526L279.174 27.328C280.966 17.28 275.654 12.288 267.846 12.288C262.918 12.288 258.182 14.336 255.238 17.984L258.31 0.639999H252.486L244.102 48Z" fill="white"/>
</svg>
