<svg width="255" height="259" viewBox="0 0 255 259" fill="none" xmlns="http://www.w3.org/2000/svg">
<path d="M69.22 242.978L57.3258 235.809L57.6245 235.32L63.3001 238.742L74.7055 219.76L75.2486 220.086L63.8432 239.068L69.5187 242.489L69.22 242.978Z" fill="white"/>
<path d="M51.5959 233.202L51.1071 232.795L58.2219 224.295C55.3977 226.359 52.2748 225.843 49.7765 223.752C46.8437 221.308 45.8661 217.533 49.3148 213.378L55.8322 205.585L56.2939 205.992L49.7222 213.84C46.735 217.397 47.1695 220.846 50.1295 223.317C53.171 225.87 56.9999 225.788 60.503 221.607L66.4501 214.492L66.9389 214.899L51.5959 233.202Z" fill="white"/>
<path d="M48.0386 196.515C51.1344 200.235 50.8628 205.096 46.5722 208.68C42.2545 212.292 37.4479 211.695 34.325 207.974C30.9033 203.901 32.1254 199.366 34.9224 197.03C35.5741 196.487 35.8185 196.297 36.2802 195.944L46.355 208.001C50.5641 204.335 50.0753 199.882 47.577 196.895C45.1058 193.935 41.6027 193.011 38.5884 194.804L38.1811 194.315C41.304 192.468 45.133 193.066 48.0386 196.515ZM45.9205 208.382L36.1987 196.732C31.6909 200.099 32.2883 204.634 34.7595 207.594C37.3121 210.663 41.657 211.939 45.9205 208.382Z" fill="white"/>
<path d="M16.7551 180.14C15.0443 176.338 16.1034 172.78 18.5474 170.662L13.6865 172.862L13.4421 172.292L36.769 161.701L37.0134 162.271L24.7118 167.865C27.9162 167.404 31.3106 168.951 33.0215 172.726C35.0853 177.288 33.4559 181.85 28.405 184.159C23.354 186.467 18.8461 184.702 16.7551 180.14ZM17.2983 179.895C19.2806 184.24 23.4355 185.734 28.1606 183.588C32.8857 181.443 34.515 177.343 32.5327 172.998C30.6589 168.843 26.2597 167.213 21.6703 169.277C17.081 171.341 15.3974 175.767 17.2983 179.895Z" fill="white"/>
<path d="M24.5217 146.928L24.6846 147.553L20.0681 148.693C23.5712 148.666 25.8523 150.974 26.6127 154.124C27.5088 157.818 26.0967 161.456 20.8557 162.76L11.0524 165.177L10.9166 164.579L20.8013 162.163C25.3092 161.049 26.9929 158.008 26.0696 154.287C25.1191 150.431 21.9962 148.232 16.7008 149.535L7.76657 151.735L7.60364 151.11L24.5217 146.928Z" fill="white"/>
<path d="M1.52068 145.407C0.977568 145.489 0.597387 145.136 0.543076 144.674C0.488764 144.213 0.760322 143.805 1.30344 143.724C1.84655 143.642 2.22673 143.995 2.28105 144.457C2.33536 144.919 2.0638 145.353 1.52068 145.407ZM6.73459 144.24L6.65313 143.588L23.9514 141.415L24.0328 142.067L6.73459 144.24Z" fill="white"/>
<path d="M5.48546 129.358C5.40399 124.85 7.90232 121.89 11.4869 121.266V121.918C8.0381 122.515 6.00142 125.502 6.05573 129.358C6.11004 133.35 8.7713 137.071 14.5283 136.962C20.3125 136.88 22.838 133.079 22.7565 129.087C22.7022 125.203 20.5569 122.325 17.081 121.809V121.157C20.6655 121.673 23.2725 124.552 23.354 129.06C23.4354 133.893 20.1767 137.505 14.5555 137.587C8.96139 137.695 5.56692 134.219 5.48546 129.358Z" fill="white"/>
<path d="M0 113.88L0.0814673 113.228L14.3654 115.21L7.54931 106.33L7.68509 105.407L15.0715 115.102L24.9833 107.661L24.8475 108.557L15.6689 115.4L23.7613 116.514L23.6798 117.165L0 113.88Z" fill="white"/>
<path d="M14.2568 82.3245C16.1034 77.6809 20.5298 75.6713 25.6894 77.708C30.849 79.7447 32.7227 84.2254 30.9033 88.8691C29.3825 92.7523 26.0695 94.436 22.8652 94.1644L27.8075 96.1196L27.5903 96.6899L5.37683 87.9458L5.59408 87.3755L16.565 91.6933C14.0124 89.6294 12.736 86.2078 14.2568 82.3245ZM14.7999 82.5418C13.1434 86.7781 15.0171 91.0958 19.6879 92.9424C24.3859 94.789 28.6765 92.9153 30.3601 88.679C32.0981 84.2254 30.2787 80.2335 25.445 78.3055C20.6112 76.4045 16.5379 78.0882 14.7999 82.5418Z" fill="white"/>
<path d="M36.1987 77.0291L35.8728 77.5994L20.7471 68.9367L21.0729 68.3664L24.739 70.4574C22.4307 68.3664 22.2135 65.5965 24.1415 62.2021L24.7661 62.5551L24.6303 62.7995C23.0825 65.5151 22.7294 69.2897 27.2101 71.8695L36.1987 77.0291Z" fill="white"/>
<path d="M45.839 62.8267C42.8519 66.6556 37.991 67.4975 33.5374 64.0487C29.111 60.5999 28.758 55.6575 31.718 51.8286C34.678 47.9996 39.566 47.1849 43.9924 50.6337C48.4459 54.0825 48.8261 58.9977 45.839 62.8267ZM45.4045 62.4736C47.8757 59.3236 48.2015 54.7071 43.6394 51.1497C39.0772 47.5923 34.678 49.0315 32.2339 52.2088C29.7628 55.3588 29.4369 60.0025 33.9991 63.5599C38.5069 67.0901 42.9333 65.6237 45.4045 62.4736Z" fill="white"/>
<path d="M40.4078 41.2921L40.9238 40.8576L55.3164 49.982L49.6136 33.4984L49.9938 33.1726L65.3097 41.5365L58.7108 25.8133L59.2268 25.3788L66.2873 42.2426L65.9071 42.5685L50.5641 34.2859L56.2125 50.7695L55.8323 51.0954L40.4078 41.2921Z" fill="white"/>
<path d="M79.9737 22.2016C77.7469 18.1282 74.3796 17.2593 71.0123 19.1058C67.5364 21.0067 66.2057 24.5913 68.8127 29.3707L73.2391 37.5175L72.6688 37.8162L64.3591 22.5275L64.9294 22.2288L67.129 26.275C66.2329 22.9077 67.8894 20.1649 70.7407 18.617C74.0809 16.7976 77.9642 17.2593 80.544 21.9844L85.4049 30.9186L84.8617 31.2173L79.9737 22.2016Z" fill="white"/>
<path d="M94.2033 9.95433L91.4606 10.7418L91.2705 10.0901L94.0132 9.30259L93.6874 8.1349C92.7641 4.8762 93.6059 2.70374 97.6793 1.53604L97.8694 2.16062C94.1762 3.2197 93.4701 4.93051 94.3391 7.94481L94.665 9.1125L99.4715 7.72756L99.6616 8.3793L94.8551 9.76424L99.4987 25.8676L98.8741 26.0577L94.2033 9.95433Z" fill="white"/>
<path d="M114.923 22.7447C110.117 23.4236 106.016 20.6537 105.229 15.0868C104.441 9.51986 107.618 5.71805 112.398 5.03915C117.204 4.36026 121.278 7.13015 122.065 12.6971C122.853 18.264 119.703 22.0658 114.923 22.7447ZM114.842 22.1745C118.807 21.6042 122.255 18.5084 121.441 12.8057C120.626 7.10299 116.471 5.06631 112.506 5.63658C108.542 6.20685 105.066 9.30261 105.88 15.0053C106.668 20.708 110.877 22.7176 114.842 22.1745Z" fill="white"/>
<path d="M131.19 13.1587L125.758 21.3598H125.052L130.809 12.5885L125.433 3.95291H126.166L131.271 12.1268L136.594 4.11585H137.272L131.624 12.6971L137.137 21.5499H136.403L131.19 13.1587Z" fill="white"/>
<path d="M153.023 6.15254L149.004 28.1216C148.651 30.0496 147.592 31.2173 145.121 30.7557L143.98 30.5384L144.089 29.9138L145.229 30.1311C146.994 30.457 147.999 29.9953 148.406 27.8228L152.398 6.04391L153.023 6.15254ZM152.833 0.721379C152.941 0.178263 153.376 -0.0661388 153.81 0.0153286C154.245 0.0967959 154.571 0.476977 154.489 1.02009C154.408 1.56321 153.946 1.80761 153.512 1.72614C153.05 1.64468 152.751 1.23734 152.833 0.721379Z" fill="white"/>
<path d="M168.366 28.2845L167.741 28.0944L169.126 23.5594C167.334 26.6008 164.211 27.334 161.088 26.3836C157.449 25.2702 155.059 22.1744 156.662 17.0148L159.649 7.37454L160.246 7.56463L157.259 17.2864C155.874 21.7128 157.612 24.6999 161.305 25.8405C165.107 27.0082 168.583 25.4603 170.185 20.2464L172.901 11.4479L173.525 11.638L168.366 28.2845Z" fill="white"/>
<path d="M200.573 33.9601C202.935 29.9682 202.066 26.7095 198.916 24.8629C195.685 22.962 191.937 23.8038 189.14 28.5561L184.524 36.4041L184.008 36.1054L189.194 27.2797C191.557 23.2878 190.688 20.0291 187.538 18.1825C184.279 16.2545 180.559 17.1235 177.762 21.8757L173.145 29.7238L172.602 29.3979L181.455 14.3807L181.998 14.7066L179.663 18.6714C182.215 16.1187 185.23 16.1459 187.837 17.6937C190.498 19.2688 191.991 22.0387 190.606 25.7319C193.241 22.8262 196.472 22.7719 199.215 24.4012C202.338 26.2478 203.804 29.7238 201.061 34.3674L195.902 43.1387L195.386 42.84L200.573 33.9601Z" fill="white"/>
<path d="M217.138 39.3912C220.722 42.8943 220.858 47.728 216.975 51.7199C213.091 55.7118 208.23 55.6847 204.646 52.2087C201.659 49.3031 201.36 45.5827 202.881 42.7314L193.485 52.3988L193.05 51.9643L210.919 33.607L211.353 34.0415L207.633 37.8705C210.457 36.2683 214.178 36.4855 217.138 39.3912ZM216.757 39.7985C213.499 36.6213 208.801 36.6756 205.271 40.2873C201.767 43.8991 201.822 48.597 205.08 51.7742C208.502 55.1144 212.901 54.9786 216.54 51.2583C220.152 47.5379 220.179 43.1387 216.757 39.7985Z" fill="white"/>
<path d="M216.323 65.678C214.15 62.718 213.743 59.7581 216.133 57.5313L216.513 58.0472C214.639 59.7581 214.558 62.2835 216.812 65.3522C218.55 67.7147 221.129 68.0677 222.84 66.7914C227.158 63.6142 218.17 56.6895 223.574 52.6976C225.447 51.3126 228.434 51.9644 230.308 54.517C232.372 57.314 232.263 60.3012 229.819 62.3107L229.439 61.7947C231.34 60.2469 231.883 57.6671 229.819 54.87C228.163 52.6432 225.529 52.0458 223.927 53.2407C219.011 56.8524 228.027 63.7228 223.166 67.3074C221.075 68.8824 218.115 68.122 216.323 65.678Z" fill="white"/>
<path d="M228.76 88.0272C226.941 83.5465 228.624 78.8757 233.811 76.7576C238.998 74.6394 243.479 76.7847 245.298 81.2654C247.118 85.7461 245.434 90.3898 240.22 92.5079C235.06 94.6261 230.607 92.5079 228.76 88.0272ZM229.303 87.81C230.824 91.5031 234.653 94.0829 240.003 91.9105C245.352 89.738 246.303 85.203 244.782 81.4827C243.261 77.7895 239.405 75.1554 234.056 77.355C228.706 79.5546 227.783 84.1168 229.303 87.81Z" fill="white"/>
<path d="M249.779 94.3545L235.223 104.755L252.82 107.96L252.956 108.611L234.354 105.162L234.246 104.701L249.643 93.6484L249.779 94.3545Z" fill="white"/>
<path d="M236.473 122.488C236.201 117.654 239.324 113.934 244.945 113.608C250.539 113.309 254.069 116.649 254.341 121.483C254.64 126.806 250.947 129.684 247.308 129.901C246.466 129.956 246.14 129.956 245.57 129.956L244.701 114.26C239.134 114.667 236.853 118.55 237.07 122.434C237.287 126.29 239.541 129.114 243.017 129.467L243.044 130.119C239.433 129.766 236.717 126.996 236.473 122.488ZM245.271 114.233L246.113 129.385C251.734 129.385 253.961 125.394 253.771 121.537C253.526 117.573 250.811 113.934 245.271 114.233Z" fill="white"/>
<path d="M236.663 135.061L236.717 134.409L254.097 135.821L254.042 136.473L249.833 136.12C252.793 137.043 254.178 139.46 253.879 143.344L253.173 143.289L253.2 142.991C253.445 139.868 252.169 136.31 247.009 135.876L236.663 135.061Z" fill="white"/>
<path d="M249.942 158.524L250.675 155.781L251.3 155.944L250.566 158.687L254.857 159.854L254.694 160.479L250.404 159.311L248.991 164.607L248.367 164.444L249.779 159.148L237.993 155.998C234.979 155.183 233.92 155.944 233.241 158.496L232.752 160.262L232.128 160.099L232.616 158.252C233.377 155.374 234.87 154.477 238.129 155.346L249.942 158.524Z" fill="white"/>
<path d="M253.255 172.59L253.01 173.188L242.8 168.87C245.597 170.961 246.004 174.111 244.755 177.125C243.261 180.628 239.948 182.692 234.979 180.601L225.61 176.637L225.855 176.066L235.278 180.058C239.568 181.878 242.718 180.438 244.212 176.908C245.76 173.242 244.565 169.63 239.541 167.512L231.014 163.9L231.259 163.303L253.255 172.59Z" fill="white"/>
<path d="M219.229 186.711C221.89 182.665 226.588 181.497 231.313 184.566C236.038 187.635 236.853 192.441 234.219 196.487C231.313 200.941 226.615 201.077 223.573 199.094C222.867 198.633 222.596 198.47 222.134 198.117L230.743 184.946C226.018 181.986 221.89 183.751 219.745 187.01C217.626 190.242 217.789 193.853 220.369 196.216L220.016 196.759C217.301 194.342 216.757 190.513 219.229 186.711ZM231.204 185.299L222.895 198.008C227.43 201.348 231.584 199.447 233.703 196.216C235.875 192.849 235.848 188.314 231.204 185.299Z" fill="white"/>
<path d="M223.302 219.896L222.84 220.357L205.841 203.602L206.302 203.141L223.302 219.896Z" fill="white"/>
<path d="M207.497 225.788C204.239 228.368 200.518 228.178 197.884 226.332L201.197 230.514L200.708 230.894L189.9 217.234L190.389 216.854L193.702 221.036C192.48 218.049 193.159 214.383 196.445 211.803C200.383 208.707 205.216 209.196 208.638 213.541C212.06 217.859 211.435 222.666 207.497 225.788ZM207.144 225.327C210.892 222.367 211.326 217.995 208.122 213.894C204.89 209.821 200.545 209.251 196.798 212.211C193.241 215.035 192.67 219.706 195.793 223.643C198.889 227.608 203.56 228.151 207.144 225.327Z" fill="white"/>
<path d="M186.207 238.66L187.076 219.488L177.925 224.675L177.626 224.159L187.375 218.646L187.674 219.162L186.832 238.334L195.413 233.501L195.712 234.017L186.533 239.203L186.207 238.66Z" fill="white"/>
<path d="M170.131 246.182L169.534 246.427L169.181 218.945L169.805 218.701L169.914 227.391L183.41 240.833L182.813 241.077L169.914 228.232L170.131 246.182Z" fill="white"/>
<path d="M146.668 251.722C142.541 252.265 139.445 250.202 138.141 247.242L139.662 258.919L139.065 259L135.969 235.32L136.566 235.239L137.272 240.561C137.761 237.33 140.232 234.533 144.36 234.017C149.33 233.365 153.213 236.271 153.946 241.783C154.625 247.269 151.611 251.071 146.668 251.722ZM146.587 251.152C151.312 250.527 153.946 246.997 153.294 241.838C152.615 236.678 149.167 233.935 144.442 234.56C139.934 235.157 137.055 238.878 137.707 243.874C138.359 248.871 142.079 251.722 146.587 251.152Z" fill="white"/>
<path d="M123.776 234.777C128.61 235.049 132.086 238.579 131.76 244.2C131.434 249.794 127.578 252.917 122.744 252.646C117.91 252.374 114.462 248.844 114.787 243.222C115.113 237.601 118.942 234.478 123.776 234.777ZM123.749 235.347C119.757 235.13 115.765 237.465 115.439 243.25C115.113 249.007 118.806 251.804 122.798 252.048C126.79 252.265 130.809 249.93 131.135 244.146C131.461 238.389 127.741 235.565 123.749 235.347Z" fill="white"/>
<path d="M99.879 249.142C95.8328 248.138 93.7146 245.069 93.5788 241.892L92.3025 246.997L91.7051 246.834L96.1315 229.319C97.3535 224.431 101.617 222.584 105.527 223.562C109.709 224.621 111.855 227.554 111.99 231.057L111.366 230.894C111.203 227.744 109.302 225.11 105.392 224.132C101.535 223.154 97.8151 225.11 96.7289 229.482L95.2896 235.239C96.919 232.496 100.232 230.785 104.278 231.817C109.139 233.039 111.692 237.167 110.334 242.571C108.949 247.948 104.74 250.364 99.879 249.142ZM100.042 248.599C104.686 249.767 108.433 247.459 109.682 242.408C110.959 237.357 108.759 233.555 104.115 232.387C99.6889 231.274 95.6698 233.691 94.4478 238.579C93.1986 243.44 95.6155 247.486 100.042 248.599Z" fill="white"/>
<path d="M92.3025 228.26C92.7641 228.423 92.9542 228.884 92.7913 229.373C92.6012 229.862 92.1396 230.052 91.7051 229.889C91.2434 229.726 91.0533 229.264 91.2163 228.776C91.4063 228.314 91.868 228.097 92.3025 228.26Z" fill="white"/>
</svg>
