<svg width="884" height="1350" viewBox="0 0 884 1350" fill="none" xmlns="http://www.w3.org/2000/svg">
<path d="M260 469.5C222 469.5 201.5 443 208 407C214.5 371 244.5 346 281.5 346C320.5 346 340.5 372 334.5 408C328 444 298 469.5 260 469.5ZM251.5 535C330.5 535 398.5 490.5 412 411C424.5 342.5 385.5 299 330.5 285L337.5 245.5H476L487.5 180H135L123.5 245.5H260.5L253.5 283.5C194.5 294.5 142 333.5 130 404C115.5 485 174.5 535 251.5 535Z" fill="white"/>
<path d="M351.703 763.716L355.421 766.901L491.105 608.576L526.532 638.936L529.53 635.437L364.863 494.318L361.864 497.817L434.466 560.037L376.37 627.828C364.938 641.168 347.695 650.666 328.67 634.361C310.519 618.806 316.796 599.532 327.479 587.067L333.288 580.288L329.571 577.102L323.949 583.662C311.017 598.751 305.771 620.806 325.671 637.86C346.227 655.476 366.219 647.197 380.087 631.014L438.184 563.223L487.388 605.39L351.703 763.716Z" fill="white"/>
<path d="M750.523 952.662L715.137 971.311C720.11 994.689 711.418 1027.53 674.704 1046.88C632.241 1069.26 593.645 1052.86 573.83 1015.26C554.481 978.547 562.073 936.114 604.537 913.735C642.578 893.687 674.838 906.641 690.194 923.981L725.58 905.332C699.806 871.44 651.288 851.23 589.803 883.632C580.957 888.295 573.019 893.608 566.198 898.898C545.265 903.148 525.468 897.756 515.677 879.178C501.691 852.638 519.354 831.46 544.125 818.406L625.072 775.746L583.577 697.011L645.946 664.142L629.628 633.179L346.978 782.138L363.296 813.102L548.633 715.427L575.907 767.18L517.962 797.718C476.383 819.63 456.095 854.06 475.909 891.658C490.129 918.641 515.82 927.709 541.272 925.599C519.586 957.375 517.744 996.778 537.325 1033.93C566.232 1088.78 625.115 1112.57 691.022 1077.84C748.968 1047.3 764.845 994.851 750.523 952.662Z" fill="white"/>
<path d="M277.998 1001.6C238.895 1027.68 204.502 1017.56 188.411 982.615C234.03 943.78 238.046 896.63 216.545 849.067L201.425 814.678L262.575 773.899L310.294 883.308C329.437 926.433 319.181 974.139 277.998 1001.6ZM39.6053 922.588L136.947 857.675L146.102 878.614C163.996 918.966 160.395 953.219 113.389 984.566L109.229 987.34C112.281 997.324 115.333 1007.31 119.633 1016.46C154.035 1095.08 224.484 1116.02 294.787 1069.13C328.482 1046.66 347.892 1016.29 355.099 985.644L386.588 1057.2L452.314 1013.37L327.886 730.347L368.237 703.438L341.88 642.286L12.8331 861.713L39.6053 922.588Z" fill="white"/>
</svg>
