<svg width="1301" height="902" viewBox="0 0 1301 902" fill="none" xmlns="http://www.w3.org/2000/svg">
<path d="M854.762 303.311L890.962 303.218L839.801 162.949L800.201 163.051L749.762 303.581L785.562 303.489L793.898 278.667L846.298 278.532L854.762 303.311ZM837.43 252.155L802.83 252.244L819.898 200.8L837.43 252.155Z" fill="#18298C"/>
<path d="M706.504 257.826C717.567 277.762 709.953 297.427 686.344 310.528L644.112 333.965L608.301 269.435L649.747 246.435C673.093 233.48 695.295 237.628 706.504 257.826ZM656.219 178.341C666.554 196.966 659.815 215.116 637.518 227.489L597.384 249.762L564.485 190.478L604.095 168.497C627.441 155.542 646.175 160.242 656.219 178.341ZM731.685 246.94C719.166 224.381 692.276 214.257 670.447 221.91C684.82 206.386 691.823 185.002 679.013 161.918C664.893 136.473 633.836 126.26 595.275 147.659L529.696 184.052L631.159 366.885L699.361 329.037C737.134 308.075 746.97 274.483 731.685 246.94Z" fill="#04BF8A"/>
<path d="M242.2 749C234.8 790.8 260 820.2 300.4 820.2C331.4 820.2 359.4 803.8 374 775H341.8C333 788 319.6 794.6 304.6 794.6C280.2 794.6 266 776.6 271 749C275.8 721.2 296.2 703.4 320.8 703.4C335.8 703.4 346.6 710 351 722.8H383.2C378.8 694.2 356.4 677.6 325.4 677.6C285.2 677.6 249.6 707.2 242.2 749Z" fill="#F2CF1D"/>
<path d="M608.715 355.978L559.269 299.585L454.305 391.621L503.751 448.013L515.029 438.124L477.582 395.416L513.673 363.771L547.164 401.967L558.443 392.078L524.951 353.882L559.99 323.159L597.437 365.867L608.715 355.978Z" fill="#18298C"/>
<path d="M826.576 534.243L797.3 490.544L680.657 568.688L709.933 612.388C734.868 649.607 774.659 657.616 809.219 634.462C843.946 611.196 851.511 571.462 826.576 534.243ZM724.283 580.626L792.076 535.209L801.093 548.668C815.453 570.102 811.285 591.19 789.85 605.55C768.416 619.91 747.66 615.519 733.3 594.085L724.283 580.626Z" fill="#FFB199"/>
<path d="M710.835 321.919C678.516 348.743 674.797 390.296 701.62 422.615C728.443 454.934 769.996 458.654 802.315 431.831C830.787 408.201 833.338 374.634 823.423 351.414L803.115 326.944L745.864 374.459L761.957 393.851L795.354 366.134C801.443 381.613 798.111 396.074 785.029 406.931C766.099 422.642 745.003 420.397 728.399 400.39C712.816 381.614 714.088 360.286 731.017 346.236C740.866 338.061 751.447 335.778 761.451 339.69L790.538 315.549C766.451 298.114 736.691 300.461 710.835 321.919Z" fill="#F29F05"/>
<path d="M872.021 429.319L894.447 416.869L873.77 379.624L901.835 364.043L892.151 346.601L864.086 362.182L853.311 342.772L890.818 321.949L880.844 303.982L820.91 337.255L872.021 429.319Z" fill="#FFB199"/>
<path d="M533.58 648.127L592.128 679.871L726.334 511.025L667.786 479.281L619.455 540.097L563.808 509.925L612.139 449.109L553.591 417.365L419.386 586.21L477.934 617.955L530.322 552.172L585.969 582.344L533.58 648.127Z" fill="#04BF8A"/>
<path d="M1165.53 724.992L1179.38 722.96L1159.09 584.64L1145.24 586.672L1165.53 724.992Z" fill="#F2CF1D"/>
<path d="M141.18 783.931C132.173 789.131 125.27 787.574 121.17 780.473C116.77 772.852 119.193 765.448 129.585 759.448L112.585 730.003C85.2188 745.803 80.7696 771.697 95.1696 796.639C109.07 820.714 132.126 828.649 158.28 813.549L241.072 765.749L223.972 736.131L141.18 783.931Z" fill="#04BF8A"/>
<path d="M584.8 820H626.6L570.2 748.4L624.6 679.6H584.4L537.6 741.2V679.6H503.4V820H537.6V758L584.8 820Z" fill="#18298C"/>
<path d="M863.694 229.111L944.222 344.609L991.8 311.437L989.741 308.484L945.444 339.369L866.975 226.824L863.694 229.111Z" fill="#F29F05"/>
<path d="M920.038 663.568C928.941 612.336 849.029 623.621 855.946 583.817C858.72 567.857 873.66 561.318 889.784 564.323C908.863 567.841 916.07 581.274 915.968 591.203L930.944 593.805C931.866 574.478 918.637 557.157 892.429 552.603C865.828 547.98 845.586 560.499 841.888 581.78C832.882 633.604 912.999 621.137 905.945 661.728C903.48 675.916 890.296 685.195 871.183 681.874C848.917 678.005 842.84 662.739 843.644 651.105L829.063 648.571C826.187 669.792 841.576 688.706 869.163 693.5C898.325 698.568 916.785 682.288 920.038 663.568Z" fill="#04BF8A"/>
<path d="M1116.08 780.676C1108.42 772.783 1108.13 763.868 1117.31 754.953L1132.53 740.189L1156.76 765.162L1141.55 779.926C1132.36 788.841 1123.32 788.14 1116.08 780.676ZM1201.08 761.724L1103.3 660.971L1078.76 684.789L1115.67 722.823L1109.79 728.533L1051.92 710.836L1024.22 737.718L1086.2 755.053C1075.15 774.689 1079.82 793.287 1092.08 805.917C1109.07 823.427 1135.21 825.657 1159.89 801.7L1201.08 761.724Z" fill="#18298C"/>
<path d="M661.43 716.122C645.938 696.501 647.448 675.177 665.342 661.048C682.922 647.166 704.172 650.519 719.665 670.14C734.91 689.446 733.49 711.208 715.91 725.09C698.016 739.219 676.675 735.429 661.43 716.122ZM746.977 648.574C720.825 615.454 677.524 611.93 646.131 636.718C614.895 661.382 607.81 704.692 633.961 737.812C660.113 770.932 704.009 774.241 735.245 749.577C739.483 746.23 743.193 742.537 746.497 738.653L775.621 746.492L808.113 720.836L761.011 710.884C766.264 690.427 762.222 667.88 746.977 648.574Z" fill="#F2CF1D"/>
<path d="M442.732 736.544L425.383 705.916L441.567 696.749C453.4 690.046 461.798 693.104 467.121 702.501C472.444 711.898 470.749 720.673 458.916 727.376L442.732 736.544ZM497.401 685.349C484.685 662.9 460.157 654.497 430.226 671.452L382.022 698.758L451.222 820.92L480.979 804.063L456.138 760.21L474.584 749.761C505.734 732.116 508.835 705.535 497.401 685.349Z" fill="#FFB199"/>
<path d="M1145.9 573.1C1145.9 509.8 1098.2 465.4 1038.2 465.4C978.5 465.4 929.9 509.8 929.9 573.1C929.9 636.4 978.5 681.1 1038.2 681.1C1097.9 681.1 1145.9 636.4 1145.9 573.1ZM982.4 573.1C982.4 535.6 1004 511.9 1038.2 511.9C1071.8 511.9 1093.7 535.6 1093.7 573.1C1093.7 610 1071.8 634.3 1038.2 634.3C1004 634.3 982.4 610 982.4 573.1Z" fill="#F29F05"/>
<path d="M1013.6 680.8L995.4 784.4L945 680.8H922.2L897.6 820H920.4L938.8 716.2L989 820H1011.8L1036.4 680.8H1013.6Z" fill="#F2CF1D"/>
<path d="M329.402 530.626L333.384 531L345.253 404.555L389.936 536.308L393.918 536.682L462.139 415.527L450.271 541.971L454.253 542.345L467.037 406.143L463.055 405.77L392.413 531.317L346.169 394.798L342.186 394.425L329.402 530.626Z" fill="#F2CF1D"/>
<path d="M575.8 393H613V506H647.2V393H684.4V365.6H575.8V393Z" fill="#FFB199"/>
<path d="M334.919 663.769C353.554 695.502 384.399 698.262 410.785 682.767C437.172 667.272 450.822 638.381 432.187 606.649L388.537 532.318L364.219 546.598L407.971 621.101C417.694 637.657 413.79 651.547 398.268 660.662C382.919 669.675 368.887 666.319 359.165 649.762L315.413 575.259L291.268 589.438L334.919 663.769Z" fill="#F29F05"/>
<path d="M773.384 789.652L861.285 720.946L848.932 686.706L733.764 781.196L748.288 821.456L897.256 820.656L884.972 786.604L773.384 789.652Z" fill="#F29F05"/>
<path d="M1036.47 450.611L1071.45 431.615L997.453 392.601L1002.85 309.098L968.758 327.617L967.202 376.713L922.184 352.913L887.21 371.91L960.566 410.588L955.101 494.808L989.196 476.289L990.817 426.476L1036.47 450.611Z" fill="#04BF8A"/>
<path d="M1216 632.6V679H1250.2V632.6L1298.8 538.6H1260.4L1233.4 597.4L1206.2 538.6H1167.4L1216 632.6Z" fill="#18298C"/>
<path d="M1288 678.4H1182V713.6H1238L1182 786.6V820H1288V784.6H1231.2L1288 711.8V678.4Z" fill="#FFB199"/>
<path d="M827.8 537H869.2L881.5 476.7L893.8 537H935.2L959.5 430.8H923.65L914.05 497.7L899.65 430.8H863.35L848.95 497.7L839.35 430.8H803.5L827.8 537Z" fill="#18298C"/>
</svg>
