<svg width="397" height="183" viewBox="0 0 397 183" fill="none" xmlns="http://www.w3.org/2000/svg">
<path d="M63.4278 59.3035C21.2518 81.2604 17.2943 109.41 18.6896 124.221C19.3627 131.1 22.6374 137.647 27.7381 142.312C38.7522 152.311 63.6506 166.029 106.516 145.45C158.857 120.347 133.52 96.403 151.879 79.6816C160.982 71.3591 215.277 40.4325 266.153 25.7557C317.028 11.079 363.89 -5.89812 374.085 -21.7675C377.396 -26.9776 377.632 -32.8034 377.196 -37.1088C376.694 -41.1656 374.755 -45.0422 371.853 -47.791C368.746 -50.7601 363.943 -54.0658 357.712 -54.5031C338.899 -55.8631 297.207 -28.5484 254.95 3.35765C212.692 35.2637 155.38 60.1601 143.261 62.4523C118.87 67.1132 114.907 32.4778 63.4278 59.3035Z" fill="#A0D2E3"/>
<path d="M20.8756 128.712L20.8754 128.71C20.1826 121.356 20.8197 110.696 26.8579 99.1562C32.8971 87.6141 44.3177 75.232 65.1231 64.4007C77.814 57.7875 87.6133 54.9426 95.558 54.348C103.513 53.7526 109.578 55.4161 114.787 57.765C117.385 58.9366 119.77 60.2784 122.059 61.5862C122.238 61.6889 122.417 61.7914 122.596 61.8935C124.697 63.0958 126.721 64.2535 128.787 65.2283C133.253 67.3345 137.882 68.5683 143.742 67.4485L143.743 67.4484C146.666 66.8954 152.379 64.9617 159.987 61.8596C167.581 58.7633 177.028 54.5176 187.402 49.3619C208.152 39.0491 232.594 25.1045 253.333 9.44618C274.11 -6.24092 294.759 -20.8088 312.535 -31.2898C321.422 -36.5301 329.602 -40.7554 336.727 -43.588C343.84 -46.4157 349.955 -47.8775 354.693 -47.535C360.979 -47.0934 365.805 -43.7611 368.904 -40.7996C368.904 -40.7995 368.905 -40.7994 368.905 -40.7992L368.559 -40.4377L20.8756 128.712ZM20.8756 128.712C21.5493 135.597 24.8256 142.148 29.9311 146.816L29.9324 146.818M20.8756 128.712L29.9324 146.818M29.9324 146.818C35.4011 151.783 44.3128 157.666 57.1685 159.756M29.9324 146.818L57.1685 159.756M57.1685 159.756C70.0263 161.847 86.7838 160.135 107.929 149.983L57.1685 159.756Z" stroke="#27435E" stroke-miterlimit="10"/>
</svg>
