<svg width="397" height="268" viewBox="0 0 397 268" fill="none" xmlns="http://www.w3.org/2000/svg">
<path d="M63.4278 145.303C21.2518 167.26 17.2943 195.411 18.6896 210.221C19.3627 217.1 22.6374 223.647 27.7381 228.312C38.7522 238.311 63.6506 252.029 106.516 231.45C158.857 206.347 133.52 182.403 151.879 165.682C160.982 157.359 215.277 126.433 266.153 111.756C317.028 97.079 363.89 80.1019 374.085 64.2326C377.396 59.0224 377.632 53.1966 377.196 48.8912C376.694 44.8344 374.755 40.9578 371.853 38.209C368.746 35.24 363.943 31.9342 357.712 31.4969C338.899 30.1369 297.207 57.4516 254.95 89.3577C212.692 121.264 155.38 146.16 143.261 148.452C118.87 153.113 114.907 118.478 63.4278 145.303Z" fill="#A0D2E3"/>
<path d="M65.3541 150.844C23.892 172.429 20.0014 200.103 21.3732 214.663C22.0349 221.426 25.2541 227.862 30.2685 232.447C41.0962 242.278 65.5732 255.763 107.713 235.533C159.168 210.855 134.26 187.316 152.308 170.877C161.257 162.696 214.633 132.293 264.648 117.864C314.662 103.436 360.73 86.7461 370.753 71.1454C374.009 66.0234 374.24 60.2962 373.812 56.0636C373.318 52.0755 371.412 48.2645 368.559 45.5623C365.504 42.6435 360.783 39.3937 354.657 38.9638C336.162 37.6268 295.177 64.4792 253.634 95.8452C212.092 127.211 155.75 151.686 143.836 153.94C119.858 158.522 115.962 124.473 65.3541 150.844Z" stroke="#27435E" stroke-miterlimit="10"/>
</svg>
