<svg width="185" height="165" viewBox="0 0 185 165" fill="none" xmlns="http://www.w3.org/2000/svg">
<path d="M28.5411 105.176C10.4201 120.581 11.6259 134.749 13.9561 141.816C15.0506 145.095 17.3768 147.923 20.3837 149.63C26.8685 153.279 40.5379 157.195 59.1486 142.385C81.8761 124.313 66.8534 115.46 73.9432 105.261C77.4552 100.188 100.487 79.0591 123.661 66.2351C146.835 53.411 167.796 39.9123 171 31.0381C172.034 28.1286 171.5 25.2614 170.808 23.2104C170.111 21.2881 168.734 19.6137 167.013 18.5965C165.167 17.4948 162.456 16.4178 159.369 16.8987C150.043 18.3311 132.756 36.2949 115.703 56.5607C98.6505 76.8266 73.4762 95.3511 67.8217 97.8188C56.4468 102.809 50.6565 86.3604 28.5411 105.176Z" fill="#A0D2E3"/>
<path d="M27.935 102.464C10.1207 117.608 11.3061 131.536 13.5969 138.483C14.6728 141.707 16.9596 144.487 19.9157 146.165C26.2907 149.753 39.7288 153.602 58.0244 139.043C80.3673 121.277 65.5988 112.573 72.5686 102.547C76.0212 97.5602 98.6631 76.7887 121.445 64.1817C144.227 51.5748 164.833 38.3045 167.983 29.5805C168.999 26.7202 168.474 23.9016 167.794 21.8853C167.109 19.9956 165.755 18.3495 164.063 17.3495C162.248 16.2665 159.584 15.2077 156.549 15.6804C147.381 17.0886 130.386 34.7483 113.622 54.6712C96.8577 74.594 72.1095 92.8049 66.5508 95.2309C55.3684 100.136 49.676 83.9664 27.935 102.464Z" stroke="#27435E" stroke-miterlimit="10"/>
</svg>
