<svg width="1250" height="1099" viewBox="0 0 1250 1099" fill="none" xmlns="http://www.w3.org/2000/svg">
<path d="M61.4561 264.02C71.1399 229.686 85.5119 197.244 105.371 168.122C132.689 127.991 168.499 97.218 213.896 75.8369C279.963 44.7132 344.107 52.0778 407.915 81.0842C433.104 92.5177 456.473 107.872 480.441 121.825C507.351 137.449 535.542 151.403 560.458 169.789C606.131 203.525 642.102 246.614 672.466 294.211C692.968 326.324 712.058 359.514 734.819 390.051C771.989 439.865 819.782 475.685 883.889 484.242C905.382 487.129 927.365 486.179 949.107 487.842C992.613 491.083 1033.33 503.056 1065.21 534.062C1086.92 555.235 1102.79 580.664 1114.76 608.865C1132.05 649.407 1137.53 690.838 1129.45 733.305C1114.39 812.633 1078.21 880.673 1011.28 928.941C987.367 946.177 960.049 959.852 932.527 971.065C866.795 997.843 797.417 1008.14 726.255 1004.23C702.9 1002.94 679.75 996.341 656.627 991.416C607.796 981.108 560.55 965.239 516.613 941.988C468.39 916.498 421.954 887.909 380.481 852.133C362.802 836.919 343.232 823.757 326.214 807.992C306.727 789.951 288.472 770.411 270.545 750.779C245.644 723.518 219.78 696.814 197.564 667.542C164.033 623.299 129.709 579.014 106.192 528.559C87.1733 487.711 70.057 445.832 55.1172 403.371C44.3021 372.539 49.0418 340.034 53.2588 308.305C55.2607 293.52 58.6373 278.849 61.4561 264.02Z" fill="#E5F0F4"/>
</svg>
