<svg width="319" height="266" viewBox="0 0 319 266" fill="none" xmlns="http://www.w3.org/2000/svg">
<path d="M36.1887 65.2084C38.5657 56.9476 42.0935 49.1418 46.9681 42.1351C53.6738 32.4795 62.4638 25.0753 73.607 19.9309C89.8238 12.4424 105.569 14.2144 121.231 21.1935C127.414 23.9444 133.15 27.6388 139.034 30.9959C145.639 34.7551 152.559 38.1124 158.675 42.5362C169.886 50.6532 178.715 61.0206 186.168 72.4725C191.201 80.199 195.887 88.1848 201.474 95.5321C210.598 107.517 222.329 116.136 238.065 118.195C243.34 118.889 248.737 118.661 254.073 119.061C264.753 119.841 274.747 122.721 282.571 130.182C287.9 135.276 291.796 141.394 294.734 148.179C298.979 157.934 300.325 167.902 298.341 178.12C294.643 197.207 285.763 213.577 269.334 225.191C263.465 229.338 256.759 232.628 250.004 235.326C233.869 241.769 216.839 244.245 199.372 243.306C193.639 242.995 187.956 241.408 182.28 240.223C170.294 237.743 158.697 233.924 147.913 228.33C136.075 222.197 124.677 215.319 114.497 206.711C110.158 203.05 105.354 199.883 101.177 196.09C96.3934 191.749 91.9125 187.048 87.512 182.325C81.3999 175.765 75.0513 169.34 69.598 162.298C61.3674 151.652 52.9423 140.997 47.1696 128.857C42.5013 119.029 38.2999 108.953 34.6327 98.7369C31.9781 91.3185 33.1415 83.4976 34.1766 75.8635C34.668 72.3063 35.4968 68.7765 36.1887 65.2084Z" fill="#E5F0F4"/>
<path d="M42.3191 63.5275C44.6961 55.2667 48.2239 47.4609 53.0985 40.4542C59.8042 30.7986 68.5942 23.3944 79.7374 18.25C95.9542 10.7615 111.699 12.5335 127.362 19.5125C133.545 22.2635 139.281 25.9578 145.164 29.315C151.769 33.0742 158.689 36.4315 164.805 40.8553C176.016 48.9723 184.846 59.3397 192.299 70.7916C197.331 78.5181 202.017 86.5039 207.604 93.8512C216.728 105.837 228.459 114.455 244.195 116.514C249.471 117.208 254.867 116.98 260.204 117.38C270.883 118.16 280.877 121.041 288.701 128.501C294.03 133.595 297.927 139.713 300.864 146.498C305.11 156.253 306.456 166.221 304.472 176.439C300.773 195.526 291.893 211.897 275.464 223.51C269.595 227.657 262.89 230.947 256.134 233.645C239.999 240.088 222.97 242.565 205.502 241.625C199.769 241.314 194.087 239.727 188.411 238.542C176.425 236.062 164.828 232.244 154.043 226.649C142.206 220.516 130.808 213.638 120.628 205.03C116.288 201.369 111.485 198.202 107.307 194.409C102.524 190.069 98.0429 185.367 93.6424 180.644C87.5303 174.084 81.1817 167.659 75.7284 160.617C67.4978 149.971 59.0727 139.316 53.3 127.177C48.6317 117.348 44.4303 107.272 40.7632 97.056C38.1085 89.6376 39.2719 81.8167 40.307 74.1826C40.7984 70.6254 41.6272 67.0956 42.3191 63.5275Z" stroke="#27435E"/>
</svg>
