<svg width="195" height="147" viewBox="0 0 195 147" fill="none" xmlns="http://www.w3.org/2000/svg">
<path d="M163.845 59.6037C183.964 46.9192 184.777 32.7232 183.47 25.3976C182.851 21.9961 180.949 18.8674 178.214 16.7525C172.311 12.2218 159.333 6.41046 138.814 18.4363C113.757 33.1081 127.375 43.9996 118.912 53.0922C114.718 57.6163 88.9264 75.2719 64.1702 84.686C39.4139 94.1 16.7534 104.495 12.3252 112.827C10.8895 115.56 11.0123 118.474 11.4069 120.603C11.8245 122.604 12.9509 124.457 14.5108 125.707C16.1823 127.059 18.7129 128.509 21.8372 128.47C31.2716 128.372 50.9284 113.037 70.6783 95.3895C90.4283 77.7419 117.972 62.968 123.918 61.3256C135.885 57.9965 139.289 75.0988 163.845 59.6037Z" fill="#A0D2E3"/>
<path d="M164.061 62.3744C183.84 49.9046 184.638 35.9489 183.354 28.7473C182.746 25.4034 180.875 22.3277 178.187 20.2485C172.384 15.7945 159.626 10.0816 139.453 21.9038C114.821 36.3273 128.208 47.0345 119.889 55.9731C115.765 60.4207 90.4106 77.7775 66.0734 87.0322C41.7362 96.2869 19.4592 106.506 15.106 114.696C13.6945 117.384 13.8153 120.249 14.2032 122.341C14.6137 124.309 15.7211 126.13 17.2546 127.359C18.8978 128.688 21.3855 130.114 24.4569 130.075C33.7317 129.979 53.0557 114.903 72.4714 97.5545C91.8871 80.2057 118.964 65.6818 124.81 64.0673C136.575 60.7945 139.92 77.6073 164.061 62.3744Z" stroke="#27435E" stroke-miterlimit="10"/>
</svg>
