<svg width="505" height="454" viewBox="0 0 505 454" fill="none" xmlns="http://www.w3.org/2000/svg">
<path d="M83.5709 89.5947C89.2139 77.9379 96.4125 67.2549 105.361 58.1077C117.676 45.4993 132.431 36.7752 150.017 32.0175C175.609 25.0907 198.069 31.7991 219.033 46.2217C227.31 51.9091 234.687 58.8823 242.368 65.3927C250.994 72.6873 260.183 79.4662 267.921 87.6214C282.103 102.582 292.222 120.27 300.051 139.212C305.339 151.993 310.053 165.07 316.248 177.431C326.369 197.598 341.176 213.439 363.547 220.571C371.045 222.968 378.964 224.026 386.629 226.002C401.974 229.925 415.767 236.792 425.19 249.9C431.605 258.847 435.663 268.945 438.148 279.786C441.754 295.376 441.082 310.534 435.494 325.2C425.068 352.597 407.813 374.618 380.823 387.618C371.181 392.26 360.547 395.412 349.997 397.671C324.8 403.066 299.348 402.336 274.16 396.418C265.894 394.472 258.039 390.643 250.087 387.414C233.288 380.626 217.408 371.952 203.181 360.849C187.564 348.674 172.783 335.504 160.232 320.081C154.88 313.52 148.721 307.572 143.64 300.855C137.821 293.168 132.537 285.024 127.377 276.868C120.209 265.541 112.661 254.353 106.58 242.478C97.406 224.533 87.9515 206.523 82.7514 186.994C78.5491 171.185 75.0922 155.128 72.4502 139.002C70.5437 127.294 74.3034 115.976 77.8268 104.903C79.4819 99.7456 81.621 94.7163 83.5709 89.5947Z" fill="#E5F0F4"/>
<path d="M91.0767 62.8064L91.0761 62.807C82.2224 71.857 75.0893 82.4341 69.4899 93.9914C68.9072 95.521 68.3119 97.0326 67.72 98.5357C66.317 102.098 64.9329 105.613 63.7794 109.207C63.6952 109.472 63.611 109.736 63.5267 110.001C60.0673 120.863 56.6208 131.684 58.4371 142.84C61.0737 158.934 64.5237 174.958 68.7177 190.737C73.6457 209.244 82.422 226.391 91.1938 243.528C91.6193 244.359 92.0448 245.191 92.4699 246.022C97.3274 255.508 103.121 264.547 108.936 273.618C110.368 275.852 111.801 278.088 113.222 280.333L113.222 280.333C118.38 288.486 123.645 296.6 129.437 304.251L129.437 304.252C131.949 307.572 134.733 310.71 137.576 313.856C137.948 314.267 138.322 314.679 138.695 315.092C141.169 317.822 143.665 320.577 146.007 323.449L146.008 323.45C158.493 338.793 173.211 351.91 188.796 364.06L188.796 364.061C202.938 375.097 218.733 383.728 235.461 390.486L235.463 390.487C237.386 391.268 239.291 392.078 241.188 392.885C247.222 395.45 253.177 397.982 259.39 399.444M91.0767 62.8064L259.16 400.418M91.0767 62.8064C103.266 50.3266 117.864 41.6941 135.278 36.9828L135.278 36.9828M91.0767 62.8064L135.278 36.9828M259.39 399.444L259.16 400.418M259.39 399.444C259.389 399.444 259.389 399.444 259.389 399.444L259.16 400.418M259.39 399.444C284.446 405.332 309.748 406.054 334.788 400.693C345.291 398.444 355.842 395.313 365.389 390.717C392.103 377.851 409.204 356.055 419.56 328.844C425.07 314.38 425.74 299.427 422.174 284.011L422.174 284.009C419.711 273.268 415.699 263.3 409.377 254.483M259.16 400.418C284.348 406.336 309.8 407.066 334.997 401.671C345.547 399.412 356.181 396.26 365.823 391.618C392.813 378.618 410.068 356.597 420.494 329.2C426.082 314.534 426.754 299.376 423.148 283.786C420.663 272.945 416.605 262.847 410.19 253.9M409.377 254.483C409.378 254.483 409.378 254.483 409.378 254.484L410.19 253.9M409.377 254.483L410.19 253.9M409.377 254.483C400.142 241.636 386.6 234.861 371.381 230.971L371.379 230.97C368.302 230.177 365.186 229.533 362.046 228.885C361.306 228.732 360.564 228.579 359.82 228.423C355.941 227.611 352.044 226.739 348.243 225.523M410.19 253.9C400.767 240.792 386.974 233.925 371.629 230.002C368.525 229.202 365.38 228.552 362.239 227.903C357.621 226.95 353.009 225.998 348.547 224.571M204.033 50.2217C183.069 35.7991 160.609 29.0907 135.017 36.0175L204.033 50.2217ZM204.033 50.2217C210.158 54.4303 215.79 59.3431 221.417 64.2514M204.033 50.2217L221.417 64.2514M188.181 364.849C202.408 375.952 218.288 384.626 235.087 391.414L188.181 364.849ZM188.181 364.849C172.564 352.674 157.783 339.504 145.232 324.081L188.181 364.849ZM348.243 225.523L348.547 224.571M348.243 225.523C348.243 225.523 348.242 225.523 348.242 225.523L348.547 224.571M348.243 225.523C325.548 218.288 310.56 202.215 300.354 181.88L300.354 181.879C295.881 172.954 292.169 163.639 288.478 154.376C287.039 150.765 285.603 147.163 284.127 143.594L284.127 143.594C276.33 124.728 266.269 107.156 252.196 92.3097L301.248 181.431C311.369 201.598 326.176 217.439 348.547 224.571M135.278 36.9828C160.513 30.1528 182.673 36.7403 203.466 51.0455L203.467 51.0459M135.278 36.9828L203.467 51.0459M203.467 51.0459C209.54 55.219 215.109 60.0762 220.723 64.9731C222.708 66.7051 224.7 68.4421 226.721 70.1555L226.722 70.1563M203.467 51.0459L226.722 70.1563M226.722 70.1563C229.133 72.1954 231.575 74.1842 234.009 76.1666M226.722 70.1563L234.009 76.1666M234.009 76.1666C240.351 81.3322 246.64 86.454 252.196 92.3093L234.009 76.1666ZM221.417 64.2514C223.394 65.9759 225.371 67.7 227.368 69.3927L221.417 64.2514Z" stroke="#27435E" stroke-width="2"/>
</svg>
