<svg width="505" height="454" viewBox="0 0 505 454" fill="none" xmlns="http://www.w3.org/2000/svg">
<path d="M83.5709 89.5947C89.2139 77.9379 96.4125 67.2549 105.361 58.1077C117.676 45.4993 132.431 36.7752 150.017 32.0175C175.609 25.0907 198.069 31.7991 219.033 46.2217C227.31 51.9091 234.687 58.8823 242.368 65.3927C250.994 72.6873 260.183 79.4662 267.921 87.6214C282.103 102.582 292.222 120.27 300.051 139.212C305.339 151.993 310.053 165.07 316.248 177.431C326.369 197.598 341.176 213.439 363.547 220.571C371.045 222.968 378.964 224.026 386.629 226.002C401.974 229.925 415.767 236.792 425.19 249.9C431.605 258.847 435.663 268.945 438.148 279.786C441.754 295.376 441.082 310.534 435.494 325.2C425.068 352.597 407.813 374.618 380.823 387.618C371.181 392.26 360.547 395.412 349.997 397.671C324.8 403.066 299.348 402.336 274.16 396.418C265.894 394.472 258.039 390.643 250.087 387.414C233.288 380.626 217.408 371.952 203.181 360.849C187.564 348.674 172.783 335.504 160.232 320.081C154.88 313.52 148.721 307.572 143.64 300.855C137.821 293.168 132.537 285.024 127.377 276.868C120.209 265.541 112.661 254.353 106.58 242.478C97.406 224.533 87.9515 206.523 82.7514 186.994C78.5491 171.185 75.0922 155.128 72.4502 139.002C70.5437 127.294 74.3034 115.976 77.8268 104.903C79.4819 99.7456 81.621 94.7163 83.5709 89.5947Z" fill="#E5F0F4"/>
<path d="M68.5709 93.5947C74.2139 81.9379 81.4125 71.2549 90.3613 62.1077C102.676 49.4993 117.431 40.7752 135.017 36.0175C160.609 29.0907 183.069 35.7991 204.033 50.2217C212.31 55.9091 219.687 62.8823 227.368 69.3927C235.994 76.6873 245.183 83.4662 252.921 91.6214C267.103 106.582 277.222 124.27 285.051 143.212C290.339 155.993 295.053 169.07 301.248 181.431C311.369 201.598 326.176 217.439 348.547 224.571C356.045 226.968 363.964 228.026 371.629 230.002C386.974 233.925 400.767 240.792 410.19 253.9C416.605 262.847 420.663 272.945 423.148 283.786C426.754 299.376 426.082 314.534 420.494 329.2C410.068 356.597 392.813 378.618 365.823 391.618C356.181 396.26 345.547 399.412 334.997 401.671C309.8 407.066 284.348 406.336 259.16 400.418C250.894 398.472 243.039 394.643 235.087 391.414C218.288 384.626 202.408 375.952 188.181 364.849C172.564 352.674 157.783 339.504 145.232 324.081C139.88 317.52 133.721 311.572 128.64 304.855C122.821 297.168 117.537 289.024 112.377 280.868C105.209 269.541 97.6609 258.353 91.5798 246.478C82.406 228.533 72.9515 210.523 67.7514 190.994C63.5491 175.185 60.0922 159.128 57.4502 143.002C55.5437 131.294 59.3034 119.976 62.8268 108.903C64.4819 103.746 66.621 98.7163 68.5709 93.5947Z" stroke="#27435E" stroke-width="2"/>
</svg>
