<?xml version="1.0" encoding="utf-8"?>
<!-- Generator: Adobe Illustrator 24.1.1, SVG Export Plug-In . SVG Version: 6.00 Build 0)  -->
<svg version="1.1" id="Layer_1" xmlns="http://www.w3.org/2000/svg" xmlns:xlink="http://www.w3.org/1999/xlink" x="0px" y="0px"
	 viewBox="0 0 319 266" style="enable-background:new 0 0 319 266;" xml:space="preserve">
<style type="text/css">
	.st0{fill:#E5F0F4;}
</style>
<path class="st0" d="M36.2,65.2c2.4-8.3,5.9-16.1,10.8-23.1c6.7-9.7,15.5-17.1,26.6-22.2c16.2-7.5,32-5.7,47.6,1.3
	c6.2,2.8,11.9,6.4,17.8,9.8c6.6,3.8,13.5,7.1,19.6,11.5c11.2,8.1,20,18.5,27.5,29.9c5,7.7,9.7,15.7,15.3,23.1
	c9.1,12,20.9,20.6,36.6,22.7c5.3,0.7,10.7,0.5,16,0.9c10.7,0.8,20.7,3.7,28.5,11.1c5.3,5.1,9.2,11.2,12.2,18
	c4.2,9.8,5.6,19.7,3.6,29.9c-3.7,19.1-12.6,35.5-29,47.1c-5.9,4.1-12.6,7.4-19.3,10.1c-16.1,6.4-33.2,8.9-50.6,8
	c-5.7-0.3-11.4-1.9-17.1-3.1c-12-2.5-23.6-6.3-34.4-11.9c-11.8-6.1-23.2-13-33.4-21.6c-4.3-3.7-9.1-6.8-13.3-10.6
	c-4.8-4.3-9.3-9-13.7-13.8c-6.1-6.6-12.5-13-17.9-20c-8.2-10.6-16.7-21.3-22.4-33.4c-4.7-9.8-8.9-19.9-12.5-30.1
	c-2.7-7.4-1.5-15.2-0.5-22.9C34.7,72.3,35.5,68.8,36.2,65.2z"/>
</svg>
