<svg width="425" height="431" viewBox="0 0 425 431" fill="none" xmlns="http://www.w3.org/2000/svg">
<path d="M114.945 403.675L93.9641 390.851L95.958 387.543L104.387 392.709L121.334 365.021L125.367 367.514L108.465 395.156L116.939 400.367L114.945 403.675Z" fill="white"/>
<path d="M84.1308 386.41L80.5509 383.329L89.7951 372.634C86.3965 373.677 82.6807 372.589 79.6446 369.961C74.8412 365.792 73.663 359.402 79.0102 353.239L90.0217 340.506L93.5563 343.587L82.9979 355.822C79.1914 360.218 79.6446 364.568 83.2698 367.695C86.9403 370.867 91.4265 370.776 95.4595 366.109L105.791 354.191L109.371 357.273L84.1308 386.41Z" fill="white"/>
<path d="M78.2398 326.051C83.3604 332.349 82.726 340.642 75.6569 346.352C68.6784 352.061 60.6123 351.155 55.3558 344.675C50.1446 338.24 51.2321 330.356 57.3043 325.416C58.12 324.736 58.7997 324.283 59.6154 323.74L74.0256 341.458C78.2852 337.515 78.1945 332.349 75.1131 328.588C72.3942 325.28 68.9956 324.555 65.9595 325.688L62.7421 321.746C67.7268 319.571 73.7537 320.567 78.2398 326.051ZM70.9894 343.859L59.6154 329.857C55.2652 333.346 55.4917 338.512 58.5732 342.319C61.5186 345.899 66.3673 346.941 70.9894 343.859Z" fill="white"/>
<path d="M28.4386 301.716C26.2635 296.958 27.1698 292.427 29.209 289.753L24.4509 291.928L22.457 287.578L60.7482 270.087L62.742 274.437L45.613 282.231C48.921 282.503 53.0899 284.769 55.2651 289.617C58.3918 296.505 55.401 304.345 47.3349 308.015C39.3142 311.731 31.656 308.74 28.4386 301.716ZM31.8372 299.224C34.0123 303.982 39.3142 306.429 45.4317 303.62C51.5492 300.81 53.3165 295.146 51.1414 290.433C48.9663 285.675 43.5738 283.228 37.4563 286.037C31.3841 288.756 29.6621 294.466 31.8372 299.224Z" fill="white"/>
<path d="M40.3111 244.982L41.444 249.604L37.3657 250.646C40.6736 251.689 43.166 254.679 44.0723 258.395C45.6583 264.785 42.9394 270.766 35.0093 272.715L18.7865 276.748L17.6536 272.216L33.2873 268.319C38.9064 266.914 41.0362 263.108 39.858 258.486C38.6798 253.728 34.964 251.281 28.9824 252.776L13.7112 256.492L12.5784 251.87L40.3111 244.982Z" fill="white"/>
<path d="M3.60606 243.17C1.79346 243.396 0.207436 242.173 0.0261766 240.36C-0.200398 238.638 1.06842 237.097 2.88102 236.871C4.69362 236.644 6.27964 237.868 6.4609 239.59C6.64216 241.402 5.41866 242.988 3.60606 243.17ZM11.3096 241.493L10.7205 236.78L39.0877 233.336L39.6768 238.049L11.3096 241.493Z" fill="white"/>
<path d="M9.0439 214.802C8.90795 207.733 12.4878 203.02 18.4694 201.48L18.56 206.6C15.1161 207.643 12.9863 210.543 13.0769 214.757C13.1676 219.968 16.9287 223.775 23.9072 223.639C30.9763 223.503 34.6469 219.606 34.5562 214.394C34.4656 210.18 32.4264 207.371 28.8012 206.419L28.7106 201.298C34.4203 202.658 38.4533 207.235 38.5439 214.304C38.6799 222.415 33.0155 228.306 23.9525 228.442C15.0255 228.623 9.17984 222.914 9.0439 214.802Z" fill="white"/>
<path d="M0.615356 190.242L1.3404 185.529L23.726 188.973L12.8957 176.194L13.8926 169.669L25.9011 185.121L42.1239 173.928L41.1269 180.318L26.9433 189.471L39.405 191.375L38.6799 196.042L0.615356 190.242Z" fill="white"/>
<path d="M25.5838 132.828C28.5293 125.713 36.0969 122.496 44.2989 125.94C52.5009 129.338 55.7636 137.087 52.8181 144.156C50.8242 148.96 46.9725 151.407 43.4379 151.815L48.2866 153.854L46.474 158.249L10.8564 143.431L12.669 139.036L26.8073 144.927C24.5869 142.026 23.6353 137.495 25.5838 132.828ZM28.9824 135.32C26.9886 140.078 28.9371 145.788 35.0093 148.325C41.2175 150.908 46.5646 148.235 48.5585 143.477C50.5977 138.628 48.6038 133.009 42.3957 130.426C36.2328 127.843 31.0216 130.471 28.9824 135.32Z" fill="white"/>
<path d="M62.878 123.266L60.431 127.344L35.9609 112.662L38.4079 108.584L42.3957 110.986C40.4924 107.95 40.4018 104.324 42.7129 100.427L46.9272 102.965L46.2927 104.053C43.9817 107.95 43.9364 111.937 49.6007 115.336L62.878 123.266Z" fill="white"/>
<path d="M78.0585 102.331C72.9832 108.584 64.6453 109.762 57.6214 104.053C50.5976 98.3882 50.1898 89.869 55.3104 83.5702C60.431 77.2714 68.8142 75.912 75.838 81.6217C82.8165 87.3314 83.1791 95.9865 78.0585 102.331ZM74.7958 99.7023C77.9225 95.8506 78.3304 89.9596 72.7113 85.3828C67.1376 80.8513 61.5185 82.392 58.4371 86.1985C55.2651 90.0956 55.0838 95.7599 60.6575 100.246C66.2766 104.868 71.6691 103.554 74.7958 99.7023Z" fill="white"/>
<path d="M69.1768 67.3021L72.9379 64.2207L93.239 78.5856L83.4963 55.5656L87.2574 52.4842L107.876 66.6677L97.6346 44.0103L101.26 41.0195L112.498 68.7522L108.691 71.879L88.9794 58.7376L98.0424 80.6247L94.2359 83.7515L69.1768 67.3021Z" fill="white"/>
<path d="M133.207 38.074C130.488 32.9081 126.274 31.7752 122.059 33.9956C117.754 36.2614 116.214 40.4757 119.114 45.9135L126.455 59.8705L122.241 62.0909L108.918 36.8052L113.132 34.5847L115.035 38.1646C115.307 34.6754 117.618 31.6393 121.017 29.8267C126.863 26.7452 133.252 27.9687 137.059 35.2191L144.898 50.1278L140.729 52.3029L133.207 38.074Z" fill="white"/>
<path d="M157.813 19.6761L154.233 20.673L153.191 16.9119L156.771 15.915L156.227 13.9664C154.505 7.84892 156.725 4.22372 163.749 2.27518L164.837 6.08163C160.713 7.25982 159.807 9.11774 160.804 12.6976L161.347 14.6462L167.102 13.0148L168.145 16.776L162.39 18.4073L169.051 42.1523L164.474 43.3758L157.813 19.6761Z" fill="white"/>
<path d="M191.391 37.9834C183.37 39.1163 176.528 34.2676 175.259 25.2952C174.036 16.3681 179.519 9.84279 187.539 8.75523C195.606 7.62236 202.629 12.3804 203.853 21.3075C205.122 30.2798 199.457 36.8505 191.391 37.9834ZM190.847 33.8597C195.741 33.18 200.092 29.147 199.095 21.9872C198.098 14.8728 192.932 12.1539 188.083 12.8336C183.144 13.5133 179.111 17.501 180.108 24.6155C181.059 31.7752 185.908 34.5394 190.847 33.8597Z" fill="white"/>
<path d="M219.033 25.1592L212.327 35.6723L207.387 35.5817L216.858 21.5794L207.886 7.03326L213.233 7.12389L219.849 17.8182L226.465 7.35047L231.404 7.4411L222.024 21.3981L230.997 35.9895L225.649 35.8989L219.033 25.1592Z" fill="white"/>
<path d="M258.14 11.4288L251.57 45.551C250.573 50.6262 247.537 52.2576 242.778 51.3513L240.06 50.8075L240.83 46.8651L242.778 47.2276C245.316 47.7261 246.494 47.001 246.947 44.5087L253.518 10.4772L258.14 11.4288ZM254.198 2.63769C254.56 0.825095 256.192 -0.262464 257.914 0.0547408C259.636 0.371945 260.769 2.0486 260.406 3.81588C260.043 5.62848 258.412 6.71604 256.69 6.39883C254.968 6.08163 253.881 4.45029 254.198 2.63769Z" fill="white"/>
<path d="M283.698 48.4058L279.166 46.9557L280.48 42.9227C277.807 45.1884 274 45.6869 270.375 44.5087C264.122 42.4695 260.497 37.0318 263.034 29.2376L268.2 13.332L272.641 14.7821L267.656 30.0986C265.844 35.5817 267.974 39.3881 272.505 40.8835C277.172 42.3789 281.205 40.521 283.109 34.6754L287.957 19.7668L292.489 21.2168L283.698 48.4058Z" fill="white"/>
<path d="M333.363 57.6047C336.399 52.6201 335.266 48.4511 331.278 46.0041C327.2 43.5118 322.759 44.4181 319.587 49.6746L311.385 63.0879L307.397 60.6409L315.826 46.8651C318.862 41.8805 317.729 37.7115 313.742 35.2645C309.663 32.7721 305.222 33.6784 302.05 38.935L293.848 52.3482L289.815 49.8559L304.724 25.4764L308.757 27.9688L306.627 31.5033C309.799 29.9173 313.515 30.2798 316.732 32.2284C320.72 34.6754 322.986 38.4818 322.351 43.104C325.931 40.4757 330.553 40.657 334.314 42.968C339.888 46.3666 342.063 52.4842 337.804 59.4627L329.013 73.8275L325.025 71.3805L333.363 57.6047Z" fill="white"/>
<path d="M364.223 68.6616C369.66 74.054 369.751 82.3014 363.452 88.6001C357.199 94.8536 348.77 94.9442 343.378 89.5518C339.707 85.8813 339.073 81.2591 339.888 77.9511L326.611 91.2737L323.258 87.9204L353.03 58.1485L356.383 61.5018L352.667 65.2176C355.975 64.266 360.552 64.9911 364.223 68.6616ZM360.597 70.882C356.927 67.2568 350.945 66.849 346.278 71.5164C341.52 76.2745 341.973 82.2561 345.643 85.8812C349.359 89.5971 355.295 89.9143 360.054 85.1562C364.766 80.4435 364.358 74.5978 360.597 70.882Z" fill="white"/>
<path d="M361.549 111.303C357.652 105.865 357.924 99.9289 361.957 96.6662L364.812 100.654C362.727 102.467 362.455 105.684 364.766 108.947C366.941 111.983 369.706 112.617 371.609 111.258C376.775 107.542 363.951 95.9865 372.606 89.7784C376.186 87.2407 381.487 88.5095 385.203 93.6754C388.874 98.796 388.511 104.189 384.161 107.678L381.397 103.826C383.617 102.013 384.025 98.9773 381.805 95.8959C379.765 93.041 377.228 92.316 375.325 93.6754C369.796 97.6178 382.439 108.947 374.237 115.064C370.476 117.692 365.219 116.424 361.549 111.303Z" fill="white"/>
<path d="M381.306 147.374C378.27 139.897 381.306 132.057 389.69 128.659C398.027 125.305 405.686 129.066 408.722 136.543C411.758 144.066 408.858 152.041 400.474 155.44C392.091 158.793 384.342 154.896 381.306 147.374ZM385.203 145.833C387.061 150.41 392.001 153.672 398.707 150.954C405.369 148.28 406.728 142.616 404.915 138.039C403.057 133.417 398.209 130.471 391.547 133.145C384.795 135.864 383.345 141.211 385.203 145.833Z" fill="white"/>
<path d="M416.607 161.059L394.901 174.925L420.413 178.414L421.501 183.354L391.23 178.505L390.052 173.113L415.564 156.074L416.607 161.059Z" fill="white"/>
<path d="M394.04 205.105C393.632 196.994 399.024 190.695 408.087 190.242C417.105 189.788 423.041 195.272 423.494 203.61C423.902 211.902 418.374 217.612 410.534 217.974C409.492 218.02 408.676 218.02 407.679 217.974L406.501 195.181C400.746 195.861 397.756 200.075 398.027 204.878C398.254 209.138 400.565 211.721 403.692 212.627L403.964 217.748C398.662 216.57 394.402 212.174 394.04 205.105ZM410.353 195.045L411.259 213.035C416.833 212.808 419.688 208.504 419.461 203.61C419.235 198.942 415.972 195.272 410.353 195.045Z" fill="white"/>
<path d="M394.13 228.533L394.538 223.82L422.996 226.267L422.588 230.98L417.966 230.572C421.002 232.475 422.724 235.693 422.316 240.224L417.422 239.816L417.513 238.547C417.921 234.016 416.153 230.436 409.583 229.847L394.13 228.533Z" fill="white"/>
<path d="M413.57 262.655L414.522 259.075L418.283 260.072L417.332 263.652L424.265 265.51L423.041 270.087L416.108 268.229L414.16 275.434L410.398 274.437L412.347 267.232L396.079 262.836C393.36 262.111 392.137 262.836 391.366 265.691L390.46 269.044L386.563 268.002L387.696 263.878C389.01 258.984 391.774 256.764 397.302 258.259L413.57 262.655Z" fill="white"/>
<path d="M420.912 287.533L419.054 291.883L406.048 286.355C408.087 289.255 408.178 293.152 406.592 296.868C404.1 302.713 398.39 305.749 390.868 302.532L375.37 295.916L377.228 291.611L392.091 297.955C397.438 300.266 401.426 298.499 403.329 294.103C405.233 289.663 403.783 285.403 398.118 282.956L383.617 276.748L385.475 272.398L420.912 287.533Z" fill="white"/>
<path d="M365.219 311.504C369.66 304.707 377.772 302.804 385.339 307.789C392.862 312.728 394.448 320.658 389.916 327.637C385.385 334.57 377.545 335.929 370.974 331.624C370.113 331.035 369.434 330.537 368.663 329.902L381.17 310.779C376.14 307.925 371.246 309.556 368.573 313.634C366.216 317.214 366.579 320.658 368.573 323.241L365.763 327.501C362.229 323.513 361.322 317.441 365.219 311.504ZM384.342 313L374.464 328.09C379.086 331.171 383.98 329.404 386.653 325.28C389.191 321.383 388.738 316.489 384.342 313Z" fill="white"/>
<path d="M373.285 363.843L369.977 367.242L342.335 340.325L345.643 336.926L373.285 363.843Z" fill="white"/>
<path d="M346.459 375.58C342.29 378.888 337.759 379.024 334.587 377.71L337.804 381.788L334.043 384.779L316.325 362.393L320.086 359.402L323.394 363.571C322.85 360.082 324.073 355.687 328.197 352.424C334.179 347.711 342.517 348.753 348 355.687C353.528 362.665 352.441 370.822 346.459 375.58ZM343.151 372.952C347.229 369.734 348.362 363.979 344.193 358.723C340.024 353.466 334.088 353.104 330.01 356.321C325.931 359.538 324.844 365.384 329.013 370.686C333.091 375.852 339.073 376.169 343.151 372.952Z" fill="white"/>
<path d="M307.443 395.836L309.391 370.912L297.156 377.8L295.253 374.402L312.201 364.885L314.104 368.284L312.201 393.207L324.209 386.455L326.113 389.809L309.346 399.234L307.443 395.836Z" fill="white"/>
<path d="M282.792 410.246L278.215 412.013L279.03 366.653L283.607 364.885L283.335 379.749L304.271 401.908L299.377 403.811L282.656 385.504L282.792 410.246Z" fill="white"/>
<path d="M243.639 419.671C239.198 420.215 234.803 418.448 232.447 415.412L234.304 430.411L229.546 431L224.834 392.709L229.592 392.12L230.226 397.467C231.54 394.114 234.894 391.032 240.059 390.398C247.672 389.446 254.243 394.703 255.331 403.494C256.418 412.285 251.298 418.72 243.639 419.671ZM242.235 415.683C247.4 415.049 251.343 410.744 250.527 404.083C249.712 397.422 244.818 394.023 239.652 394.657C234.486 395.292 230.498 399.733 231.314 406.394C232.129 412.919 237.069 416.318 242.235 415.683Z" fill="white"/>
<path d="M205.983 391.621C214.049 392.074 219.849 398.192 219.305 407.255C218.761 416.273 212.1 421.529 204.034 421.076C195.923 420.578 189.941 414.551 190.485 405.533C191.029 396.47 197.826 391.123 205.983 391.621ZM205.711 395.79C200.771 395.518 195.741 398.6 195.288 405.805C194.88 412.965 199.412 416.635 204.306 416.952C209.291 417.27 214.049 414.143 214.456 406.938C214.864 399.733 210.65 396.062 205.711 395.79Z" fill="white"/>
<path d="M168.281 415.819C163.205 414.551 160.215 411.152 159.308 407.753L158.039 412.829L153.372 411.696L160.35 383.374C162.254 375.716 168.688 371.592 176.845 373.586C184.141 375.399 188.446 380.383 187.857 386.501L183.325 385.368C183.144 381.788 180.425 378.707 175.848 377.574C170.954 376.35 166.468 378.571 165.018 384.507L163.568 390.307C165.97 387.724 170.229 385.957 175.304 387.18C182.736 389.038 187.041 396.243 184.911 404.853C182.827 413.508 175.712 417.632 168.281 415.819ZM168.371 411.605C173.446 412.874 178.658 410.246 180.244 403.72C181.875 397.195 178.522 392.301 173.446 391.032C168.371 389.763 163.115 392.482 161.483 399.008C159.897 405.397 163.296 410.336 168.371 411.605Z" fill="white"/>
<path d="M152.602 380.293C154.324 380.927 155.094 382.785 154.46 384.462C153.825 386.183 151.967 386.954 150.291 386.319C148.705 385.685 147.889 383.872 148.523 382.196C149.158 380.519 150.97 379.658 152.602 380.293Z" fill="white"/>
</svg>
