<svg width="344" height="346" viewBox="0 0 344 346" fill="none" xmlns="http://www.w3.org/2000/svg">
<path d="M118.699 49.1279C85.2356 16.7321 57.8503 21.7703 44.5188 27.6527C38.3344 30.4081 33.2641 35.4785 30.5086 41.6628C24.6262 54.9943 19.5881 82.3797 51.9839 115.843C91.518 156.711 105.924 125.752 127.148 137.635C137.7 143.517 183.252 184.399 212.643 227.133C242.035 269.868 272.321 308.16 290.225 312.721C296.092 314.185 301.579 312.6 305.445 310.862C309.06 309.139 312.062 306.137 313.718 302.589C315.515 298.782 317.1 293.295 315.577 287.369C311.016 269.465 272.723 239.179 229.989 209.787C187.255 180.396 146.373 134.845 140.491 124.292C128.607 103.068 159.567 88.662 118.699 49.1279Z" fill="#E18D70"/>
<path d="M115.843 53.6974C82.3796 21.3016 54.9943 26.3397 41.6628 32.2222C35.4785 34.9776 30.4081 40.0479 27.6527 46.2323C21.7703 59.5638 16.7321 86.9491 49.1279 120.412C88.662 161.281 103.068 130.321 124.292 142.204C134.845 148.087 180.396 188.968 209.787 231.703C239.179 274.437 269.465 312.729 287.369 317.29C293.236 318.754 298.723 317.169 302.589 315.431C306.204 313.709 309.206 310.707 310.862 307.159C312.659 303.352 314.244 297.865 312.721 291.939C308.16 274.035 269.868 243.748 227.133 214.357C184.399 184.965 143.517 139.414 137.635 128.861C125.751 107.638 156.711 93.2315 115.843 53.6974Z" stroke="#27435E" stroke-miterlimit="10"/>
</svg>
