<svg width="189" height="163" viewBox="0 0 189 163" fill="none" xmlns="http://www.w3.org/2000/svg">
<path d="M23.8105 48.4459C27.9533 37.2615 36.7606 30.0303 50.5035 26.7674C56.1172 25.4318 61.8348 24.5251 67.9227 24.4204C69.4744 24.3912 71.0962 24.5778 72.6846 24.8125C76.9212 25.4553 81.1882 25.9122 85.3702 26.9419C93.6915 28.9833 101.464 32.2589 108.551 37.1962C116.533 42.7463 122.691 49.1549 126.835 56.8015C128.489 59.846 130.389 62.8454 132.37 65.8043C135.409 70.3641 140.14 73.7866 144.908 77.1251C150.413 80.973 155.539 85.0835 159.557 90.0312C162.964 94.2369 164.571 98.6654 164.862 103.247C165.477 112.947 161.697 120.744 153.055 125.97C148.151 128.922 142.113 130.625 135.684 131.455C125.884 132.728 116.042 133.896 105.707 133.528C104.176 133.479 102.649 133.481 101.1 133.3C98.6346 132.994 96.6827 133.451 94.8071 134.486C89.3814 137.479 82.943 137.113 76.0987 135.011C69.2438 132.904 64.6947 128.453 60.5841 123.69C58.6461 121.445 57.2637 118.937 55.341 116.686C52.4751 113.354 49.2773 110.205 46.346 106.908C40.5336 100.371 34.3299 93.9808 29.1965 87.1594C24.1195 80.4114 21.8395 73.0909 20.9406 65.6692C20.19 59.4156 21.5685 53.8357 23.8105 48.4459Z" fill="#E18D70"/>
<path d="M29.0662 41.0068C33.2089 29.8224 42.0162 22.5912 55.7591 19.3283C61.3729 17.9928 67.0905 17.086 73.1784 16.9813C74.7301 16.9521 76.3519 17.1388 77.9403 17.3734C82.1769 18.0163 86.4439 18.4731 90.6259 19.5028C98.9472 21.5442 106.719 24.8198 113.807 29.7571C121.789 35.3072 127.947 41.7158 132.091 49.3624C133.745 52.4069 135.645 55.4063 137.626 58.3652C140.664 62.925 145.396 66.3475 150.164 69.686C155.669 73.5339 160.795 77.6444 164.812 82.5921C168.219 86.7978 169.826 91.2263 170.118 95.8084C170.733 105.508 166.953 113.305 158.31 118.531C153.407 121.483 147.369 123.186 140.94 124.016C131.14 125.289 121.297 126.457 110.962 126.089C109.432 126.04 107.905 126.042 106.356 125.861C103.89 125.555 101.938 126.012 100.063 127.047C94.6371 130.04 88.1987 129.674 81.3544 127.572C74.4995 125.465 69.9504 121.014 65.8397 116.251C63.9017 114.006 62.5194 111.498 60.5966 109.246C57.7307 105.915 54.533 102.766 51.6016 99.4685C45.7892 92.9323 39.5855 86.5417 34.4522 79.7203C29.3751 72.9723 27.0952 65.6518 26.1963 58.2302C25.4457 51.9765 26.8242 46.3966 29.0662 41.0068Z" stroke="#A0D2E3"/>
</svg>
