<svg width="576" height="504" viewBox="0 0 576 504" fill="none" xmlns="http://www.w3.org/2000/svg">
<path d="M72.4879 149.785C85.1 115.205 111.913 92.848 153.751 82.7595C170.841 78.6303 188.248 75.8268 206.782 75.503C211.506 75.4128 216.443 75.9899 221.279 76.7155C234.176 78.703 247.167 80.1155 259.898 83.2991C285.231 89.6106 308.893 99.7382 330.47 115.003C354.77 132.163 373.517 151.977 386.133 175.619C391.167 185.032 396.953 194.306 402.983 203.454C412.234 217.552 426.638 228.134 441.153 238.456C457.912 250.353 473.518 263.061 485.749 278.359C496.121 291.362 501.014 305.054 501.901 319.221C503.774 349.209 492.265 373.316 465.955 389.475C451.027 398.601 432.644 403.866 413.072 406.434C383.238 410.37 353.274 413.981 321.81 412.842C317.15 412.691 312.501 412.698 307.786 412.139C300.28 411.192 294.337 412.604 288.628 415.805C272.11 425.057 252.509 423.926 231.672 417.427C210.803 410.914 196.954 397.152 184.44 382.425C178.54 375.483 174.332 367.729 168.478 360.769C159.753 350.467 150.018 340.732 141.094 330.537C123.399 310.329 104.513 290.57 88.8847 269.48C73.4285 248.616 66.4874 225.983 63.7509 203.036C61.4657 183.701 65.6624 166.449 72.4879 149.785Z" fill="#E18D70"/>
<path d="M89.876 127.354L89.8871 127.327L89.8971 127.299C102.309 93.2689 128.666 71.2092 170.103 61.2177L170.103 61.2176C187.117 57.1068 204.411 54.3242 222.808 54.0028L222.81 54.0028C227.405 53.915 232.242 54.4765 237.056 55.1989C240.256 55.6921 243.449 56.1483 246.632 56.6032C256.364 57.994 266.01 59.3726 275.534 61.7543L275.536 61.7546C300.713 68.0273 324.198 78.0842 345.604 93.2279L345.605 93.2286C369.755 110.283 388.326 129.93 400.81 153.325L400.81 153.326C405.875 162.796 411.687 172.111 417.729 181.277C427.158 195.647 441.801 206.379 456.283 216.678L456.284 216.679C473.002 228.546 488.474 241.159 500.577 256.294C510.757 269.057 515.536 282.455 516.404 296.314C518.244 325.779 506.982 349.343 481.171 365.196C466.482 374.176 448.322 379.396 428.877 381.947L428.876 381.947C399.041 385.883 369.189 389.477 337.864 388.343L337.858 388.342C336.817 388.309 335.784 388.283 334.758 388.257C331.129 388.166 327.576 388.077 323.968 387.65C316.132 386.663 309.87 388.147 303.894 391.497C287.9 400.455 268.788 399.441 248.119 392.995C227.671 386.613 214.052 373.127 201.583 358.453L200.44 359.425L201.583 358.453C198.691 355.05 196.206 351.44 193.679 347.755L193.561 347.583C191.085 343.973 188.562 340.294 185.626 336.803L185.623 336.799C181.236 331.62 176.6 326.588 171.96 321.592C171.461 321.055 170.961 320.517 170.462 319.98C166.317 315.521 162.189 311.08 158.223 306.549L157.094 307.537L158.223 306.549C153.529 301.189 148.763 295.872 144.003 290.562C130.755 275.783 117.551 261.054 106.09 245.587C90.827 224.984 83.9547 202.618 81.2405 179.86C78.9954 160.864 83.1079 143.878 89.876 127.354Z" stroke="#A0D2E3" stroke-width="3"/>
</svg>
