<svg width="1047" height="1046" viewBox="0 0 1047 1046" fill="none" xmlns="http://www.w3.org/2000/svg">
<path d="M222.9 409C228.423 409 232.9 404.523 232.9 399C232.9 393.477 228.423 389 222.9 389C217.377 389 212.9 393.477 212.9 399C212.9 404.523 217.377 409 222.9 409Z" fill="#F29F05"/>
<path d="M187.5 444.4C193.023 444.4 197.5 439.923 197.5 434.4C197.5 428.877 193.023 424.4 187.5 424.4C181.977 424.4 177.5 428.877 177.5 434.4C177.5 439.923 181.977 444.4 187.5 444.4Z" fill="#F29F05"/>
<path d="M152.2 409C157.723 409 162.2 404.523 162.2 399C162.2 393.477 157.723 389 152.2 389C146.677 389 142.2 393.477 142.2 399C142.2 404.523 146.677 409 152.2 409Z" fill="#F29F05"/>
<path d="M258.2 444.4C263.723 444.4 268.2 439.923 268.2 434.4C268.2 428.877 263.723 424.4 258.2 424.4C252.677 424.4 248.2 428.877 248.2 434.4C248.2 439.923 252.677 444.4 258.2 444.4Z" fill="#F29F05"/>
<path d="M293.6 479.7C299.123 479.7 303.6 475.223 303.6 469.7C303.6 464.177 299.123 459.7 293.6 459.7C288.077 459.7 283.6 464.177 283.6 469.7C283.6 475.223 288.077 479.7 293.6 479.7Z" fill="#F29F05"/>
<path d="M258.2 515.1C263.723 515.1 268.2 510.623 268.2 505.1C268.2 499.577 263.723 495.1 258.2 495.1C252.677 495.1 248.2 499.577 248.2 505.1C248.2 510.623 252.677 515.1 258.2 515.1Z" fill="#F29F05"/>
<path d="M222.9 479.7C228.423 479.7 232.9 475.223 232.9 469.7C232.9 464.177 228.423 459.7 222.9 459.7C217.377 459.7 212.9 464.177 212.9 469.7C212.9 475.223 217.377 479.7 222.9 479.7Z" fill="#F29F05"/>
<path d="M364.3 409C369.823 409 374.3 404.523 374.3 399C374.3 393.477 369.823 389 364.3 389C358.777 389 354.3 393.477 354.3 399C354.3 404.523 358.777 409 364.3 409Z" fill="#F29F05"/>
<path d="M328.9 444.4C334.423 444.4 338.9 439.923 338.9 434.4C338.9 428.877 334.423 424.4 328.9 424.4C323.377 424.4 318.9 428.877 318.9 434.4C318.9 439.923 323.377 444.4 328.9 444.4Z" fill="#F29F05"/>
<path d="M293.6 409C299.123 409 303.6 404.523 303.6 399C303.6 393.477 299.123 389 293.6 389C288.077 389 283.6 393.477 283.6 399C283.6 404.523 288.077 409 293.6 409Z" fill="#F29F05"/>
<path d="M470.4 444.4C475.923 444.4 480.4 439.923 480.4 434.4C480.4 428.877 475.923 424.4 470.4 424.4C464.877 424.4 460.4 428.877 460.4 434.4C460.4 439.923 464.877 444.4 470.4 444.4Z" fill="#F29F05"/>
<path d="M435 409C440.523 409 445 404.523 445 399C445 393.477 440.523 389 435 389C429.477 389 425 393.477 425 399C425 404.523 429.477 409 435 409Z" fill="#F29F05"/>
<path d="M471.2 374.4C476.723 374.4 481.2 369.923 481.2 364.4C481.2 358.877 476.723 354.4 471.2 354.4C465.677 354.4 461.2 358.877 461.2 364.4C461.2 369.923 465.677 374.4 471.2 374.4Z" fill="#F29F05"/>
<path d="M328.9 515.1C334.423 515.1 338.9 510.623 338.9 505.1C338.9 499.577 334.423 495.1 328.9 495.1C323.377 495.1 318.9 499.577 318.9 505.1C318.9 510.623 323.377 515.1 328.9 515.1Z" fill="#F29F05"/>
<path d="M364.3 550.4C369.823 550.4 374.3 545.923 374.3 540.4C374.3 534.877 369.823 530.4 364.3 530.4C358.777 530.4 354.3 534.877 354.3 540.4C354.3 545.923 358.777 550.4 364.3 550.4Z" fill="#F29F05"/>
<path d="M328.9 585.8C334.423 585.8 338.9 581.323 338.9 575.8C338.9 570.277 334.423 565.8 328.9 565.8C323.377 565.8 318.9 570.277 318.9 575.8C318.9 581.323 323.377 585.8 328.9 585.8Z" fill="#F29F05"/>
<path d="M293.6 550.4C299.123 550.4 303.6 545.923 303.6 540.4C303.6 534.877 299.123 530.4 293.6 530.4C288.077 530.4 283.6 534.877 283.6 540.4C283.6 545.923 288.077 550.4 293.6 550.4Z" fill="#F29F05"/>
<path d="M399.7 585.8C405.223 585.8 409.7 581.323 409.7 575.8C409.7 570.277 405.223 565.8 399.7 565.8C394.177 565.8 389.7 570.277 389.7 575.8C389.7 581.323 394.177 585.8 399.7 585.8Z" fill="#F29F05"/>
<path d="M435 621.1C440.523 621.1 445 616.623 445 611.1C445 605.577 440.523 601.1 435 601.1C429.477 601.1 425 605.577 425 611.1C425 616.623 429.477 621.1 435 621.1Z" fill="#F29F05"/>
<path d="M399.7 656.5C405.223 656.5 409.7 652.023 409.7 646.5C409.7 640.977 405.223 636.5 399.7 636.5C394.177 636.5 389.7 640.977 389.7 646.5C389.7 652.023 394.177 656.5 399.7 656.5Z" fill="#F29F05"/>
<path d="M364.3 621.1C369.823 621.1 374.3 616.623 374.3 611.1C374.3 605.577 369.823 601.1 364.3 601.1C358.777 601.1 354.3 605.577 354.3 611.1C354.3 616.623 358.777 621.1 364.3 621.1Z" fill="#F29F05"/>
<path d="M399.7 444.4C405.223 444.4 409.7 439.923 409.7 434.4C409.7 428.877 405.223 424.4 399.7 424.4C394.177 424.4 389.7 428.877 389.7 434.4C389.7 439.923 394.177 444.4 399.7 444.4Z" fill="#F29F05"/>
<path d="M435 479.7C440.523 479.7 445 475.223 445 469.7C445 464.177 440.523 459.7 435 459.7C429.477 459.7 425 464.177 425 469.7C425 475.223 429.477 479.7 435 479.7Z" fill="#F29F05"/>
<path d="M399.7 515.1C405.223 515.1 409.7 510.623 409.7 505.1C409.7 499.577 405.223 495.1 399.7 495.1C394.177 495.1 389.7 499.577 389.7 505.1C389.7 510.623 394.177 515.1 399.7 515.1Z" fill="#F29F05"/>
<path d="M364.3 479.7C369.823 479.7 374.3 475.223 374.3 469.7C374.3 464.177 369.823 459.7 364.3 459.7C358.777 459.7 354.3 464.177 354.3 469.7C354.3 475.223 358.777 479.7 364.3 479.7Z" fill="#F29F05"/>
<path d="M470.4 515.1C475.923 515.1 480.4 510.623 480.4 505.1C480.4 499.577 475.923 495.1 470.4 495.1C464.877 495.1 460.4 499.577 460.4 505.1C460.4 510.623 464.877 515.1 470.4 515.1Z" fill="#F29F05"/>
<path d="M470.4 585.8C475.923 585.8 480.4 581.323 480.4 575.8C480.4 570.277 475.923 565.8 470.4 565.8C464.877 565.8 460.4 570.277 460.4 575.8C460.4 581.323 464.877 585.8 470.4 585.8Z" fill="#F29F05"/>
<path d="M435 550.4C440.523 550.4 445 545.923 445 540.4C445 534.877 440.523 530.4 435 530.4C429.477 530.4 425 534.877 425 540.4C425 545.923 429.477 550.4 435 550.4Z" fill="#F29F05"/>
<path d="M470.4 656.5C475.923 656.5 480.4 652.023 480.4 646.5C480.4 640.977 475.923 636.5 470.4 636.5C464.877 636.5 460.4 640.977 460.4 646.5C460.4 652.023 464.877 656.5 470.4 656.5Z" fill="#F29F05"/>
<path d="M470.4 727.2C475.923 727.2 480.4 722.723 480.4 717.2C480.4 711.677 475.923 707.2 470.4 707.2C464.877 707.2 460.4 711.677 460.4 717.2C460.4 722.723 464.877 727.2 470.4 727.2Z" fill="#F29F05"/>
<path d="M435 691.9C440.523 691.9 445 687.423 445 681.9C445 676.377 440.523 671.9 435 671.9C429.477 671.9 425 676.377 425 681.9C425 687.423 429.477 691.9 435 691.9Z" fill="#F29F05"/>
<path d="M81.5 409C87.0228 409 91.5 404.523 91.5 399C91.5 393.477 87.0228 389 81.5 389C75.9772 389 71.5 393.477 71.5 399C71.5 404.523 75.9772 409 81.5 409Z" fill="#F29F05"/>
<path d="M46.1001 444.4C51.6229 444.4 56.1001 439.923 56.1001 434.4C56.1001 428.877 51.6229 424.4 46.1001 424.4C40.5772 424.4 36.1001 428.877 36.1001 434.4C36.1001 439.923 40.5772 444.4 46.1001 444.4Z" fill="#F29F05"/>
<path d="M46.1001 515.1C51.6229 515.1 56.1001 510.623 56.1001 505.1C56.1001 499.577 51.6229 495.1 46.1001 495.1C40.5772 495.1 36.1001 499.577 36.1001 505.1C36.1001 510.623 40.5772 515.1 46.1001 515.1Z" fill="#F29F05"/>
<path d="M81.5 550.4C87.0228 550.4 91.5 545.923 91.5 540.4C91.5 534.877 87.0228 530.4 81.5 530.4C75.9772 530.4 71.5 534.877 71.5 540.4C71.5 545.923 75.9772 550.4 81.5 550.4Z" fill="#F29F05"/>
<path d="M46.1001 585.8C51.6229 585.8 56.1001 581.323 56.1001 575.8C56.1001 570.277 51.6229 565.8 46.1001 565.8C40.5772 565.8 36.1001 570.277 36.1001 575.8C36.1001 581.323 40.5772 585.8 46.1001 585.8Z" fill="#F29F05"/>
<path d="M116.8 585.8C122.323 585.8 126.8 581.323 126.8 575.8C126.8 570.277 122.323 565.8 116.8 565.8C111.277 565.8 106.8 570.277 106.8 575.8C106.8 581.323 111.277 585.8 116.8 585.8Z" fill="#F29F05"/>
<path d="M152.2 621.1C157.723 621.1 162.2 616.623 162.2 611.1C162.2 605.577 157.723 601.1 152.2 601.1C146.677 601.1 142.2 605.577 142.2 611.1C142.2 616.623 146.677 621.1 152.2 621.1Z" fill="#F29F05"/>
<path d="M116.8 656.5C122.323 656.5 126.8 652.023 126.8 646.5C126.8 640.977 122.323 636.5 116.8 636.5C111.277 636.5 106.8 640.977 106.8 646.5C106.8 652.023 111.277 656.5 116.8 656.5Z" fill="#F29F05"/>
<path d="M81.5 621.1C87.0228 621.1 91.5 616.623 91.5 611.1C91.5 605.577 87.0228 601.1 81.5 601.1C75.9772 601.1 71.5 605.577 71.5 611.1C71.5 616.623 75.9772 621.1 81.5 621.1Z" fill="#F29F05"/>
<path d="M116.8 444.4C122.323 444.4 126.8 439.923 126.8 434.4C126.8 428.877 122.323 424.4 116.8 424.4C111.277 424.4 106.8 428.877 106.8 434.4C106.8 439.923 111.277 444.4 116.8 444.4Z" fill="#F29F05"/>
<path d="M152.2 479.7C157.723 479.7 162.2 475.223 162.2 469.7C162.2 464.177 157.723 459.7 152.2 459.7C146.677 459.7 142.2 464.177 142.2 469.7C142.2 475.223 146.677 479.7 152.2 479.7Z" fill="#F29F05"/>
<path d="M116.8 515.1C122.323 515.1 126.8 510.623 126.8 505.1C126.8 499.577 122.323 495.1 116.8 495.1C111.277 495.1 106.8 499.577 106.8 505.1C106.8 510.623 111.277 515.1 116.8 515.1Z" fill="#F29F05"/>
<path d="M81.5 479.7C87.0228 479.7 91.5 475.223 91.5 469.7C91.5 464.177 87.0228 459.7 81.5 459.7C75.9772 459.7 71.5 464.177 71.5 469.7C71.5 475.223 75.9772 479.7 81.5 479.7Z" fill="#F29F05"/>
<path d="M187.5 515.1C193.023 515.1 197.5 510.623 197.5 505.1C197.5 499.577 193.023 495.1 187.5 495.1C181.977 495.1 177.5 499.577 177.5 505.1C177.5 510.623 181.977 515.1 187.5 515.1Z" fill="#F29F05"/>
<path d="M222.9 550.4C228.423 550.4 232.9 545.923 232.9 540.4C232.9 534.877 228.423 530.4 222.9 530.4C217.377 530.4 212.9 534.877 212.9 540.4C212.9 545.923 217.377 550.4 222.9 550.4Z" fill="#F29F05"/>
<path d="M187.5 585.8C193.023 585.8 197.5 581.323 197.5 575.8C197.5 570.277 193.023 565.8 187.5 565.8C181.977 565.8 177.5 570.277 177.5 575.8C177.5 581.323 181.977 585.8 187.5 585.8Z" fill="#F29F05"/>
<path d="M152.2 550.4C157.723 550.4 162.2 545.923 162.2 540.4C162.2 534.877 157.723 530.4 152.2 530.4C146.677 530.4 142.2 534.877 142.2 540.4C142.2 545.923 146.677 550.4 152.2 550.4Z" fill="#F29F05"/>
<path d="M46.1001 656.5C51.6229 656.5 56.1001 652.023 56.1001 646.5C56.1001 640.977 51.6229 636.5 46.1001 636.5C40.5772 636.5 36.1001 640.977 36.1001 646.5C36.1001 652.023 40.5772 656.5 46.1001 656.5Z" fill="#F29F05"/>
<path d="M81.5 691.9C87.0228 691.9 91.5 687.423 91.5 681.9C91.5 676.377 87.0228 671.9 81.5 671.9C75.9772 671.9 71.5 676.377 71.5 681.9C71.5 687.423 75.9772 691.9 81.5 691.9Z" fill="#F29F05"/>
<path d="M46.1001 727.2C51.6229 727.2 56.1001 722.723 56.1001 717.2C56.1001 711.677 51.6229 707.2 46.1001 707.2C40.5772 707.2 36.1001 711.677 36.1001 717.2C36.1001 722.723 40.5772 727.2 46.1001 727.2Z" fill="#F29F05"/>
<path d="M187.5 656.5C193.023 656.5 197.5 652.023 197.5 646.5C197.5 640.977 193.023 636.5 187.5 636.5C181.977 636.5 177.5 640.977 177.5 646.5C177.5 652.023 181.977 656.5 187.5 656.5Z" fill="#F29F05"/>
<path d="M222.9 691.9C228.423 691.9 232.9 687.423 232.9 681.9C232.9 676.377 228.423 671.9 222.9 671.9C217.377 671.9 212.9 676.377 212.9 681.9C212.9 687.423 217.377 691.9 222.9 691.9Z" fill="#F29F05"/>
<path d="M187.5 727.2C193.023 727.2 197.5 722.723 197.5 717.2C197.5 711.677 193.023 707.2 187.5 707.2C181.977 707.2 177.5 711.677 177.5 717.2C177.5 722.723 181.977 727.2 187.5 727.2Z" fill="#F29F05"/>
<path d="M152.2 691.9C157.723 691.9 162.2 687.423 162.2 681.9C162.2 676.377 157.723 671.9 152.2 671.9C146.677 671.9 142.2 676.377 142.2 681.9C142.2 687.423 146.677 691.9 152.2 691.9Z" fill="#F29F05"/>
<path d="M258.2 727.2C263.723 727.2 268.2 722.723 268.2 717.2C268.2 711.677 263.723 707.2 258.2 707.2C252.677 707.2 248.2 711.677 248.2 717.2C248.2 722.723 252.677 727.2 258.2 727.2Z" fill="#F29F05"/>
<path d="M293.6 762.6C299.123 762.6 303.6 758.123 303.6 752.6C303.6 747.077 299.123 742.6 293.6 742.6C288.077 742.6 283.6 747.077 283.6 752.6C283.6 758.123 288.077 762.6 293.6 762.6Z" fill="#F29F05"/>
<path d="M222.9 762.6C228.423 762.6 232.9 758.123 232.9 752.6C232.9 747.077 228.423 742.6 222.9 742.6C217.377 742.6 212.9 747.077 212.9 752.6C212.9 758.123 217.377 762.6 222.9 762.6Z" fill="#F29F05"/>
<path d="M258.2 585.8C263.723 585.8 268.2 581.323 268.2 575.8C268.2 570.277 263.723 565.8 258.2 565.8C252.677 565.8 248.2 570.277 248.2 575.8C248.2 581.323 252.677 585.8 258.2 585.8Z" fill="#F29F05"/>
<path d="M293.6 621.1C299.123 621.1 303.6 616.623 303.6 611.1C303.6 605.577 299.123 601.1 293.6 601.1C288.077 601.1 283.6 605.577 283.6 611.1C283.6 616.623 288.077 621.1 293.6 621.1Z" fill="#F29F05"/>
<path d="M258.2 656.5C263.723 656.5 268.2 652.023 268.2 646.5C268.2 640.977 263.723 636.5 258.2 636.5C252.677 636.5 248.2 640.977 248.2 646.5C248.2 652.023 252.677 656.5 258.2 656.5Z" fill="#F29F05"/>
<path d="M222.9 621.1C228.423 621.1 232.9 616.623 232.9 611.1C232.9 605.577 228.423 601.1 222.9 601.1C217.377 601.1 212.9 605.577 212.9 611.1C212.9 616.623 217.377 621.1 222.9 621.1Z" fill="#F29F05"/>
<path d="M328.9 656.5C334.423 656.5 338.9 652.023 338.9 646.5C338.9 640.977 334.423 636.5 328.9 636.5C323.377 636.5 318.9 640.977 318.9 646.5C318.9 652.023 323.377 656.5 328.9 656.5Z" fill="#F29F05"/>
<path d="M364.3 691.9C369.823 691.9 374.3 687.423 374.3 681.9C374.3 676.377 369.823 671.9 364.3 671.9C358.777 671.9 354.3 676.377 354.3 681.9C354.3 687.423 358.777 691.9 364.3 691.9Z" fill="#F29F05"/>
<path d="M328.9 727.2C334.423 727.2 338.9 722.723 338.9 717.2C338.9 711.677 334.423 707.2 328.9 707.2C323.377 707.2 318.9 711.677 318.9 717.2C318.9 722.723 323.377 727.2 328.9 727.2Z" fill="#F29F05"/>
<path d="M293.6 691.9C299.123 691.9 303.6 687.423 303.6 681.9C303.6 676.377 299.123 671.9 293.6 671.9C288.077 671.9 283.6 676.377 283.6 681.9C283.6 687.423 288.077 691.9 293.6 691.9Z" fill="#F29F05"/>
<path d="M399.7 727.2C405.223 727.2 409.7 722.723 409.7 717.2C409.7 711.677 405.223 707.2 399.7 707.2C394.177 707.2 389.7 711.677 389.7 717.2C389.7 722.723 394.177 727.2 399.7 727.2Z" fill="#F29F05"/>
<path d="M435 762.6C440.523 762.6 445 758.123 445 752.6C445 747.077 440.523 742.6 435 742.6C429.477 742.6 425 747.077 425 752.6C425 758.123 429.477 762.6 435 762.6Z" fill="#F29F05"/>
<path d="M364.3 762.6C369.823 762.6 374.3 758.123 374.3 752.6C374.3 747.077 369.823 742.6 364.3 742.6C358.777 742.6 354.3 747.077 354.3 752.6C354.3 758.123 358.777 762.6 364.3 762.6Z" fill="#F29F05"/>
<path d="M116.8 727.2C122.323 727.2 126.8 722.723 126.8 717.2C126.8 711.677 122.323 707.2 116.8 707.2C111.277 707.2 106.8 711.677 106.8 717.2C106.8 722.723 111.277 727.2 116.8 727.2Z" fill="#F29F05"/>
<path d="M152.2 762.6C157.723 762.6 162.2 758.123 162.2 752.6C162.2 747.077 157.723 742.6 152.2 742.6C146.677 742.6 142.2 747.077 142.2 752.6C142.2 758.123 146.677 762.6 152.2 762.6Z" fill="#F29F05"/>
<path d="M81.5 762.6C87.0228 762.6 91.5 758.123 91.5 752.6C91.5 747.077 87.0228 742.6 81.5 742.6C75.9772 742.6 71.5 747.077 71.5 752.6C71.5 758.123 75.9772 762.6 81.5 762.6Z" fill="#F29F05"/>
<path d="M612.5 20.4001C618.023 20.4001 622.5 15.923 622.5 10.4001C622.5 4.8773 618.023 0.400146 612.5 0.400146C606.977 0.400146 602.5 4.8773 602.5 10.4001C602.5 15.923 606.977 20.4001 612.5 20.4001Z" fill="#F29F05"/>
<path d="M683.2 20.4001C688.723 20.4001 693.2 15.923 693.2 10.4001C693.2 4.8773 688.723 0.400146 683.2 0.400146C677.677 0.400146 673.2 4.8773 673.2 10.4001C673.2 15.923 677.677 20.4001 683.2 20.4001Z" fill="#F29F05"/>
<path d="M718.6 55.7002C724.123 55.7002 728.6 51.223 728.6 45.7002C728.6 40.1773 724.123 35.7002 718.6 35.7002C713.077 35.7002 708.6 40.1773 708.6 45.7002C708.6 51.223 713.077 55.7002 718.6 55.7002Z" fill="#F29F05"/>
<path d="M683.2 91.1001C688.723 91.1001 693.2 86.6229 693.2 81.1001C693.2 75.5773 688.723 71.1001 683.2 71.1001C677.677 71.1001 673.2 75.5773 673.2 81.1001C673.2 86.6229 677.677 91.1001 683.2 91.1001Z" fill="#F29F05"/>
<path d="M647.9 55.7002C653.423 55.7002 657.9 51.223 657.9 45.7002C657.9 40.1773 653.423 35.7002 647.9 35.7002C642.377 35.7002 637.9 40.1773 637.9 45.7002C637.9 51.223 642.377 55.7002 647.9 55.7002Z" fill="#F29F05"/>
<path d="M753.9 20.4001C759.423 20.4001 763.9 15.923 763.9 10.4001C763.9 4.8773 759.423 0.400146 753.9 0.400146C748.377 0.400146 743.9 4.8773 743.9 10.4001C743.9 15.923 748.377 20.4001 753.9 20.4001Z" fill="#F29F05"/>
<path d="M895.4 20.4001C900.923 20.4001 905.4 15.923 905.4 10.4001C905.4 4.8773 900.923 0.400146 895.4 0.400146C889.877 0.400146 885.4 4.8773 885.4 10.4001C885.4 15.923 889.877 20.4001 895.4 20.4001Z" fill="#F29F05"/>
<path d="M753.9 91.1001C759.423 91.1001 763.9 86.6229 763.9 81.1001C763.9 75.5773 759.423 71.1001 753.9 71.1001C748.377 71.1001 743.9 75.5773 743.9 81.1001C743.9 86.6229 748.377 91.1001 753.9 91.1001Z" fill="#F29F05"/>
<path d="M789.3 126.4C794.823 126.4 799.3 121.923 799.3 116.4C799.3 110.877 794.823 106.4 789.3 106.4C783.777 106.4 779.3 110.877 779.3 116.4C779.3 121.923 783.777 126.4 789.3 126.4Z" fill="#F29F05"/>
<path d="M753.9 161.8C759.423 161.8 763.9 157.323 763.9 151.8C763.9 146.277 759.423 141.8 753.9 141.8C748.377 141.8 743.9 146.277 743.9 151.8C743.9 157.323 748.377 161.8 753.9 161.8Z" fill="#F29F05"/>
<path d="M718.6 126.4C724.123 126.4 728.6 121.923 728.6 116.4C728.6 110.877 724.123 106.4 718.6 106.4C713.077 106.4 708.6 110.877 708.6 116.4C708.6 121.923 713.077 126.4 718.6 126.4Z" fill="#F29F05"/>
<path d="M824.7 161.8C830.223 161.8 834.7 157.323 834.7 151.8C834.7 146.277 830.223 141.8 824.7 141.8C819.177 141.8 814.7 146.277 814.7 151.8C814.7 157.323 819.177 161.8 824.7 161.8Z" fill="#F29F05"/>
<path d="M860 197.1C865.523 197.1 870 192.623 870 187.1C870 181.577 865.523 177.1 860 177.1C854.477 177.1 850 181.577 850 187.1C850 192.623 854.477 197.1 860 197.1Z" fill="#F29F05"/>
<path d="M824.7 232.5C830.223 232.5 834.7 228.023 834.7 222.5C834.7 216.977 830.223 212.5 824.7 212.5C819.177 212.5 814.7 216.977 814.7 222.5C814.7 228.023 819.177 232.5 824.7 232.5Z" fill="#F29F05"/>
<path d="M789.3 197.1C794.823 197.1 799.3 192.623 799.3 187.1C799.3 181.577 794.823 177.1 789.3 177.1C783.777 177.1 779.3 181.577 779.3 187.1C779.3 192.623 783.777 197.1 789.3 197.1Z" fill="#F29F05"/>
<path d="M824.7 20.4001C830.223 20.4001 834.7 15.923 834.7 10.4001C834.7 4.8773 830.223 0.400146 824.7 0.400146C819.177 0.400146 814.7 4.8773 814.7 10.4001C814.7 15.923 819.177 20.4001 824.7 20.4001Z" fill="#F29F05"/>
<path d="M860 55.7002C865.523 55.7002 870 51.223 870 45.7002C870 40.1773 865.523 35.7002 860 35.7002C854.477 35.7002 850 40.1773 850 45.7002C850 51.223 854.477 55.7002 860 55.7002Z" fill="#F29F05"/>
<path d="M824.7 91.1001C830.223 91.1001 834.7 86.6229 834.7 81.1001C834.7 75.5773 830.223 71.1001 824.7 71.1001C819.177 71.1001 814.7 75.5773 814.7 81.1001C814.7 86.6229 819.177 91.1001 824.7 91.1001Z" fill="#F29F05"/>
<path d="M789.3 55.7002C794.823 55.7002 799.3 51.223 799.3 45.7002C799.3 40.1773 794.823 35.7002 789.3 35.7002C783.777 35.7002 779.3 40.1773 779.3 45.7002C779.3 51.223 783.777 55.7002 789.3 55.7002Z" fill="#F29F05"/>
<path d="M895.4 91.1001C900.923 91.1001 905.4 86.6229 905.4 81.1001C905.4 75.5773 900.923 71.1001 895.4 71.1001C889.877 71.1001 885.4 75.5773 885.4 81.1001C885.4 86.6229 889.877 91.1001 895.4 91.1001Z" fill="#F29F05"/>
<path d="M895.4 161.8C900.923 161.8 905.4 157.323 905.4 151.8C905.4 146.277 900.923 141.8 895.4 141.8C889.877 141.8 885.4 146.277 885.4 151.8C885.4 157.323 889.877 161.8 895.4 161.8Z" fill="#F29F05"/>
<path d="M860 126.4C865.523 126.4 870 121.923 870 116.4C870 110.877 865.523 106.4 860 106.4C854.477 106.4 850 110.877 850 116.4C850 121.923 854.477 126.4 860 126.4Z" fill="#F29F05"/>
<path d="M895.4 232.5C900.923 232.5 905.4 228.023 905.4 222.5C905.4 216.977 900.923 212.5 895.4 212.5C889.877 212.5 885.4 216.977 885.4 222.5C885.4 228.023 889.877 232.5 895.4 232.5Z" fill="#F29F05"/>
<path d="M895.4 303.2C900.923 303.2 905.4 298.723 905.4 293.2C905.4 287.677 900.923 283.2 895.4 283.2C889.877 283.2 885.4 287.677 885.4 293.2C885.4 298.723 889.877 303.2 895.4 303.2Z" fill="#F29F05"/>
<path d="M860 267.9C865.523 267.9 870 263.423 870 257.9C870 252.377 865.523 247.9 860 247.9C854.477 247.9 850 252.377 850 257.9C850 263.423 854.477 267.9 860 267.9Z" fill="#F29F05"/>
<path d="M471.1 20.4001C476.623 20.4001 481.1 15.923 481.1 10.4001C481.1 4.8773 476.623 0.400146 471.1 0.400146C465.577 0.400146 461.1 4.8773 461.1 10.4001C461.1 15.923 465.577 20.4001 471.1 20.4001Z" fill="#F29F05"/>
<path d="M471.1 91.1001C476.623 91.1001 481.1 86.6229 481.1 81.1001C481.1 75.5773 476.623 71.1001 471.1 71.1001C465.577 71.1001 461.1 75.5773 461.1 81.1001C461.1 86.6229 465.577 91.1001 471.1 91.1001Z" fill="#F29F05"/>
<path d="M506.5 126.4C512.023 126.4 516.5 121.923 516.5 116.4C516.5 110.877 512.023 106.4 506.5 106.4C500.977 106.4 496.5 110.877 496.5 116.4C496.5 121.923 500.977 126.4 506.5 126.4Z" fill="#F29F05"/>
<path d="M471.1 161.8C476.623 161.8 481.1 157.323 481.1 151.8C481.1 146.277 476.623 141.8 471.1 141.8C465.577 141.8 461.1 146.277 461.1 151.8C461.1 157.323 465.577 161.8 471.1 161.8Z" fill="#F29F05"/>
<path d="M541.8 161.8C547.323 161.8 551.8 157.323 551.8 151.8C551.8 146.277 547.323 141.8 541.8 141.8C536.277 141.8 531.8 146.277 531.8 151.8C531.8 157.323 536.277 161.8 541.8 161.8Z" fill="#F29F05"/>
<path d="M577.2 197.1C582.723 197.1 587.2 192.623 587.2 187.1C587.2 181.577 582.723 177.1 577.2 177.1C571.677 177.1 567.2 181.577 567.2 187.1C567.2 192.623 571.677 197.1 577.2 197.1Z" fill="#F29F05"/>
<path d="M541.8 232.5C547.323 232.5 551.8 228.023 551.8 222.5C551.8 216.977 547.323 212.5 541.8 212.5C536.277 212.5 531.8 216.977 531.8 222.5C531.8 228.023 536.277 232.5 541.8 232.5Z" fill="#F29F05"/>
<path d="M506.5 197.1C512.023 197.1 516.5 192.623 516.5 187.1C516.5 181.577 512.023 177.1 506.5 177.1C500.977 177.1 496.5 181.577 496.5 187.1C496.5 192.623 500.977 197.1 506.5 197.1Z" fill="#F29F05"/>
<path d="M541.8 20.4001C547.323 20.4001 551.8 15.923 551.8 10.4001C551.8 4.8773 547.323 0.400146 541.8 0.400146C536.277 0.400146 531.8 4.8773 531.8 10.4001C531.8 15.923 536.277 20.4001 541.8 20.4001Z" fill="#F29F05"/>
<path d="M577.2 55.7002C582.723 55.7002 587.2 51.223 587.2 45.7002C587.2 40.1773 582.723 35.7002 577.2 35.7002C571.677 35.7002 567.2 40.1773 567.2 45.7002C567.2 51.223 571.677 55.7002 577.2 55.7002Z" fill="#F29F05"/>
<path d="M541.8 91.1001C547.323 91.1001 551.8 86.6229 551.8 81.1001C551.8 75.5773 547.323 71.1001 541.8 71.1001C536.277 71.1001 531.8 75.5773 531.8 81.1001C531.8 86.6229 536.277 91.1001 541.8 91.1001Z" fill="#F29F05"/>
<path d="M506.5 55.7002C512.023 55.7002 516.5 51.223 516.5 45.7002C516.5 40.1773 512.023 35.7002 506.5 35.7002C500.977 35.7002 496.5 40.1773 496.5 45.7002C496.5 51.223 500.977 55.7002 506.5 55.7002Z" fill="#F29F05"/>
<path d="M612.5 91.1001C618.023 91.1001 622.5 86.6229 622.5 81.1001C622.5 75.5773 618.023 71.1001 612.5 71.1001C606.977 71.1001 602.5 75.5773 602.5 81.1001C602.5 86.6229 606.977 91.1001 612.5 91.1001Z" fill="#F29F05"/>
<path d="M647.9 126.4C653.423 126.4 657.9 121.923 657.9 116.4C657.9 110.877 653.423 106.4 647.9 106.4C642.377 106.4 637.9 110.877 637.9 116.4C637.9 121.923 642.377 126.4 647.9 126.4Z" fill="#F29F05"/>
<path d="M612.5 161.8C618.023 161.8 622.5 157.323 622.5 151.8C622.5 146.277 618.023 141.8 612.5 141.8C606.977 141.8 602.5 146.277 602.5 151.8C602.5 157.323 606.977 161.8 612.5 161.8Z" fill="#F29F05"/>
<path d="M577.2 126.4C582.723 126.4 587.2 121.923 587.2 116.4C587.2 110.877 582.723 106.4 577.2 106.4C571.677 106.4 567.2 110.877 567.2 116.4C567.2 121.923 571.677 126.4 577.2 126.4Z" fill="#F29F05"/>
<path d="M471.1 232.5C476.623 232.5 481.1 228.023 481.1 222.5C481.1 216.977 476.623 212.5 471.1 212.5C465.577 212.5 461.1 216.977 461.1 222.5C461.1 228.023 465.577 232.5 471.1 232.5Z" fill="#F29F05"/>
<path d="M506.5 267.9C512.023 267.9 516.5 263.423 516.5 257.9C516.5 252.377 512.023 247.9 506.5 247.9C500.977 247.9 496.5 252.377 496.5 257.9C496.5 263.423 500.977 267.9 506.5 267.9Z" fill="#F29F05"/>
<path d="M471.1 303.2C476.623 303.2 481.1 298.723 481.1 293.2C481.1 287.677 476.623 283.2 471.1 283.2C465.577 283.2 461.1 287.677 461.1 293.2C461.1 298.723 465.577 303.2 471.1 303.2Z" fill="#F29F05"/>
<path d="M612.5 232.5C618.023 232.5 622.5 228.023 622.5 222.5C622.5 216.977 618.023 212.5 612.5 212.5C606.977 212.5 602.5 216.977 602.5 222.5C602.5 228.023 606.977 232.5 612.5 232.5Z" fill="#F29F05"/>
<path d="M647.9 267.9C653.423 267.9 657.9 263.423 657.9 257.9C657.9 252.377 653.423 247.9 647.9 247.9C642.377 247.9 637.9 252.377 637.9 257.9C637.9 263.423 642.377 267.9 647.9 267.9Z" fill="#F29F05"/>
<path d="M612.5 303.2C618.023 303.2 622.5 298.723 622.5 293.2C622.5 287.677 618.023 283.2 612.5 283.2C606.977 283.2 602.5 287.677 602.5 293.2C602.5 298.723 606.977 303.2 612.5 303.2Z" fill="#F29F05"/>
<path d="M577.2 267.9C582.723 267.9 587.2 263.423 587.2 257.9C587.2 252.377 582.723 247.9 577.2 247.9C571.677 247.9 567.2 252.377 567.2 257.9C567.2 263.423 571.677 267.9 577.2 267.9Z" fill="#F29F05"/>
<path d="M683.2 303.2C688.723 303.2 693.2 298.723 693.2 293.2C693.2 287.677 688.723 283.2 683.2 283.2C677.677 283.2 673.2 287.677 673.2 293.2C673.2 298.723 677.677 303.2 683.2 303.2Z" fill="#F29F05"/>
<path d="M718.6 338.6C724.123 338.6 728.6 334.123 728.6 328.6C728.6 323.077 724.123 318.6 718.6 318.6C713.077 318.6 708.6 323.077 708.6 328.6C708.6 334.123 713.077 338.6 718.6 338.6Z" fill="#F29F05"/>
<path d="M647.9 338.6C653.423 338.6 657.9 334.123 657.9 328.6C657.9 323.077 653.423 318.6 647.9 318.6C642.377 318.6 637.9 323.077 637.9 328.6C637.9 334.123 642.377 338.6 647.9 338.6Z" fill="#F29F05"/>
<path d="M683.2 161.8C688.723 161.8 693.2 157.323 693.2 151.8C693.2 146.277 688.723 141.8 683.2 141.8C677.677 141.8 673.2 146.277 673.2 151.8C673.2 157.323 677.677 161.8 683.2 161.8Z" fill="#F29F05"/>
<path d="M718.6 197.1C724.123 197.1 728.6 192.623 728.6 187.1C728.6 181.577 724.123 177.1 718.6 177.1C713.077 177.1 708.6 181.577 708.6 187.1C708.6 192.623 713.077 197.1 718.6 197.1Z" fill="#F29F05"/>
<path d="M683.2 232.5C688.723 232.5 693.2 228.023 693.2 222.5C693.2 216.977 688.723 212.5 683.2 212.5C677.677 212.5 673.2 216.977 673.2 222.5C673.2 228.023 677.677 232.5 683.2 232.5Z" fill="#F29F05"/>
<path d="M647.9 197.1C653.423 197.1 657.9 192.623 657.9 187.1C657.9 181.577 653.423 177.1 647.9 177.1C642.377 177.1 637.9 181.577 637.9 187.1C637.9 192.623 642.377 197.1 647.9 197.1Z" fill="#F29F05"/>
<path d="M753.9 232.5C759.423 232.5 763.9 228.023 763.9 222.5C763.9 216.977 759.423 212.5 753.9 212.5C748.377 212.5 743.9 216.977 743.9 222.5C743.9 228.023 748.377 232.5 753.9 232.5Z" fill="#F29F05"/>
<path d="M789.3 267.9C794.823 267.9 799.3 263.423 799.3 257.9C799.3 252.377 794.823 247.9 789.3 247.9C783.777 247.9 779.3 252.377 779.3 257.9C779.3 263.423 783.777 267.9 789.3 267.9Z" fill="#F29F05"/>
<path d="M753.9 303.2C759.423 303.2 763.9 298.723 763.9 293.2C763.9 287.677 759.423 283.2 753.9 283.2C748.377 283.2 743.9 287.677 743.9 293.2C743.9 298.723 748.377 303.2 753.9 303.2Z" fill="#F29F05"/>
<path d="M718.6 267.9C724.123 267.9 728.6 263.423 728.6 257.9C728.6 252.377 724.123 247.9 718.6 247.9C713.077 247.9 708.6 252.377 708.6 257.9C708.6 263.423 713.077 267.9 718.6 267.9Z" fill="#F29F05"/>
<path d="M824.7 303.2C830.223 303.2 834.7 298.723 834.7 293.2C834.7 287.677 830.223 283.2 824.7 283.2C819.177 283.2 814.7 287.677 814.7 293.2C814.7 298.723 819.177 303.2 824.7 303.2Z" fill="#F29F05"/>
<path d="M860 338.6C865.523 338.6 870 334.123 870 328.6C870 323.077 865.523 318.6 860 318.6C854.477 318.6 850 323.077 850 328.6C850 334.123 854.477 338.6 860 338.6Z" fill="#F29F05"/>
<path d="M789.3 338.6C794.823 338.6 799.3 334.123 799.3 328.6C799.3 323.077 794.823 318.6 789.3 318.6C783.777 318.6 779.3 323.077 779.3 328.6C779.3 334.123 783.777 338.6 789.3 338.6Z" fill="#F29F05"/>
<path d="M541.8 303.2C547.323 303.2 551.8 298.723 551.8 293.2C551.8 287.677 547.323 283.2 541.8 283.2C536.277 283.2 531.8 287.677 531.8 293.2C531.8 298.723 536.277 303.2 541.8 303.2Z" fill="#F29F05"/>
<path d="M577.2 338.6C582.723 338.6 587.2 334.123 587.2 328.6C587.2 323.077 582.723 318.6 577.2 318.6C571.677 318.6 567.2 323.077 567.2 328.6C567.2 334.123 571.677 338.6 577.2 338.6Z" fill="#F29F05"/>
<path d="M506.5 338.6C512.023 338.6 516.5 334.123 516.5 328.6C516.5 323.077 512.023 318.6 506.5 318.6C500.977 318.6 496.5 323.077 496.5 328.6C496.5 334.123 500.977 338.6 506.5 338.6Z" fill="#F29F05"/>
<path d="M682.9 374C688.423 374 692.9 369.523 692.9 364C692.9 358.477 688.423 354 682.9 354C677.377 354 672.9 358.477 672.9 364C672.9 369.523 677.377 374 682.9 374Z" fill="#F29F05"/>
<path d="M647.5 409.4C653.023 409.4 657.5 404.923 657.5 399.4C657.5 393.877 653.023 389.4 647.5 389.4C641.977 389.4 637.5 393.877 637.5 399.4C637.5 404.923 641.977 409.4 647.5 409.4Z" fill="#F29F05"/>
<path d="M612.2 374C617.723 374 622.2 369.523 622.2 364C622.2 358.477 617.723 354 612.2 354C606.677 354 602.2 358.477 602.2 364C602.2 369.523 606.677 374 612.2 374Z" fill="#F29F05"/>
<path d="M718.2 409.4C723.723 409.4 728.2 404.923 728.2 399.4C728.2 393.877 723.723 389.4 718.2 389.4C712.677 389.4 708.2 393.877 708.2 399.4C708.2 404.923 712.677 409.4 718.2 409.4Z" fill="#F29F05"/>
<path d="M753.6 444.7C759.123 444.7 763.6 440.223 763.6 434.7C763.6 429.177 759.123 424.7 753.6 424.7C748.077 424.7 743.6 429.177 743.6 434.7C743.6 440.223 748.077 444.7 753.6 444.7Z" fill="#F29F05"/>
<path d="M718.2 480.1C723.723 480.1 728.2 475.623 728.2 470.1C728.2 464.577 723.723 460.1 718.2 460.1C712.677 460.1 708.2 464.577 708.2 470.1C708.2 475.623 712.677 480.1 718.2 480.1Z" fill="#F29F05"/>
<path d="M682.9 444.7C688.423 444.7 692.9 440.223 692.9 434.7C692.9 429.177 688.423 424.7 682.9 424.7C677.377 424.7 672.9 429.177 672.9 434.7C672.9 440.223 677.377 444.7 682.9 444.7Z" fill="#F29F05"/>
<path d="M824.3 374C829.823 374 834.3 369.523 834.3 364C834.3 358.477 829.823 354 824.3 354C818.777 354 814.3 358.477 814.3 364C814.3 369.523 818.777 374 824.3 374Z" fill="#F29F05"/>
<path d="M788.9 409.4C794.423 409.4 798.9 404.923 798.9 399.4C798.9 393.877 794.423 389.4 788.9 389.4C783.377 389.4 778.9 393.877 778.9 399.4C778.9 404.923 783.377 409.4 788.9 409.4Z" fill="#F29F05"/>
<path d="M753.6 374C759.123 374 763.6 369.523 763.6 364C763.6 358.477 759.123 354 753.6 354C748.077 354 743.6 358.477 743.6 364C743.6 369.523 748.077 374 753.6 374Z" fill="#F29F05"/>
<path d="M930.4 409.4C935.923 409.4 940.4 404.923 940.4 399.4C940.4 393.877 935.923 389.4 930.4 389.4C924.877 389.4 920.4 393.877 920.4 399.4C920.4 404.923 924.877 409.4 930.4 409.4Z" fill="#F29F05"/>
<path d="M895 374C900.523 374 905 369.523 905 364C905 358.477 900.523 354 895 354C889.477 354 885 358.477 885 364C885 369.523 889.477 374 895 374Z" fill="#F29F05"/>
<path d="M788.9 480.1C794.423 480.1 798.9 475.623 798.9 470.1C798.9 464.577 794.423 460.1 788.9 460.1C783.377 460.1 778.9 464.577 778.9 470.1C778.9 475.623 783.377 480.1 788.9 480.1Z" fill="#F29F05"/>
<path d="M824.3 515.4C829.823 515.4 834.3 510.923 834.3 505.4C834.3 499.877 829.823 495.4 824.3 495.4C818.777 495.4 814.3 499.877 814.3 505.4C814.3 510.923 818.777 515.4 824.3 515.4Z" fill="#F29F05"/>
<path d="M788.9 550.8C794.423 550.8 798.9 546.323 798.9 540.8C798.9 535.277 794.423 530.8 788.9 530.8C783.377 530.8 778.9 535.277 778.9 540.8C778.9 546.323 783.377 550.8 788.9 550.8Z" fill="#F29F05"/>
<path d="M753.6 515.4C759.123 515.4 763.6 510.923 763.6 505.4C763.6 499.877 759.123 495.4 753.6 495.4C748.077 495.4 743.6 499.877 743.6 505.4C743.6 510.923 748.077 515.4 753.6 515.4Z" fill="#F29F05"/>
<path d="M859.7 550.8C865.223 550.8 869.7 546.323 869.7 540.8C869.7 535.277 865.223 530.8 859.7 530.8C854.177 530.8 849.7 535.277 849.7 540.8C849.7 546.323 854.177 550.8 859.7 550.8Z" fill="#F29F05"/>
<path d="M895 586.1C900.523 586.1 905 581.623 905 576.1C905 570.577 900.523 566.1 895 566.1C889.477 566.1 885 570.577 885 576.1C885 581.623 889.477 586.1 895 586.1Z" fill="#F29F05"/>
<path d="M859.7 621.5C865.223 621.5 869.7 617.023 869.7 611.5C869.7 605.977 865.223 601.5 859.7 601.5C854.177 601.5 849.7 605.977 849.7 611.5C849.7 617.023 854.177 621.5 859.7 621.5Z" fill="#F29F05"/>
<path d="M824.3 586.1C829.823 586.1 834.3 581.623 834.3 576.1C834.3 570.577 829.823 566.1 824.3 566.1C818.777 566.1 814.3 570.577 814.3 576.1C814.3 581.623 818.777 586.1 824.3 586.1Z" fill="#F29F05"/>
<path d="M859.7 409.4C865.223 409.4 869.7 404.923 869.7 399.4C869.7 393.877 865.223 389.4 859.7 389.4C854.177 389.4 849.7 393.877 849.7 399.4C849.7 404.923 854.177 409.4 859.7 409.4Z" fill="#F29F05"/>
<path d="M895 444.7C900.523 444.7 905 440.223 905 434.7C905 429.177 900.523 424.7 895 424.7C889.477 424.7 885 429.177 885 434.7C885 440.223 889.477 444.7 895 444.7Z" fill="#F29F05"/>
<path d="M859.7 480.1C865.223 480.1 869.7 475.623 869.7 470.1C869.7 464.577 865.223 460.1 859.7 460.1C854.177 460.1 849.7 464.577 849.7 470.1C849.7 475.623 854.177 480.1 859.7 480.1Z" fill="#F29F05"/>
<path d="M824.3 444.7C829.823 444.7 834.3 440.223 834.3 434.7C834.3 429.177 829.823 424.7 824.3 424.7C818.777 424.7 814.3 429.177 814.3 434.7C814.3 440.223 818.777 444.7 824.3 444.7Z" fill="#F29F05"/>
<path d="M930.4 480.1C935.923 480.1 940.4 475.623 940.4 470.1C940.4 464.577 935.923 460.1 930.4 460.1C924.877 460.1 920.4 464.577 920.4 470.1C920.4 475.623 924.877 480.1 930.4 480.1Z" fill="#F29F05"/>
<path d="M930.4 550.8C935.923 550.8 940.4 546.323 940.4 540.8C940.4 535.277 935.923 530.8 930.4 530.8C924.877 530.8 920.4 535.277 920.4 540.8C920.4 546.323 924.877 550.8 930.4 550.8Z" fill="#F29F05"/>
<path d="M895 515.4C900.523 515.4 905 510.923 905 505.4C905 499.877 900.523 495.4 895 495.4C889.477 495.4 885 499.877 885 505.4C885 510.923 889.477 515.4 895 515.4Z" fill="#F29F05"/>
<path d="M930.4 621.5C935.923 621.5 940.4 617.023 940.4 611.5C940.4 605.977 935.923 601.5 930.4 601.5C924.877 601.5 920.4 605.977 920.4 611.5C920.4 617.023 924.877 621.5 930.4 621.5Z" fill="#F29F05"/>
<path d="M930.4 692.2C935.923 692.2 940.4 687.723 940.4 682.2C940.4 676.677 935.923 672.2 930.4 672.2C924.877 672.2 920.4 676.677 920.4 682.2C920.4 687.723 924.877 692.2 930.4 692.2Z" fill="#F29F05"/>
<path d="M895 656.9C900.523 656.9 905 652.423 905 646.9C905 641.377 900.523 636.9 895 636.9C889.477 636.9 885 641.377 885 646.9C885 652.423 889.477 656.9 895 656.9Z" fill="#F29F05"/>
<path d="M541.5 374C547.023 374 551.5 369.523 551.5 364C551.5 358.477 547.023 354 541.5 354C535.977 354 531.5 358.477 531.5 364C531.5 369.523 535.977 374 541.5 374Z" fill="#F29F05"/>
<path d="M965.9 445C971.423 445 975.9 440.523 975.9 435C975.9 429.477 971.423 425 965.9 425C960.377 425 955.9 429.477 955.9 435C955.9 440.523 960.377 445 965.9 445Z" fill="#F29F05"/>
<path d="M1036.5 20.4001C1042.02 20.4001 1046.5 15.923 1046.5 10.4001C1046.5 4.8773 1042.02 0.400146 1036.5 0.400146C1030.98 0.400146 1026.5 4.8773 1026.5 10.4001C1026.5 15.923 1030.98 20.4001 1036.5 20.4001Z" fill="#F29F05"/>
<path d="M1001.2 480.4C1006.72 480.4 1011.2 475.923 1011.2 470.4C1011.2 464.877 1006.72 460.4 1001.2 460.4C995.677 460.4 991.2 464.877 991.2 470.4C991.2 475.923 995.677 480.4 1001.2 480.4Z" fill="#F29F05"/>
<path d="M1036.6 515.7C1042.12 515.7 1046.6 511.223 1046.6 505.7C1046.6 500.177 1042.12 495.7 1036.6 495.7C1031.08 495.7 1026.6 500.177 1026.6 505.7C1026.6 511.223 1031.08 515.7 1036.6 515.7Z" fill="#F29F05"/>
<path d="M1001.2 551.1C1006.72 551.1 1011.2 546.623 1011.2 541.1C1011.2 535.577 1006.72 531.1 1001.2 531.1C995.677 531.1 991.2 535.577 991.2 541.1C991.2 546.623 995.677 551.1 1001.2 551.1Z" fill="#F29F05"/>
<path d="M965.9 515.7C971.423 515.7 975.9 511.223 975.9 505.7C975.9 500.177 971.423 495.7 965.9 495.7C960.377 495.7 955.9 500.177 955.9 505.7C955.9 511.223 960.377 515.7 965.9 515.7Z" fill="#F29F05"/>
<path d="M1036.6 445C1042.12 445 1046.6 440.523 1046.6 435C1046.6 429.477 1042.12 425 1036.6 425C1031.08 425 1026.6 429.477 1026.6 435C1026.6 440.523 1031.08 445 1036.6 445Z" fill="#F29F05"/>
<path d="M1000.9 411C1006.42 411 1010.9 406.523 1010.9 401C1010.9 395.477 1006.42 391 1000.9 391C995.377 391 990.9 395.477 990.9 401C990.9 406.523 995.377 411 1000.9 411Z" fill="#F29F05"/>
<path d="M1036.6 586.4C1042.12 586.4 1046.6 581.923 1046.6 576.4C1046.6 570.877 1042.12 566.4 1036.6 566.4C1031.08 566.4 1026.6 570.877 1026.6 576.4C1026.6 581.923 1031.08 586.4 1036.6 586.4Z" fill="#F29F05"/>
<path d="M930.5 126.4C936.023 126.4 940.5 121.923 940.5 116.4C940.5 110.877 936.023 106.4 930.5 106.4C924.977 106.4 920.5 110.877 920.5 116.4C920.5 121.923 924.977 126.4 930.5 126.4Z" fill="#F29F05"/>
<path d="M965.8 161.8C971.323 161.8 975.8 157.323 975.8 151.8C975.8 146.277 971.323 141.8 965.8 141.8C960.277 141.8 955.8 146.277 955.8 151.8C955.8 157.323 960.277 161.8 965.8 161.8Z" fill="#F29F05"/>
<path d="M1001.2 197.1C1006.72 197.1 1011.2 192.623 1011.2 187.1C1011.2 181.577 1006.72 177.1 1001.2 177.1C995.677 177.1 991.2 181.577 991.2 187.1C991.2 192.623 995.677 197.1 1001.2 197.1Z" fill="#F29F05"/>
<path d="M965.8 232.5C971.323 232.5 975.8 228.023 975.8 222.5C975.8 216.977 971.323 212.5 965.8 212.5C960.277 212.5 955.8 216.977 955.8 222.5C955.8 228.023 960.277 232.5 965.8 232.5Z" fill="#F29F05"/>
<path d="M930.5 197.1C936.023 197.1 940.5 192.623 940.5 187.1C940.5 181.577 936.023 177.1 930.5 177.1C924.977 177.1 920.5 181.577 920.5 187.1C920.5 192.623 924.977 197.1 930.5 197.1Z" fill="#F29F05"/>
<path d="M965.8 20.4001C971.323 20.4001 975.8 15.923 975.8 10.4001C975.8 4.8773 971.323 0.400146 965.8 0.400146C960.277 0.400146 955.8 4.8773 955.8 10.4001C955.8 15.923 960.277 20.4001 965.8 20.4001Z" fill="#F29F05"/>
<path d="M1001.2 55.7002C1006.72 55.7002 1011.2 51.223 1011.2 45.7002C1011.2 40.1773 1006.72 35.7002 1001.2 35.7002C995.677 35.7002 991.2 40.1773 991.2 45.7002C991.2 51.223 995.677 55.7002 1001.2 55.7002Z" fill="#F29F05"/>
<path d="M965.8 91.1001C971.323 91.1001 975.8 86.6229 975.8 81.1001C975.8 75.5773 971.323 71.1001 965.8 71.1001C960.277 71.1001 955.8 75.5773 955.8 81.1001C955.8 86.6229 960.277 91.1001 965.8 91.1001Z" fill="#F29F05"/>
<path d="M930.5 55.7002C936.023 55.7002 940.5 51.223 940.5 45.7002C940.5 40.1773 936.023 35.7002 930.5 35.7002C924.977 35.7002 920.5 40.1773 920.5 45.7002C920.5 51.223 924.977 55.7002 930.5 55.7002Z" fill="#F29F05"/>
<path d="M1036.5 91.1001C1042.02 91.1001 1046.5 86.6229 1046.5 81.1001C1046.5 75.5773 1042.02 71.1001 1036.5 71.1001C1030.98 71.1001 1026.5 75.5773 1026.5 81.1001C1026.5 86.6229 1030.98 91.1001 1036.5 91.1001Z" fill="#F29F05"/>
<path d="M965.9 586.4C971.423 586.4 975.9 581.923 975.9 576.4C975.9 570.877 971.423 566.4 965.9 566.4C960.377 566.4 955.9 570.877 955.9 576.4C955.9 581.923 960.377 586.4 965.9 586.4Z" fill="#F29F05"/>
<path d="M1036.5 161.8C1042.02 161.8 1046.5 157.323 1046.5 151.8C1046.5 146.277 1042.02 141.8 1036.5 141.8C1030.98 141.8 1026.5 146.277 1026.5 151.8C1026.5 157.323 1030.98 161.8 1036.5 161.8Z" fill="#F29F05"/>
<path d="M1001.2 126.4C1006.72 126.4 1011.2 121.923 1011.2 116.4C1011.2 110.877 1006.72 106.4 1001.2 106.4C995.677 106.4 991.2 110.877 991.2 116.4C991.2 121.923 995.677 126.4 1001.2 126.4Z" fill="#F29F05"/>
<path d="M930.5 267.9C936.023 267.9 940.5 263.423 940.5 257.9C940.5 252.377 936.023 247.9 930.5 247.9C924.977 247.9 920.5 252.377 920.5 257.9C920.5 263.423 924.977 267.9 930.5 267.9Z" fill="#F29F05"/>
<path d="M1036.5 232.5C1042.02 232.5 1046.5 228.023 1046.5 222.5C1046.5 216.977 1042.02 212.5 1036.5 212.5C1030.98 212.5 1026.5 216.977 1026.5 222.5C1026.5 228.023 1030.98 232.5 1036.5 232.5Z" fill="#F29F05"/>
<path d="M965.9 727.9C971.423 727.9 975.9 723.423 975.9 717.9C975.9 712.377 971.423 707.9 965.9 707.9C960.377 707.9 955.9 712.377 955.9 717.9C955.9 723.423 960.377 727.9 965.9 727.9Z" fill="#F29F05"/>
<path d="M1036.5 303.2C1042.02 303.2 1046.5 298.723 1046.5 293.2C1046.5 287.677 1042.02 283.2 1036.5 283.2C1030.98 283.2 1026.5 287.677 1026.5 293.2C1026.5 298.723 1030.98 303.2 1036.5 303.2Z" fill="#F29F05"/>
<path d="M1001.2 267.9C1006.72 267.9 1011.2 263.423 1011.2 257.9C1011.2 252.377 1006.72 247.9 1001.2 247.9C995.677 247.9 991.2 252.377 991.2 257.9C991.2 263.423 995.677 267.9 1001.2 267.9Z" fill="#F29F05"/>
<path d="M1001.2 763.2C1006.72 763.2 1011.2 758.723 1011.2 753.2C1011.2 747.677 1006.72 743.2 1001.2 743.2C995.677 743.2 991.2 747.677 991.2 753.2C991.2 758.723 995.677 763.2 1001.2 763.2Z" fill="#F29F05"/>
<path d="M1036.6 798.6C1042.12 798.6 1046.6 794.123 1046.6 788.6C1046.6 783.077 1042.12 778.6 1036.6 778.6C1031.08 778.6 1026.6 783.077 1026.6 788.6C1026.6 794.123 1031.08 798.6 1036.6 798.6Z" fill="#F29F05"/>
<path d="M965.9 798.6C971.423 798.6 975.9 794.123 975.9 788.6C975.9 783.077 971.423 778.6 965.9 778.6C960.377 778.6 955.9 783.077 955.9 788.6C955.9 794.123 960.377 798.6 965.9 798.6Z" fill="#F29F05"/>
<path d="M931.2 764.4C936.723 764.4 941.2 759.923 941.2 754.4C941.2 748.877 936.723 744.4 931.2 744.4C925.677 744.4 921.2 748.877 921.2 754.4C921.2 759.923 925.677 764.4 931.2 764.4Z" fill="#F29F05"/>
<path d="M931.2 835.4C936.723 835.4 941.2 830.923 941.2 825.4C941.2 819.877 936.723 815.4 931.2 815.4C925.677 815.4 921.2 819.877 921.2 825.4C921.2 830.923 925.677 835.4 931.2 835.4Z" fill="#F29F05"/>
<path d="M1001.2 621.8C1006.72 621.8 1011.2 617.323 1011.2 611.8C1011.2 606.277 1006.72 601.8 1001.2 601.8C995.677 601.8 991.2 606.277 991.2 611.8C991.2 617.323 995.677 621.8 1001.2 621.8Z" fill="#F29F05"/>
<path d="M1036.6 657.1C1042.12 657.1 1046.6 652.623 1046.6 647.1C1046.6 641.577 1042.12 637.1 1036.6 637.1C1031.08 637.1 1026.6 641.577 1026.6 647.1C1026.6 652.623 1031.08 657.1 1036.6 657.1Z" fill="#F29F05"/>
<path d="M1001.2 692.5C1006.72 692.5 1011.2 688.023 1011.2 682.5C1011.2 676.977 1006.72 672.5 1001.2 672.5C995.677 672.5 991.2 676.977 991.2 682.5C991.2 688.023 995.677 692.5 1001.2 692.5Z" fill="#F29F05"/>
<path d="M965.9 657.1C971.423 657.1 975.9 652.623 975.9 647.1C975.9 641.577 971.423 637.1 965.9 637.1C960.377 637.1 955.9 641.577 955.9 647.1C955.9 652.623 960.377 657.1 965.9 657.1Z" fill="#F29F05"/>
<path d="M1036.6 727.9C1042.12 727.9 1046.6 723.423 1046.6 717.9C1046.6 712.377 1042.12 707.9 1036.6 707.9C1031.08 707.9 1026.6 712.377 1026.6 717.9C1026.6 723.423 1031.08 727.9 1036.6 727.9Z" fill="#F29F05"/>
<path d="M965.8 303.2C971.323 303.2 975.8 298.723 975.8 293.2C975.8 287.677 971.323 283.2 965.8 283.2C960.277 283.2 955.8 287.677 955.8 293.2C955.8 298.723 960.277 303.2 965.8 303.2Z" fill="#F29F05"/>
<path d="M1001.2 338.6C1006.72 338.6 1011.2 334.123 1011.2 328.6C1011.2 323.077 1006.72 318.6 1001.2 318.6C995.677 318.6 991.2 323.077 991.2 328.6C991.2 334.123 995.677 338.6 1001.2 338.6Z" fill="#F29F05"/>
<path d="M930.5 338.6C936.023 338.6 940.5 334.123 940.5 328.6C940.5 323.077 936.023 318.6 930.5 318.6C924.977 318.6 920.5 323.077 920.5 328.6C920.5 334.123 924.977 338.6 930.5 338.6Z" fill="#F29F05"/>
<path d="M1000.9 834C1006.42 834 1010.9 829.523 1010.9 824C1010.9 818.477 1006.42 814 1000.9 814C995.377 814 990.9 818.477 990.9 824C990.9 829.523 995.377 834 1000.9 834Z" fill="#F29F05"/>
<path d="M1036.2 374C1041.72 374 1046.2 369.523 1046.2 364C1046.2 358.477 1041.72 354 1036.2 354C1030.68 354 1026.2 358.477 1026.2 364C1026.2 369.523 1030.68 374 1036.2 374Z" fill="#F29F05"/>
<path d="M966.3 939C971.823 939 976.3 934.523 976.3 929C976.3 923.477 971.823 919 966.3 919C960.777 919 956.3 923.477 956.3 929C956.3 934.523 960.777 939 966.3 939Z" fill="#F29F05"/>
<path d="M930.9 974.4C936.423 974.4 940.9 969.923 940.9 964.4C940.9 958.877 936.423 954.4 930.9 954.4C925.377 954.4 920.9 958.877 920.9 964.4C920.9 969.923 925.377 974.4 930.9 974.4Z" fill="#F29F05"/>
<path d="M1037 939C1042.52 939 1047 934.523 1047 929C1047 923.477 1042.52 919 1037 919C1031.48 919 1027 923.477 1027 929C1027 934.523 1031.48 939 1037 939Z" fill="#F29F05"/>
<path d="M1036.2 868.4C1041.72 868.4 1046.2 863.923 1046.2 858.4C1046.2 852.877 1041.72 848.4 1036.2 848.4C1030.68 848.4 1026.2 852.877 1026.2 858.4C1026.2 863.923 1030.68 868.4 1036.2 868.4Z" fill="#F29F05"/>
<path d="M966.2 869.4C971.723 869.4 976.2 864.923 976.2 859.4C976.2 853.877 971.723 849.4 966.2 849.4C960.677 849.4 956.2 853.877 956.2 859.4C956.2 864.923 960.677 869.4 966.2 869.4Z" fill="#F29F05"/>
<path d="M1001.3 905C1006.82 905 1011.3 900.523 1011.3 895C1011.3 889.477 1006.82 885 1001.3 885C995.777 885 991.3 889.477 991.3 895C991.3 900.523 995.777 905 1001.3 905Z" fill="#F29F05"/>
<path d="M930.6 905C936.123 905 940.6 900.523 940.6 895C940.6 889.477 936.123 885 930.6 885C925.077 885 920.6 889.477 920.6 895C920.6 900.523 925.077 905 930.6 905Z" fill="#F29F05"/>
<path d="M930.9 1045.1C936.423 1045.1 940.9 1040.62 940.9 1035.1C940.9 1029.58 936.423 1025.1 930.9 1025.1C925.377 1025.1 920.9 1029.58 920.9 1035.1C920.9 1040.62 925.377 1045.1 930.9 1045.1Z" fill="#F29F05"/>
<path d="M1001.7 974.4C1007.22 974.4 1011.7 969.923 1011.7 964.4C1011.7 958.877 1007.22 954.4 1001.7 954.4C996.177 954.4 991.7 958.877 991.7 964.4C991.7 969.923 996.177 974.4 1001.7 974.4Z" fill="#F29F05"/>
<path d="M1037 1009.7C1042.52 1009.7 1047 1005.22 1047 999.7C1047 994.177 1042.52 989.7 1037 989.7C1031.48 989.7 1027 994.177 1027 999.7C1027 1005.22 1031.48 1009.7 1037 1009.7Z" fill="#F29F05"/>
<path d="M1001.7 1045.1C1007.22 1045.1 1011.7 1040.62 1011.7 1035.1C1011.7 1029.58 1007.22 1025.1 1001.7 1025.1C996.177 1025.1 991.7 1029.58 991.7 1035.1C991.7 1040.62 996.177 1045.1 1001.7 1045.1Z" fill="#F29F05"/>
<path d="M966.3 1009.7C971.823 1009.7 976.3 1005.22 976.3 999.7C976.3 994.177 971.823 989.7 966.3 989.7C960.777 989.7 956.3 994.177 956.3 999.7C956.3 1005.22 960.777 1009.7 966.3 1009.7Z" fill="#F29F05"/>
<path d="M965.5 374C971.023 374 975.5 369.523 975.5 364C975.5 358.477 971.023 354 965.5 354C959.977 354 955.5 358.477 955.5 364C955.5 369.523 959.977 374 965.5 374Z" fill="#F29F05"/>
<path d="M10.3999 401.4C15.9228 401.4 20.3999 396.923 20.3999 391.4C20.3999 385.877 15.9228 381.4 10.3999 381.4C4.87705 381.4 0.399902 385.877 0.399902 391.4C0.399902 396.923 4.87705 401.4 10.3999 401.4Z" fill="#F29F05"/>
<path d="M10.3999 472.1C15.9228 472.1 20.3999 467.623 20.3999 462.1C20.3999 456.577 15.9228 452.1 10.3999 452.1C4.87705 452.1 0.399902 456.577 0.399902 462.1C0.399902 467.623 4.87705 472.1 10.3999 472.1Z" fill="#F29F05"/>
<path d="M10.3999 542.8C15.9228 542.8 20.3999 538.323 20.3999 532.8C20.3999 527.277 15.9228 522.8 10.3999 522.8C4.87705 522.8 0.399902 527.277 0.399902 532.8C0.399902 538.323 4.87705 542.8 10.3999 542.8Z" fill="#F29F05"/>
<path d="M10.3999 613.5C15.9228 613.5 20.3999 609.023 20.3999 603.5C20.3999 597.977 15.9228 593.5 10.3999 593.5C4.87705 593.5 0.399902 597.977 0.399902 603.5C0.399902 609.023 4.87705 613.5 10.3999 613.5Z" fill="#F29F05"/>
<path d="M10.3999 684.2C15.9228 684.2 20.3999 679.723 20.3999 674.2C20.3999 668.677 15.9228 664.2 10.3999 664.2C4.87705 664.2 0.399902 668.677 0.399902 674.2C0.399902 679.723 4.87705 684.2 10.3999 684.2Z" fill="#F29F05"/>
<path d="M10 755C15.5228 755 20 750.523 20 745C20 739.477 15.5228 735 10 735C4.47715 735 0 739.477 0 745C0 750.523 4.47715 755 10 755Z" fill="#F29F05"/>
<path d="M506.1 409.4C511.623 409.4 516.1 404.923 516.1 399.4C516.1 393.877 511.623 389.4 506.1 389.4C500.577 389.4 496.1 393.877 496.1 399.4C496.1 404.923 500.577 409.4 506.1 409.4Z" fill="#F29F05"/>
<path d="M506.1 480.1C511.623 480.1 516.1 475.623 516.1 470.1C516.1 464.577 511.623 460.1 506.1 460.1C500.577 460.1 496.1 464.577 496.1 470.1C496.1 475.623 500.577 480.1 506.1 480.1Z" fill="#F29F05"/>
<path d="M541.5 515.4C547.023 515.4 551.5 510.923 551.5 505.4C551.5 499.877 547.023 495.4 541.5 495.4C535.977 495.4 531.5 499.877 531.5 505.4C531.5 510.923 535.977 515.4 541.5 515.4Z" fill="#F29F05"/>
<path d="M506.1 550.8C511.623 550.8 516.1 546.323 516.1 540.8C516.1 535.277 511.623 530.8 506.1 530.8C500.577 530.8 496.1 535.277 496.1 540.8C496.1 546.323 500.577 550.8 506.1 550.8Z" fill="#F29F05"/>
<path d="M576.8 550.8C582.323 550.8 586.8 546.323 586.8 540.8C586.8 535.277 582.323 530.8 576.8 530.8C571.277 530.8 566.8 535.277 566.8 540.8C566.8 546.323 571.277 550.8 576.8 550.8Z" fill="#F29F05"/>
<path d="M612.2 586.1C617.723 586.1 622.2 581.623 622.2 576.1C622.2 570.577 617.723 566.1 612.2 566.1C606.677 566.1 602.2 570.577 602.2 576.1C602.2 581.623 606.677 586.1 612.2 586.1Z" fill="#F29F05"/>
<path d="M576.8 621.5C582.323 621.5 586.8 617.023 586.8 611.5C586.8 605.977 582.323 601.5 576.8 601.5C571.277 601.5 566.8 605.977 566.8 611.5C566.8 617.023 571.277 621.5 576.8 621.5Z" fill="#F29F05"/>
<path d="M541.5 586.1C547.023 586.1 551.5 581.623 551.5 576.1C551.5 570.577 547.023 566.1 541.5 566.1C535.977 566.1 531.5 570.577 531.5 576.1C531.5 581.623 535.977 586.1 541.5 586.1Z" fill="#F29F05"/>
<path d="M576.8 409.4C582.323 409.4 586.8 404.923 586.8 399.4C586.8 393.877 582.323 389.4 576.8 389.4C571.277 389.4 566.8 393.877 566.8 399.4C566.8 404.923 571.277 409.4 576.8 409.4Z" fill="#F29F05"/>
<path d="M612.2 444.7C617.723 444.7 622.2 440.223 622.2 434.7C622.2 429.177 617.723 424.7 612.2 424.7C606.677 424.7 602.2 429.177 602.2 434.7C602.2 440.223 606.677 444.7 612.2 444.7Z" fill="#F29F05"/>
<path d="M576.8 480.1C582.323 480.1 586.8 475.623 586.8 470.1C586.8 464.577 582.323 460.1 576.8 460.1C571.277 460.1 566.8 464.577 566.8 470.1C566.8 475.623 571.277 480.1 576.8 480.1Z" fill="#F29F05"/>
<path d="M541.5 444.7C547.023 444.7 551.5 440.223 551.5 434.7C551.5 429.177 547.023 424.7 541.5 424.7C535.977 424.7 531.5 429.177 531.5 434.7C531.5 440.223 535.977 444.7 541.5 444.7Z" fill="#F29F05"/>
<path d="M647.5 480.1C653.023 480.1 657.5 475.623 657.5 470.1C657.5 464.577 653.023 460.1 647.5 460.1C641.977 460.1 637.5 464.577 637.5 470.1C637.5 475.623 641.977 480.1 647.5 480.1Z" fill="#F29F05"/>
<path d="M682.9 515.4C688.423 515.4 692.9 510.923 692.9 505.4C692.9 499.877 688.423 495.4 682.9 495.4C677.377 495.4 672.9 499.877 672.9 505.4C672.9 510.923 677.377 515.4 682.9 515.4Z" fill="#F29F05"/>
<path d="M647.5 550.8C653.023 550.8 657.5 546.323 657.5 540.8C657.5 535.277 653.023 530.8 647.5 530.8C641.977 530.8 637.5 535.277 637.5 540.8C637.5 546.323 641.977 550.8 647.5 550.8Z" fill="#F29F05"/>
<path d="M612.2 515.4C617.723 515.4 622.2 510.923 622.2 505.4C622.2 499.877 617.723 495.4 612.2 495.4C606.677 495.4 602.2 499.877 602.2 505.4C602.2 510.923 606.677 515.4 612.2 515.4Z" fill="#F29F05"/>
<path d="M506.1 621.5C511.623 621.5 516.1 617.023 516.1 611.5C516.1 605.977 511.623 601.5 506.1 601.5C500.577 601.5 496.1 605.977 496.1 611.5C496.1 617.023 500.577 621.5 506.1 621.5Z" fill="#F29F05"/>
<path d="M541.5 656.9C547.023 656.9 551.5 652.423 551.5 646.9C551.5 641.377 547.023 636.9 541.5 636.9C535.977 636.9 531.5 641.377 531.5 646.9C531.5 652.423 535.977 656.9 541.5 656.9Z" fill="#F29F05"/>
<path d="M506.1 692.2C511.623 692.2 516.1 687.723 516.1 682.2C516.1 676.677 511.623 672.2 506.1 672.2C500.577 672.2 496.1 676.677 496.1 682.2C496.1 687.723 500.577 692.2 506.1 692.2Z" fill="#F29F05"/>
<path d="M647.5 621.5C653.023 621.5 657.5 617.023 657.5 611.5C657.5 605.977 653.023 601.5 647.5 601.5C641.977 601.5 637.5 605.977 637.5 611.5C637.5 617.023 641.977 621.5 647.5 621.5Z" fill="#F29F05"/>
<path d="M682.9 656.9C688.423 656.9 692.9 652.423 692.9 646.9C692.9 641.377 688.423 636.9 682.9 636.9C677.377 636.9 672.9 641.377 672.9 646.9C672.9 652.423 677.377 656.9 682.9 656.9Z" fill="#F29F05"/>
<path d="M647.5 692.2C653.023 692.2 657.5 687.723 657.5 682.2C657.5 676.677 653.023 672.2 647.5 672.2C641.977 672.2 637.5 676.677 637.5 682.2C637.5 687.723 641.977 692.2 647.5 692.2Z" fill="#F29F05"/>
<path d="M612.2 656.9C617.723 656.9 622.2 652.423 622.2 646.9C622.2 641.377 617.723 636.9 612.2 636.9C606.677 636.9 602.2 641.377 602.2 646.9C602.2 652.423 606.677 656.9 612.2 656.9Z" fill="#F29F05"/>
<path d="M718.2 692.2C723.723 692.2 728.2 687.723 728.2 682.2C728.2 676.677 723.723 672.2 718.2 672.2C712.677 672.2 708.2 676.677 708.2 682.2C708.2 687.723 712.677 692.2 718.2 692.2Z" fill="#F29F05"/>
<path d="M753.6 727.6C759.123 727.6 763.6 723.123 763.6 717.6C763.6 712.077 759.123 707.6 753.6 707.6C748.077 707.6 743.6 712.077 743.6 717.6C743.6 723.123 748.077 727.6 753.6 727.6Z" fill="#F29F05"/>
<path d="M682.9 727.6C688.423 727.6 692.9 723.123 692.9 717.6C692.9 712.077 688.423 707.6 682.9 707.6C677.377 707.6 672.9 712.077 672.9 717.6C672.9 723.123 677.377 727.6 682.9 727.6Z" fill="#F29F05"/>
<path d="M718.2 550.8C723.723 550.8 728.2 546.323 728.2 540.8C728.2 535.277 723.723 530.8 718.2 530.8C712.677 530.8 708.2 535.277 708.2 540.8C708.2 546.323 712.677 550.8 718.2 550.8Z" fill="#F29F05"/>
<path d="M753.6 586.1C759.123 586.1 763.6 581.623 763.6 576.1C763.6 570.577 759.123 566.1 753.6 566.1C748.077 566.1 743.6 570.577 743.6 576.1C743.6 581.623 748.077 586.1 753.6 586.1Z" fill="#F29F05"/>
<path d="M718.2 621.5C723.723 621.5 728.2 617.023 728.2 611.5C728.2 605.977 723.723 601.5 718.2 601.5C712.677 601.5 708.2 605.977 708.2 611.5C708.2 617.023 712.677 621.5 718.2 621.5Z" fill="#F29F05"/>
<path d="M682.9 586.1C688.423 586.1 692.9 581.623 692.9 576.1C692.9 570.577 688.423 566.1 682.9 566.1C677.377 566.1 672.9 570.577 672.9 576.1C672.9 581.623 677.377 586.1 682.9 586.1Z" fill="#F29F05"/>
<path d="M788.9 621.5C794.423 621.5 798.9 617.023 798.9 611.5C798.9 605.977 794.423 601.5 788.9 601.5C783.377 601.5 778.9 605.977 778.9 611.5C778.9 617.023 783.377 621.5 788.9 621.5Z" fill="#F29F05"/>
<path d="M824.3 656.9C829.823 656.9 834.3 652.423 834.3 646.9C834.3 641.377 829.823 636.9 824.3 636.9C818.777 636.9 814.3 641.377 814.3 646.9C814.3 652.423 818.777 656.9 824.3 656.9Z" fill="#F29F05"/>
<path d="M788.9 692.2C794.423 692.2 798.9 687.723 798.9 682.2C798.9 676.677 794.423 672.2 788.9 672.2C783.377 672.2 778.9 676.677 778.9 682.2C778.9 687.723 783.377 692.2 788.9 692.2Z" fill="#F29F05"/>
<path d="M753.6 656.9C759.123 656.9 763.6 652.423 763.6 646.9C763.6 641.377 759.123 636.9 753.6 636.9C748.077 636.9 743.6 641.377 743.6 646.9C743.6 652.423 748.077 656.9 753.6 656.9Z" fill="#F29F05"/>
<path d="M859.7 692.2C865.223 692.2 869.7 687.723 869.7 682.2C869.7 676.677 865.223 672.2 859.7 672.2C854.177 672.2 849.7 676.677 849.7 682.2C849.7 687.723 854.177 692.2 859.7 692.2Z" fill="#F29F05"/>
<path d="M895 727.6C900.523 727.6 905 723.123 905 717.6C905 712.077 900.523 707.6 895 707.6C889.477 707.6 885 712.077 885 717.6C885 723.123 889.477 727.6 895 727.6Z" fill="#F29F05"/>
<path d="M824.3 727.6C829.823 727.6 834.3 723.123 834.3 717.6C834.3 712.077 829.823 707.6 824.3 707.6C818.777 707.6 814.3 712.077 814.3 717.6C814.3 723.123 818.777 727.6 824.3 727.6Z" fill="#F29F05"/>
<path d="M576.8 692.2C582.323 692.2 586.8 687.723 586.8 682.2C586.8 676.677 582.323 672.2 576.8 672.2C571.277 672.2 566.8 676.677 566.8 682.2C566.8 687.723 571.277 692.2 576.8 692.2Z" fill="#F29F05"/>
<path d="M612.2 727.6C617.723 727.6 622.2 723.123 622.2 717.6C622.2 712.077 617.723 707.6 612.2 707.6C606.677 707.6 602.2 712.077 602.2 717.6C602.2 723.123 606.677 727.6 612.2 727.6Z" fill="#F29F05"/>
<path d="M541.5 727.6C547.023 727.6 551.5 723.123 551.5 717.6C551.5 712.077 547.023 707.6 541.5 707.6C535.977 707.6 531.5 712.077 531.5 717.6C531.5 723.123 535.977 727.6 541.5 727.6Z" fill="#F29F05"/>
<path d="M647.9 763C653.423 763 657.9 758.523 657.9 753C657.9 747.477 653.423 743 647.9 743C642.377 743 637.9 747.477 637.9 753C637.9 758.523 642.377 763 647.9 763Z" fill="#F29F05"/>
<path d="M612.5 798.4C618.023 798.4 622.5 793.923 622.5 788.4C622.5 782.877 618.023 778.4 612.5 778.4C606.977 778.4 602.5 782.877 602.5 788.4C602.5 793.923 606.977 798.4 612.5 798.4Z" fill="#F29F05"/>
<path d="M577.2 763C582.723 763 587.2 758.523 587.2 753C587.2 747.477 582.723 743 577.2 743C571.677 743 567.2 747.477 567.2 753C567.2 758.523 571.677 763 577.2 763Z" fill="#F29F05"/>
<path d="M683.2 798.4C688.723 798.4 693.2 793.923 693.2 788.4C693.2 782.877 688.723 778.4 683.2 778.4C677.677 778.4 673.2 782.877 673.2 788.4C673.2 793.923 677.677 798.4 683.2 798.4Z" fill="#F29F05"/>
<path d="M718.6 833.7C724.123 833.7 728.6 829.223 728.6 823.7C728.6 818.177 724.123 813.7 718.6 813.7C713.077 813.7 708.6 818.177 708.6 823.7C708.6 829.223 713.077 833.7 718.6 833.7Z" fill="#F29F05"/>
<path d="M683.2 869.1C688.723 869.1 693.2 864.623 693.2 859.1C693.2 853.577 688.723 849.1 683.2 849.1C677.677 849.1 673.2 853.577 673.2 859.1C673.2 864.623 677.677 869.1 683.2 869.1Z" fill="#F29F05"/>
<path d="M647.9 833.7C653.423 833.7 657.9 829.223 657.9 823.7C657.9 818.177 653.423 813.7 647.9 813.7C642.377 813.7 637.9 818.177 637.9 823.7C637.9 829.223 642.377 833.7 647.9 833.7Z" fill="#F29F05"/>
<path d="M789.3 763C794.823 763 799.3 758.523 799.3 753C799.3 747.477 794.823 743 789.3 743C783.777 743 779.3 747.477 779.3 753C779.3 758.523 783.777 763 789.3 763Z" fill="#F29F05"/>
<path d="M753.9 798.4C759.423 798.4 763.9 793.923 763.9 788.4C763.9 782.877 759.423 778.4 753.9 778.4C748.377 778.4 743.9 782.877 743.9 788.4C743.9 793.923 748.377 798.4 753.9 798.4Z" fill="#F29F05"/>
<path d="M718.6 763C724.123 763 728.6 758.523 728.6 753C728.6 747.477 724.123 743 718.6 743C713.077 743 708.6 747.477 708.6 753C708.6 758.523 713.077 763 718.6 763Z" fill="#F29F05"/>
<path d="M895.4 798.4C900.923 798.4 905.4 793.923 905.4 788.4C905.4 782.877 900.923 778.4 895.4 778.4C889.877 778.4 885.4 782.877 885.4 788.4C885.4 793.923 889.877 798.4 895.4 798.4Z" fill="#F29F05"/>
<path d="M860 763C865.523 763 870 758.523 870 753C870 747.477 865.523 743 860 743C854.477 743 850 747.477 850 753C850 758.523 854.477 763 860 763Z" fill="#F29F05"/>
<path d="M753.9 869.1C759.423 869.1 763.9 864.623 763.9 859.1C763.9 853.577 759.423 849.1 753.9 849.1C748.377 849.1 743.9 853.577 743.9 859.1C743.9 864.623 748.377 869.1 753.9 869.1Z" fill="#F29F05"/>
<path d="M789.3 904.4C794.823 904.4 799.3 899.923 799.3 894.4C799.3 888.877 794.823 884.4 789.3 884.4C783.777 884.4 779.3 888.877 779.3 894.4C779.3 899.923 783.777 904.4 789.3 904.4Z" fill="#F29F05"/>
<path d="M753.9 939.8C759.423 939.8 763.9 935.323 763.9 929.8C763.9 924.277 759.423 919.8 753.9 919.8C748.377 919.8 743.9 924.277 743.9 929.8C743.9 935.323 748.377 939.8 753.9 939.8Z" fill="#F29F05"/>
<path d="M718.6 904.4C724.123 904.4 728.6 899.923 728.6 894.4C728.6 888.877 724.123 884.4 718.6 884.4C713.077 884.4 708.6 888.877 708.6 894.4C708.6 899.923 713.077 904.4 718.6 904.4Z" fill="#F29F05"/>
<path d="M824.7 939.8C830.223 939.8 834.7 935.323 834.7 929.8C834.7 924.277 830.223 919.8 824.7 919.8C819.177 919.8 814.7 924.277 814.7 929.8C814.7 935.323 819.177 939.8 824.7 939.8Z" fill="#F29F05"/>
<path d="M860 975.1C865.523 975.1 870 970.623 870 965.1C870 959.577 865.523 955.1 860 955.1C854.477 955.1 850 959.577 850 965.1C850 970.623 854.477 975.1 860 975.1Z" fill="#F29F05"/>
<path d="M824.7 1010.5C830.223 1010.5 834.7 1006.02 834.7 1000.5C834.7 994.977 830.223 990.5 824.7 990.5C819.177 990.5 814.7 994.977 814.7 1000.5C814.7 1006.02 819.177 1010.5 824.7 1010.5Z" fill="#F29F05"/>
<path d="M789.3 975.1C794.823 975.1 799.3 970.623 799.3 965.1C799.3 959.577 794.823 955.1 789.3 955.1C783.777 955.1 779.3 959.577 779.3 965.1C779.3 970.623 783.777 975.1 789.3 975.1Z" fill="#F29F05"/>
<path d="M824.7 798.4C830.223 798.4 834.7 793.923 834.7 788.4C834.7 782.877 830.223 778.4 824.7 778.4C819.177 778.4 814.7 782.877 814.7 788.4C814.7 793.923 819.177 798.4 824.7 798.4Z" fill="#F29F05"/>
<path d="M860 833.7C865.523 833.7 870 829.223 870 823.7C870 818.177 865.523 813.7 860 813.7C854.477 813.7 850 818.177 850 823.7C850 829.223 854.477 833.7 860 833.7Z" fill="#F29F05"/>
<path d="M824.7 869.1C830.223 869.1 834.7 864.623 834.7 859.1C834.7 853.577 830.223 849.1 824.7 849.1C819.177 849.1 814.7 853.577 814.7 859.1C814.7 864.623 819.177 869.1 824.7 869.1Z" fill="#F29F05"/>
<path d="M789.3 833.7C794.823 833.7 799.3 829.223 799.3 823.7C799.3 818.177 794.823 813.7 789.3 813.7C783.777 813.7 779.3 818.177 779.3 823.7C779.3 829.223 783.777 833.7 789.3 833.7Z" fill="#F29F05"/>
<path d="M895.4 869.1C900.923 869.1 905.4 864.623 905.4 859.1C905.4 853.577 900.923 849.1 895.4 849.1C889.877 849.1 885.4 853.577 885.4 859.1C885.4 864.623 889.877 869.1 895.4 869.1Z" fill="#F29F05"/>
<path d="M895.4 939.8C900.923 939.8 905.4 935.323 905.4 929.8C905.4 924.277 900.923 919.8 895.4 919.8C889.877 919.8 885.4 924.277 885.4 929.8C885.4 935.323 889.877 939.8 895.4 939.8Z" fill="#F29F05"/>
<path d="M860 904.4C865.523 904.4 870 899.923 870 894.4C870 888.877 865.523 884.4 860 884.4C854.477 884.4 850 888.877 850 894.4C850 899.923 854.477 904.4 860 904.4Z" fill="#F29F05"/>
<path d="M895.4 1010.5C900.923 1010.5 905.4 1006.02 905.4 1000.5C905.4 994.977 900.923 990.5 895.4 990.5C889.877 990.5 885.4 994.977 885.4 1000.5C885.4 1006.02 889.877 1010.5 895.4 1010.5Z" fill="#F29F05"/>
<path d="M860 1045.9C865.523 1045.9 870 1041.42 870 1035.9C870 1030.38 865.523 1025.9 860 1025.9C854.477 1025.9 850 1030.38 850 1035.9C850 1041.42 854.477 1045.9 860 1045.9Z" fill="#F29F05"/>
<path d="M506.5 763C512.023 763 516.5 758.523 516.5 753C516.5 747.477 512.023 743 506.5 743C500.977 743 496.5 747.477 496.5 753C496.5 758.523 500.977 763 506.5 763Z" fill="#F29F05"/>
<path d="M471.1 798.4C476.623 798.4 481.1 793.923 481.1 788.4C481.1 782.877 476.623 778.4 471.1 778.4C465.577 778.4 461.1 782.877 461.1 788.4C461.1 793.923 465.577 798.4 471.1 798.4Z" fill="#F29F05"/>
<path d="M471.1 869.1C476.623 869.1 481.1 864.623 481.1 859.1C481.1 853.577 476.623 849.1 471.1 849.1C465.577 849.1 461.1 853.577 461.1 859.1C461.1 864.623 465.577 869.1 471.1 869.1Z" fill="#F29F05"/>
<path d="M506.5 904.4C512.023 904.4 516.5 899.923 516.5 894.4C516.5 888.877 512.023 884.4 506.5 884.4C500.977 884.4 496.5 888.877 496.5 894.4C496.5 899.923 500.977 904.4 506.5 904.4Z" fill="#F29F05"/>
<path d="M471.1 939.8C476.623 939.8 481.1 935.323 481.1 929.8C481.1 924.277 476.623 919.8 471.1 919.8C465.577 919.8 461.1 924.277 461.1 929.8C461.1 935.323 465.577 939.8 471.1 939.8Z" fill="#F29F05"/>
<path d="M541.8 939.8C547.323 939.8 551.8 935.323 551.8 929.8C551.8 924.277 547.323 919.8 541.8 919.8C536.277 919.8 531.8 924.277 531.8 929.8C531.8 935.323 536.277 939.8 541.8 939.8Z" fill="#F29F05"/>
<path d="M577.2 975.1C582.723 975.1 587.2 970.623 587.2 965.1C587.2 959.577 582.723 955.1 577.2 955.1C571.677 955.1 567.2 959.577 567.2 965.1C567.2 970.623 571.677 975.1 577.2 975.1Z" fill="#F29F05"/>
<path d="M541.8 1010.5C547.323 1010.5 551.8 1006.02 551.8 1000.5C551.8 994.977 547.323 990.5 541.8 990.5C536.277 990.5 531.8 994.977 531.8 1000.5C531.8 1006.02 536.277 1010.5 541.8 1010.5Z" fill="#F29F05"/>
<path d="M506.5 975.1C512.023 975.1 516.5 970.623 516.5 965.1C516.5 959.577 512.023 955.1 506.5 955.1C500.977 955.1 496.5 959.577 496.5 965.1C496.5 970.623 500.977 975.1 506.5 975.1Z" fill="#F29F05"/>
<path d="M541.8 798.4C547.323 798.4 551.8 793.923 551.8 788.4C551.8 782.877 547.323 778.4 541.8 778.4C536.277 778.4 531.8 782.877 531.8 788.4C531.8 793.923 536.277 798.4 541.8 798.4Z" fill="#F29F05"/>
<path d="M577.2 833.7C582.723 833.7 587.2 829.223 587.2 823.7C587.2 818.177 582.723 813.7 577.2 813.7C571.677 813.7 567.2 818.177 567.2 823.7C567.2 829.223 571.677 833.7 577.2 833.7Z" fill="#F29F05"/>
<path d="M541.8 869.1C547.323 869.1 551.8 864.623 551.8 859.1C551.8 853.577 547.323 849.1 541.8 849.1C536.277 849.1 531.8 853.577 531.8 859.1C531.8 864.623 536.277 869.1 541.8 869.1Z" fill="#F29F05"/>
<path d="M506.5 833.7C512.023 833.7 516.5 829.223 516.5 823.7C516.5 818.177 512.023 813.7 506.5 813.7C500.977 813.7 496.5 818.177 496.5 823.7C496.5 829.223 500.977 833.7 506.5 833.7Z" fill="#F29F05"/>
<path d="M612.5 869.1C618.023 869.1 622.5 864.623 622.5 859.1C622.5 853.577 618.023 849.1 612.5 849.1C606.977 849.1 602.5 853.577 602.5 859.1C602.5 864.623 606.977 869.1 612.5 869.1Z" fill="#F29F05"/>
<path d="M647.9 904.4C653.423 904.4 657.9 899.923 657.9 894.4C657.9 888.877 653.423 884.4 647.9 884.4C642.377 884.4 637.9 888.877 637.9 894.4C637.9 899.923 642.377 904.4 647.9 904.4Z" fill="#F29F05"/>
<path d="M612.5 939.8C618.023 939.8 622.5 935.323 622.5 929.8C622.5 924.277 618.023 919.8 612.5 919.8C606.977 919.8 602.5 924.277 602.5 929.8C602.5 935.323 606.977 939.8 612.5 939.8Z" fill="#F29F05"/>
<path d="M577.2 904.4C582.723 904.4 587.2 899.923 587.2 894.4C587.2 888.877 582.723 884.4 577.2 884.4C571.677 884.4 567.2 888.877 567.2 894.4C567.2 899.923 571.677 904.4 577.2 904.4Z" fill="#F29F05"/>
<path d="M471.1 1010.5C476.623 1010.5 481.1 1006.02 481.1 1000.5C481.1 994.977 476.623 990.5 471.1 990.5C465.577 990.5 461.1 994.977 461.1 1000.5C461.1 1006.02 465.577 1010.5 471.1 1010.5Z" fill="#F29F05"/>
<path d="M506.5 1045.9C512.023 1045.9 516.5 1041.42 516.5 1035.9C516.5 1030.38 512.023 1025.9 506.5 1025.9C500.977 1025.9 496.5 1030.38 496.5 1035.9C496.5 1041.42 500.977 1045.9 506.5 1045.9Z" fill="#F29F05"/>
<path d="M612.5 1010.5C618.023 1010.5 622.5 1006.02 622.5 1000.5C622.5 994.977 618.023 990.5 612.5 990.5C606.977 990.5 602.5 994.977 602.5 1000.5C602.5 1006.02 606.977 1010.5 612.5 1010.5Z" fill="#F29F05"/>
<path d="M647.9 1045.9C653.423 1045.9 657.9 1041.42 657.9 1035.9C657.9 1030.38 653.423 1025.9 647.9 1025.9C642.377 1025.9 637.9 1030.38 637.9 1035.9C637.9 1041.42 642.377 1045.9 647.9 1045.9Z" fill="#F29F05"/>
<path d="M577.2 1045.9C582.723 1045.9 587.2 1041.42 587.2 1035.9C587.2 1030.38 582.723 1025.9 577.2 1025.9C571.677 1025.9 567.2 1030.38 567.2 1035.9C567.2 1041.42 571.677 1045.9 577.2 1045.9Z" fill="#F29F05"/>
<path d="M683.2 939.8C688.723 939.8 693.2 935.323 693.2 929.8C693.2 924.277 688.723 919.8 683.2 919.8C677.677 919.8 673.2 924.277 673.2 929.8C673.2 935.323 677.677 939.8 683.2 939.8Z" fill="#F29F05"/>
<path d="M718.6 975.1C724.123 975.1 728.6 970.623 728.6 965.1C728.6 959.577 724.123 955.1 718.6 955.1C713.077 955.1 708.6 959.577 708.6 965.1C708.6 970.623 713.077 975.1 718.6 975.1Z" fill="#F29F05"/>
<path d="M683.2 1010.5C688.723 1010.5 693.2 1006.02 693.2 1000.5C693.2 994.977 688.723 990.5 683.2 990.5C677.677 990.5 673.2 994.977 673.2 1000.5C673.2 1006.02 677.677 1010.5 683.2 1010.5Z" fill="#F29F05"/>
<path d="M647.9 975.1C653.423 975.1 657.9 970.623 657.9 965.1C657.9 959.577 653.423 955.1 647.9 955.1C642.377 955.1 637.9 959.577 637.9 965.1C637.9 970.623 642.377 975.1 647.9 975.1Z" fill="#F29F05"/>
<path d="M753.9 1010.5C759.423 1010.5 763.9 1006.02 763.9 1000.5C763.9 994.977 759.423 990.5 753.9 990.5C748.377 990.5 743.9 994.977 743.9 1000.5C743.9 1006.02 748.377 1010.5 753.9 1010.5Z" fill="#F29F05"/>
<path d="M789.3 1045.9C794.823 1045.9 799.3 1041.42 799.3 1035.9C799.3 1030.38 794.823 1025.9 789.3 1025.9C783.777 1025.9 779.3 1030.38 779.3 1035.9C779.3 1041.42 783.777 1045.9 789.3 1045.9Z" fill="#F29F05"/>
<path d="M718.6 1045.9C724.123 1045.9 728.6 1041.42 728.6 1035.9C728.6 1030.38 724.123 1025.9 718.6 1025.9C713.077 1025.9 708.6 1030.38 708.6 1035.9C708.6 1041.42 713.077 1045.9 718.6 1045.9Z" fill="#F29F05"/>
<path d="M187.9 798C193.423 798 197.9 793.523 197.9 788C197.9 782.477 193.423 778 187.9 778C182.377 778 177.9 782.477 177.9 788C177.9 793.523 182.377 798 187.9 798Z" fill="#F29F05"/>
<path d="M152.5 833.4C158.023 833.4 162.5 828.923 162.5 823.4C162.5 817.877 158.023 813.4 152.5 813.4C146.977 813.4 142.5 817.877 142.5 823.4C142.5 828.923 146.977 833.4 152.5 833.4Z" fill="#F29F05"/>
<path d="M117.2 798C122.723 798 127.2 793.523 127.2 788C127.2 782.477 122.723 778 117.2 778C111.677 778 107.2 782.477 107.2 788C107.2 793.523 111.677 798 117.2 798Z" fill="#F29F05"/>
<path d="M223.2 833.4C228.723 833.4 233.2 828.923 233.2 823.4C233.2 817.877 228.723 813.4 223.2 813.4C217.677 813.4 213.2 817.877 213.2 823.4C213.2 828.923 217.677 833.4 223.2 833.4Z" fill="#F29F05"/>
<path d="M258.6 868.7C264.123 868.7 268.6 864.223 268.6 858.7C268.6 853.177 264.123 848.7 258.6 848.7C253.077 848.7 248.6 853.177 248.6 858.7C248.6 864.223 253.077 868.7 258.6 868.7Z" fill="#F29F05"/>
<path d="M223.2 904.1C228.723 904.1 233.2 899.623 233.2 894.1C233.2 888.577 228.723 884.1 223.2 884.1C217.677 884.1 213.2 888.577 213.2 894.1C213.2 899.623 217.677 904.1 223.2 904.1Z" fill="#F29F05"/>
<path d="M187.9 868.7C193.423 868.7 197.9 864.223 197.9 858.7C197.9 853.177 193.423 848.7 187.9 848.7C182.377 848.7 177.9 853.177 177.9 858.7C177.9 864.223 182.377 868.7 187.9 868.7Z" fill="#F29F05"/>
<path d="M329.3 798C334.823 798 339.3 793.523 339.3 788C339.3 782.477 334.823 778 329.3 778C323.777 778 319.3 782.477 319.3 788C319.3 793.523 323.777 798 329.3 798Z" fill="#F29F05"/>
<path d="M293.9 833.4C299.423 833.4 303.9 828.923 303.9 823.4C303.9 817.877 299.423 813.4 293.9 813.4C288.377 813.4 283.9 817.877 283.9 823.4C283.9 828.923 288.377 833.4 293.9 833.4Z" fill="#F29F05"/>
<path d="M258.6 798C264.123 798 268.6 793.523 268.6 788C268.6 782.477 264.123 778 258.6 778C253.077 778 248.6 782.477 248.6 788C248.6 793.523 253.077 798 258.6 798Z" fill="#F29F05"/>
<path d="M435.4 833.4C440.923 833.4 445.4 828.923 445.4 823.4C445.4 817.877 440.923 813.4 435.4 813.4C429.877 813.4 425.4 817.877 425.4 823.4C425.4 828.923 429.877 833.4 435.4 833.4Z" fill="#F29F05"/>
<path d="M400 798C405.523 798 410 793.523 410 788C410 782.477 405.523 778 400 778C394.477 778 390 782.477 390 788C390 793.523 394.477 798 400 798Z" fill="#F29F05"/>
<path d="M293.9 904.1C299.423 904.1 303.9 899.623 303.9 894.1C303.9 888.577 299.423 884.1 293.9 884.1C288.377 884.1 283.9 888.577 283.9 894.1C283.9 899.623 288.377 904.1 293.9 904.1Z" fill="#F29F05"/>
<path d="M329.3 939.4C334.823 939.4 339.3 934.923 339.3 929.4C339.3 923.877 334.823 919.4 329.3 919.4C323.777 919.4 319.3 923.877 319.3 929.4C319.3 934.923 323.777 939.4 329.3 939.4Z" fill="#F29F05"/>
<path d="M293.9 974.8C299.423 974.8 303.9 970.323 303.9 964.8C303.9 959.277 299.423 954.8 293.9 954.8C288.377 954.8 283.9 959.277 283.9 964.8C283.9 970.323 288.377 974.8 293.9 974.8Z" fill="#F29F05"/>
<path d="M258.6 939.4C264.123 939.4 268.6 934.923 268.6 929.4C268.6 923.877 264.123 919.4 258.6 919.4C253.077 919.4 248.6 923.877 248.6 929.4C248.6 934.923 253.077 939.4 258.6 939.4Z" fill="#F29F05"/>
<path d="M364.7 974.8C370.223 974.8 374.7 970.323 374.7 964.8C374.7 959.277 370.223 954.8 364.7 954.8C359.177 954.8 354.7 959.277 354.7 964.8C354.7 970.323 359.177 974.8 364.7 974.8Z" fill="#F29F05"/>
<path d="M400 1010.1C405.523 1010.1 410 1005.62 410 1000.1C410 994.577 405.523 990.1 400 990.1C394.477 990.1 390 994.577 390 1000.1C390 1005.62 394.477 1010.1 400 1010.1Z" fill="#F29F05"/>
<path d="M364.7 1045.5C370.223 1045.5 374.7 1041.02 374.7 1035.5C374.7 1029.98 370.223 1025.5 364.7 1025.5C359.177 1025.5 354.7 1029.98 354.7 1035.5C354.7 1041.02 359.177 1045.5 364.7 1045.5Z" fill="#F29F05"/>
<path d="M329.3 1010.1C334.823 1010.1 339.3 1005.62 339.3 1000.1C339.3 994.577 334.823 990.1 329.3 990.1C323.777 990.1 319.3 994.577 319.3 1000.1C319.3 1005.62 323.777 1010.1 329.3 1010.1Z" fill="#F29F05"/>
<path d="M364.7 833.4C370.223 833.4 374.7 828.923 374.7 823.4C374.7 817.877 370.223 813.4 364.7 813.4C359.177 813.4 354.7 817.877 354.7 823.4C354.7 828.923 359.177 833.4 364.7 833.4Z" fill="#F29F05"/>
<path d="M400 868.7C405.523 868.7 410 864.223 410 858.7C410 853.177 405.523 848.7 400 848.7C394.477 848.7 390 853.177 390 858.7C390 864.223 394.477 868.7 400 868.7Z" fill="#F29F05"/>
<path d="M364.7 904.1C370.223 904.1 374.7 899.623 374.7 894.1C374.7 888.577 370.223 884.1 364.7 884.1C359.177 884.1 354.7 888.577 354.7 894.1C354.7 899.623 359.177 904.1 364.7 904.1Z" fill="#F29F05"/>
<path d="M329.3 868.7C334.823 868.7 339.3 864.223 339.3 858.7C339.3 853.177 334.823 848.7 329.3 848.7C323.777 848.7 319.3 853.177 319.3 858.7C319.3 864.223 323.777 868.7 329.3 868.7Z" fill="#F29F05"/>
<path d="M435.4 904.1C440.923 904.1 445.4 899.623 445.4 894.1C445.4 888.577 440.923 884.1 435.4 884.1C429.877 884.1 425.4 888.577 425.4 894.1C425.4 899.623 429.877 904.1 435.4 904.1Z" fill="#F29F05"/>
<path d="M435.4 974.8C440.923 974.8 445.4 970.323 445.4 964.8C445.4 959.277 440.923 954.8 435.4 954.8C429.877 954.8 425.4 959.277 425.4 964.8C425.4 970.323 429.877 974.8 435.4 974.8Z" fill="#F29F05"/>
<path d="M400 939.4C405.523 939.4 410 934.923 410 929.4C410 923.877 405.523 919.4 400 919.4C394.477 919.4 390 923.877 390 929.4C390 934.923 394.477 939.4 400 939.4Z" fill="#F29F05"/>
<path d="M435.4 1045.5C440.923 1045.5 445.4 1041.02 445.4 1035.5C445.4 1029.98 440.923 1025.5 435.4 1025.5C429.877 1025.5 425.4 1029.98 425.4 1035.5C425.4 1041.02 429.877 1045.5 435.4 1045.5Z" fill="#F29F05"/>
<path d="M46.5 798C52.0228 798 56.5 793.523 56.5 788C56.5 782.477 52.0228 778 46.5 778C40.9772 778 36.5 782.477 36.5 788C36.5 793.523 40.9772 798 46.5 798Z" fill="#F29F05"/>
<path d="M11.1001 833.4C16.6229 833.4 21.1001 828.923 21.1001 823.4C21.1001 817.877 16.6229 813.4 11.1001 813.4C5.57725 813.4 1.1001 817.877 1.1001 823.4C1.1001 828.923 5.57725 833.4 11.1001 833.4Z" fill="#F29F05"/>
<path d="M11.1001 904.1C16.6229 904.1 21.1001 899.623 21.1001 894.1C21.1001 888.577 16.6229 884.1 11.1001 884.1C5.57725 884.1 1.1001 888.577 1.1001 894.1C1.1001 899.623 5.57725 904.1 11.1001 904.1Z" fill="#F29F05"/>
<path d="M46.5 939.4C52.0228 939.4 56.5 934.923 56.5 929.4C56.5 923.877 52.0228 919.4 46.5 919.4C40.9772 919.4 36.5 923.877 36.5 929.4C36.5 934.923 40.9772 939.4 46.5 939.4Z" fill="#F29F05"/>
<path d="M11.1001 974.8C16.6229 974.8 21.1001 970.323 21.1001 964.8C21.1001 959.277 16.6229 954.8 11.1001 954.8C5.57725 954.8 1.1001 959.277 1.1001 964.8C1.1001 970.323 5.57725 974.8 11.1001 974.8Z" fill="#F29F05"/>
<path d="M81.8 974.8C87.3229 974.8 91.8 970.323 91.8 964.8C91.8 959.277 87.3229 954.8 81.8 954.8C76.2772 954.8 71.8 959.277 71.8 964.8C71.8 970.323 76.2772 974.8 81.8 974.8Z" fill="#F29F05"/>
<path d="M117.2 1010.1C122.723 1010.1 127.2 1005.62 127.2 1000.1C127.2 994.577 122.723 990.1 117.2 990.1C111.677 990.1 107.2 994.577 107.2 1000.1C107.2 1005.62 111.677 1010.1 117.2 1010.1Z" fill="#F29F05"/>
<path d="M81.8 1045.5C87.3229 1045.5 91.8 1041.02 91.8 1035.5C91.8 1029.98 87.3229 1025.5 81.8 1025.5C76.2772 1025.5 71.8 1029.98 71.8 1035.5C71.8 1041.02 76.2772 1045.5 81.8 1045.5Z" fill="#F29F05"/>
<path d="M46.5 1010.1C52.0228 1010.1 56.5 1005.62 56.5 1000.1C56.5 994.577 52.0228 990.1 46.5 990.1C40.9772 990.1 36.5 994.577 36.5 1000.1C36.5 1005.62 40.9772 1010.1 46.5 1010.1Z" fill="#F29F05"/>
<path d="M81.8 833.4C87.3229 833.4 91.8 828.923 91.8 823.4C91.8 817.877 87.3229 813.4 81.8 813.4C76.2772 813.4 71.8 817.877 71.8 823.4C71.8 828.923 76.2772 833.4 81.8 833.4Z" fill="#F29F05"/>
<path d="M117.2 868.7C122.723 868.7 127.2 864.223 127.2 858.7C127.2 853.177 122.723 848.7 117.2 848.7C111.677 848.7 107.2 853.177 107.2 858.7C107.2 864.223 111.677 868.7 117.2 868.7Z" fill="#F29F05"/>
<path d="M81.8 904.1C87.3229 904.1 91.8 899.623 91.8 894.1C91.8 888.577 87.3229 884.1 81.8 884.1C76.2772 884.1 71.8 888.577 71.8 894.1C71.8 899.623 76.2772 904.1 81.8 904.1Z" fill="#F29F05"/>
<path d="M46.5 868.7C52.0228 868.7 56.5 864.223 56.5 858.7C56.5 853.177 52.0228 848.7 46.5 848.7C40.9772 848.7 36.5 853.177 36.5 858.7C36.5 864.223 40.9772 868.7 46.5 868.7Z" fill="#F29F05"/>
<path d="M152.5 904.1C158.023 904.1 162.5 899.623 162.5 894.1C162.5 888.577 158.023 884.1 152.5 884.1C146.977 884.1 142.5 888.577 142.5 894.1C142.5 899.623 146.977 904.1 152.5 904.1Z" fill="#F29F05"/>
<path d="M187.9 939.4C193.423 939.4 197.9 934.923 197.9 929.4C197.9 923.877 193.423 919.4 187.9 919.4C182.377 919.4 177.9 923.877 177.9 929.4C177.9 934.923 182.377 939.4 187.9 939.4Z" fill="#F29F05"/>
<path d="M152.5 974.8C158.023 974.8 162.5 970.323 162.5 964.8C162.5 959.277 158.023 954.8 152.5 954.8C146.977 954.8 142.5 959.277 142.5 964.8C142.5 970.323 146.977 974.8 152.5 974.8Z" fill="#F29F05"/>
<path d="M117.2 939.4C122.723 939.4 127.2 934.923 127.2 929.4C127.2 923.877 122.723 919.4 117.2 919.4C111.677 919.4 107.2 923.877 107.2 929.4C107.2 934.923 111.677 939.4 117.2 939.4Z" fill="#F29F05"/>
<path d="M11.1001 1045.5C16.6229 1045.5 21.1001 1041.02 21.1001 1035.5C21.1001 1029.98 16.6229 1025.5 11.1001 1025.5C5.57725 1025.5 1.1001 1029.98 1.1001 1035.5C1.1001 1041.02 5.57725 1045.5 11.1001 1045.5Z" fill="#F29F05"/>
<path d="M152.5 1045.5C158.023 1045.5 162.5 1041.02 162.5 1035.5C162.5 1029.98 158.023 1025.5 152.5 1025.5C146.977 1025.5 142.5 1029.98 142.5 1035.5C142.5 1041.02 146.977 1045.5 152.5 1045.5Z" fill="#F29F05"/>
<path d="M223.2 974.8C228.723 974.8 233.2 970.323 233.2 964.8C233.2 959.277 228.723 954.8 223.2 954.8C217.677 954.8 213.2 959.277 213.2 964.8C213.2 970.323 217.677 974.8 223.2 974.8Z" fill="#F29F05"/>
<path d="M258.6 1010.1C264.123 1010.1 268.6 1005.62 268.6 1000.1C268.6 994.577 264.123 990.1 258.6 990.1C253.077 990.1 248.6 994.577 248.6 1000.1C248.6 1005.62 253.077 1010.1 258.6 1010.1Z" fill="#F29F05"/>
<path d="M223.2 1045.5C228.723 1045.5 233.2 1041.02 233.2 1035.5C233.2 1029.98 228.723 1025.5 223.2 1025.5C217.677 1025.5 213.2 1029.98 213.2 1035.5C213.2 1041.02 217.677 1045.5 223.2 1045.5Z" fill="#F29F05"/>
<path d="M187.9 1010.1C193.423 1010.1 197.9 1005.62 197.9 1000.1C197.9 994.577 193.423 990.1 187.9 990.1C182.377 990.1 177.9 994.577 177.9 1000.1C177.9 1005.62 182.377 1010.1 187.9 1010.1Z" fill="#F29F05"/>
<path d="M293.9 1045.5C299.423 1045.5 303.9 1041.02 303.9 1035.5C303.9 1029.98 299.423 1025.5 293.9 1025.5C288.377 1025.5 283.9 1029.98 283.9 1035.5C283.9 1041.02 288.377 1045.5 293.9 1045.5Z" fill="#F29F05"/>
<path d="M187.9 20C193.423 20 197.9 15.5228 197.9 10C197.9 4.47715 193.423 0 187.9 0C182.377 0 177.9 4.47715 177.9 10C177.9 15.5228 182.377 20 187.9 20Z" fill="#F29F05"/>
<path d="M152.5 55.4002C158.023 55.4002 162.5 50.923 162.5 45.4001C162.5 39.8773 158.023 35.4001 152.5 35.4001C146.977 35.4001 142.5 39.8773 142.5 45.4001C142.5 50.923 146.977 55.4002 152.5 55.4002Z" fill="#F29F05"/>
<path d="M117.2 20C122.723 20 127.2 15.5228 127.2 10C127.2 4.47715 122.723 0 117.2 0C111.677 0 107.2 4.47715 107.2 10C107.2 15.5228 111.677 20 117.2 20Z" fill="#F29F05"/>
<path d="M223.2 55.4002C228.723 55.4002 233.2 50.923 233.2 45.4001C233.2 39.8773 228.723 35.4001 223.2 35.4001C217.677 35.4001 213.2 39.8773 213.2 45.4001C213.2 50.923 217.677 55.4002 223.2 55.4002Z" fill="#F29F05"/>
<path d="M258.6 90.7002C264.123 90.7002 268.6 86.223 268.6 80.7002C268.6 75.1773 264.123 70.7002 258.6 70.7002C253.077 70.7002 248.6 75.1773 248.6 80.7002C248.6 86.223 253.077 90.7002 258.6 90.7002Z" fill="#F29F05"/>
<path d="M223.2 126.1C228.723 126.1 233.2 121.623 233.2 116.1C233.2 110.577 228.723 106.1 223.2 106.1C217.677 106.1 213.2 110.577 213.2 116.1C213.2 121.623 217.677 126.1 223.2 126.1Z" fill="#F29F05"/>
<path d="M187.9 90.7002C193.423 90.7002 197.9 86.223 197.9 80.7002C197.9 75.1773 193.423 70.7002 187.9 70.7002C182.377 70.7002 177.9 75.1773 177.9 80.7002C177.9 86.223 182.377 90.7002 187.9 90.7002Z" fill="#F29F05"/>
<path d="M329.3 20C334.823 20 339.3 15.5228 339.3 10C339.3 4.47715 334.823 0 329.3 0C323.777 0 319.3 4.47715 319.3 10C319.3 15.5228 323.777 20 329.3 20Z" fill="#F29F05"/>
<path d="M293.9 55.4002C299.423 55.4002 303.9 50.923 303.9 45.4001C303.9 39.8773 299.423 35.4001 293.9 35.4001C288.377 35.4001 283.9 39.8773 283.9 45.4001C283.9 50.923 288.377 55.4002 293.9 55.4002Z" fill="#F29F05"/>
<path d="M258.6 20C264.123 20 268.6 15.5228 268.6 10C268.6 4.47715 264.123 0 258.6 0C253.077 0 248.6 4.47715 248.6 10C248.6 15.5228 253.077 20 258.6 20Z" fill="#F29F05"/>
<path d="M435.4 55.4002C440.923 55.4002 445.4 50.923 445.4 45.4001C445.4 39.8773 440.923 35.4001 435.4 35.4001C429.877 35.4001 425.4 39.8773 425.4 45.4001C425.4 50.923 429.877 55.4002 435.4 55.4002Z" fill="#F29F05"/>
<path d="M400 20C405.523 20 410 15.5228 410 10C410 4.47715 405.523 0 400 0C394.477 0 390 4.47715 390 10C390 15.5228 394.477 20 400 20Z" fill="#F29F05"/>
<path d="M293.9 126.1C299.423 126.1 303.9 121.623 303.9 116.1C303.9 110.577 299.423 106.1 293.9 106.1C288.377 106.1 283.9 110.577 283.9 116.1C283.9 121.623 288.377 126.1 293.9 126.1Z" fill="#F29F05"/>
<path d="M329.3 161.4C334.823 161.4 339.3 156.923 339.3 151.4C339.3 145.877 334.823 141.4 329.3 141.4C323.777 141.4 319.3 145.877 319.3 151.4C319.3 156.923 323.777 161.4 329.3 161.4Z" fill="#F29F05"/>
<path d="M293.9 196.8C299.423 196.8 303.9 192.323 303.9 186.8C303.9 181.277 299.423 176.8 293.9 176.8C288.377 176.8 283.9 181.277 283.9 186.8C283.9 192.323 288.377 196.8 293.9 196.8Z" fill="#F29F05"/>
<path d="M258.6 161.4C264.123 161.4 268.6 156.923 268.6 151.4C268.6 145.877 264.123 141.4 258.6 141.4C253.077 141.4 248.6 145.877 248.6 151.4C248.6 156.923 253.077 161.4 258.6 161.4Z" fill="#F29F05"/>
<path d="M364.7 196.8C370.223 196.8 374.7 192.323 374.7 186.8C374.7 181.277 370.223 176.8 364.7 176.8C359.177 176.8 354.7 181.277 354.7 186.8C354.7 192.323 359.177 196.8 364.7 196.8Z" fill="#F29F05"/>
<path d="M400 232.1C405.523 232.1 410 227.623 410 222.1C410 216.577 405.523 212.1 400 212.1C394.477 212.1 390 216.577 390 222.1C390 227.623 394.477 232.1 400 232.1Z" fill="#F29F05"/>
<path d="M364.7 267.5C370.223 267.5 374.7 263.023 374.7 257.5C374.7 251.977 370.223 247.5 364.7 247.5C359.177 247.5 354.7 251.977 354.7 257.5C354.7 263.023 359.177 267.5 364.7 267.5Z" fill="#F29F05"/>
<path d="M329.3 232.1C334.823 232.1 339.3 227.623 339.3 222.1C339.3 216.577 334.823 212.1 329.3 212.1C323.777 212.1 319.3 216.577 319.3 222.1C319.3 227.623 323.777 232.1 329.3 232.1Z" fill="#F29F05"/>
<path d="M364.7 55.4002C370.223 55.4002 374.7 50.923 374.7 45.4001C374.7 39.8773 370.223 35.4001 364.7 35.4001C359.177 35.4001 354.7 39.8773 354.7 45.4001C354.7 50.923 359.177 55.4002 364.7 55.4002Z" fill="#F29F05"/>
<path d="M400 90.7002C405.523 90.7002 410 86.223 410 80.7002C410 75.1773 405.523 70.7002 400 70.7002C394.477 70.7002 390 75.1773 390 80.7002C390 86.223 394.477 90.7002 400 90.7002Z" fill="#F29F05"/>
<path d="M364.7 126.1C370.223 126.1 374.7 121.623 374.7 116.1C374.7 110.577 370.223 106.1 364.7 106.1C359.177 106.1 354.7 110.577 354.7 116.1C354.7 121.623 359.177 126.1 364.7 126.1Z" fill="#F29F05"/>
<path d="M329.3 90.7002C334.823 90.7002 339.3 86.223 339.3 80.7002C339.3 75.1773 334.823 70.7002 329.3 70.7002C323.777 70.7002 319.3 75.1773 319.3 80.7002C319.3 86.223 323.777 90.7002 329.3 90.7002Z" fill="#F29F05"/>
<path d="M435.4 126.1C440.923 126.1 445.4 121.623 445.4 116.1C445.4 110.577 440.923 106.1 435.4 106.1C429.877 106.1 425.4 110.577 425.4 116.1C425.4 121.623 429.877 126.1 435.4 126.1Z" fill="#F29F05"/>
<path d="M435.4 196.8C440.923 196.8 445.4 192.323 445.4 186.8C445.4 181.277 440.923 176.8 435.4 176.8C429.877 176.8 425.4 181.277 425.4 186.8C425.4 192.323 429.877 196.8 435.4 196.8Z" fill="#F29F05"/>
<path d="M400 161.4C405.523 161.4 410 156.923 410 151.4C410 145.877 405.523 141.4 400 141.4C394.477 141.4 390 145.877 390 151.4C390 156.923 394.477 161.4 400 161.4Z" fill="#F29F05"/>
<path d="M435.4 267.5C440.923 267.5 445.4 263.023 445.4 257.5C445.4 251.977 440.923 247.5 435.4 247.5C429.877 247.5 425.4 251.977 425.4 257.5C425.4 263.023 429.877 267.5 435.4 267.5Z" fill="#F29F05"/>
<path d="M435.4 338.2C440.923 338.2 445.4 333.723 445.4 328.2C445.4 322.677 440.923 318.2 435.4 318.2C429.877 318.2 425.4 322.677 425.4 328.2C425.4 333.723 429.877 338.2 435.4 338.2Z" fill="#F29F05"/>
<path d="M400 302.9C405.523 302.9 410 298.423 410 292.9C410 287.377 405.523 282.9 400 282.9C394.477 282.9 390 287.377 390 292.9C390 298.423 394.477 302.9 400 302.9Z" fill="#F29F05"/>
<path d="M46.5 20C52.0228 20 56.5 15.5228 56.5 10C56.5 4.47715 52.0228 0 46.5 0C40.9772 0 36.5 4.47715 36.5 10C36.5 15.5228 40.9772 20 46.5 20Z" fill="#F29F05"/>
<path d="M11.1001 55.4002C16.6229 55.4002 21.1001 50.923 21.1001 45.4001C21.1001 39.8773 16.6229 35.4001 11.1001 35.4001C5.57725 35.4001 1.1001 39.8773 1.1001 45.4001C1.1001 50.923 5.57725 55.4002 11.1001 55.4002Z" fill="#F29F05"/>
<path d="M11.1001 126.1C16.6229 126.1 21.1001 121.623 21.1001 116.1C21.1001 110.577 16.6229 106.1 11.1001 106.1C5.57725 106.1 1.1001 110.577 1.1001 116.1C1.1001 121.623 5.57725 126.1 11.1001 126.1Z" fill="#F29F05"/>
<path d="M46.5 161.4C52.0228 161.4 56.5 156.923 56.5 151.4C56.5 145.877 52.0228 141.4 46.5 141.4C40.9772 141.4 36.5 145.877 36.5 151.4C36.5 156.923 40.9772 161.4 46.5 161.4Z" fill="#F29F05"/>
<path d="M11.1001 196.8C16.6229 196.8 21.1001 192.323 21.1001 186.8C21.1001 181.277 16.6229 176.8 11.1001 176.8C5.57725 176.8 1.1001 181.277 1.1001 186.8C1.1001 192.323 5.57725 196.8 11.1001 196.8Z" fill="#F29F05"/>
<path d="M81.8 196.8C87.3229 196.8 91.8 192.323 91.8 186.8C91.8 181.277 87.3229 176.8 81.8 176.8C76.2772 176.8 71.8 181.277 71.8 186.8C71.8 192.323 76.2772 196.8 81.8 196.8Z" fill="#F29F05"/>
<path d="M117.2 232.1C122.723 232.1 127.2 227.623 127.2 222.1C127.2 216.577 122.723 212.1 117.2 212.1C111.677 212.1 107.2 216.577 107.2 222.1C107.2 227.623 111.677 232.1 117.2 232.1Z" fill="#F29F05"/>
<path d="M81.8 267.5C87.3229 267.5 91.8 263.023 91.8 257.5C91.8 251.977 87.3229 247.5 81.8 247.5C76.2772 247.5 71.8 251.977 71.8 257.5C71.8 263.023 76.2772 267.5 81.8 267.5Z" fill="#F29F05"/>
<path d="M46.5 232.1C52.0228 232.1 56.5 227.623 56.5 222.1C56.5 216.577 52.0228 212.1 46.5 212.1C40.9772 212.1 36.5 216.577 36.5 222.1C36.5 227.623 40.9772 232.1 46.5 232.1Z" fill="#F29F05"/>
<path d="M81.8 55.4002C87.3229 55.4002 91.8 50.923 91.8 45.4001C91.8 39.8773 87.3229 35.4001 81.8 35.4001C76.2772 35.4001 71.8 39.8773 71.8 45.4001C71.8 50.923 76.2772 55.4002 81.8 55.4002Z" fill="#F29F05"/>
<path d="M117.2 90.7002C122.723 90.7002 127.2 86.223 127.2 80.7002C127.2 75.1773 122.723 70.7002 117.2 70.7002C111.677 70.7002 107.2 75.1773 107.2 80.7002C107.2 86.223 111.677 90.7002 117.2 90.7002Z" fill="#F29F05"/>
<path d="M81.8 126.1C87.3229 126.1 91.8 121.623 91.8 116.1C91.8 110.577 87.3229 106.1 81.8 106.1C76.2772 106.1 71.8 110.577 71.8 116.1C71.8 121.623 76.2772 126.1 81.8 126.1Z" fill="#F29F05"/>
<path d="M46.5 90.7002C52.0228 90.7002 56.5 86.223 56.5 80.7002C56.5 75.1773 52.0228 70.7002 46.5 70.7002C40.9772 70.7002 36.5 75.1773 36.5 80.7002C36.5 86.223 40.9772 90.7002 46.5 90.7002Z" fill="#F29F05"/>
<path d="M152.5 126.1C158.023 126.1 162.5 121.623 162.5 116.1C162.5 110.577 158.023 106.1 152.5 106.1C146.977 106.1 142.5 110.577 142.5 116.1C142.5 121.623 146.977 126.1 152.5 126.1Z" fill="#F29F05"/>
<path d="M187.9 161.4C193.423 161.4 197.9 156.923 197.9 151.4C197.9 145.877 193.423 141.4 187.9 141.4C182.377 141.4 177.9 145.877 177.9 151.4C177.9 156.923 182.377 161.4 187.9 161.4Z" fill="#F29F05"/>
<path d="M152.5 196.8C158.023 196.8 162.5 192.323 162.5 186.8C162.5 181.277 158.023 176.8 152.5 176.8C146.977 176.8 142.5 181.277 142.5 186.8C142.5 192.323 146.977 196.8 152.5 196.8Z" fill="#F29F05"/>
<path d="M117.2 161.4C122.723 161.4 127.2 156.923 127.2 151.4C127.2 145.877 122.723 141.4 117.2 141.4C111.677 141.4 107.2 145.877 107.2 151.4C107.2 156.923 111.677 161.4 117.2 161.4Z" fill="#F29F05"/>
<path d="M11.1001 267.5C16.6229 267.5 21.1001 263.023 21.1001 257.5C21.1001 251.977 16.6229 247.5 11.1001 247.5C5.57725 247.5 1.1001 251.977 1.1001 257.5C1.1001 263.023 5.57725 267.5 11.1001 267.5Z" fill="#F29F05"/>
<path d="M46.5 302.9C52.0228 302.9 56.5 298.423 56.5 292.9C56.5 287.377 52.0228 282.9 46.5 282.9C40.9772 282.9 36.5 287.377 36.5 292.9C36.5 298.423 40.9772 302.9 46.5 302.9Z" fill="#F29F05"/>
<path d="M11.1001 338.2C16.6229 338.2 21.1001 333.723 21.1001 328.2C21.1001 322.677 16.6229 318.2 11.1001 318.2C5.57725 318.2 1.1001 322.677 1.1001 328.2C1.1001 333.723 5.57725 338.2 11.1001 338.2Z" fill="#F29F05"/>
<path d="M152.5 267.5C158.023 267.5 162.5 263.023 162.5 257.5C162.5 251.977 158.023 247.5 152.5 247.5C146.977 247.5 142.5 251.977 142.5 257.5C142.5 263.023 146.977 267.5 152.5 267.5Z" fill="#F29F05"/>
<path d="M187.9 302.9C193.423 302.9 197.9 298.423 197.9 292.9C197.9 287.377 193.423 282.9 187.9 282.9C182.377 282.9 177.9 287.377 177.9 292.9C177.9 298.423 182.377 302.9 187.9 302.9Z" fill="#F29F05"/>
<path d="M152.5 338.2C158.023 338.2 162.5 333.723 162.5 328.2C162.5 322.677 158.023 318.2 152.5 318.2C146.977 318.2 142.5 322.677 142.5 328.2C142.5 333.723 146.977 338.2 152.5 338.2Z" fill="#F29F05"/>
<path d="M117.2 302.9C122.723 302.9 127.2 298.423 127.2 292.9C127.2 287.377 122.723 282.9 117.2 282.9C111.677 282.9 107.2 287.377 107.2 292.9C107.2 298.423 111.677 302.9 117.2 302.9Z" fill="#F29F05"/>
<path d="M223.2 338.2C228.723 338.2 233.2 333.723 233.2 328.2C233.2 322.677 228.723 318.2 223.2 318.2C217.677 318.2 213.2 322.677 213.2 328.2C213.2 333.723 217.677 338.2 223.2 338.2Z" fill="#F29F05"/>
<path d="M258.6 373.6C264.123 373.6 268.6 369.123 268.6 363.6C268.6 358.077 264.123 353.6 258.6 353.6C253.077 353.6 248.6 358.077 248.6 363.6C248.6 369.123 253.077 373.6 258.6 373.6Z" fill="#F29F05"/>
<path d="M187.9 373.6C193.423 373.6 197.9 369.123 197.9 363.6C197.9 358.077 193.423 353.6 187.9 353.6C182.377 353.6 177.9 358.077 177.9 363.6C177.9 369.123 182.377 373.6 187.9 373.6Z" fill="#F29F05"/>
<path d="M223.2 196.8C228.723 196.8 233.2 192.323 233.2 186.8C233.2 181.277 228.723 176.8 223.2 176.8C217.677 176.8 213.2 181.277 213.2 186.8C213.2 192.323 217.677 196.8 223.2 196.8Z" fill="#F29F05"/>
<path d="M258.6 232.1C264.123 232.1 268.6 227.623 268.6 222.1C268.6 216.577 264.123 212.1 258.6 212.1C253.077 212.1 248.6 216.577 248.6 222.1C248.6 227.623 253.077 232.1 258.6 232.1Z" fill="#F29F05"/>
<path d="M223.2 267.5C228.723 267.5 233.2 263.023 233.2 257.5C233.2 251.977 228.723 247.5 223.2 247.5C217.677 247.5 213.2 251.977 213.2 257.5C213.2 263.023 217.677 267.5 223.2 267.5Z" fill="#F29F05"/>
<path d="M187.9 232.1C193.423 232.1 197.9 227.623 197.9 222.1C197.9 216.577 193.423 212.1 187.9 212.1C182.377 212.1 177.9 216.577 177.9 222.1C177.9 227.623 182.377 232.1 187.9 232.1Z" fill="#F29F05"/>
<path d="M293.9 267.5C299.423 267.5 303.9 263.023 303.9 257.5C303.9 251.977 299.423 247.5 293.9 247.5C288.377 247.5 283.9 251.977 283.9 257.5C283.9 263.023 288.377 267.5 293.9 267.5Z" fill="#F29F05"/>
<path d="M329.3 302.9C334.823 302.9 339.3 298.423 339.3 292.9C339.3 287.377 334.823 282.9 329.3 282.9C323.777 282.9 319.3 287.377 319.3 292.9C319.3 298.423 323.777 302.9 329.3 302.9Z" fill="#F29F05"/>
<path d="M293.9 338.2C299.423 338.2 303.9 333.723 303.9 328.2C303.9 322.677 299.423 318.2 293.9 318.2C288.377 318.2 283.9 322.677 283.9 328.2C283.9 333.723 288.377 338.2 293.9 338.2Z" fill="#F29F05"/>
<path d="M258.6 302.9C264.123 302.9 268.6 298.423 268.6 292.9C268.6 287.377 264.123 282.9 258.6 282.9C253.077 282.9 248.6 287.377 248.6 292.9C248.6 298.423 253.077 302.9 258.6 302.9Z" fill="#F29F05"/>
<path d="M364.7 338.2C370.223 338.2 374.7 333.723 374.7 328.2C374.7 322.677 370.223 318.2 364.7 318.2C359.177 318.2 354.7 322.677 354.7 328.2C354.7 333.723 359.177 338.2 364.7 338.2Z" fill="#F29F05"/>
<path d="M400 373.6C405.523 373.6 410 369.123 410 363.6C410 358.077 405.523 353.6 400 353.6C394.477 353.6 390 358.077 390 363.6C390 369.123 394.477 373.6 400 373.6Z" fill="#F29F05"/>
<path d="M329.3 373.6C334.823 373.6 339.3 369.123 339.3 363.6C339.3 358.077 334.823 353.6 329.3 353.6C323.777 353.6 319.3 358.077 319.3 363.6C319.3 369.123 323.777 373.6 329.3 373.6Z" fill="#F29F05"/>
<path d="M81.8 338.2C87.3229 338.2 91.8 333.723 91.8 328.2C91.8 322.677 87.3229 318.2 81.8 318.2C76.2772 318.2 71.8 322.677 71.8 328.2C71.8 333.723 76.2772 338.2 81.8 338.2Z" fill="#F29F05"/>
<path d="M117.2 373.6C122.723 373.6 127.2 369.123 127.2 363.6C127.2 358.077 122.723 353.6 117.2 353.6C111.677 353.6 107.2 358.077 107.2 363.6C107.2 369.123 111.677 373.6 117.2 373.6Z" fill="#F29F05"/>
<path d="M46.5 373.6C52.0228 373.6 56.5 369.123 56.5 363.6C56.5 358.077 52.0228 353.6 46.5 353.6C40.9772 353.6 36.5 358.077 36.5 363.6C36.5 369.123 40.9772 373.6 46.5 373.6Z" fill="#F29F05"/>
</svg>
