<svg width="603" height="606" viewBox="0 0 603 606" fill="none" xmlns="http://www.w3.org/2000/svg">
<path d="M208.81 86.01C150.225 29.2935 102.281 38.114 78.9406 48.4126C68.1134 53.2366 59.2366 62.1134 54.4125 72.9406C44.114 96.2805 35.2935 144.225 92.01 202.81C161.224 274.36 186.446 220.158 223.602 240.962C242.077 251.261 321.826 322.834 373.282 397.65C424.739 472.467 477.762 539.506 509.108 547.492C519.379 550.055 528.985 547.28 535.754 544.237C542.082 541.221 547.338 535.965 550.237 529.754C553.383 523.089 556.158 513.483 553.492 503.108C545.506 471.762 478.467 418.739 403.65 367.282C328.834 315.826 257.261 236.077 246.962 217.602C226.158 180.446 280.36 155.224 208.81 86.01Z" fill="#E18D70"/>
<path d="M203.81 94.01C145.225 37.2935 97.2805 46.114 73.9406 56.4126C63.1134 61.2366 54.2366 70.1134 49.4125 80.9406C39.114 104.281 30.2935 152.225 87.01 210.81C156.224 282.36 181.446 228.158 218.602 248.962C237.077 259.261 316.826 330.834 368.282 405.65C419.739 480.467 472.762 547.506 504.108 555.492C514.379 558.055 523.985 555.28 530.754 552.237C537.082 549.221 542.338 543.965 545.237 537.754C548.383 531.089 551.158 521.483 548.492 511.108C540.506 479.762 473.467 426.739 398.65 375.282C323.834 323.826 252.261 244.077 241.962 225.602C221.158 188.446 275.36 163.224 203.81 94.01Z" stroke="#27435E" stroke-miterlimit="10"/>
</svg>
