<svg width="604" height="610" viewBox="0 0 604 610" fill="none" xmlns="http://www.w3.org/2000/svg">
<path d="M166.812 573.919L131.309 551.858L137.805 541.375L148.996 548.321L168.677 516.613L181.926 524.845L162.245 556.553L173.308 563.435L166.812 573.919Z" fill="white"/>
<path d="M121.147 547.099L109.506 536.744L121.726 523.045C117.739 524.138 112.915 523.623 108.477 519.7C101.66 513.654 102.11 505.1 108.927 497.511L124.17 480.403L135.747 490.694L121.791 506.322C119.282 509.152 119.347 512.304 121.855 514.555C124.428 516.87 127.515 516.549 130.023 513.719L143.98 498.09L155.621 508.445L121.147 547.099Z" fill="white"/>
<path d="M110.342 462.202C117.674 471.463 116.903 482.783 106.998 490.629C97.0933 498.476 85.9023 496.675 78.5703 487.349C71.2382 478.088 71.9457 466.832 81.6574 459.179C82.4292 458.6 83.3297 457.957 84.2301 457.442L99.7303 476.994C102.753 474.357 102.432 472.171 101.145 470.498C99.8589 468.89 98.3796 468.762 97.0933 469.083L86.867 456.156C94.4563 452.233 104.168 454.355 110.342 462.202ZM94.2634 481.046L88.5393 473.778C86.4168 475.451 86.7384 477.895 88.1534 479.696C89.7613 481.818 91.8194 482.397 94.2634 481.046Z" fill="white"/>
<path d="M47.2482 438.147C45.4474 434.481 44.9972 431.201 46.3478 427.664L43.1963 429.207L36.4431 415.251L88.9894 389.653L95.7426 403.61L74.8398 413.772C78.9561 414.865 81.6573 416.859 83.3939 420.525C87.4458 428.886 83.8441 439.691 73.1033 444.965C62.3625 450.239 51.3001 446.508 47.2482 438.147ZM57.5388 428.564C58.5679 430.622 61.7193 432.938 66.2215 430.751C70.7236 428.564 70.4663 424.898 69.4373 422.776C68.4082 420.718 65.4497 418.338 60.9475 420.525C56.4454 422.712 56.5741 426.506 57.5388 428.564Z" fill="white"/>
<path d="M59.0181 353.057L63.1987 368.043L57.4102 369.651C61.3335 370.873 65.1282 373.896 66.7361 379.684C69.1801 388.495 64.1634 395.377 54.3231 398.078L32.1983 404.188L28.0821 389.267L48.2774 383.672C51.9434 382.643 53.5513 379.941 52.6509 376.725C51.7504 373.445 48.9205 372.03 45.3188 372.995L25.1236 378.591L21.0073 363.605L59.0181 353.057Z" fill="white"/>
<path d="M9.04452 355.373C4.73534 355.951 0.876373 352.993 0.104579 347.526C-0.602898 342.123 2.35564 338.264 6.66482 337.686C10.9097 337.107 14.7043 340.065 15.4118 345.468C16.1836 350.935 13.2894 354.794 9.04452 355.373ZM19.5924 352.8L17.5342 337.364L56.7027 332.09L58.7609 347.526L19.5924 352.8Z" fill="white"/>
<path d="M15.4761 309.129C15.2832 298.967 21.2003 291.249 31.5552 289.191L31.8124 305.656C29.9473 306.235 28.7253 307.328 28.7896 309.258C28.8539 311.638 31.0406 313.31 35.8 313.181C40.5594 313.117 42.6818 311.38 42.6818 309.001C42.6818 307.007 41.4598 305.978 39.5304 305.463L39.2731 288.998C49.6923 290.735 55.8023 298.26 55.9953 308.422C56.1882 320.256 48.6632 328.746 36.0573 328.939C23.387 329.196 15.6691 320.963 15.4761 309.129Z" fill="white"/>
<path d="M4.15649 277.743L6.60051 262.371L33.4203 266.616L20.3642 254.525L23.1941 236.645L40.5594 254.332L62.2982 242.433L59.404 260.764L42.2959 267.903L57.8604 270.347L55.4164 285.718L4.15649 277.743Z" fill="white"/>
<path d="M38.7586 190.723C42.1673 182.298 51.8148 178.375 63.6489 183.134C75.4831 187.893 79.7279 197.412 76.3835 205.838C74.454 210.726 70.9166 213.298 66.8647 213.749L71.8814 215.742L66.0929 230.213L17.9202 210.854L23.7086 196.383L40.1735 203.008C37.5366 199.921 36.7648 195.611 38.7586 190.723ZM49.4351 200.564C48.2131 203.587 49.4351 206.738 53.487 208.41C57.5389 210.018 60.6261 208.539 61.7837 205.58C62.9414 202.622 61.7837 199.406 57.7318 197.734C53.6799 196.126 50.5927 197.605 49.4351 200.564Z" fill="white"/>
<path d="M91.948 174.58L84.0371 187.958L50.0139 167.827L57.9248 154.449L64.2278 158.179C61.9767 153.291 61.7194 147.567 64.2921 143.194L78.5703 151.683L76.3192 155.478C73.4893 160.302 73.3607 163.646 77.9914 166.412L91.948 174.58Z" fill="white"/>
<path d="M112.015 146.924C104.554 156.186 92.9127 158.372 83.1367 150.461C73.2963 142.551 73.0391 130.716 80.4997 121.455C87.9604 112.193 99.6016 110.007 109.378 117.917C119.154 125.828 119.475 137.663 112.015 146.924ZM101.531 138.434C103.268 136.312 103.139 133.16 99.473 130.202C95.807 127.243 92.6555 127.758 90.9832 129.88C89.2467 132.003 89.3754 135.154 93.0414 138.113C96.7074 141.071 99.7946 140.621 101.531 138.434Z" fill="white"/>
<path d="M98.1866 99.716L110.085 89.94L127.901 106.405L116.581 84.6017L129.38 74.0539L148.996 89.4255L136.133 68.5227L147.324 59.2612L165.204 95.7927L151.698 106.919L133.818 92.7699L144.108 113.222L130.602 124.349L98.1866 99.716Z" fill="white"/>
<path d="M187.908 59.3898C186.171 56.0454 183.148 54.952 180.19 56.4956C177.167 58.1035 176.331 61.0621 178.067 64.4708L187.715 83.0582L173.887 90.1973L155.685 55.145L169.513 48.0059L172.279 53.3441C172.665 49.2922 174.852 44.9187 180.125 42.1531C188.229 37.9726 196.011 41.4456 200.707 50.5142L211.254 70.9024L197.491 78.0415L187.908 59.3898Z" fill="white"/>
<path d="M220.709 39.8377L216.657 41.0598L212.991 28.6467L217.043 27.4247C214.02 16.6196 219.808 8.64444 232.993 5.94316L236.788 18.6777C233.25 19.3209 231.9 20.4143 232.157 22.9869L237.624 21.379L241.29 33.792L235.694 35.4643L243.219 60.9334L228.298 65.3712L220.709 39.8377Z" fill="white"/>
<path d="M269.911 55.9168C258.141 57.7176 248.107 51.5433 246.178 39.066C244.248 26.5886 251.966 17.6487 263.736 15.8478C275.506 14.047 285.539 20.2213 287.469 32.6987C289.398 45.176 281.68 54.1159 269.911 55.9168ZM267.852 42.6033C270.554 42.2174 272.612 39.7734 271.904 35.0784C271.197 30.4476 268.496 28.7111 265.794 29.1613C263.093 29.6115 261.035 31.9912 261.742 36.6863C262.45 41.3813 265.087 43.0536 267.852 42.6033Z" fill="white"/>
<path d="M312.81 43.6324L307.664 52.4437L290.556 52.1221L304.191 31.541L290.556 12.5677L307.922 12.8893L314.417 21.9579L319.627 13.0822L336.735 13.4038L322.714 33.4705L336.671 52.9582L319.305 52.6367L312.81 43.6324Z" fill="white"/>
<path d="M372.816 19.9641L364.713 61.448C362.333 73.4751 354.744 75.9834 345.611 74.1825L340.53 73.1535L343.102 60.1616L346.061 60.7405C348.055 61.1264 349.02 60.4832 349.405 58.6824L357.574 16.9412L372.816 19.9641ZM358.345 6.13611C359.181 1.89124 363.233 -0.810032 368.636 0.219026C373.974 1.24808 376.74 5.3 375.904 9.54486C375.068 13.7254 371.08 16.3624 365.677 15.3333C360.275 14.2399 357.574 10.3167 358.345 6.13611Z" fill="white"/>
<path d="M410.12 72.7676L395.391 67.7509L397.321 62.0268C394.105 64.5351 389.474 66.0144 383.814 64.0849C375.196 61.1264 372.302 53.0869 375.582 43.4394L382.978 21.7649L397.642 26.7816L390.889 46.5909C389.667 50.1926 390.953 53.0869 394.169 54.1802C397.449 55.2736 400.151 53.7943 401.373 50.1926L408.126 30.3833L422.854 35.3999L410.12 72.7676Z" fill="white"/>
<path d="M470.963 84.0229C472.764 81.193 471.992 78.2988 469.162 76.4979C466.268 74.6327 463.373 75.2759 461.573 78.1058L450.446 95.7927L437.325 87.496L448.516 69.809C450.317 66.9791 449.546 64.0849 446.716 62.284C443.821 60.4189 440.927 61.062 439.126 63.8919L427.935 81.5789L414.815 73.2821L435.975 39.902L449.095 48.1988L446.265 52.7009C449.674 51.2217 454.241 51.093 458.936 54.0516C463.824 57.1388 466.203 61.7052 466.01 66.9148C470.255 65.1139 475.851 64.7281 480.739 67.8795C489.357 73.3464 490.643 82.0291 485.177 90.6474L472.892 110.007L459.772 101.71L470.963 84.0229Z" fill="white"/>
<path d="M522.223 104.797C528.59 111.293 528.268 121.712 519.2 130.652C510.067 139.592 499.648 139.656 493.28 133.16C489.614 129.43 488.65 125.121 489.872 121.262L472.506 138.306L461.637 127.179L503.378 86.274L514.248 97.4007L510.389 101.195C514.248 100.038 518.492 101.067 522.223 104.797ZM508.845 110.65C506.594 108.334 503.185 108.141 500.034 111.229C496.947 114.251 497.011 117.66 499.326 119.976C501.577 122.291 504.986 122.484 508.138 119.397C511.225 116.374 511.096 112.965 508.845 110.65Z" fill="white"/>
<path d="M516.241 161.845C509.681 152.455 510.389 142.808 516.627 137.663L525.181 149.883C523.445 151.555 523.638 153.677 524.988 155.671C525.889 157.022 527.175 157.343 527.947 156.764C532.192 153.806 516.627 139.785 528.526 131.488C534.379 127.372 542.482 128.658 548.85 137.791C555.281 147.053 553.223 155.221 547.499 160.623L539.652 149.239C541.132 147.696 541.26 145.702 539.845 143.644C538.945 142.358 537.916 141.972 536.951 142.679C532.899 145.509 548.528 159.852 536.051 168.534C530.262 172.586 522.287 170.464 516.241 161.845Z" fill="white"/>
<path d="M540.939 206.481C536.244 195.547 539.781 184.292 551.358 179.339C562.935 174.387 573.547 179.661 578.178 190.595C582.808 201.528 579.335 212.784 567.758 217.736C556.182 222.688 545.634 217.415 540.939 206.481ZM553.352 201.207C554.445 203.715 557.275 205.066 561.584 203.265C565.893 201.464 566.922 198.377 565.829 195.869C564.736 193.36 561.906 192.01 557.597 193.81C553.287 195.676 552.258 198.634 553.352 201.207Z" fill="white"/>
<path d="M592.07 232.657L569.431 244.492L594.964 245.006L598.695 261.085L557.211 257.226L552.773 238.317L588.275 216.514L592.07 232.657Z" fill="white"/>
<path d="M560.684 290.413C559.976 278.579 567.115 269.832 579.721 269.06C592.327 268.289 600.431 276.199 601.139 288.034C601.846 299.868 594.836 308.615 582.487 309.387C581.522 309.451 580.365 309.451 579.4 309.387L577.921 284.496C573.933 284.946 572.904 286.876 573.033 288.998C573.161 291.056 574.319 292.021 575.541 292.471L576.506 308.936C568.016 307.65 561.263 300.382 560.684 290.413ZM584.674 284.175L585.253 293.436C587.954 293.243 589.112 291.121 588.983 288.805C588.79 286.168 587.439 284.496 584.674 284.175Z" fill="white"/>
<path d="M560.555 329.325L561.841 313.824L601.267 317.04L599.981 332.54L592.713 331.961C596.894 335.37 599.595 340.387 599.209 345.532L582.68 344.182L583.066 339.808C583.516 334.213 582.165 331.125 576.763 330.739L560.555 329.325Z" fill="white"/>
<path d="M582.037 365.084L583.259 360.325L595.865 363.476L594.643 368.236L603.904 370.551L600.11 385.665L590.848 383.35L589.24 389.589L576.634 386.437L578.242 380.199L567.887 377.626C566.151 377.176 565.122 377.819 564.607 379.748L563.707 383.35L550.843 380.134L552.258 374.41C554.509 365.406 560.041 359.617 571.939 362.576L582.037 365.084Z" fill="white"/>
<path d="M597.923 404.317L591.877 418.66L574.962 411.585C577.277 414.994 578.371 419.689 576.055 425.22C572.518 433.645 564.35 435.961 554.895 431.973L533.735 423.097L539.717 408.819L559.011 416.923C562.485 418.402 565.507 417.309 566.794 414.157C568.144 411.006 566.794 408.176 563.321 406.697L544.026 398.593L550.072 384.25L597.923 404.317Z" fill="white"/>
<path d="M521.129 442.135C527.561 432.166 538.495 429.272 549.107 436.154C559.719 442.971 561.649 454.162 555.217 464.067C548.785 474.036 537.98 476.994 527.561 470.241C526.725 469.727 525.825 469.019 525.053 468.376L538.559 447.409C535.086 445.415 533.092 446.38 531.999 448.181C530.905 449.917 531.291 451.396 531.999 452.49L523.059 466.318C516.82 460.401 515.727 450.496 521.129 442.135ZM544.155 451.204L539.138 458.986C541.453 460.465 543.64 459.372 544.862 457.442C546.341 455.255 546.213 453.069 544.155 451.204Z" fill="white"/>
<path d="M539.009 505.486L528.526 516.999L490.193 482.011L500.677 470.498L539.009 505.486Z" fill="white"/>
<path d="M501.706 526.132C497.654 529.541 493.28 530.184 489.55 528.64L493.023 532.756L481.125 542.79L455.72 512.497L467.554 502.528L471.027 506.644C470.191 502.721 471.606 498.476 475.594 495.131C482.54 489.279 492.895 490.372 501.127 500.148C509.359 509.924 508.652 520.279 501.706 526.132ZM488.971 519.057C491.415 516.999 491.866 513.59 489.1 510.246C486.334 506.901 482.861 506.773 480.417 508.831C477.973 510.889 477.523 514.298 480.289 517.642C483.054 520.987 486.463 521.179 488.971 519.057Z" fill="white"/>
<path d="M438.933 554.431L445.043 533.914L430.894 542.404L424.269 531.341L453.019 514.105L459.322 524.588L453.855 544.719L466.589 537.066L473.214 548.128L445.236 564.914L438.933 554.431Z" fill="white"/>
<path d="M410.892 579.9L394.941 586.332L396.613 522.659L412.435 516.292L411.02 539.381L440.348 568.13L424.269 574.562L409.927 558.74L410.892 579.9Z" fill="white"/>
<path d="M360.532 594.178C355.322 595.014 351.335 593.278 348.891 590.062L351.656 607.556L336.285 610L328.181 558.74L343.553 556.296L344.389 561.634C345.675 557.84 349.019 554.945 354.229 554.109C363.233 552.694 371.53 558.997 373.524 571.603C375.453 584.209 369.536 592.763 360.532 594.178ZM353.264 581.508C356.48 580.993 358.603 578.356 357.895 574.047C357.188 569.738 354.358 567.873 351.206 568.387C347.99 568.902 345.868 571.539 346.575 575.848C347.219 580.157 350.113 582.022 353.264 581.508Z" fill="white"/>
<path d="M304.384 558.161C316.283 558.354 325.158 566.136 324.965 578.742C324.772 591.348 315.639 598.873 303.741 598.68C291.842 598.487 282.967 590.705 283.16 578.099C283.353 565.429 292.421 557.968 304.384 558.161ZM304.127 571.603C301.361 571.539 298.982 573.597 298.917 578.292C298.853 582.987 301.168 585.11 303.934 585.174C306.7 585.238 309.079 583.18 309.144 578.485C309.208 573.79 306.957 571.668 304.127 571.603Z" fill="white"/>
<path d="M259.041 594.564C253.896 593.599 250.616 590.576 249.394 586.718L248.365 591.991L233.122 589.097L240.454 550.958C242.448 540.667 249.522 532.242 264.058 535.007C276.728 537.451 282.838 545.234 282.002 555.267L267.016 552.373C267.016 550.315 265.473 548.964 262.643 548.385C259.556 547.806 256.726 548.385 255.697 553.852L254.796 558.483C257.305 555.331 261.485 553.788 266.631 554.752C275.57 556.489 281.23 565.172 278.851 577.713C276.471 590.319 267.981 596.301 259.041 594.564ZM256.469 580.222C259.62 580.8 262.579 579.064 263.35 574.755C264.187 570.51 262.128 567.744 258.977 567.101C255.825 566.522 252.867 568.259 252.095 572.568C251.259 576.877 253.317 579.643 256.469 580.222Z" fill="white"/>
<path d="M228.427 545.105C233.701 546.842 235.887 551.151 234.537 555.203C233.186 559.319 228.813 561.506 223.539 559.769C218.329 558.033 216.207 553.659 217.557 549.543C218.908 545.491 223.217 543.368 228.427 545.105Z" fill="white"/>
</svg>
