<svg width="271" height="615" viewBox="0 0 271 615" fill="none" xmlns="http://www.w3.org/2000/svg">
<path d="M67.2 261.2V220.8H30.8V544H67.2V399.6C80.8 422 109.2 443.6 149.2 443.6C208 443.6 253.2 397.6 253.2 329.6C253.2 261.2 208 217.2 149.2 217.2C109.2 217.2 80.4 238 67.2 261.2ZM216 329.6C216 381.2 182 411.6 141.6 411.6C102 411.6 67.2 381.6 67.2 330C67.2 279.2 102 248.8 141.6 248.8C182 248.8 216 278 216 329.6Z" fill="white"/>
<path d="M67.2 261.2H66.2V264.98L68.0692 261.695L67.2 261.2ZM67.2 220.8H68.2V219.8H67.2V220.8ZM30.8 220.8V219.8H29.8V220.8H30.8ZM30.8 544H29.8V545H30.8V544ZM67.2 544V545H68.2V544H67.2ZM67.2 399.6L68.0548 399.081L66.2 396.026V399.6H67.2ZM68.2 261.2V220.8H66.2V261.2H68.2ZM67.2 219.8H30.8V221.8H67.2V219.8ZM29.8 220.8V544H31.8V220.8H29.8ZM30.8 545H67.2V543H30.8V545ZM68.2 544V399.6H66.2V544H68.2ZM66.3452 400.119C80.1074 422.786 108.815 444.6 149.2 444.6V442.6C109.585 442.6 81.4926 421.214 68.0548 399.081L66.3452 400.119ZM149.2 444.6C208.617 444.6 254.2 398.085 254.2 329.6H252.2C252.2 397.115 207.383 442.6 149.2 442.6V444.6ZM254.2 329.6C254.2 295.175 242.822 266.818 223.974 247.06C205.124 227.301 178.857 216.2 149.2 216.2V218.2C178.343 218.2 204.076 229.099 222.526 248.44C240.978 267.782 252.2 295.625 252.2 329.6H254.2ZM149.2 216.2C108.837 216.2 79.7068 237.196 66.3308 260.705L68.0692 261.695C81.0932 238.804 109.563 218.2 149.2 218.2V216.2ZM215 329.6C215 355.174 206.579 375.415 193.23 389.256C179.879 403.099 161.544 410.6 141.6 410.6V412.6C162.056 412.6 180.921 404.901 194.67 390.644C208.421 376.385 217 355.626 217 329.6H215ZM141.6 410.6C102.573 410.6 68.2 381.068 68.2 330H66.2C66.2 382.132 101.427 412.6 141.6 412.6V410.6ZM68.2 330C68.2 279.732 102.573 249.8 141.6 249.8V247.8C101.427 247.8 66.2 278.668 66.2 330H68.2ZM141.6 249.8C161.556 249.8 179.892 257.009 193.238 270.552C206.58 284.091 215 304.027 215 329.6H217C217 303.573 208.42 283.109 194.662 269.148C180.908 255.191 162.044 247.8 141.6 247.8V249.8Z" fill="white"/>
<line x1="67.5" y1="615" x2="67.5" y2="115" stroke="#F2CF1D" stroke-dasharray="25 25"/>
<line x1="216.5" y1="615" x2="216.5" y2="115" stroke="#F2CF1D" stroke-dasharray="25 25"/>
<line x1="254.5" y1="615" x2="254.5" y2="115" stroke="#F2CF1D" stroke-dasharray="25 25"/>
</svg>
