<svg width="1395" height="275" viewBox="0 0 1395 275" fill="none" xmlns="http://www.w3.org/2000/svg">
<path fill-rule="evenodd" clip-rule="evenodd" d="M58.4116 174.546H105.427C136.974 174.546 160.961 167.021 178.115 152.69C195.327 138.29 203.98 119.214 203.98 94.8525C203.98 78.3109 199.918 63.7485 191.9 50.9865L191.883 50.9604L191.867 50.934C183.973 38.0779 172.745 28.1582 157.977 21.1751L157.952 21.1631L157.926 21.1509C143.247 14.0406 126.163 10.3984 106.526 10.3984H6.1416V265H58.4116V174.546ZM181.965 157.292C163.411 172.794 137.898 180.546 105.427 180.546H64.4116V271H0.141602V4.39844H106.526C126.912 4.39844 144.917 8.18262 160.542 15.751C176.289 23.1973 188.435 33.8784 196.98 47.7944C205.647 61.5884 209.98 77.2744 209.98 94.8525C209.98 120.854 200.642 141.667 181.965 157.292ZM58.4116 136.924V48.02H107.29L107.321 48.0204C120.307 48.157 131.164 52.4638 139.18 61.3547C147.113 70.1527 150.795 81.6576 150.795 95.2188C150.795 107.768 147.113 118.299 139.047 125.929C131.089 133.575 119.91 136.924 106.526 136.924H58.4116ZM134.907 121.586C141.499 115.36 144.795 106.571 144.795 95.2188C144.795 82.7676 141.438 72.8188 134.724 65.3726C128.01 57.9263 118.855 54.1421 107.258 54.02H64.4116V130.924H106.526C118.977 130.924 128.438 127.812 134.907 121.586ZM455.159 62.8091C445.393 42.9116 431.66 27.5918 413.96 16.8496C396.26 6.10742 376.118 0.736328 353.535 0.736328C330.708 0.736328 310.322 6.16846 292.378 17.0327C274.556 27.897 260.823 43.3389 251.179 63.3584C241.658 83.2559 236.897 106.266 236.897 132.389V147.404C237.385 172.55 242.512 194.828 252.278 214.237C262.166 233.646 275.898 248.6 293.477 259.098C311.055 269.474 331.196 274.662 353.901 274.662C376.606 274.662 396.809 269.291 414.509 258.549C432.332 247.685 446.064 232.243 455.708 212.223C465.352 192.204 470.173 169.193 470.173 143.192V130.924C470.051 105.29 465.046 82.5845 455.159 62.8091ZM464.173 130.94V143.192C464.173 168.444 459.494 190.539 450.302 209.619C441.127 228.667 428.156 243.203 411.386 253.426C394.716 263.54 375.614 268.662 353.901 268.662C332.15 268.662 313.088 263.704 296.537 253.937C280.004 244.06 267.037 229.985 257.632 211.529C248.34 193.056 243.377 171.707 242.897 147.345V132.389C242.897 107.002 247.521 84.9062 256.589 65.9543C265.762 46.9134 278.73 32.3816 295.493 22.1607C312.416 11.9166 331.707 6.73633 353.535 6.73633C375.123 6.73633 394.17 11.8574 410.847 21.9789C427.498 32.0842 440.474 46.508 449.772 65.4526L449.782 65.4725L449.792 65.4924C459.205 84.318 464.053 106.086 464.173 130.94ZM302.449 123.6C304.28 75.2603 321.309 51.0903 353.535 51.0903C370.015 51.0903 382.649 57.9873 391.438 71.7812C400.349 85.4531 404.805 105.534 404.805 132.023V144.291C404.683 170.17 400.227 190.006 391.438 203.8C382.649 217.594 370.137 224.491 353.901 224.491C336.812 224.491 323.933 217.472 315.266 203.434C306.599 189.396 302.266 169.315 302.266 143.192L302.449 123.6ZM396.481 68.5307C386.581 53.0092 372.036 45.0903 353.535 45.0903C335.676 45.0903 321.44 51.9209 311.689 65.7621C302.205 79.2228 297.387 98.7101 296.453 123.373L296.45 123.458L296.266 143.164V143.192C296.266 169.837 300.661 191.199 310.161 206.586C319.968 222.47 334.822 230.491 353.901 230.491C372.205 230.491 386.617 222.532 396.498 207.024C406.154 191.87 410.68 170.729 410.805 144.319L410.805 144.305V132.023C410.805 105.043 406.299 83.6098 396.481 68.5307ZM561.585 174.546H608.601C640.148 174.546 664.135 167.021 681.289 152.69C698.501 138.29 707.154 119.214 707.154 94.8525C707.154 78.3109 703.092 63.7485 695.073 50.9865L695.057 50.9604L695.041 50.934C687.147 38.0779 675.918 28.1582 661.151 21.1751L661.126 21.1631L661.1 21.1509C646.421 14.0406 629.336 10.3984 609.7 10.3984H509.315V265H561.585V174.546ZM685.139 157.292C666.584 172.794 641.072 180.546 608.601 180.546H567.585V271H503.315V4.39844H609.7C630.085 4.39844 648.091 8.18262 663.716 15.751C679.463 23.1973 691.609 33.8784 700.154 47.7944C708.821 61.5884 713.154 77.2744 713.154 94.8525C713.154 120.854 703.816 141.667 685.139 157.292ZM561.585 136.924V48.02H610.464L610.495 48.0204C623.481 48.157 634.338 52.4638 642.354 61.3547C650.287 70.1527 653.969 81.6576 653.969 95.2188C653.969 107.769 650.287 118.3 642.22 125.93C634.262 133.575 623.083 136.924 609.7 136.924H561.585ZM638.081 121.586C644.673 115.36 647.969 106.571 647.969 95.2188C647.969 82.7676 644.612 72.8188 637.898 65.3726C631.184 57.9263 622.029 54.1421 610.432 54.02H567.585V130.924H609.7C622.151 130.924 631.611 127.812 638.081 121.586ZM805.848 174.546H852.864C884.411 174.546 908.398 167.021 925.552 152.69C942.764 138.29 951.417 119.214 951.417 94.8525C951.417 78.3109 947.355 63.7485 939.336 50.9865L939.32 50.9604L939.303 50.934C931.409 38.0779 920.181 28.1582 905.414 21.1751L905.388 21.1631L905.363 21.1509C890.684 14.0406 873.599 10.3984 853.962 10.3984H753.578V265H805.848V174.546ZM929.402 157.292C910.847 172.794 885.334 180.546 852.864 180.546H811.848V271H747.578V4.39844H853.962C874.348 4.39844 892.354 8.18262 907.979 15.751C923.726 23.1973 935.872 33.8784 944.417 47.7944C953.083 61.5884 957.417 77.2744 957.417 94.8525C957.417 120.854 948.079 141.667 929.402 157.292ZM805.848 136.924V48.02H854.726L854.758 48.0204C867.743 48.157 878.6 52.4638 886.617 61.3547C894.549 70.1527 898.231 81.6576 898.231 95.2188C898.231 107.769 894.55 118.3 886.483 125.93C878.524 133.575 867.345 136.924 853.962 136.924H805.848ZM882.344 121.586C888.936 115.36 892.231 106.571 892.231 95.2188C892.231 82.7676 888.875 72.8188 882.161 65.3726C875.447 57.9263 866.292 54.1421 854.695 54.02H811.848V130.924H853.962C866.414 130.924 875.874 127.812 882.344 121.586ZM1002.24 265H1054.32V10.3984H1002.24V265ZM1263.75 271H1327.66V4.39844H1263.57V170.292L1169.27 4.39844H1105V271H1169.27V105.106L1263.75 271ZM1163.27 265V82.4479L1267.24 265H1321.66V10.3984H1269.57V192.989L1165.78 10.3984H1111V265H1163.27ZM1419.76 145.573C1430.38 150.822 1444.05 156.254 1460.77 161.869C1477.5 167.484 1489.16 172.917 1495.75 178.166C1502.46 183.415 1505.82 190.739 1505.82 200.138C1505.82 208.439 1502.71 214.909 1496.48 219.547C1490.38 224.064 1482.01 226.322 1471.39 226.322C1454.79 226.322 1442.77 222.965 1435.32 216.251C1428 209.416 1424.34 198.856 1424.34 184.574H1359.88C1359.88 186.601 1359.94 188.601 1360.06 190.574C1360.95 205.715 1365.29 219.279 1373.07 231.266C1381.98 244.694 1395.16 255.314 1412.62 263.126C1430.2 270.817 1449.79 274.662 1471.39 274.662C1502.03 274.662 1526.14 268.009 1543.72 254.704C1561.3 241.398 1570.09 223.087 1570.09 199.772C1570.09 170.597 1555.68 147.709 1526.88 131.107C1515.03 124.271 1499.9 117.924 1481.46 112.064C1463.03 106.083 1450.15 100.346 1442.83 94.8525C1435.51 89.2373 1431.84 83.0117 1431.84 76.1758C1431.84 68.3633 1435.14 61.9546 1441.73 56.9497C1448.44 51.8228 1457.54 49.2593 1469.01 49.2593C1480.37 49.2593 1489.34 52.25 1495.93 58.2314C1502.64 64.2129 1506 72.6357 1506 83.5H1570.09C1570.09 81.4714 1570.02 79.4714 1569.89 77.5C1568.97 63.6936 1564.82 51.2893 1557.45 40.2871C1549.03 27.5918 1537.19 17.8262 1521.93 10.9902C1506.79 4.1543 1489.64 0.736328 1470.48 0.736328C1450.83 0.736328 1433.12 3.91016 1417.38 10.2578C1401.63 16.4834 1389.42 25.2725 1380.76 36.625C1372.21 47.8555 1367.94 60.856 1367.94 75.6265C1367.94 105.29 1385.21 128.605 1419.76 145.573ZM1385.53 40.2581C1377.82 50.393 1373.94 62.1027 1373.94 75.6265C1373.94 102.293 1389.19 123.872 1422.4 140.187L1422.41 140.191L1422.42 140.194C1432.71 145.281 1446.11 150.615 1462.68 156.181C1479.49 161.824 1492 167.517 1499.46 173.454C1507.78 179.966 1511.82 189.118 1511.82 200.138C1511.82 210.181 1507.93 218.499 1500.06 224.359L1500.06 224.365L1500.05 224.37C1492.57 229.903 1482.8 232.322 1471.39 232.322C1454.22 232.322 1440.38 228.891 1431.3 220.708L1431.27 220.673L1431.23 220.638C1423.46 213.384 1419.48 203.081 1418.55 190.574H1366.07C1366.95 204.604 1370.99 217.027 1378.08 227.977C1386.26 240.276 1398.45 250.21 1415.05 257.64C1431.77 264.952 1450.52 268.662 1471.39 268.662C1501.23 268.662 1523.9 262.18 1540.1 249.92C1556.08 237.822 1564.09 221.334 1564.09 199.772C1564.09 173.079 1551.14 152.016 1523.88 136.306L1523.88 136.304C1512.53 129.752 1497.82 123.56 1479.65 117.783L1479.63 117.777L1479.61 117.771C1461.09 111.762 1447.4 105.78 1439.23 99.6525L1439.2 99.6335L1439.18 99.6142C1430.93 93.2909 1425.84 85.4832 1425.84 76.1758C1425.84 66.3612 1430.12 58.232 1438.1 52.171C1446.18 46.0094 1456.7 43.2593 1469.01 43.2593C1481.42 43.2593 1491.97 46.5476 1499.95 53.7731C1506.79 59.8834 1510.58 67.9581 1511.67 77.5H1563.88C1562.97 64.8393 1559.14 53.5917 1552.47 43.6265L1552.46 43.6154L1552.45 43.6042C1544.72 31.946 1533.81 22.8846 1519.48 16.4659L1519.47 16.4622L1519.46 16.4585C1505.21 10.023 1488.92 6.73633 1470.48 6.73633C1451.47 6.73633 1434.55 9.80402 1419.62 15.8227L1419.6 15.8302L1419.58 15.8376C1404.67 21.7356 1393.42 29.9257 1385.53 40.2581ZM1060.32 271V4.39844H996.235V271H1060.32Z" fill="white"/>
</svg>
