<svg width="400" height="164" viewBox="0 0 400 164" fill="none" xmlns="http://www.w3.org/2000/svg">
<path d="M15.1382 103.568C15.8582 110.438 20.9182 126.568 15.4582 124.258C12.4382 122.998 4.3682 113.398 2.1482 106.998C1.52605 105.091 1.0546 103.138 0.738197 101.158C-2.8818 76.9076 7.2882 48.5976 20.8382 28.6676C28.1482 22.2776 35.4582 15.7476 43.9982 11.1376C53.1982 6.2076 61.3682 5.2676 65.9982 6.4976C72.5382 8.2576 77.2582 17.8576 75.7882 29.8876C72.5582 55.9976 38.9082 91.9076 15.1382 103.568ZM35.2782 37.6976C31.4482 38.9976 24.7982 40.6976 22.8382 42.9976C18.0682 48.5876 16.3582 65.9976 15.2382 77.8676C30.0982 65.3776 43.3782 50.2976 54.7482 34.5976C49.5382 34.2476 43.2382 34.9976 35.2782 37.6976Z" fill="#5C520D"/>
<path d="M95.8383 118.328C80.2783 117.878 71.7083 92.0976 71.9983 77.9376C72.3583 59.0376 83.3783 11.5476 107.308 11.0476C109.208 11.0476 112.308 13.8376 114.798 16.5076C120.928 23.0576 123.558 44.0276 123.118 54.2776C122.948 57.3476 122.568 60.6576 122.198 64.2176C120.768 77.3476 113.478 118.838 95.8383 118.328ZM108.178 44.0976C95.1783 48.5676 88.1783 71.0376 88.0883 83.5376C88.1783 84.2876 88.0883 85.5376 88.7383 85.5376C92.2783 85.5976 98.9383 78.1276 101.158 72.3676C104.608 63.3676 106.808 53.6576 108.638 44.1076L108.178 44.0976Z" fill="#5C520D"/>
<path d="M154.898 98.1876C159.358 103.268 165.188 108.918 169.038 114.088C170.641 116.444 171.475 119.238 171.428 122.088C171.638 129.508 165.968 135.508 163.168 135.028C155.078 133.618 146.558 118.688 143.028 109.378C143.088 114.598 142.778 121.768 142.798 124.068C142.898 134.168 141.798 139.528 140.498 139.488C139.198 139.448 136.498 137.248 134.658 130.158C131.258 116.788 131.338 102.388 131.498 88.5976C131.558 83.4176 131.928 78.0876 132.398 72.8576C134.138 53.1976 136.898 29.4376 145.338 11.2076C149.519 10.7067 153.753 10.9061 157.868 11.7976C164.868 13.0676 175.148 18.5176 178.868 22.7976C186.788 31.7176 192.998 45.2376 191.588 57.5376C189.558 75.6276 169.238 89.5276 154.898 98.1876ZM156.508 39.9976C154.508 39.8076 152.298 39.8076 150.928 39.7576C148.184 52.8848 146.102 66.1415 144.688 79.4776C154.158 69.4776 168.858 61.0376 174.688 48.2676C172.308 45.4976 163.508 40.6276 156.508 39.9976Z" fill="#5C520D"/>
<path d="M235.808 39.9976C233.328 40.0576 225.808 35.7976 222.648 34.5676C222.008 34.4176 221.458 33.3276 221.348 33.5676C215.428 65.3376 207.238 97.8276 204.348 130.008C203.348 140.628 203.398 148.108 203.288 149.658C202.988 152.948 201.418 155.108 199.808 155.728C196.888 156.838 192.808 153.538 192.208 144.208C190.678 121.718 195.708 98.4476 199.588 76.3676C202.278 61.0276 205.008 45.6176 207.288 30.1576C204.499 30.1483 201.754 29.462 199.288 28.1576C196.118 26.3176 189.468 16.0176 189.988 6.62759C190.618 -4.60241 197.198 1.56759 200.538 2.78759C203.878 4.00759 207.608 4.22759 212.728 6.55759C217.998 8.99759 224.748 14.0976 232.908 23.3376C235.852 26.9423 237.627 31.3584 237.998 35.9976C238.068 39.0476 236.938 39.9976 235.808 39.9976Z" fill="#5C520D"/>
<path d="M289.998 80.4476C280.868 85.0076 273.798 97.6176 274.758 106.918C276.118 120.098 288.608 131.408 299.178 139.918C301.072 141.656 302.406 143.919 303.008 146.418C303.288 147.928 303.118 150.158 299.958 150.268C298.688 150.345 297.413 150.312 296.148 150.168C294.764 149.897 293.432 149.411 292.198 148.728C274.198 138.658 256.018 120.358 257.498 99.8676C258.218 89.8676 261.428 66.3076 276.498 66.7976C276.928 66.8406 277.347 66.9555 277.738 67.1376C279.688 67.9776 286.938 71.5976 290.028 75.5876C292.598 78.8376 291.148 80.0976 289.998 80.4476Z" fill="#5C520D"/>
<path d="M318.428 137.118C318 137.426 317.509 137.635 316.99 137.73C316.471 137.825 315.938 137.804 315.428 137.668C312.578 137.118 308.838 131.368 307.478 128.368C306.676 126.135 306.122 123.821 305.828 121.468C304.178 111.138 301.138 100.128 300.208 90.6576C300.008 88.6576 302.128 88.0975 303.688 88.2675C307.713 88.9375 311.329 91.1196 313.798 94.3676C314.881 95.9742 315.77 97.7028 316.448 99.5175C320.428 110.548 322.618 125.858 318.428 137.118Z" fill="#5C520D"/>
<path d="M345.348 50.1976C344.148 53.3876 337.758 59.3076 335.608 62.1076C335.238 62.7476 334.308 62.6576 334.428 62.9376C350.258 87.0876 352.768 115.988 350.908 144.108C350.348 152.548 349.568 158.578 349.298 159.778C348.678 162.298 346.808 163.288 345.038 162.998C341.868 162.468 338.038 158.588 337.978 152.498C337.678 137.148 338.978 120.988 336.568 106.318C334.818 95.7676 331.718 84.1376 325.358 74.5576C323.731 76.674 321.499 78.2466 318.958 79.0676C315.698 79.9976 306.418 77.4376 302.178 73.4576C297.118 68.7076 303.688 68.8276 306.338 67.1576C308.988 65.4876 310.898 62.8276 313.718 58.5776C316.718 54.1176 319.718 47.1576 329.058 41.0976C331.468 39.5376 337.838 39.5976 342.708 43.7976C345.748 46.4076 345.928 48.7776 345.348 50.1976Z" fill="#5C520D"/>
<path d="M392.998 93.1876C393.288 110.738 391.928 129.388 384.378 145.508C383.525 147.189 382.28 148.639 380.748 149.738C379.028 150.738 377.288 147.978 376.608 146.628C376.098 145.628 376.258 142.698 376.608 140.078C378.738 123.358 379.878 106.558 377.398 89.7976C368.298 77.5776 355.998 66.9976 346.288 57.2176C342.708 53.6176 344.078 48.9476 346.378 48.4676C357.818 46.0476 371.268 61.1376 378.478 71.6076C378.478 71.0976 378.478 70.8476 378.548 70.3476C378.818 61.3476 375.838 47.4176 376.708 44.6576C377.078 43.3076 378.798 43.1776 381.268 43.8676C383.518 44.4876 390.268 46.9276 394.388 51.1776C403.788 60.8576 397.358 81.2576 392.998 93.1876Z" fill="#5C520D"/>
</svg>
