<?xml version="1.0" encoding="utf-8"?>
<!-- Generator: Adobe Illustrator 24.1.1, SVG Export Plug-In . SVG Version: 6.00 Build 0)  -->
<svg version="1.1" id="Layer_1" xmlns="http://www.w3.org/2000/svg" xmlns:xlink="http://www.w3.org/1999/xlink" x="0px" y="0px"
	 viewBox="0 0 936.3 951.1" style="enable-background:new 0 0 936.3 951.1;" xml:space="preserve">
<g>
	<path d="M253.7,890.8l-46.3-28.3l4.4-7.3l18.6,11.4l37.4-61.1l8.9,5.5L239.4,872l18.7,11.5L253.7,890.8z"/>
	<path d="M185.7,852.7l-7.9-6.8l20.4-23.6c-7.5,2.3-15.7-0.1-22.4-5.9c-10.6-9.2-13.2-23.3-1.4-36.9l24.3-28.1l7.8,6.8l-23.3,27
		c-8.4,9.7-7.4,19.3,0.6,26.2c8.1,7,18,6.8,26.9-3.5l22.8-26.3l7.9,6.8L185.7,852.7z"/>
	<path d="M172.7,719.5c11.3,13.9,9.9,32.2-5.7,44.8c-15.4,12.6-33.2,10.6-44.8-3.7c-11.5-14.2-9.1-31.6,4.3-42.5
		c1.8-1.5,3.3-2.5,5.1-3.7l31.8,39.1c9.4-8.7,9.2-20.1,2.4-28.4c-6-7.3-13.5-8.9-20.2-6.4l-7.1-8.7
		C149.5,705.2,162.8,707.4,172.7,719.5z M156.7,758.8l-25.1-30.9c-9.6,7.7-9.1,19.1-2.3,27.5C135.8,763.3,146.5,765.6,156.7,758.8z"
		/>
	<path d="M62.8,665.8c-4.8-10.5-2.8-20.5,1.7-26.4l-10.5,4.8l-4.4-9.6l84.5-38.6l4.4,9.6l-37.8,17.2c7.3,0.6,16.5,5.6,21.3,16.3
		c6.9,15.2,0.3,32.5-17.5,40.6C86.8,687.9,69.9,681.3,62.8,665.8z M70.3,660.3c4.8,10.5,16.5,15.9,30,9.7
		c13.5-6.2,17.4-18.7,12.6-29.1c-4.8-10.5-16.7-15.9-30.2-9.7C69.3,637.2,65.5,649.8,70.3,660.3z"/>
	<path d="M89,540.6l2.5,10.2l-9,2.3c7.3,2.3,12.8,8.9,14.8,17.1c3.5,14.1-2.5,27.3-20,31.6l-35.8,8.9l-2.5-10l34.5-8.6
		c12.4-3.1,17.1-11.5,14.5-21.7c-2.6-10.5-10.8-15.9-24-12.6L30.3,566l-2.5-10.2L89,540.6z"/>
	<path d="M8,536.6c-4,0.5-7.5-2.2-7.9-6.2c-0.5-3.8,2.3-7.2,6.3-7.7c4-0.5,7.5,2.2,7.9,6C14.7,532.7,12,536.2,8,536.6z M25,532.9
		l-1.3-10.4l62.6-7.6l1.3,10.4L25,532.9z"/>
	<path d="M20,474c-0.3-15.6,7.6-26,20.8-29.4l0.2,11.3c-7.6,2.3-12.3,8.7-12.1,18c0.2,11.5,8.5,19.9,23.9,19.6
		c15.6-0.3,23.7-8.9,23.5-20.4c-0.2-9.3-4.7-15.5-12.7-17.6l-0.2-11.3c12.6,3,21.5,13.1,21.7,28.7c0.3,17.9-12.2,30.9-32.2,31.2
		C33.2,504.5,20.3,491.9,20,474z"/>
	<path d="M1.4,419.8L3,409.4l49.4,7.6l-23.9-28.2l2.2-14.4l26.5,34.1L93,383.8l-2.2,14.1l-31.3,20.2l27.5,4.2l-1.6,10.3L1.4,419.8z"
		/>
	<path d="M56.5,293.1c6.5-15.7,23.2-22.8,41.3-15.2c18.1,7.5,25.3,24.6,18.8,40.2c-4.4,10.6-12.9,16-20.7,16.9l10.7,4.5l-4,9.7
		L24,316.5l4-9.7l31.2,13C54.3,313.4,52.2,303.4,56.5,293.1z M64,298.6c-4.4,10.5-0.1,23.1,13.3,28.7c13.7,5.7,25.5-0.2,29.9-10.7
		c4.5-10.7,0.1-23.1-13.6-28.8C80,282.1,68.5,287.9,64,298.6z"/>
	<path d="M138.8,272l-5.4,9l-54-32.4l5.4-9l8.8,5.3c-4.2-6.7-4.4-14.7,0.7-23.3l9.3,5.6l-1.4,2.4c-5.1,8.6-5.2,17.4,7.3,24.9
		L138.8,272z"/>
	<path d="M172.3,225.8c-11.2,13.8-29.6,16.4-45.1,3.8c-15.5-12.5-16.4-31.3-5.1-45.2c11.3-13.9,29.8-16.9,45.3-4.3
		C182.8,192.7,183.6,211.8,172.3,225.8z M165.1,220c6.9-8.5,7.8-21.5-4.6-31.6c-12.3-10-24.7-6.6-31.5,1.8c-7,8.6-7.4,21.1,4.9,31
		C146.3,231.4,158.2,228.5,165.1,220z"/>
	<path d="M152.7,148.5l8.3-6.8l44.8,31.7l-21.5-50.8l8.3-6.8l45.5,31.3l-22.6-50l8-6.6l24.8,61.2l-8.4,6.9l-43.5-29l20,48.3
		l-8.4,6.9L152.7,148.5z"/>
	<path d="M294,84c-6-11.4-15.3-13.9-24.6-9c-9.5,5-12.9,14.3-6.5,26.3l16.2,30.8l-9.3,4.9l-29.4-55.8l9.3-4.9l4.2,7.9
		c0.6-7.7,5.7-14.4,13.2-18.4c12.9-6.8,27-4.1,35.4,11.9l17.3,32.9l-9.2,4.8L294,84z"/>
	<path d="M348.3,43.4l-7.9,2.2l-2.3-8.3l7.9-2.2l-1.2-4.3c-3.8-13.5,1.1-21.5,16.6-25.8l2.4,8.4c-9.1,2.6-11.1,6.7-8.9,14.6l1.2,4.3
		l12.7-3.6l2.3,8.3l-12.7,3.6l14.7,52.4L363,95.7L348.3,43.4z"/>
	<path d="M422.4,83.8c-17.7,2.5-32.8-8.2-35.6-28c-2.7-19.7,9.4-34.1,27.1-36.5c17.8-2.5,33.3,8,36,27.7
		C452.7,66.8,440.2,81.3,422.4,83.8z M421.2,74.7c10.8-1.5,20.4-10.4,18.2-26.2c-2.2-15.7-13.6-21.7-24.3-20.2
		c-10.9,1.5-19.8,10.3-17.6,26C399.6,70.1,410.3,76.2,421.2,74.7z"/>
	<path d="M483.4,55.5l-14.8,23.2l-10.9-0.2l20.9-30.9l-19.8-32.1l11.8,0.2l14.6,23.6l14.6-23.1l10.9,0.2L490,47.2l19.8,32.2
		L498,79.2L483.4,55.5z"/>
	<path d="M569.7,25.2l-14.5,75.3c-2.2,11.2-8.9,14.8-19.4,12.8l-6-1.2l1.7-8.7l4.3,0.8c5.6,1.1,8.2-0.5,9.2-6l14.5-75.1L569.7,25.2z
		 M561,5.8c0.8-4,4.4-6.4,8.2-5.7c3.8,0.7,6.3,4.4,5.5,8.3c-0.8,4-4.4,6.4-8.2,5.7C562.7,13.4,560.3,9.8,561,5.8z"/>
	<path d="M626.1,106.8l-10-3.2l2.9-8.9c-5.9,5-14.3,6.1-22.3,3.5c-13.8-4.5-21.8-16.5-16.2-33.7l11.4-35.1l9.8,3.2l-11,33.8
		c-4,12.1,0.7,20.5,10.7,23.8c10.3,3.3,19.2-0.8,23.4-13.7l10.7-32.9l10,3.2L626.1,106.8z"/>
	<path d="M735.7,127.1c6.7-11,4.2-20.2-4.6-25.6c-9-5.5-18.8-3.5-25.8,8.1l-18.1,29.6l-8.8-5.4l18.6-30.4c6.7-11,4.2-20.2-4.6-25.6
		c-9-5.5-18.8-3.5-25.8,8.1l-18.1,29.6l-8.9-5.5l32.9-53.8l8.9,5.5l-4.7,7.8c7-3.5,15.2-2.7,22.3,1.6c8.8,5.4,13.8,13.8,12.4,24
		c7.9-5.8,18.1-5.4,26.4-0.3c12.3,7.5,17.1,21,7.7,36.4l-19.4,31.7l-8.8-5.4L735.7,127.1z"/>
	<path d="M803.8,151.5c12,11.9,12.2,30.1-1.7,44c-13.8,13.8-32.4,14-44.3,2.1c-8.1-8.1-9.5-18.3-7.7-25.6l-29.3,29.4l-7.4-7.4
		l65.7-65.7l7.4,7.4l-8.2,8.2C785.6,141.8,795.7,143.4,803.8,151.5z M795.8,156.4c-8.1-8-21.3-8.9-31.6,1.4
		c-10.5,10.5-9.5,23.7-1.4,31.7c8.2,8.2,21.3,8.9,31.8-1.6C805,177.5,804.1,164.6,795.8,156.4z"/>
	<path d="M797.9,245.6c-8.6-12-8-25.1,0.9-32.3l6.3,8.8c-4.6,4-5.2,11.1-0.1,18.3c4.8,6.7,10.9,8.1,15.1,5.1
		c11.4-8.2-16.9-33.7,2.2-47.4c7.9-5.6,19.6-2.8,27.8,8.6c8.1,11.3,7.3,23.2-2.3,30.9l-6.1-8.5c4.9-4,5.8-10.7,0.9-17.5
		c-4.5-6.3-10.1-7.9-14.3-4.9c-12.2,8.7,15.7,33.7-2.4,47.2C817.6,259.7,806,256.9,797.9,245.6z"/>
	<path d="M841.5,325.2c-6.7-16.5,0-33.8,18.5-41.3c18.4-7.4,35.3,0.9,42,17.4c6.7,16.6,0.3,34.2-18.2,41.7
		C865.3,350.4,848.2,341.8,841.5,325.2z M850.1,321.8c4.1,10.1,15,17.3,29.8,11.3c14.7-5.9,17.7-18.4,13.7-28.5
		c-4.1-10.2-14.8-16.7-29.5-10.8C849.2,299.8,846,311.6,850.1,321.8z"/>
	<path d="M919.4,355.4L871.5,386l56.3,7.7l2.4,10.9l-66.8-10.7l-2.6-11.9l56.3-37.6L919.4,355.4z"/>
	<path d="M869.6,452.6c-0.9-17.9,11-31.8,31-32.8c19.9-1,33,11.1,34,29.5c0.9,18.3-11.3,30.9-28.6,31.7c-2.3,0.1-4.1,0.1-6.3,0
		l-2.6-50.3c-12.7,1.5-19.3,10.8-18.7,21.4c0.5,9.4,5.6,15.1,12.5,17.1l0.6,11.3C879.8,477.9,870.4,468.2,869.6,452.6z M905.6,430.4
		l2,39.7c12.3-0.5,18.6-10,18.1-20.8C925.2,439,918,430.9,905.6,430.4z"/>
	<path d="M869.8,504.3l0.9-10.4l62.8,5.4l-0.9,10.4l-10.2-0.9c6.7,4.2,10.5,11.3,9.6,21.3l-10.8-0.9l0.2-2.8
		c0.9-10-3-17.9-17.5-19.2L869.8,504.3z"/>
	<path d="M912.7,579.6l2.1-7.9l8.3,2.2l-2.1,7.9l15.3,4.1l-2.7,10.1l-15.3-4.1l-4.3,15.9l-8.3-2.2l4.3-15.9l-35.9-9.7
		c-6-1.6-8.7,0-10.4,6.3l-2,7.4l-8.6-2.3l2.5-9.1c2.9-10.8,9-15.7,21.2-12.4L912.7,579.6z"/>
	<path d="M928.9,634.5l-4.1,9.6l-28.7-12.2c4.5,6.4,4.7,15,1.2,23.2c-5.5,12.9-18.1,19.6-34.7,12.5L828.4,653l4.1-9.5l32.8,14
		c11.8,5.1,20.6,1.2,24.8-8.5c4.2-9.8,1-19.2-11.5-24.6l-32-13.7l4.1-9.6L928.9,634.5z"/>
	<path d="M806,687.4c9.8-15,27.7-19.2,44.4-8.2c16.6,10.9,20.1,28.4,10.1,43.8c-10,15.3-27.3,18.3-41.8,8.8
		c-1.9-1.3-3.4-2.4-5.1-3.8l27.6-42.2c-11.1-6.3-21.9-2.7-27.8,6.3c-5.2,7.9-4.4,15.5,0,21.2l-6.2,9.4
		C799.4,713.9,797.4,700.5,806,687.4z M848.2,690.7L826.4,724c10.2,6.8,21,2.9,26.9-6.2C858.9,709.2,857.9,698.4,848.2,690.7z"/>
	<path d="M823.8,802.9l-7.3,7.5L755.5,751l7.3-7.5L823.8,802.9z"/>
	<path d="M764.6,828.8c-9.2,7.3-19.2,7.6-26.2,4.7l7.1,9l-8.3,6.6l-39.1-49.4l8.3-6.6l7.3,9.2c-1.2-7.7,1.5-17.4,10.6-24.6
		c13.2-10.4,31.6-8.1,43.7,7.2C780.2,800.3,777.8,818.3,764.6,828.8z M757.3,823c9-7.1,11.5-19.8,2.3-31.4
		c-9.2-11.6-22.3-12.4-31.3-5.3c-9,7.1-11.4,20-2.2,31.7C735.1,829.4,748.3,830.1,757.3,823z"/>
	<path d="M678.5,873.5l4.3-55l-27,15.2l-4.2-7.5l37.4-21l4.2,7.5l-4.2,55l26.5-14.9l4.2,7.4l-37,20.8L678.5,873.5z"/>
	<path d="M624.1,905.3l-10.1,3.9l1.8-100.1l10.1-3.9l-0.6,32.8l46.2,48.9l-10.8,4.2l-36.9-40.4L624.1,905.3z"/>
	<path d="M537.7,926.1c-9.8,1.2-19.5-2.7-24.7-9.4l4.1,33.1l-10.5,1.3l-10.4-84.5l10.5-1.3l1.4,11.8c2.9-7.4,10.3-14.2,21.7-15.6
		c16.8-2.1,31.3,9.5,33.7,28.9C565.9,909.8,554.6,924,537.7,926.1z M534.6,917.3c11.4-1.4,20.1-10.9,18.3-25.6
		c-1.8-14.7-12.6-22.2-24-20.8c-11.4,1.4-20.2,11.2-18.4,25.9C512.3,911.2,523.2,918.7,534.6,917.3z"/>
	<path d="M454.6,864.2c17.8,1,30.6,14.5,29.4,34.5c-1.2,19.9-15.9,31.5-33.7,30.5c-17.9-1.1-31.1-14.4-29.9-34.3
		C421.6,874.9,436.6,863.1,454.6,864.2z M454,873.4c-10.9-0.6-22,6.2-23,22.1c-0.9,15.8,9.1,23.9,19.9,24.6
		c11,0.7,21.5-6.2,22.4-22.1C474.2,882.1,464.9,874,454,873.4z"/>
	<path d="M371.4,917.6c-11.2-2.8-17.8-10.3-19.8-17.8l-2.8,11.2l-10.3-2.5l15.4-62.5c4.2-16.9,18.4-26,36.4-21.6
		c16.1,4,25.6,15,24.3,28.5l-10-2.5c-0.4-7.9-6.4-14.7-16.5-17.2c-10.8-2.7-20.7,2.2-23.9,15.3l-3.2,12.8c5.3-5.7,14.7-9.6,25.9-6.9
		c16.4,4.1,25.9,20,21.2,39C403.5,912.5,387.8,921.6,371.4,917.6z M371.6,908.3c11.2,2.8,22.7-3,26.2-17.4c3.6-14.4-3.8-25.2-15-28
		c-11.2-2.8-22.8,3.2-26.4,17.6C352.9,894.6,360.4,905.5,371.6,908.3z"/>
	<path d="M336.8,839.2c3.8,1.4,5.5,5.5,4.1,9.2c-1.4,3.8-5.5,5.5-9.2,4.1c-3.5-1.4-5.3-5.4-3.9-9.1S333.2,837.8,336.8,839.2z"/>
</g>
</svg>
