<svg width="704" height="883" viewBox="0 0 704 883" fill="none" xmlns="http://www.w3.org/2000/svg">
<path d="M444.98 438.954C451.309 428.175 447.852 416.288 437.073 409.958C426.294 403.629 414.229 406.401 407.9 417.18C401.57 427.959 405.027 439.846 415.806 446.176C426.585 452.505 438.65 449.733 444.98 438.954ZM210.453 467.07C216.783 456.291 213.326 444.404 202.547 438.074C191.768 431.745 179.703 434.517 173.374 445.296C167.044 456.075 170.501 467.962 181.28 474.292C192.059 480.621 204.124 477.849 210.453 467.07ZM233.466 524.65C239.795 513.871 236.338 501.984 225.559 495.654C214.78 489.325 202.715 492.097 196.386 502.876C190.056 513.655 193.513 525.542 204.292 531.872C215.071 538.201 227.136 535.429 233.466 524.65ZM219.661 406.956C225.99 396.177 222.533 384.29 211.754 377.96C200.975 371.631 188.91 374.403 182.581 385.182C176.251 395.961 179.708 407.848 190.487 414.178C201.266 420.507 213.331 417.735 219.661 406.956ZM283.385 562.08C289.714 551.301 286.258 539.414 275.479 533.085C264.7 526.755 252.635 529.528 246.305 540.307C239.976 551.086 243.432 562.973 254.211 569.302C264.99 575.632 277.055 572.859 283.385 562.08ZM256.763 358.583C263.092 347.804 259.636 335.917 248.856 329.587C238.077 323.258 226.013 326.03 219.683 336.809C213.353 347.588 216.81 359.475 227.589 365.805C238.368 372.134 250.433 369.362 256.763 358.583ZM344.615 571.363C350.944 560.584 347.487 548.697 336.708 542.367C325.929 536.038 313.864 538.81 307.535 549.589C301.205 560.368 304.662 572.255 315.441 578.585C326.22 584.914 338.285 582.142 344.615 571.363ZM314.596 335.14C320.925 324.361 317.469 312.474 306.69 306.144C295.911 299.815 283.846 302.587 277.516 313.366C271.187 324.145 274.643 336.032 285.422 342.362C296.201 348.691 308.266 345.919 314.596 335.14ZM400.395 548.453C406.724 537.674 403.267 525.787 392.488 519.458C381.709 513.128 369.644 515.901 363.315 526.68C356.985 537.459 360.442 549.346 371.221 555.675C382 562.005 394.065 559.232 400.395 548.453ZM375.675 346.653C382.005 335.874 378.548 323.987 367.769 317.657C356.99 311.328 344.925 314.1 338.595 324.879C332.266 335.658 335.723 347.545 346.502 353.875C357.281 360.204 369.346 357.432 375.675 346.653ZM435.088 499.246C441.418 488.467 437.961 476.58 427.182 470.25C416.403 463.921 404.338 466.693 398.008 477.472C391.679 488.251 395.136 500.138 405.915 506.468C416.694 512.797 428.759 510.025 435.088 499.246ZM424.048 383.755C430.378 372.976 426.921 361.089 416.142 354.76C405.363 348.43 393.298 351.203 386.968 361.982C380.639 372.761 384.096 384.648 394.875 390.977C405.654 397.307 417.719 394.534 424.048 383.755ZM451.102 679.699L629.594 375.731L694.699 413.961L703.561 398.87L637.593 360.134C635.873 232.721 618.216 215.394 566.907 185.266L551.817 176.405L543.209 191.064L558.73 200.178C602.709 226.003 616.917 241.304 620.778 350.26L555.673 312.03L546.811 327.12L611.916 365.35L433.424 669.319L451.102 679.699Z" fill="white"/>
</svg>
