<svg width="1079" height="1049" viewBox="0 0 1079 1049" fill="none" xmlns="http://www.w3.org/2000/svg">
<path d="M83.0001 972.84L46.6 972.84L46.6 955.2C46.6 941.2 53.8801 935.88 64.8 935.88C75.72 935.88 83.0001 941.2 83.0001 955.2L83.0001 972.84ZM64.8 872.88C24.76 872.88 -3.23995 898.36 -3.23994 948.2L-3.23994 1035L195 1035L195 972.84L132 972.84L132 948.2C132 898.36 101.48 872.88 64.8 872.88ZM95.04 688.524C35.4 688.524 -6.59996 733.604 -6.59996 790.164C-6.59996 846.444 35.4 892.364 95.04 892.364C154.68 892.364 196.96 846.444 196.96 790.164C196.96 734.164 154.68 688.524 95.04 688.524ZM95.04 829.084C68.16 829.084 50.8 815.644 50.8 790.164C50.8 765.244 68.16 751.524 95.04 751.524C121.36 751.524 139 765.244 139 790.164C139 815.644 121.36 829.084 95.04 829.084ZM83 637.54L46.6 637.54L46.6 619.9C46.6 605.9 53.88 600.58 64.8 600.58C75.72 600.58 83 605.9 83 619.9L83 637.54ZM64.8 537.58C24.76 537.58 -3.23996 563.06 -3.23996 612.9L-3.23996 699.7L195 699.7L195 637.54L132 637.54L132 612.9C132 563.06 101.48 537.58 64.8 537.58ZM83 489.304L46.6 489.304L46.6 471.664C46.6 457.664 53.88 452.344 64.8 452.344C75.72 452.344 83 457.664 83 471.664L83 489.304ZM64.8 389.344C24.76 389.344 -3.23997 414.824 -3.23997 464.664L-3.23996 551.464L195 551.464L195 489.304L132 489.304L132 464.664C132 414.824 101.48 389.344 64.8 389.344ZM195 403.228L195 341.068L-3.23997 341.068L-3.23997 403.228L195 403.228ZM-3.23998 218.634L98.12 218.634L-3.23997 284.434L-3.23997 346.594L195 346.594L195 284.434L95.32 284.434L195 218.634L195 156.474L-3.23998 156.474L-3.23998 218.634ZM133.68 8.83059C72.64 8.83059 76.84 100.951 51.92 100.951C45.2 100.951 41.84 97.0306 41.84 91.9906C41.84 85.2706 45.48 78.8306 57.52 78.2706L57.52 11.3506C16.36 13.0306 -6.59999 43.8306 -6.59999 91.7106C-6.59999 133.991 14.12 167.591 53.88 167.591C121.64 168.711 111.84 75.1906 138.72 74.9106C145.72 74.9106 148.52 80.7906 148.52 86.9506C148.52 93.1106 146 100.951 131.44 102.071L131.44 168.151C175.96 165.351 196.96 129.791 196.96 84.4306C196.96 36.5506 170.08 8.83059 133.68 8.83059Z" fill="#FFB199"/>
<path d="M279 972.84L242.6 972.84L242.6 955.2C242.6 941.2 249.88 935.88 260.8 935.88C271.72 935.88 279 941.2 279 955.2L279 972.84ZM260.8 872.88C220.76 872.88 192.76 898.36 192.76 948.2L192.76 1035L391 1035L391 972.84L328 972.84L328 948.2C328 898.36 297.48 872.88 260.8 872.88ZM291.04 688.524C231.4 688.524 189.4 733.604 189.4 790.164C189.4 846.444 231.4 892.364 291.04 892.364C350.68 892.364 392.96 846.444 392.96 790.164C392.96 734.164 350.68 688.524 291.04 688.524ZM291.04 829.084C264.16 829.084 246.8 815.644 246.8 790.164C246.8 765.244 264.16 751.524 291.04 751.524C317.36 751.524 335 765.244 335 790.164C335 815.644 317.36 829.084 291.04 829.084ZM279 637.54L242.6 637.54L242.6 619.9C242.6 605.9 249.88 600.58 260.8 600.58C271.72 600.58 279 605.9 279 619.9L279 637.54ZM260.8 537.58C220.76 537.58 192.76 563.06 192.76 612.9L192.76 699.7L391 699.7L391 637.54L328 637.54L328 612.9C328 563.06 297.48 537.58 260.8 537.58ZM279 489.304L242.6 489.304L242.6 471.664C242.6 457.664 249.88 452.344 260.8 452.344C271.72 452.344 279 457.664 279 471.664L279 489.304ZM260.8 389.344C220.76 389.344 192.76 414.824 192.76 464.664L192.76 551.464L391 551.464L391 489.304L328 489.304L328 464.664C328 414.824 297.48 389.344 260.8 389.344ZM391 403.228L391 341.068L192.76 341.068L192.76 403.228L391 403.228ZM192.76 218.634L294.12 218.634L192.76 284.434L192.76 346.594L391 346.594L391 284.434L291.32 284.434L391 218.634L391 156.474L192.76 156.474L192.76 218.634ZM329.68 8.83059C268.64 8.83059 272.84 100.951 247.92 100.951C241.2 100.951 237.84 97.0306 237.84 91.9906C237.84 85.2706 241.48 78.8306 253.52 78.2706L253.52 11.3506C212.36 13.0306 189.4 43.8306 189.4 91.7106C189.4 133.991 210.12 167.591 249.88 167.591C317.64 168.711 307.84 75.1906 334.72 74.9106C341.72 74.9106 344.52 80.7906 344.52 86.9506C344.52 93.1106 342 100.951 327.44 102.071L327.44 168.151C371.96 165.351 392.96 129.791 392.96 84.4306C392.96 36.5506 366.08 8.83059 329.68 8.83059Z" fill="#F2CF1D"/>
<path d="M475 972.84L438.6 972.84L438.6 955.2C438.6 941.2 445.88 935.88 456.8 935.88C467.72 935.88 475 941.2 475 955.2L475 972.84ZM456.8 872.88C416.76 872.88 388.76 898.36 388.76 948.2L388.76 1035L587 1035L587 972.84L524 972.84L524 948.2C524 898.36 493.48 872.88 456.8 872.88ZM487.04 688.524C427.4 688.524 385.4 733.604 385.4 790.164C385.4 846.444 427.4 892.364 487.04 892.364C546.68 892.364 588.96 846.444 588.96 790.164C588.96 734.164 546.68 688.524 487.04 688.524ZM487.04 829.084C460.16 829.084 442.8 815.644 442.8 790.164C442.8 765.244 460.16 751.524 487.04 751.524C513.36 751.524 531 765.244 531 790.164C531 815.644 513.36 829.084 487.04 829.084ZM475 637.54L438.6 637.54L438.6 619.9C438.6 605.9 445.88 600.58 456.8 600.58C467.72 600.58 475 605.9 475 619.9L475 637.54ZM456.8 537.58C416.76 537.58 388.76 563.06 388.76 612.9L388.76 699.7L587 699.7L587 637.54L524 637.54L524 612.9C524 563.06 493.48 537.58 456.8 537.58ZM475 489.304L438.6 489.304L438.6 471.664C438.6 457.664 445.88 452.344 456.8 452.344C467.72 452.344 475 457.664 475 471.664L475 489.304ZM456.8 389.344C416.76 389.344 388.76 414.824 388.76 464.664L388.76 551.464L587 551.464L587 489.304L524 489.304L524 464.664C524 414.824 493.48 389.344 456.8 389.344ZM587 403.228L587 341.068L388.76 341.068L388.76 403.228L587 403.228ZM388.76 218.634L490.12 218.634L388.76 284.434L388.76 346.594L587 346.594L587 284.434L487.32 284.434L587 218.634L587 156.474L388.76 156.474L388.76 218.634ZM525.68 8.83059C464.64 8.83059 468.84 100.951 443.92 100.951C437.2 100.951 433.84 97.0306 433.84 91.9906C433.84 85.2706 437.48 78.8306 449.52 78.2706L449.52 11.3506C408.36 13.0306 385.4 43.8306 385.4 91.7106C385.4 133.991 406.12 167.591 445.88 167.591C513.64 168.711 503.84 75.1906 530.72 74.9106C537.72 74.9106 540.52 80.7906 540.52 86.9506C540.52 93.1106 538 100.951 523.44 102.071L523.44 168.151C567.96 165.351 588.96 129.791 588.96 84.4306C588.96 36.5506 562.08 8.83059 525.68 8.83059Z" fill="#F29F05"/>
<path d="M663 972.84L626.6 972.84L626.6 955.2C626.6 941.2 633.88 935.88 644.8 935.88C655.72 935.88 663 941.2 663 955.2L663 972.84ZM644.8 872.88C604.76 872.88 576.76 898.36 576.76 948.2L576.76 1035L775 1035L775 972.84L712 972.84L712 948.2C712 898.36 681.48 872.88 644.8 872.88ZM675.04 688.524C615.4 688.524 573.4 733.604 573.4 790.164C573.4 846.444 615.4 892.364 675.04 892.364C734.68 892.364 776.96 846.444 776.96 790.164C776.96 734.164 734.68 688.524 675.04 688.524ZM675.04 829.084C648.16 829.084 630.8 815.644 630.8 790.164C630.8 765.244 648.16 751.524 675.04 751.524C701.36 751.524 719 765.244 719 790.164C719 815.644 701.36 829.084 675.04 829.084ZM663 637.54L626.6 637.54L626.6 619.9C626.6 605.9 633.88 600.58 644.8 600.58C655.72 600.58 663 605.9 663 619.9L663 637.54ZM644.8 537.58C604.76 537.58 576.76 563.06 576.76 612.9L576.76 699.7L775 699.7L775 637.54L712 637.54L712 612.9C712 563.06 681.48 537.58 644.8 537.58ZM663 489.304L626.6 489.304L626.6 471.664C626.6 457.664 633.88 452.344 644.8 452.344C655.72 452.344 663 457.664 663 471.664L663 489.304ZM644.8 389.344C604.76 389.344 576.76 414.824 576.76 464.664L576.76 551.464L775 551.464L775 489.304L712 489.304L712 464.664C712 414.824 681.48 389.344 644.8 389.344ZM775 403.228L775 341.068L576.76 341.068L576.76 403.228L775 403.228ZM576.76 218.634L678.12 218.634L576.76 284.434L576.76 346.594L775 346.594L775 284.434L675.32 284.434L775 218.634L775 156.474L576.76 156.474L576.76 218.634ZM713.68 8.83059C652.64 8.83059 656.84 100.951 631.92 100.951C625.2 100.951 621.84 97.0306 621.84 91.9906C621.84 85.2706 625.48 78.8306 637.52 78.2706L637.52 11.3506C596.36 13.0306 573.4 43.8306 573.4 91.7106C573.4 133.991 594.12 167.591 633.88 167.591C701.64 168.711 691.84 75.1906 718.72 74.9106C725.72 74.9106 728.52 80.7906 728.52 86.9506C728.52 93.1106 726 100.951 711.44 102.071L711.44 168.151C755.96 165.351 776.96 129.791 776.96 84.4306C776.96 36.5506 750.08 8.83059 713.68 8.83059Z" fill="#04BF8A"/>
<path d="M855 972.84L818.6 972.84L818.6 955.2C818.6 941.2 825.88 935.88 836.8 935.88C847.72 935.88 855 941.2 855 955.2L855 972.84ZM836.8 872.88C796.76 872.88 768.76 898.36 768.76 948.2L768.76 1035L967 1035L967 972.84L904 972.84L904 948.2C904 898.36 873.48 872.88 836.8 872.88ZM867.04 688.524C807.4 688.524 765.4 733.604 765.4 790.164C765.4 846.444 807.4 892.364 867.04 892.364C926.68 892.364 968.96 846.444 968.96 790.164C968.96 734.164 926.68 688.524 867.04 688.524ZM867.04 829.084C840.16 829.084 822.8 815.644 822.8 790.164C822.8 765.244 840.16 751.524 867.04 751.524C893.36 751.524 911 765.244 911 790.164C911 815.644 893.36 829.084 867.04 829.084ZM855 637.54L818.6 637.54L818.6 619.9C818.6 605.9 825.88 600.58 836.8 600.58C847.72 600.58 855 605.9 855 619.9L855 637.54ZM836.8 537.58C796.76 537.58 768.76 563.06 768.76 612.9L768.76 699.7L967 699.7L967 637.54L904 637.54L904 612.9C904 563.06 873.48 537.58 836.8 537.58ZM855 489.304L818.6 489.304L818.6 471.664C818.6 457.664 825.88 452.344 836.8 452.344C847.72 452.344 855 457.664 855 471.664L855 489.304ZM836.8 389.344C796.76 389.344 768.76 414.824 768.76 464.664L768.76 551.464L967 551.464L967 489.304L904 489.304L904 464.664C904 414.824 873.48 389.344 836.8 389.344ZM967 403.228L967 341.068L768.76 341.068L768.76 403.228L967 403.228ZM768.76 218.634L870.12 218.634L768.76 284.434L768.76 346.594L967 346.594L967 284.434L867.32 284.434L967 218.634L967 156.474L768.76 156.474L768.76 218.634ZM905.68 8.83059C844.64 8.83059 848.84 100.951 823.92 100.951C817.2 100.951 813.84 97.0306 813.84 91.9906C813.84 85.2706 817.48 78.8306 829.52 78.2706L829.52 11.3506C788.36 13.0306 765.4 43.8306 765.4 91.7106C765.4 133.991 786.12 167.591 825.88 167.591C893.64 168.711 883.84 75.1906 910.72 74.9106C917.72 74.9106 920.52 80.7906 920.52 86.9506C920.52 93.1106 918 100.951 903.44 102.071L903.44 168.151C947.96 165.351 968.96 129.791 968.96 84.4306C968.96 36.5506 942.08 8.83059 905.68 8.83059Z" fill="#18298C"/>
</svg>
