<?xml version="1.0" encoding="utf-8"?>
<!-- Generator: Adobe Illustrator 24.1.1, SVG Export Plug-In . SVG Version: 6.00 Build 0)  -->
<svg version="1.1" id="Layer_1" xmlns="http://www.w3.org/2000/svg" xmlns:xlink="http://www.w3.org/1999/xlink" x="0px" y="0px"
	 viewBox="0 0 1165.3 341" style="enable-background:new 0 0 1165.3 341;" xml:space="preserve">
<style type="text/css">
	.st0{fill:#27435E;}
	.st1{fill:#E18D70;}
</style>
<path class="st0" d="M165.2,121.6c1.7,99.5-54.5,79-66.1,120c-3.3,11.5-6.6,51-5.8,99.4H71.9c0.8-48.3-2.5-87.8-5.8-99.4
	c-11.6-41-67.7-20.5-66.1-120C1.4,40.1,41.5,12.4,65.3,3.2c11.1-4.2,23.6-4.2,34.7,0C123.8,12.4,163.9,40.1,165.2,121.6z"/>
<path class="st0" d="M364,18.3c16.5,27.8,6.6,112.7-9.9,202c-7.4,39.8-10.3,83.1-10.8,120.7h-21.4c-0.5-37.6-3.4-80.9-10.8-120.7
	c-16.5-89.3-26.4-174.2-9.9-202c5.5-9.2,14.2-14.1,21.2-16.5c6.4-2.4,13.9-2.4,20.5,0C349.8,4.4,358.6,9.2,364,18.3z"/>
<path class="st0" d="M665.2,121.6c1.7,99.5-54.5,79-66.1,120c-3.3,11.5-6.6,51-5.8,99.4h-21.5c0.8-48.3-2.5-87.8-5.8-99.4
	c-11.6-41-67.7-20.5-66.1-120c1.3-81.5,41.5-109.2,65.2-118.4c11.1-4.2,23.6-4.2,34.7,0C623.8,12.4,663.9,40.1,665.2,121.6z"/>
<path class="st0" d="M864,18.3c16.5,27.8,6.6,112.7-9.9,202c-7.4,39.8-10.3,83.1-10.8,120.7h-21.4c-0.5-37.6-3.4-80.9-10.8-120.7
	c-16.5-89.3-26.4-174.2-9.9-202c5.5-9.2,14.2-14.1,21.2-16.5c6.4-2.4,13.9-2.4,20.5,0C849.8,4.4,858.6,9.2,864,18.3z"/>
<path class="st0" d="M1099.1,241.6c-3.3,11.5-6.6,51-5.8,99.4h-21.5c0.8-48.3-2.5-87.8-5.8-99.4c-11.6-41-67.7-20.5-66.1-120
	c1.3-81.5,41.5-109.2,65.2-118.4c11.1-4.2,23.6-4.2,34.7,0c23.8,9.2,63.9,36.9,65.3,118.4C1166.9,221.1,1110.7,200.6,1099.1,241.6z"
	/>
<path class="st1" d="M99.1,241.6c-3.3,11.5-6.6,51-5.8,99.4H71.9c0.8-48.3-2.5-87.8-5.8-99.4c-11.6-41-67.7-20.5-66.1-120
	C1.4,40.1,41.5,12.4,65.3,3.2c11.1-4.2,23.6-4.2,34.7,0c23.8,9.2,63.9,36.9,65.3,118.4C166.9,221.1,110.7,200.6,99.1,241.6z"/>
<path class="st1" d="M354.1,220.3c-7.4,39.8-10.3,83.1-10.8,120.7h-21.4c-0.5-37.6-3.4-80.9-10.8-120.7
	c-16.5-89.3-26.4-174.2-9.9-202c5.5-9.2,14.2-14.1,21.2-16.5c6.4-2.4,13.9-2.4,20.5,0c6.9,2.6,15.7,7.5,21.1,16.5
	C380.5,46.1,370.6,131,354.1,220.3z"/>
<path class="st1" d="M854.1,220.3c-7.4,39.8-10.3,83.1-10.8,120.7h-21.4c-0.5-37.6-3.4-80.9-10.8-120.7
	c-16.5-89.3-26.4-174.2-9.9-202c5.5-9.2,14.2-14.1,21.2-16.5c6.4-2.4,13.9-2.4,20.5,0c6.9,2.6,15.7,7.5,21.1,16.5
	C880.5,46.1,870.6,131,854.1,220.3z"/>
<path class="st1" d="M599.1,241.6c-3.3,11.5-6.6,51-5.8,99.4h-21.5c0.8-48.3-2.5-87.8-5.8-99.4c-11.6-41-67.7-20.5-66.1-120
	c1.3-81.5,41.5-109.2,65.2-118.4c11.1-4.2,23.6-4.2,34.7,0c23.8,9.2,63.9,36.9,65.3,118.4C666.9,221.1,610.7,200.6,599.1,241.6z"/>
<path class="st1" d="M1099.1,241.6c-3.3,11.5-6.6,51-5.8,99.4h-21.5c0.8-48.3-2.5-87.8-5.8-99.4c-11.6-41-67.7-20.5-66.1-120
	c1.3-81.5,41.5-109.2,65.2-118.4c11.1-4.2,23.6-4.2,34.7,0c23.8,9.2,63.9,36.9,65.3,118.4C1166.9,221.1,1110.7,200.6,1099.1,241.6z"
	/>
</svg>
