<svg width="157" height="141" viewBox="0 0 157 141" fill="none" xmlns="http://www.w3.org/2000/svg">
<g id="spoon-instrument-flip">
<g id="top">
<path id="Vector" d="M103.944 15.401C119.134 5.22762 127.37 6.27863 130.923 7.80961C132.567 8.52774 133.542 9.952 133.615 11.7451C133.755 15.6113 131.751 23.6681 116.766 34.1414C98.4741 46.9318 97.9069 37.9654 89.4246 41.843C85.2106 43.7633 64.9603 56.6556 49.7187 69.8353C34.477 83.015 19.5352 94.889 13.1062 96.5364C11.0036 97.0671 9.43011 96.6855 8.40398 96.232C7.45768 95.7789 6.88068 94.9356 6.81403 93.9082C6.736 92.806 6.95033 91.2012 8.23375 89.4151C12.0983 84.0196 28.5788 74.3944 46.3849 64.9628C64.1909 55.5312 83.5437 41.3271 86.8602 38.0949C93.5473 31.5936 85.3954 27.8167 103.944 15.401Z" fill="#E18D70"/>
<path id="Vector 1" d="M137.652 11.2462C138.324 15.1856 137.726 24.3514 129.961 29.4993" stroke="#27435E" stroke-width="2" stroke-linecap="round"/>
<path id="Vector 4" d="M84.6798 33.5787C84.4966 29.5866 86.2144 20.5634 94.5518 16.4068" stroke="#A0D2E3" stroke-width="2" stroke-linecap="round"/>
</g>
<g id="bottom">
<path id="Vector_2" d="M122.762 68.366C139.468 60.9368 147.403 63.3791 150.642 65.4945C152.14 66.483 152.857 68.0527 152.623 69.832C152.1 73.6653 148.749 81.2615 132.195 89.0211C111.987 98.4991 112.96 89.5675 103.94 91.9393C99.46 93.1116 77.3052 102.355 60.0363 112.738C42.7674 123.121 26.0169 132.268 19.401 132.793C17.2387 132.957 15.7535 132.312 14.8199 131.69C13.9649 131.082 13.5405 130.152 13.6503 129.128C13.7617 128.029 14.247 126.485 15.8166 124.944C20.546 120.288 38.4284 113.619 57.5838 107.368C76.7392 101.116 98.2338 90.4264 102.054 87.8083C109.753 82.5448 102.366 77.4309 122.762 68.366Z" fill="#E18D70"/>
<path id="Vector 3" d="M127.225 95.7008C123.982 98.0369 115.488 101.532 107.449 96.8236" stroke="#A0D2E3" stroke-width="2" stroke-linecap="round"/>
<path id="Vector 2" d="M139.655 59.9985C141.923 58.9978 147.527 57.9692 151.8 61.8602" stroke="#27435E" stroke-width="2" stroke-linecap="round"/>
</g>
</g>
</svg>
