<?xml version="1.0" encoding="utf-8"?>
<!-- Generator: Adobe Illustrator 24.1.1, SVG Export Plug-In . SVG Version: 6.00 Build 0)  -->
<svg version="1.1" id="Layer_1" xmlns="http://www.w3.org/2000/svg" xmlns:xlink="http://www.w3.org/1999/xlink" x="0px" y="0px"
	 viewBox="0 0 1080.9 477.8" style="enable-background:new 0 0 1080.9 477.8;" xml:space="preserve">
<style type="text/css">
	.st0{fill:#E18D70;}
	.st1{fill:#27435E;}
</style>
<g>
	<path class="st0" d="M581,110.5c-0.4-24.7-7.8-42.5-14.3-55.2c-8.9-17.3-21-25.4-29.6-29.3c-7-3.1-14.9-3.1-21.9,0
		c-7.9,3.4-18.5,10.5-27.1,24.7c-7.8,13-16.5,32-16.9,59.8c-0.3,24.5,6.3,38.9,12,48.3c10.8,17.9,27.7,18.2,32.4,37.4
		c2.9,11.6,5.8,62.7,1.6,115.2c-1.1,13.2-2.6,26.6-4.7,39.4c-1.2,7.3-2.3,14.5-3.4,21.7c0.1,3.2,0.5,6,1.1,8.3
		c2.2,8.7,7.4,11.9,14.6,11.9c6.2,0,12.3-3.3,15.3-11.9c1.1-3.3,1.8-7.4,1.8-12.5v-3.9c-0.7-4.5-1.4-9.1-2.2-13.6
		c-2.1-12.8-3.6-26.2-4.7-39.4c-4.3-52.6-1.3-103.6,1.6-115.2c5.3-21.1,25.2-19.4,35.5-43.4C576.1,143.4,581.3,130.3,581,110.5z
		 M525.9,132.5c-11.1,0-19.7-8.2-19.7-24c0-15.7,8.7-23.7,19.7-23.7c11.1,0,19.7,8,19.7,23.7C545.7,124.3,537,132.5,525.9,132.5z"/>
	<path class="st1" d="M0,154.2l16.8-38.1c14.6,8.6,34.1,14.2,51.2,14.2c14.8,0,20.2-3.1,20.2-8.4c0-19.5-85.8-3.8-85.8-61.6
		C2.4,31.5,26.6,8,74.7,8c20.8,0,42.3,4.4,58.5,13.5l-15.7,37.9c-15.3-7.8-29.7-11.5-43.2-11.5c-15.3,0-20.2,4.4-20.2,9.8
		c0,18.6,85.8,3.1,85.8,60.3c0,28.4-24.2,52.3-72.2,52.3C41.7,170.2,15.5,163.8,0,154.2z"/>
	<path class="st1" d="M293.2,106.2c0,39-26.8,62.7-58.5,62.7c-13.3,0-23.5-3.3-30.8-10.4v51.2h-50.1V45.4h47.6v10
		c7.3-8.2,18.2-12.2,33.2-12.2C266.4,43.2,293.2,67.1,293.2,106.2z M242.5,106.2c0-15.7-8.6-23.9-19.7-23.9
		c-11.1,0-19.7,8.2-19.7,23.9s8.6,23.7,19.7,23.7C233.8,129.9,242.5,121.9,242.5,106.2z"/>
	<path class="st1" d="M302.5,105.9c0-36.8,29.5-62.7,70.5-62.7c41.2,0,70.5,25.9,70.5,62.7c0,36.8-29.3,62.9-70.5,62.9
		C332,168.9,302.5,142.7,302.5,105.9z M392.7,105.9c0-15.7-8.6-23.7-19.7-23.7c-11.1,0-19.7,8-19.7,23.7s8.6,23.9,19.7,23.9
		C384.1,129.9,392.7,121.7,392.7,105.9z"/>
	<path class="st1" d="M743.3,97.5v69.1h-50.1v-60.5c0-15.1-5.8-20.8-14.8-20.8c-10.2,0-18.8,6.4-18.8,24.4v57h-50.1V45.4h47.6v12
		c9.5-9.5,22.4-14.2,36.6-14.2C721.6,43.2,743.3,59.4,743.3,97.5z"/>
	<path class="st1" d="M813.6,52.1H840v36.6h-24.8v78h-50.1V51.4c0-31.2,19.5-51.4,54.1-51.4c10.6,0,22.4,2,29.7,6l-12,34.8
		c-3.3-1.6-7.3-2.9-11.3-2.9c-7.1,0-12,4.2-12,14V52.1z"/>
	<path class="st1" d="M986.5,45.4v121.2h-47.6v-11.5c-9.1,9.3-21.3,13.7-34.4,13.7c-29,0-51-17.1-51-56.5V45.4h50.1v58.3
		c0,17.3,6,23,15.7,23c8.6,0,17.1-6.4,17.1-24.4v-57H986.5z"/>
	<path class="st1" d="M1008.6,121.9V2.2h50.1v117c0,7.8,4.2,11.7,11.1,11.7c3.3,0,7.1-1.1,9.1-2.2l2,37c-7.5,2.2-14.2,3.1-21.5,3.1
		C1028.1,168.9,1008.6,152.9,1008.6,121.9z"/>
	<path class="st1" d="M1.8,371.9c0-36.8,29.5-62.7,70.5-62.7c41.2,0,70.5,25.9,70.5,62.7c0,36.8-29.3,62.9-70.5,62.9
		C31.2,434.8,1.8,408.7,1.8,371.9z M92,371.9c0-15.7-8.6-23.7-19.7-23.7c-11.1,0-19.7,8-19.7,23.7c0,15.7,8.6,23.9,19.7,23.9
		C83.3,395.8,92,387.6,92,371.9z"/>
	<path class="st1" d="M207,318h26.4v36.6h-24.8v78h-50.1V317.4c0-31.2,19.5-51.4,54.1-51.4c10.6,0,22.4,2,29.7,6l-12,34.8
		c-3.3-1.6-7.3-2.9-11.3-2.9c-7.1,0-12,4.2-12,14V318z"/>
	<path class="st1" d="M305.6,420.2l16.8-38.1c14.6,8.6,34.1,14.2,51.2,14.2c14.8,0,20.2-3.1,20.2-8.4c0-19.5-85.8-3.8-85.8-61.6
		c0-28.8,24.2-52.3,72.2-52.3c20.8,0,42.3,4.4,58.5,13.5l-15.7,37.9c-15.3-7.8-29.7-11.5-43.2-11.5c-15.3,0-20.2,4.4-20.2,9.8
		c0,18.6,85.8,3.1,85.8,60.3c0,28.4-24.2,52.3-72.2,52.3C347.3,436.2,321.1,429.7,305.6,420.2z"/>
	<path class="st1" d="M592,311.4v121.2h-47.6v-11.5c-9.1,9.3-21.3,13.7-34.3,13.7c-2.8,0-5.4-0.2-8.1-0.5c-24.9-3-42.9-20.3-42.9-56
		v-66.9h58.2c-1.1,13.2-2.6,26.6-4.7,39.4c-1.2,7.3-2.3,14.5-3.4,21.7c0.1,3.2,0.5,6,1.1,8.3c2.2,8.7,7.4,11.9,14.6,11.9
		c6.2,0,12.3-3.3,15.3-11.9c1.1-3.3,1.8-7.4,1.8-12.5v-3.9c-0.7-4.5-1.4-9.1-2.2-13.6c-2.1-12.8-3.6-26.2-4.7-39.4H592z"/>
	<path class="st1" d="M749.5,311.4v97.1c0,47-27.5,69.4-73.8,69.4c-23.9,0-45.7-5.1-60.7-15.1l16.8-34.1c9.5,7.3,25.7,12,38.8,12
		c20.6,0,28.8-9.1,28.8-25.3v-2.2c-7.5,8.6-18.6,12.9-33.5,12.9c-30.8,0-58.3-22.6-58.3-58.5c0-35.9,27.5-58.3,58.3-58.3
		c16.6,0,28.4,5.1,35.9,16v-13.7H749.5z M699.9,367.5c0-11.7-8.9-19.3-20.6-19.3c-11.7,0-20.8,7.5-20.8,19.3
		c0,11.7,9.1,19.5,20.8,19.5C691,387,699.9,379.2,699.9,367.5z"/>
	<path class="st1" d="M904.7,311.4v121.2H857v-10c-7.3,8.2-18.2,12.2-33.2,12.2c-31.7,0-58.5-23.9-58.5-62.9
		c0-39,26.8-62.7,58.5-62.7c13.3,0,23.5,3.3,30.8,10.4v-8.2H904.7z M855.5,371.9c0-15.7-8.6-23.7-19.7-23.7
		c-11.1,0-19.7,8-19.7,23.7c0,15.7,8.6,23.9,19.7,23.9C846.8,395.8,855.5,387.6,855.5,371.9z"/>
	<path class="st1" d="M1013.7,309.2v44.3c-4.4-0.7-7.5-0.9-11.1-0.9c-15.1,0-25.7,6.9-25.7,26.2v53.9h-50.1V311.4h47.6v13.1
		C983.4,314.3,996.9,309.2,1013.7,309.2z"/>
</g>
</svg>
