<svg width="230" height="35" viewBox="0 0 230 35" fill="none" xmlns="http://www.w3.org/2000/svg">
<path d="M15.07 8.42001V9.31001H11.51V8.21001C11.51 5.21001 10.36 3.41002 7.67 3.41002C4.98 3.41002 3.83 5.18002 3.83 8.16002C3.83 15.7 15.12 16.42 15.12 25.87C15.12 30.96 12.67 34.27 7.53 34.27C2.39 34.27 0 30.98 0 25.89V23.97H3.5V26.08C3.5 29.08 4.75 30.89 7.43 30.89C10.11 30.89 11.37 29.11 11.37 26.08C11.37 18.6 0.139999 17.88 0.139999 8.42001C0.139999 3.23001 2.54 0.0200195 7.58 0.0200195C12.62 0.0200195 15.07 3.31001 15.07 8.42001Z" fill="#5C520D"/>
<path d="M42.43 33.96V3.75999H36.23V0.309998H52.31V3.72H46.12V33.92L42.43 33.96Z" fill="#5C520D"/>
<path d="M77.6099 26.04C77.6099 29.04 78.8099 30.89 81.5499 30.89C84.2899 30.89 85.4299 29.06 85.4299 26.04V0.309998H88.9399V25.81C88.9399 30.89 86.5899 34.3 81.3999 34.3C76.2099 34.3 73.9099 30.89 73.9099 25.81V0.309998H77.6099V26.04Z" fill="#5C520D"/>
<path d="M119.71 0.309998C124.94 0.309998 127.34 3.48 127.34 8.67V25.61C127.34 30.75 124.94 33.92 119.71 33.92H111.83V0.309998H119.71ZM119.66 30.51C122.34 30.51 123.66 28.83 123.66 25.76V8.50999C123.66 5.43999 122.36 3.75999 119.66 3.75999H115.66V30.55L119.66 30.51Z" fill="#5C520D"/>
<path d="M153.78 0.309998V33.92H150V0.309998H153.78Z" fill="#5C520D"/>
<path d="M176.54 8.47002C176.54 3.33002 179.08 0.0200195 184.22 0.0200195C189.36 0.0200195 191.94 3.33002 191.94 8.47002V25.85C191.94 30.93 189.4 34.29 184.22 34.29C179.04 34.29 176.54 30.93 176.54 25.85V8.47002ZM180.23 26.04C180.23 29.11 181.53 30.89 184.23 30.89C186.93 30.89 188.23 29.11 188.23 26.04V8.31001C188.23 5.31001 186.98 3.47002 184.23 3.47002C181.48 3.47002 180.23 5.29001 180.23 8.31001V26.04Z" fill="#5C520D"/>
<path d="M229.24 8.42V9.31H225.69V8.20999C225.69 5.20999 224.54 3.41 221.85 3.41C219.16 3.41 218.01 5.18 218.01 8.16C218.01 15.7 229.29 16.42 229.29 25.87C229.29 30.96 226.84 34.27 221.7 34.27C216.56 34.27 214.17 30.96 214.17 25.87V23.95H217.67V26.06C217.67 29.06 218.92 30.87 221.61 30.87C224.3 30.87 225.55 29.09 225.55 26.06C225.55 18.58 214.31 17.86 214.31 8.39999C214.31 3.20999 216.71 0 221.75 0C226.79 0 229.24 3.31 229.24 8.42Z" fill="#5C520D"/>
</svg>
