<?xml version="1.0" encoding="utf-8"?>
<!-- Generator: Adobe Illustrator 24.1.1, SVG Export Plug-In . SVG Version: 6.00 Build 0)  -->
<svg version="1.1" id="Layer_1" xmlns="http://www.w3.org/2000/svg" xmlns:xlink="http://www.w3.org/1999/xlink" x="0px" y="0px"
	 viewBox="0 0 938.5 953.8" style="enable-background:new 0 0 938.5 953.8;" xml:space="preserve">
<style type="text/css">
	.st0{fill:#FFFFFF;}
</style>
<g>
	<path class="st0" d="M254.9,894.8l-43.8-26.4l1.1-1.8l20.9,12.6l42-69.9l2,1.2l-42,69.9L256,893L254.9,894.8z"/>
	<path class="st0" d="M190,858.8l-1.8-1.5l26.2-31.3c-10.4,7.6-21.9,5.7-31.1-2c-10.8-9-14.4-22.9-1.7-38.2l24-28.7l1.7,1.5
		l-24.2,28.9c-11,13.1-9.4,25.8,1.5,34.9c11.2,9.4,25.3,9.1,38.2-6.3l21.9-26.2l1.8,1.5L190,858.8z"/>
	<path class="st0" d="M176.9,723.7c11.4,13.7,10.4,31.6-5.4,44.8c-15.9,13.3-33.6,11.1-45.1-2.6c-12.6-15-8.1-31.7,2.2-40.3
		c2.4-2,3.3-2.7,5-4l37.1,44.4c15.5-13.5,13.7-29.9,4.5-40.9c-9.1-10.9-22-14.3-33.1-7.7l-1.5-1.8
		C152.1,708.8,166.2,711,176.9,723.7z M169.1,767.4l-35.8-42.9c-16.6,12.4-14.4,29.1-5.3,40C137.4,775.8,153.4,780.5,169.1,767.4z"
		/>
	<path class="st0" d="M61.7,663.4c-6.3-14-2.4-27.1,6.6-34.9l-17.9,8.1l-0.9-2.1l85.9-39l0.9,2.1L91,618.2
		c11.8-1.7,24.3,4,30.6,17.9c7.6,16.8,1.6,33.6-17,42.1C86,686.7,69.4,680.2,61.7,663.4z M63.7,662.5c7.3,16,22.6,21.5,40,13.6
		s23.4-23,16.1-39c-6.9-15.3-23.1-21.3-40-13.7S56.7,647.3,63.7,662.5z"/>
	<path class="st0" d="M90.3,541.1l0.6,2.3l-17,4.2c12.9-0.1,21.3,8.4,24.1,20c3.3,13.6-1.9,27-21.2,31.8l-36.1,8.9l-0.5-2.2
		l36.4-8.9c16.6-4.1,22.8-15.3,19.4-29c-3.5-14.2-15-22.3-34.5-17.5l-32.9,8.1l-0.6-2.3L90.3,541.1z"/>
	<path class="st0" d="M5.6,535.5c-2,0.3-3.4-1-3.6-2.7s0.8-3.2,2.8-3.5s3.4,1,3.6,2.7C8.6,533.7,7.6,535.3,5.6,535.5z M24.8,531.2
		l-0.3-2.4l63.7-8l0.3,2.4L24.8,531.2z"/>
	<path class="st0" d="M20.2,476.4c-0.3-16.6,8.9-27.5,22.1-29.8v2.4c-12.7,2.2-20.2,13.2-20,27.4c0.2,14.7,10,28.4,31.2,28
		c21.3-0.3,30.6-14.3,30.3-29c-0.2-14.3-8.1-24.9-20.9-26.8v-2.4c13.2,1.9,22.8,12.5,23.1,29.1c0.3,17.8-11.7,31.1-32.4,31.4
		C33,507.1,20.5,494.3,20.2,476.4z"/>
	<path class="st0" d="M0,419.4l0.3-2.4l52.6,7.3l-25.1-32.7l0.5-3.4l27.2,35.7L92,396.5l-0.5,3.3L57.7,425l29.8,4.1l-0.3,2.4
		L0,419.4z"/>
	<path class="st0" d="M52.5,303.2c6.8-17.1,23.1-24.5,42.1-17s25.9,24,19.2,41.1c-5.6,14.3-17.8,20.5-29.6,19.5l18.2,7.2l-0.8,2.1
		l-81.8-32.2l0.8-2.1L61,337.7C51.6,330.1,46.9,317.5,52.5,303.2z M54.5,304c-6.1,15.6,0.8,31.5,18,38.3
		c17.3,6.8,33.1-0.1,39.3-15.7c6.4-16.4-0.3-31.1-18.1-38.2C75.9,281.4,60.9,287.6,54.5,304z"/>
	<path class="st0" d="M133.3,283.7l-1.2,2.1l-55.7-31.9l1.2-2.1l13.5,7.7c-8.5-7.7-9.3-17.9-2.2-30.4l2.3,1.3l-0.5,0.9
		c-5.7,10-7,23.9,9.5,33.4L133.3,283.7z"/>
	<path class="st0" d="M168.8,231.4c-11,14.1-28.9,17.2-45.3,4.5c-16.3-12.7-17.6-30.9-6.7-45s28.9-17.1,45.2-4.4
		C178.4,199.2,179.8,217.3,168.8,231.4z M167.2,230.1c9.1-11.6,10.3-28.6-6.5-41.7c-16.8-13.1-33-7.8-42,3.9
		c-9.1,11.6-10.3,28.7,6.5,41.8C141.8,247.1,158.1,241.7,167.2,230.1z"/>
	<path class="st0" d="M148.8,152.1l1.9-1.6l53,33.6l-21-60.7l1.4-1.2l56.4,30.8l-24.3-57.9l1.9-1.6l26,62.1l-1.4,1.2l-56.5-30.5
		L207,187l-1.4,1.2L148.8,152.1z"/>
	<path class="st0" d="M294.5,81.8c-8.2-15-20.6-18.2-33-11.4c-12.8,7-17.7,20.2-8.1,37.8l16.3,30l-2.1,1.1L237,83l2.1-1.1l8.1,14.9
		c-3.3-12.4,2.8-22.5,13.3-28.2c12.3-6.7,26.6-5,36.1,12.4l17.9,32.9l-2,1.1L294.5,81.8z"/>
	<path class="st0" d="M346.9,36.7l-10.1,2.9l-0.7-2.4l10.1-2.9L345,30c-3.4-12-0.3-20,14.7-24.3l0.7,2.3
		c-13.6,3.9-16.2,10.2-13,21.3l1.2,4.3l17.7-5.1l0.7,2.4L349.3,36l17.1,59.3l-2.3,0.7L346.9,36.7z"/>
	<path class="st0" d="M423.2,83.8c-17.7,2.5-32.8-7.7-35.7-28.2s8.8-34.5,26.4-37c17.7-2.5,32.7,7.7,35.6,28.2
		S440.8,81.3,423.2,83.8z M422.9,81.7c14.6-2.1,27.3-13.5,24.3-34.5s-18.3-28.5-32.9-26.4s-27.4,13.5-24.4,34.5
		C392.8,76.3,408.3,83.7,422.9,81.7z"/>
	<path class="st0" d="M483.1,48.5l-20,30.2h-2.6l21.2-32.3l-19.8-31.8h2.7l18.8,30.1L503,15.2h2.5l-20.8,31.6L505,79.4h-2.7
		L483.1,48.5z"/>
	<path class="st0" d="M563.5,22.7l-14.8,80.9c-1.3,7.1-5.2,11.4-14.3,9.7l-4.2-0.8l0.4-2.3l4.2,0.8c6.5,1.2,10.2-0.5,11.7-8.5
		l14.7-80.2L563.5,22.7z M562.8,2.7c0.4-2,2-2.9,3.6-2.6s2.8,1.7,2.5,3.7s-2,2.9-3.6,2.6C563.6,6.1,562.5,4.6,562.8,2.7z"/>
	<path class="st0" d="M620,104.2l-2.3-0.7l5.1-16.7c-6.6,11.2-18.1,13.9-29.6,10.4c-13.4-4.1-22.2-15.5-16.3-34.5l11-35.5l2.2,0.7
		l-11,35.8C574,80,580.4,91,594,95.2c14,4.3,26.8-1.4,32.7-20.6l10-32.4l2.3,0.7L620,104.2z"/>
	<path class="st0" d="M738.6,125.1c8.7-14.7,5.5-26.7-6.1-33.5c-11.9-7-25.7-3.9-36,13.6l-17,28.9l-1.9-1.1l19.1-32.5
		c8.7-14.7,5.5-26.7-6.1-33.5c-12-7.1-25.7-3.9-36,13.6l-17,28.9l-2-1.2L668.2,53l2,1.2l-8.6,14.6c9.4-9.4,20.5-9.3,30.1-3.6
		c9.8,5.8,15.3,16,10.2,29.6c9.7-10.7,21.6-10.9,31.7-4.9c11.5,6.8,16.9,19.6,6.8,36.7l-19,32.3l-1.9-1.1L738.6,125.1z"/>
	<path class="st0" d="M799.6,145.1c13.2,12.9,13.7,30.7-0.6,45.4s-32.2,14.6-45.4,1.8c-11-10.7-12.1-24.4-6.5-34.9L712.5,193
		l-1.6-1.6l65.8-67.6l1.6,1.6l-13.7,14.1C775,133.6,788.7,134.4,799.6,145.1z M798.2,146.6c-12-11.7-29.3-11.5-42.3,1.8
		c-12.9,13.3-12.7,30.6-0.7,42.3c12.6,12.3,28.8,11.8,42.2-1.9C810.7,175.1,810.8,158.9,798.2,146.6z"/>
	<path class="st0" d="M796.6,241.9c-8-10.9-9.5-21.8-0.7-30l1.4,1.9c-6.9,6.3-7.2,15.6,1.1,26.9c6.4,8.7,15.9,10,22.2,5.3
		c15.9-11.7-17.2-37.2,2.7-51.9c6.9-5.1,17.9-2.7,24.8,6.7c7.6,10.3,7.2,21.3-1.8,28.7l-1.4-1.9c7-5.7,9-15.2,1.4-25.5
		c-6.1-8.2-15.8-10.4-21.7-6c-18.1,13.3,15.1,38.6-2.8,51.8C814.1,253.7,803.2,250.9,796.6,241.9z"/>
	<path class="st0" d="M842.4,324.2c-6.7-16.5-0.5-33.7,18.6-41.5s35.6,0.1,42.3,16.6s0.5,33.6-18.7,41.4
		C865.6,348.5,849.2,340.7,842.4,324.2z M844.4,323.4c5.6,13.6,19.7,23.1,39.4,15.1s23.2-24.7,17.6-38.4
		c-5.6-13.6-19.8-23.3-39.5-15.2C842.2,293,838.8,309.8,844.4,323.4z"/>
	<path class="st0" d="M919.8,347.5l-53.6,38.3l64.8,11.8l0.5,2.4L863,387.3l-0.4-1.7l56.7-40.7L919.8,347.5z"/>
	<path class="st0" d="M870.8,451.1c-1-17.8,10.5-31.5,31.2-32.7c20.6-1.1,33.6,11.2,34.6,29c1.1,19.6-12.5,30.2-25.9,31
		c-3.1,0.2-4.3,0.2-6.4,0.2l-3.2-57.8c-20.5,1.5-28.9,15.8-28.1,30.1c0.8,14.2,9.1,24.6,21.9,25.9l0.1,2.4
		C881.7,477.9,871.7,467.7,870.8,451.1z M903.2,420.7l3.1,55.8c20.7,0,28.9-14.7,28.2-28.9C933.6,433,923.6,419.6,903.2,420.7z"/>
	<path class="st0" d="M871.5,497.4l0.2-2.4l64,5.2l-0.2,2.4l-15.5-1.3c10.9,3.4,16,12.3,14.9,26.6l-2.6-0.2l0.1-1.1
		c0.9-11.5-3.8-24.6-22.8-26.2L871.5,497.4z"/>
	<path class="st0" d="M920.4,583.8l2.7-10.1l2.3,0.6l-2.7,10.1l15.8,4.3l-0.6,2.3l-15.8-4.3l-5.2,19.5l-2.3-0.6l5.2-19.5l-43.4-11.6
		c-11.1-3-15-0.2-17.5,9.2l-1.8,6.5l-2.3-0.6l1.8-6.8c2.8-10.6,8.3-13.9,20.3-10.7L920.4,583.8z"/>
	<path class="st0" d="M932.6,635.6l-0.9,2.2l-37.6-15.9c10.3,7.7,11.8,19.3,7.2,30.4c-5.5,12.9-17.7,20.5-36,12.8l-34.5-14.6
		l0.9-2.1l34.7,14.7c15.8,6.7,27.4,1.4,32.9-11.6c5.7-13.5,1.3-26.8-17.2-34.6l-31.4-13.3l0.9-2.2L932.6,635.6z"/>
	<path class="st0" d="M807.3,687.6c9.8-14.9,27.1-19.2,44.5-7.9s20.4,29,10.7,43.9c-10.7,16.4-28,16.9-39.2,9.6
		c-2.6-1.7-3.6-2.3-5.3-3.6l31.7-48.5c-17.4-10.9-32.6-4.4-40.5,7.6c-7.8,11.9-7.2,25.2,2.3,33.9l-1.3,2
		C800.2,715.7,798.2,701.6,807.3,687.6z M851.4,682.4l-30.6,46.8c16.7,12.3,32,5.3,39.8-6.6C868.6,710.2,868.5,693.5,851.4,682.4z"
		/>
	<path class="st0" d="M822.3,809.8l-1.7,1.7L758,749.8l1.7-1.7L822.3,809.8z"/>
	<path class="st0" d="M764.1,831.5c-12,9.5-25.7,8.8-35.4,2l12.2,15.4l-1.8,1.4L699.3,800l1.8-1.4l12.2,15.4c-4.5-11-2-24.5,10.1-34
		c14.5-11.4,32.3-9.6,44.9,6.4C780.9,802.3,778.6,820,764.1,831.5z M762.8,829.8c13.8-10.9,15.4-27,3.6-42.1
		c-11.9-15-27.9-17.1-41.7-6.2c-13.1,10.4-15.2,27.6-3.7,42.1C732.4,838.2,749.6,840.2,762.8,829.8z"/>
	<path class="st0" d="M685.7,878.9l3.2-70.6l-33.7,19.1l-1.1-1.9l35.9-20.3l1.1,1.9l-3.1,70.6l31.6-17.8l1.1,1.9l-33.8,19.1
		L685.7,878.9z"/>
	<path class="st0" d="M626.5,906.6l-2.2,0.9L623,806.3l2.3-0.9l0.4,32l49.7,49.5l-2.2,0.9l-47.5-47.3L626.5,906.6z"/>
	<path class="st0" d="M540.1,927c-15.2,2-26.6-5.6-31.4-16.5l5.6,43l-2.2,0.3l-11.4-87.2l2.2-0.3l2.6,19.6
		c1.8-11.9,10.9-22.2,26.1-24.1c18.3-2.4,32.6,8.3,35.3,28.6C569.4,910.6,558.3,924.6,540.1,927z M539.8,924.9
		c17.4-2.3,27.1-15.3,24.7-34.3c-2.5-19-15.2-29.1-32.6-26.8c-16.6,2.2-27.2,15.9-24.8,34.3S523.2,927,539.8,924.9z"/>
	<path class="st0" d="M455.8,864.6c17.8,1,30.6,14,29.4,34.7c-1.2,20.6-15.4,32.1-33.2,31.1c-17.8-1-30.5-14-29.3-34.7
		C423.9,875,438,863.5,455.8,864.6z M455.7,866.7c-14.7-0.8-29.4,7.8-30.6,29.1c-1.2,21.2,12.4,31.5,27.1,32.4
		c14.7,0.8,29.5-7.8,30.7-29.1C484.1,877.9,470.4,867.5,455.7,866.7z"/>
	<path class="st0" d="M367.8,917.5c-14.9-3.7-22.7-15-23.2-26.7l-4.7,18.8l-2.2-0.6l16.3-64.5c4.5-18,20.2-24.8,34.6-21.2
		c15.4,3.9,23.3,14.7,23.8,27.6l-2.3-0.6c-0.6-11.6-7.6-21.3-22-24.9c-14.2-3.6-27.9,3.6-31.9,19.7l-5.3,21.2
		c6-10.1,18.2-16.4,33.1-12.6c17.9,4.5,27.3,19.7,22.3,39.6C401.2,913.1,385.7,922,367.8,917.5z M368.4,915.5
		c17.1,4.3,30.9-4.2,35.5-22.8c4.7-18.6-3.4-32.6-20.5-36.9c-16.3-4.1-31.1,4.8-35.6,22.8C343.2,896.5,352.1,911.4,368.4,915.5z"/>
	<path class="st0" d="M339.9,840.6c1.7,0.6,2.4,2.3,1.8,4.1c-0.7,1.8-2.4,2.5-4,1.9c-1.7-0.6-2.4-2.3-1.8-4.1
		C336.6,840.8,338.3,840,339.9,840.6z"/>
</g>
</svg>
