<?xml version="1.0" encoding="utf-8"?>
<!-- Generator: Adobe Illustrator 24.3.0, SVG Export Plug-In . SVG Version: 6.00 Build 0)  -->
<svg version="1.1" id="Layer_1" xmlns="http://www.w3.org/2000/svg" xmlns:xlink="http://www.w3.org/1999/xlink" x="0px" y="0px"
	 viewBox="0 0 768 740" style="enable-background:new 0 0 768 740;" xml:space="preserve">
<style type="text/css">
	.st0{fill:#DDDDDD;}
</style>
<g>
	<path class="st0" d="M142.8,647.5l-27.6-21.8l93.2-60.9l33.6,26.5l-37.5,104.8l-27.6-21.8l27.9-70.4L142.8,647.5z"/>
	<path class="st0" d="M94.3,559.5c-5.7-9.6-5.6-19-1.2-26.4l-9.9,5.9l-16.9-28.3l72.2-43l16.9,28.3l-9.9,5.9
		c8.6-0.4,16.9,4,22.7,13.6c9.9,16.6,4.1,38-19.2,51.9C125.8,581.1,104.2,576.1,94.3,559.5z M113.5,535.2c3.5,5.9,10.5,8,18.4,3.2
		s9.4-11.9,5.9-17.7c-3.5-5.9-10.5-8-18.4-3.2C111.5,522.2,110,529.3,113.5,535.2z"/>
	<path class="st0" d="M129.7,427.4l8,32.1l-81.5,20.4l-8-32.1l15-3.8c-10.7-4.1-19.7-12.3-22.3-22.8l34.3-8.6l2.3,9.1
		c2.9,11.6,7.7,16.8,18.9,14L129.7,427.4z"/>
	<path class="st0" d="M17.4,403.6C8.2,404,0.5,397,0,385.3c-0.5-11.6,6.5-19.2,15.7-19.6c9.1-0.4,16.5,6.6,17.1,18.2
		C33.3,395.6,26.5,403.2,17.4,403.6z M40.2,400.2l-1.5-33l84-3.7l1.5,33L40.2,400.2z"/>
	<path class="st0" d="M129.1,316.7c-4.8,24.7-24.2,39-50.5,33.9s-38.9-25.6-34-50.4c4.8-24.7,23.9-39.1,49.7-34c2,0.4,4.4,1,6.3,1.7
		L90.4,320c8.4,1.2,11.5-2.3,12.4-6.7c0.8-4.2-1.1-6.9-3.3-8.5l6.7-34.4C123.2,277.3,133.2,295.9,129.1,316.7z M76.4,316.9l3.8-19.3
		c-5.7-1.1-9.2,2.8-10.1,7.6C69,310.6,70.9,314.7,76.4,316.9z"/>
	<path class="st0" d="M91.6,241.6l-4.6,9.3l-24.7-12.3l4.6-9.3l-18.1-9l14.7-29.6l18.1,9l6.1-12.3l24.7,12.3l-6.1,12.3l20.3,10.1
		c3.5,1.7,5.9,0.9,7.8-2.9l3.5-7.1l25.2,12.5l-5.6,11.2c-8.8,17.6-22.9,27.2-46.2,15.6L91.6,241.6z"/>
	<path class="st0" d="M142.4,118.6l24.7-26.9l55,123.7L197.6,242l-18.3-45.6l-82.5-28.3l24.9-27.1l42,17.2L142.4,118.6z"/>
	<path class="st0" d="M274.3,12.9L307,0l5.6,111.2l-39.8,15.7l-71.6-85.2l32.8-13l46.8,59.6L274.3,12.9z"/>
	<path class="st0" d="M374.3,15.6c11.2-0.2,19.3,4.6,23.4,12.1l-0.2-11.5l32.9-0.5l1.4,84l-32.9,0.5l-0.2-11.5
		c-3.9,7.7-11.9,12.7-23,12.9c-19.4,0.3-35-15.4-35.4-42.5S355,16,374.3,15.6z M385.8,44.4c-6.9,0.1-12.1,5.1-12,14.4
		s5.6,14.1,12.4,14c6.9-0.1,12.1-5.1,12-14.4C398.1,49.1,392.7,44.3,385.8,44.4z"/>
	<path class="st0" d="M471.1,112.7l-31.8-9.2l23.5-80.7l31.8,9.2l-4.3,14.9c8.9-7.2,20.5-10.8,31-7.7l-9.9,33.9l-9-2.6
		c-11.4-3.3-18.4-1.8-21.6,9.2L471.1,112.7z"/>
	<path class="st0" d="M539.7,49.1L569,64.6l-39.2,74.3l-29.3-15.4L539.7,49.1z M548.3,27.7c4.3-8.2,14.2-11.2,24.6-5.7
		c10.3,5.4,13.3,15.3,9,23.5c-4.2,8-14,11-24.3,5.5C547.2,45.5,544.1,35.8,548.3,27.7z"/>
	<path class="st0" d="M566.9,168.1c-18.9-16.7-21.4-40.6-3.7-60.7s41.8-20.6,60.7-3.9s21.6,40.3,4.2,60.1c-1.4,1.6-3.1,3.3-4.7,4.6
		l-39.8-35.1c-5.3,6.7-3.8,11.1-0.5,14.1c3.2,2.9,6.5,2.5,9.1,1.4l26.3,23.2C603.9,182.9,582.7,182.1,566.9,168.1z M593.4,122.5
		l14.7,13c3.8-4.4,2.3-9.3-1.4-12.6C602.6,119.3,598,118.9,593.4,122.5z"/>
	<path class="st0" d="M650.6,173.6l-5.7-8.7l23-15.1l5.7,8.7l16.9-11.1l18.2,27.6l-16.9,11.1l7.5,11.5l-23,15.1l-7.5-11.5
		l-18.9,12.4c-3.2,2.1-3.7,4.6-1.4,8.2l4.3,6.6L629.3,244l-6.9-10.5c-10.8-16.4-12-33.5,9.8-47.8L650.6,173.6z"/>
	<path class="st0" d="M731.3,279.5l10.7,34.9l-134.6-15l-10.6-34.6l48.7,7.2l66.1-56.9l10.8,35.2l-36.1,27.6L731.3,279.5z"/>
	<path class="st0" d="M756,446.7l-5.4,34.8l-98.9-51.1l6.5-42.3l109.7-19l-5.4,34.8l-75,10.4L756,446.7z"/>
	<path class="st0" d="M702.9,532.3c-5.6,9.7-13.8,14.2-22.4,13.9l9.9,5.7L674,580.5l-72.8-41.9l16.4-28.5l9.9,5.7
		c-4.6-7.3-4.8-16.7,0.7-26.4c9.7-16.8,31.1-22.1,54.6-8.6C706.4,494.3,712.6,515.6,702.9,532.3z M672.4,527.5
		c3.4-5.9,1.8-13-6.2-17.6s-14.9-2.4-18.4,3.5c-3.4,5.9-1.8,13,6.2,17.6S669,533.4,672.4,527.5z"/>
	<path class="st0" d="M570.4,566.2l24-22.8l57.8,61l-24,22.8l-10.7-11.3c1.7,11.3-1,23.2-8.9,30.6l-24.3-25.6l6.8-6.5
		c8.7-8.2,10.8-15,2.9-23.3L570.4,566.2z"/>
	<path class="st0" d="M590.8,657.5L562.7,675l-44.5-71.3l28.1-17.5L590.8,657.5z M605,675.7c4.9,7.8,2.6,17.9-7.4,24.1
		c-9.9,6.2-19.9,3.8-24.8-4c-4.8-7.7-2.4-17.6,7.4-23.8C590.2,665.8,600.2,668,605,675.7z"/>
	<path class="st0" d="M474.3,621.1c23.9-7.9,45.8,2,54.3,27.4c8.4,25.5-3.3,46.5-27.2,54.4c-23.9,7.9-45.7-1.7-54-26.7
		c-0.7-2-1.3-4.3-1.6-6.4l50.4-16.6c-3.1-7.9-7.7-8.9-11.9-7.5c-4.1,1.4-5.5,4.3-5.8,7.1l-33.2,11
		C442.9,645.6,454.2,627.7,474.3,621.1z M500.3,666.9l-18.7,6.2c1.8,5.5,6.9,6.7,11.6,5.1C498.5,676.5,501.2,672.8,500.3,666.9z"/>
	<path class="st0" d="M427.2,690.5l10.4-0.5l1.4,27.5l-10.4,0.5l1,20.2l-33,1.7l-1-20.2l-13.7,0.7l-1.4-27.5l13.7-0.7l-1.2-22.6
		c-0.2-3.9-2.1-5.6-6.4-5.3l-7.9,0.4l-1.4-28.1l12.5-0.6c19.6-1,34.9,6.6,36.3,32.6L427.2,690.5z"/>
	<path class="st0" d="M295.2,706.7l-35.5-8.3l80.7-108.7l35.3,8.3L345,636.4l15.9,85.7l-35.8-8.4l-5.7-45.1L295.2,706.7z"/>
</g>
</svg>
