<svg width="222" height="66" viewBox="0 0 222 66" fill="none" xmlns="http://www.w3.org/2000/svg">
<path d="M8.976 49H15.696L40.464 4.392H34.192L13.392 42.728L6.288 4.392H0.0160003L8.976 49ZM39.81 31.336C37.89 42.216 43.906 49.576 53.25 49.576C59.714 49.576 64.834 46.248 67.65 42.472L66.434 49H72.322L78.53 13.928H72.642L71.49 20.328C70.082 16.68 66.242 13.352 59.714 13.352C50.242 13.352 41.73 20.392 39.81 31.336ZM69.57 31.4C68.098 39.656 61.762 44.456 55.362 44.456C48.962 44.456 44.354 39.592 45.826 31.336C47.234 23.08 53.57 18.408 59.97 18.408C66.37 18.408 71.042 23.272 69.57 31.4ZM91.38 29.928C92.852 21.8 97.46 19.304 103.028 19.304H104.564L105.652 13.288C100.084 13.288 95.796 16.104 93.044 20.584L94.196 13.928H88.372L82.164 49H87.988L91.38 29.928ZM106.039 49H111.863L118.071 13.928H112.247L106.039 49ZM116.215 8.232C118.391 8.232 120.439 6.504 120.823 4.264C121.207 2.024 119.799 0.295998 117.623 0.295998C115.447 0.295998 113.399 2.024 113.015 4.264C112.631 6.504 114.039 8.232 116.215 8.232ZM142.141 18.28C148.157 18.28 152.573 22.056 151.293 29.224H129.085C130.877 22.184 136.381 18.28 142.141 18.28ZM155.005 38.184H148.733C146.813 41.96 143.037 44.648 137.789 44.648C131.709 44.648 127.421 40.616 128.317 33.448H156.349C156.733 32.232 156.989 31.208 157.181 29.992C158.845 20.52 153.405 13.352 143.229 13.352C133.053 13.352 124.669 20.328 122.685 31.4C120.701 42.536 126.909 49.576 136.893 49.576C145.597 49.576 152.061 44.584 155.005 38.184ZM164.421 39.4C163.205 46.44 166.277 49 172.485 49H177.733L178.628 44.072H174.341C170.757 44.072 169.669 42.856 170.309 39.4L173.957 18.728H183.109L183.941 13.928H174.853L176.389 5.096H170.501L168.965 13.928H164.421L163.589 18.728H168.069L164.421 39.4ZM194.837 48.616L184.917 65.512H190.997L221.205 13.928H215.189L199.253 42.216L193.301 13.928H186.837L194.837 48.616Z" fill="white"/>
</svg>
