<svg width="27" height="25" viewBox="0 0 27 25" fill="none" xmlns="http://www.w3.org/2000/svg">
<path d="M13.2 0C5.89001 1.92 0 4.66 0 13.15C0 19.82 5.89001 24.66 13.2 24.66C20.51 24.66 26.35 17.78 26.35 11.09C26.3 8.28 20.41 1.66 13.2 0ZM15.5 7C16.77 7.33 17.8 7.81 17.8 9.29C17.7823 9.57305 17.7085 9.84975 17.5829 10.104C17.4573 10.3583 17.2824 10.5851 17.0684 10.7712C16.8544 10.9573 16.6056 11.099 16.3363 11.188C16.0671 11.2771 15.7828 11.3118 15.5 11.29C14.8901 11.2529 14.3162 10.9892 13.8907 10.5508C13.4651 10.1123 13.2188 9.53069 13.2 8.92C13.2 8.4 14.2 7.25 15.45 6.96L15.5 7ZM9.33002 8.4C10.6 8.74 11.63 9.22 11.63 10.7C11.615 10.984 11.543 11.262 11.4182 11.5176C11.2935 11.7732 11.1187 12.0011 10.9041 12.1877C10.6895 12.3743 10.4395 12.5158 10.1691 12.6038C9.89871 12.6918 9.61334 12.7245 9.33002 12.7C8.72016 12.6629 8.14618 12.3992 7.72067 11.9608C7.29516 11.5223 7.04882 10.9407 7.03 10.33C6.98 9.81 8.01 8.66 9.28 8.36L9.33002 8.4ZM21.53 13.76C18.4 19.59 11.32 20.37 6.23001 17.12C5.88001 16.73 5.76001 16.07 5.95001 15.84C6.14001 15.61 6.22002 15.26 6.36002 15.23C6.54002 16.11 6.92001 15.17 7.20001 15.81C11.48 18.55 17.43 16.87 20.06 13.16C20.3477 12.8138 20.6085 12.4461 20.84 12.06C21.03 12.52 21.23 13.06 21.42 12.73C21.64 12.84 21.7 13.76 21.48 13.72L21.53 13.76Z" fill="#CAB62F"/>
</svg>
